<svg width="281" height="281" viewBox="0 0 281 281" fill="none" xmlns="http://www.w3.org/2000/svg">
<rect width="281" height="281" fill="#003259"/>
<path d="M70.9126 180.116L92.5621 158.467C54.459 98.4259 112.287 50.7007 148.851 56.4739L208.988 117.093C201.675 194.838 130.569 193.106 106.033 172.9C100.42 178.673 88.4246 190.989 85.3456 194.068C82.2665 197.147 78.9309 195.351 77.648 194.068L70.9126 187.333C67.4487 184.639 69.4693 181.399 70.9126 180.116Z" fill="#018FFF"/>
<path d="M107.465 147.002C80.1387 104.666 124.304 71.4698 147.878 76.7619V103.222C147.878 112.075 156.537 115.891 160.867 116.693H189.252C188.867 132.088 182.677 143.314 179.63 147.002C150.764 182.026 117.092 161.917 107.465 147.002Z" fill="#003259"/>
<path d="M147.9 104.591L148.863 56.4811L209 116.619C196.652 116.779 169.742 117.003 160.89 116.619C152.038 116.234 148.542 108.44 147.9 104.591Z" fill="#B0DCFF"/>
<rect opacity="0.66" x="112.299" y="92.5636" width="29.8282" height="8.65979" rx="4.3299" fill="#018FFF"/>
<rect opacity="0.66" x="112.299" y="108.921" width="29.8282" height="8.65979" rx="4.3299" fill="#018FFF"/>
<rect opacity="0.66" x="112.299" y="125.278" width="60.6186" height="8.65979" rx="4.3299" fill="#018FFF"/>
<rect opacity="0.66" x="112.299" y="141.636" width="60.6186" height="8.65979" rx="4.3299" fill="#018FFF"/>
<path d="M43.5312 214.5C44.9896 214.583 46.1875 215.146 47.125 216.188C48.0625 217.208 48.7396 218.375 49.1562 219.688C49.5729 221 49.7812 222.344 49.7812 223.719C49.7812 225.094 49.5729 226.438 49.1562 227.75C48.7604 229.062 48.0833 230.24 47.125 231.281C46.1875 232.302 44.9896 232.854 43.5312 232.938H32.0312C31.4688 232.917 30.9896 232.719 30.5938 232.344C30.2188 231.948 30.0208 231.469 30 230.906V223.156C30.0208 222.573 30.2396 222.094 30.6562 221.719C31.0729 221.323 31.5729 221.125 32.1562 221.125C32.7188 221.146 33.1979 221.354 33.5938 221.75C33.9896 222.125 34.1979 222.594 34.2188 223.156V227.906C34.2188 228.469 34.5104 228.75 35.0938 228.75H42.4688C43.2604 228.708 43.9167 228.406 44.4375 227.844C44.9583 227.281 45.3333 226.646 45.5625 225.938C45.8125 225.208 45.9375 224.469 45.9375 223.719C45.9375 222.969 45.8125 222.24 45.5625 221.531C45.3333 220.802 44.9583 220.156 44.4375 219.594C43.9167 219.031 43.2604 218.729 42.4688 218.688H32.0312C30.7812 218.583 30.1042 217.906 30 216.656C30 216.073 30.1875 215.573 30.5625 215.156C30.9583 214.74 31.4479 214.521 32.0312 214.5H43.5312ZM59.6562 232.938C57.8229 232.875 56.4375 232.448 55.5 231.656C54.5625 230.844 53.8854 229.938 53.4688 228.938C53.0521 227.917 52.8438 226.885 52.8438 225.844C52.8438 224.76 53.0417 223.719 53.4375 222.719C53.8542 221.698 54.5312 220.792 55.4688 220C56.4271 219.188 57.6354 218.771 59.0938 218.75H69.2188C70.6771 218.771 71.875 219.188 72.8125 220C73.7708 220.792 74.4479 221.698 74.8438 222.719C75.2604 223.719 75.4688 224.76 75.4688 225.844C75.4688 226.885 75.2604 227.917 74.8438 228.938C74.4271 229.938 73.75 230.844 72.8125 231.656C71.875 232.448 70.4896 232.875 68.6562 232.938H59.6562ZM58.9688 222.938C58.5729 222.938 58.2292 223.104 57.9375 223.438C57.6458 223.75 57.4271 224.125 57.2812 224.562C57.1562 224.979 57.0938 225.396 57.0938 225.812C57.0938 226.25 57.1562 226.688 57.2812 227.125C57.4271 227.542 57.6458 227.917 57.9375 228.25C58.2292 228.562 58.5729 228.729 58.9688 228.75H69.3438C69.7396 228.729 70.0833 228.562 70.375 228.25C70.6667 227.917 70.875 227.542 71 227.125C71.1458 226.688 71.2188 226.25 71.2188 225.812C71.2188 225.396 71.1458 224.979 71 224.562C70.875 224.125 70.6667 223.75 70.375 223.438C70.0833 223.104 69.7396 222.938 69.3438 222.938H58.9688ZM85.4062 232.938C83.5729 232.875 82.1875 232.448 81.25 231.656C80.3125 230.844 79.6354 229.938 79.2188 228.938C78.8021 227.917 78.5938 226.885 78.5938 225.844C78.5938 224.76 78.7917 223.719 79.1875 222.719C79.6042 221.698 80.2812 220.792 81.2188 220C82.1771 219.188 83.3854 218.771 84.8438 218.75H96.7188C97.3021 218.75 97.7917 218.958 98.1875 219.375C98.6042 219.771 98.8125 220.26 98.8125 220.844C98.8125 221.427 98.6042 221.927 98.1875 222.344C97.7917 222.74 97.3021 222.938 96.7188 222.938H84.7188C84.3229 222.938 83.9792 223.104 83.6875 223.438C83.3958 223.75 83.1771 224.125 83.0312 224.562C82.9062 224.979 82.8438 225.396 82.8438 225.812C82.8438 226.25 82.9062 226.688 83.0312 227.125C83.1771 227.542 83.3958 227.917 83.6875 228.25C83.9792 228.562 84.3229 228.729 84.7188 228.75H96.7188C97.3021 228.75 97.7917 228.958 98.1875 229.375C98.6042 229.771 98.8125 230.26 98.8125 230.844C98.8125 231.427 98.6042 231.917 98.1875 232.312C97.7917 232.729 97.3021 232.938 96.7188 232.938H85.4062Z" fill="#018FFF"/>
<path d="M109.219 218.688C108.427 218.729 107.76 219.031 107.219 219.594C106.698 220.156 106.323 220.802 106.094 221.531C105.865 222.24 105.75 222.969 105.75 223.719C105.75 224.469 105.854 225.208 106.062 225.938C106.292 226.667 106.677 227.312 107.219 227.875C107.76 228.417 108.427 228.708 109.219 228.75H119.531C120.844 228.875 121.562 229.594 121.688 230.906C121.667 231.49 121.448 231.979 121.031 232.375C120.615 232.75 120.115 232.938 119.531 232.938H109.562H108.125C106.667 232.854 105.469 232.302 104.531 231.281C103.594 230.24 102.917 229.062 102.5 227.75C102.104 226.438 101.906 225.094 101.906 223.719C101.906 222.698 102.021 221.688 102.25 220.688C102.479 219.688 102.833 218.74 103.312 217.844C103.812 216.927 104.469 216.146 105.281 215.5C106.115 214.854 107.062 214.521 108.125 214.5H108.719H119.531C120.844 214.625 121.562 215.344 121.688 216.656C121.688 217.24 121.469 217.729 121.031 218.125C120.615 218.5 120.115 218.688 119.531 218.688H109.219ZM126.719 214C127.281 214.021 127.76 214.229 128.156 214.625C128.552 215 128.76 215.469 128.781 216.031V231.344C128.656 232.594 127.969 233.271 126.719 233.375C126.135 233.375 125.625 233.188 125.188 232.812C124.771 232.417 124.562 231.927 124.562 231.344V216.031C124.583 215.448 124.802 214.969 125.219 214.594C125.635 214.198 126.135 214 126.719 214ZM142.719 233.469C141.635 233.469 140.562 233.344 139.5 233.094C138.458 232.844 137.458 232.479 136.5 232C135.542 231.5 134.698 230.844 133.969 230.031C133.24 229.219 132.844 228.25 132.781 227.125V225.812V220.469C132.781 219.885 132.99 219.406 133.406 219.031C133.844 218.635 134.354 218.438 134.938 218.438C136.188 218.542 136.865 219.219 136.969 220.469V221.844V226.156C137.01 226.802 137.25 227.344 137.688 227.781C138.146 228.198 138.646 228.531 139.188 228.781C139.75 229.031 140.323 229.219 140.906 229.344C141.51 229.469 142.115 229.531 142.719 229.531C143.323 229.531 143.917 229.469 144.5 229.344C145.104 229.219 145.677 229.031 146.219 228.781C146.781 228.531 147.281 228.198 147.719 227.781C148.177 227.344 148.427 226.802 148.469 226.156V221.844V220.469C148.469 219.885 148.677 219.406 149.094 219.031C149.531 218.635 150.042 218.438 150.625 218.438C151.875 218.542 152.562 219.219 152.688 220.469V225.812V227.125C152.625 228.25 152.219 229.219 151.469 230.031C150.74 230.844 149.896 231.5 148.938 232C147.979 232.479 146.969 232.844 145.906 233.094C144.865 233.344 143.802 233.469 142.719 233.469ZM176.531 220.562C176.531 221.083 176.323 221.521 175.906 221.875C175.51 222.208 175.021 222.375 174.438 222.375H161.219C160.948 222.375 160.729 222.427 160.562 222.531C160.396 222.635 160.271 222.75 160.188 222.875C160.104 222.979 160.062 223.073 160.062 223.156C160.062 223.26 160.104 223.375 160.188 223.5C160.271 223.604 160.396 223.708 160.562 223.812C160.729 223.896 160.948 223.948 161.219 223.969H171.438C172.75 223.99 173.833 224.25 174.688 224.75C175.542 225.229 176.146 225.802 176.5 226.469C176.875 227.115 177.062 227.771 177.062 228.438C177.062 229.083 176.875 229.74 176.5 230.406C176.125 231.052 175.51 231.625 174.656 232.125C173.823 232.604 172.75 232.844 171.438 232.844C171.208 232.865 171.042 232.875 170.938 232.875H158.812C158.229 232.875 157.729 232.708 157.312 232.375C156.917 232.021 156.719 231.594 156.719 231.094C156.719 230.573 156.927 230.135 157.344 229.781C157.74 229.448 158.229 229.281 158.812 229.281H171.688C172 229.302 172.25 229.26 172.438 229.156C172.646 229.052 172.802 228.938 172.906 228.812C173.01 228.688 173.062 228.562 173.062 228.438C173.062 228.375 173.01 228.271 172.906 228.125C172.802 227.958 172.646 227.833 172.438 227.75C172.25 227.646 172 227.583 171.688 227.562H161.438C160.229 227.542 159.229 227.292 158.438 226.812C157.646 226.312 157.083 225.74 156.75 225.094C156.417 224.448 156.25 223.802 156.25 223.156C156.25 222.51 156.417 221.875 156.75 221.25C157.104 220.604 157.667 220.052 158.438 219.594C159.229 219.115 160.229 218.854 161.438 218.812C161.646 218.792 161.802 218.781 161.906 218.781H174.438C175.021 218.781 175.51 218.958 175.906 219.312C176.323 219.646 176.531 220.062 176.531 220.562ZM187.312 214C187.896 214 188.396 214.198 188.812 214.594C189.229 214.969 189.448 215.448 189.469 216.031V218.75H200.094C200.677 218.75 201.177 218.948 201.594 219.344C201.99 219.76 202.188 220.26 202.188 220.844C202.188 221.427 201.979 221.927 201.562 222.344C201.167 222.74 200.677 222.938 200.094 222.938H189.469V223.562C189.448 224.417 189.5 225.208 189.625 225.938C189.771 226.646 190.104 227.281 190.625 227.844C191.146 228.406 191.802 228.708 192.594 228.75H200.219C200.802 228.771 201.281 228.99 201.656 229.406C202.052 229.823 202.25 230.323 202.25 230.906C202.229 231.469 202.021 231.948 201.625 232.344C201.25 232.719 200.781 232.917 200.219 232.938H191.531C190.073 232.854 188.865 232.365 187.906 231.469C186.969 230.552 186.292 229.438 185.875 228.125C185.479 226.812 185.271 225.417 185.25 223.938V222.938H181.656C181.073 222.938 180.583 222.729 180.188 222.312C179.771 221.917 179.562 221.427 179.562 220.844C179.562 220.26 179.76 219.771 180.156 219.375C180.573 218.958 181.073 218.75 181.656 218.75H185.25V216.031C185.271 215.469 185.479 215 185.875 214.625C186.271 214.229 186.75 214.021 187.312 214ZM211.719 232.938C209.885 232.875 208.5 232.448 207.562 231.656C206.625 230.844 205.948 229.938 205.531 228.938C205.115 227.917 204.906 226.885 204.906 225.844C204.906 224.76 205.104 223.719 205.5 222.719C205.917 221.698 206.594 220.792 207.531 220C208.49 219.188 209.698 218.771 211.156 218.75H221.281C222.74 218.771 223.938 219.188 224.875 220C225.833 220.792 226.51 221.698 226.906 222.719C227.323 223.719 227.531 224.76 227.531 225.844C227.531 226.885 227.323 227.917 226.906 228.938C226.49 229.938 225.812 230.844 224.875 231.656C223.938 232.448 222.552 232.875 220.719 232.938H211.719ZM211.031 222.938C210.635 222.938 210.292 223.104 210 223.438C209.708 223.75 209.49 224.125 209.344 224.562C209.219 224.979 209.156 225.396 209.156 225.812C209.156 226.25 209.219 226.688 209.344 227.125C209.49 227.542 209.708 227.917 210 228.25C210.292 228.562 210.635 228.729 211.031 228.75H221.406C221.802 228.729 222.146 228.562 222.438 228.25C222.729 227.917 222.938 227.542 223.062 227.125C223.208 226.688 223.281 226.25 223.281 225.812C223.281 225.396 223.208 224.979 223.062 224.562C222.938 224.125 222.729 223.75 222.438 223.438C222.146 223.104 221.802 222.938 221.406 222.938H211.031ZM231.781 222.688C232.177 221.688 232.844 220.792 233.781 220C234.74 219.188 235.948 218.771 237.406 218.75H249.156C249.74 218.75 250.229 218.958 250.625 219.375C251.042 219.771 251.25 220.26 251.25 220.844C251.25 221.427 251.042 221.927 250.625 222.344C250.229 222.74 249.74 222.938 249.156 222.938H237.281C236.885 222.938 236.542 223.104 236.25 223.438C235.958 223.75 235.729 224.125 235.562 224.562C235.417 225 235.344 225.417 235.344 225.812V231.281C235.219 232.531 234.531 233.208 233.281 233.312C232.698 233.312 232.188 233.125 231.75 232.75C231.333 232.354 231.125 231.865 231.125 231.281V225.844H231.156C231.156 224.76 231.365 223.708 231.781 222.688Z" fill="white"/>
</svg>
