<svg width="382" height="284" viewBox="0 0 382 284" fill="none" xmlns="http://www.w3.org/2000/svg">
<path d="M381.147 249.575H0.000183105V249.765H381.147V249.575Z" fill="#EBEBEB"/>
<path d="M240.633 254.766H221.225V254.957H240.633V254.766Z" fill="#EBEBEB"/>
<path d="M347.179 258.89H301.19V259.081H347.179V258.89Z" fill="#EBEBEB"/>
<path d="M217.094 254.857H169.58V255.048H217.094V254.857Z" fill="#EBEBEB"/>
<path d="M138.768 260.56H128.828V260.75H138.768V260.56Z" fill="#EBEBEB"/>
<path d="M193.691 260.56H148.426V260.75H193.691V260.56Z" fill="#EBEBEB"/>
<path d="M69.3002 257.343H39.99V257.533H69.3002V257.343Z" fill="#EBEBEB"/>
<path d="M180.664 215.577H33.4723C32.3192 215.575 31.2141 215.115 30.3994 214.299C29.5848 213.483 29.1273 212.377 29.1273 211.224V4.31458C29.1373 3.16811 29.5993 2.0719 30.4128 1.26405C31.2264 0.456201 32.3258 0.00196396 33.4723 0H180.664C181.818 0 182.925 0.458586 183.741 1.27488C184.558 2.09116 185.016 3.19829 185.016 4.35269V211.224C185.016 212.378 184.558 213.485 183.741 214.302C182.925 215.118 181.818 215.577 180.664 215.577ZM33.4723 0.152459C32.3698 0.154479 31.3131 0.593876 30.5342 1.37421C29.7553 2.15454 29.3178 3.21204 29.3178 4.31458V211.224C29.3178 212.326 29.7553 213.384 30.5342 214.164C31.3131 214.945 32.3698 215.384 33.4723 215.386H180.664C181.767 215.384 182.824 214.945 183.604 214.165C184.385 213.385 184.824 212.327 184.826 211.224V4.31458C184.824 3.21134 184.385 2.15385 183.604 1.37374C182.824 0.593629 181.767 0.154474 180.664 0.152459H33.4723Z" fill="#EBEBEB"/>
<path d="M345.555 215.577H198.356C197.203 215.575 196.097 215.115 195.281 214.299C194.465 213.484 194.006 212.378 194.004 211.224V4.31458C194.016 3.16742 194.479 2.07121 195.294 1.26357C196.109 0.455934 197.209 0.00194254 198.356 0H345.555C346.701 0.00396735 347.798 0.459091 348.61 1.26672C349.422 2.07436 349.883 3.16943 349.893 4.31458V211.224C349.893 212.376 349.436 213.48 348.623 214.296C347.81 215.112 346.707 215.573 345.555 215.577ZM198.356 0.152459C197.253 0.154474 196.196 0.593629 195.416 1.37374C194.636 2.15385 194.196 3.21134 194.194 4.31458V211.224C194.196 212.327 194.636 213.385 195.416 214.165C196.196 214.945 197.253 215.384 198.356 215.386H345.555C346.659 215.384 347.716 214.945 348.496 214.165C349.276 213.385 349.715 212.327 349.717 211.224V4.31458C349.715 3.21134 349.276 2.15385 348.496 1.37374C347.716 0.593629 346.659 0.154474 345.555 0.152459H198.356Z" fill="#EBEBEB"/>
<path d="M149.379 183.461H98.7629L95.6908 148.015H146.307L149.379 183.461Z" fill="#E6E6E6"/>
<path d="M152.001 183.461H101.385L98.3131 148.015H148.929L152.001 183.461Z" fill="#F0F0F0"/>
<path d="M108.307 175.846L106.614 155.622H142.008L143.7 175.846H108.307Z" fill="white"/>
<path d="M160.76 183.461H154.822V249.575H160.76V183.461Z" fill="#E6E6E6"/>
<path d="M162.636 183.461H158.512V249.575H162.636V183.461Z" fill="#F0F0F0"/>
<path d="M105.151 190.756H162.636V183.461H105.151V190.756Z" fill="#F0F0F0"/>
<path d="M107.178 190.756H101.24V249.575H107.178V190.756Z" fill="#E6E6E6"/>
<path d="M109.054 190.756H104.93V249.575H109.054V190.756Z" fill="#F0F0F0"/>
<path d="M64.9093 190.756H58.971V249.575H64.9093V190.756Z" fill="#E6E6E6"/>
<path d="M66.7846 190.756H62.6606V249.575H66.7846V190.756Z" fill="#F0F0F0"/>
<path d="M123.179 190.756H117.241V249.575H123.179V190.756Z" fill="#E6E6E6"/>
<path d="M125.047 190.756H120.923V249.575H125.047V190.756Z" fill="#F0F0F0"/>
<path d="M105.151 183.461H58.971V190.756H105.151V183.461Z" fill="#E6E6E6"/>
<path d="M277.353 18.6074H98.7245V118.056H277.353V18.6074Z" fill="#E0E0E0"/>
<path d="M287.164 18.6074H99.6243V118.056H287.164V18.6074Z" fill="#F5F5F5"/>
<path d="M284.099 114.992V21.6719L102.689 21.6719V114.992L284.099 114.992Z" fill="white"/>
<path d="M176.143 114.992L210.393 21.6719H153.869L119.619 114.992H176.143Z" fill="#F5F5F5"/>
<path d="M230.548 114.992L264.798 21.6719H222.155L187.905 114.992H230.548Z" fill="#F5F5F5"/>
<path d="M333.968 154.593H318.783V249.575H333.968V154.593Z" fill="#E6E6E6"/>
<path d="M329.974 249.575H333.969V242.265H325.789L329.974 249.575Z" fill="#FAFAFA"/>
<path d="M193.965 154.593H178.781V249.575H193.965V154.593Z" fill="#E6E6E6"/>
<path d="M333.968 154.593H190.482V247.601H333.968V154.593Z" fill="#FAFAFA"/>
<path d="M331.255 184.605H193.203V158.336H331.255V184.605ZM193.966 183.842H330.493V159.098H193.966V183.842Z" fill="#E6E6E6"/>
<path d="M306.953 171.089H220.181C216.156 171.089 212.276 167.842 209.509 162.17L209.25 161.629H317.877L317.617 162.17C314.827 167.842 311.016 171.089 306.953 171.089ZM210.5 162.368C213.076 167.422 216.598 170.304 220.181 170.304H306.953C310.551 170.304 314.057 167.422 316.634 162.368H210.5Z" fill="#E6E6E6"/>
<path d="M194.476 249.575H190.482V242.265H198.661L194.476 249.575Z" fill="#FAFAFA"/>
<path d="M331.255 214.204H193.203V187.966H331.255V214.204ZM193.966 213.442H330.493V188.729H193.966V213.442Z" fill="#E6E6E6"/>
<path d="M306.953 200.72H220.181C216.156 200.72 212.276 197.465 209.509 191.801L209.25 191.252H317.877L317.617 191.801C314.827 197.434 311.016 200.72 306.953 200.72ZM210.5 192.014C213.076 197.068 216.598 199.957 220.181 199.957H306.953C310.551 199.957 314.057 197.068 316.634 192.014H210.5Z" fill="#E6E6E6"/>
<path d="M331.255 243.857H193.203V217.589H331.255V243.857ZM193.966 243.095H330.493V218.351H193.966V243.095Z" fill="#E6E6E6"/>
<path d="M306.953 230.342H220.181C216.156 230.342 212.276 227.095 209.509 221.431L209.25 220.882H317.877L317.617 221.431C314.827 227.095 311.016 230.342 306.953 230.342ZM210.5 221.645C213.076 226.699 216.598 229.58 220.181 229.58H306.953C310.551 229.58 314.057 226.699 316.634 221.645H210.5Z" fill="#E6E6E6"/>
<path d="M92.2223 167.156V169.001H91.0484L90.0727 183.461H75.7111L74.743 169.001H73.5614V167.156H92.2223Z" fill="#E6E6E6"/>
<path d="M87.4963 131.274C86.3224 122.661 74.6974 120.206 59.947 119.886C45.9132 119.589 41.4156 114.626 41.4156 114.626C41.4156 114.626 41.4614 134.728 61.685 142.015C80.8872 148.922 88.6778 139.904 87.4963 131.274Z" fill="#E6E6E6"/>
<path d="M80.3306 150.797C80.5746 147.26 86.2308 140.75 99.8377 143.708C109.671 145.85 113.33 140.75 113.33 140.75C113.33 140.75 112.416 155.142 97.6271 159.464C83.578 163.573 79.8961 157.033 80.3306 150.797Z" fill="#E6E6E6"/>
<path d="M83.4332 172.583C83.5098 172.584 83.5856 172.568 83.6554 172.536C83.7252 172.505 83.7873 172.458 83.8372 172.4C84.8206 171.234 84.0125 168.444 82.8996 164.579C81.4665 159.624 79.6827 153.45 81.192 148.975C82.0287 146.611 83.0061 144.3 84.1193 142.053C86.2537 137.541 88.0984 133.668 86.5586 129.567C86.5346 129.502 86.4979 129.442 86.4506 129.391C86.4033 129.34 86.3463 129.299 86.2831 129.27C86.2198 129.241 86.1514 129.225 86.082 129.223C86.0125 129.221 85.9432 129.232 85.8782 129.257C85.8132 129.282 85.7538 129.319 85.7033 129.367C85.6528 129.415 85.6123 129.472 85.5841 129.535C85.556 129.599 85.5407 129.668 85.5391 129.737C85.5376 129.807 85.5499 129.876 85.5752 129.94C86.955 133.592 85.2856 137.129 83.1664 141.611C82.0391 143.894 81.0464 146.241 80.1934 148.639C78.585 153.427 80.4145 159.777 81.8857 164.869C82.7547 167.918 83.6543 170.967 83.0368 171.729C82.9878 171.782 82.9503 171.844 82.9266 171.912C82.903 171.98 82.8937 172.052 82.8995 172.124C82.9052 172.196 82.9258 172.265 82.9599 172.329C82.9941 172.392 83.041 172.447 83.0978 172.492C83.1952 172.561 83.3141 172.593 83.4332 172.583Z" fill="#E6E6E6"/>
<path d="M190.573 284C272.202 284 338.374 280.137 338.374 275.371C338.374 270.605 272.202 266.742 190.573 266.742C108.945 266.742 42.7722 270.605 42.7722 275.371C42.7722 280.137 108.945 284 190.573 284Z" fill="#F5F5F5"/>
<path d="M190.543 233.3H82.2973L76.3743 59.2153H184.62L190.543 233.3Z" fill="#407BFF"/>
<path d="M195.948 227.895H87.702L81.7714 53.8105H190.017L195.948 227.895Z" fill="#407BFF"/>
<path opacity="0.3" d="M195.948 227.895H87.702L81.7714 53.8105H190.017L195.948 227.895Z" fill="white"/>
<path d="M159.68 125.446C171.27 113.656 170.777 94.3776 158.579 82.3862C146.38 70.3948 127.096 70.2315 115.506 82.0215C103.916 93.8115 104.409 113.09 116.607 125.082C128.806 137.073 148.09 137.236 159.68 125.446Z" fill="#407BFF"/>
<path d="M162.727 103.741C162.883 107.889 161.978 112.008 160.097 115.709C158.067 119.697 154.967 123.04 151.143 125.364C147.319 127.688 142.923 128.901 138.448 128.866C133.868 128.841 129.375 127.613 125.42 125.303C121.465 122.994 118.187 119.685 115.915 115.709C113.796 112.065 112.612 107.953 112.469 103.741C112.328 100.474 112.853 97.2136 114.012 94.1563C115.17 91.0991 116.939 88.3093 119.209 85.9566C121.479 83.6038 124.203 81.737 127.217 80.4698C130.231 79.2026 133.471 78.5614 136.74 78.5851C143.475 78.6328 149.933 81.2731 154.773 85.9576C159.612 90.6421 162.461 97.0108 162.727 103.741Z" fill="white"/>
<path opacity="0.6" d="M160.082 115.709C158.052 119.697 154.951 123.04 151.127 125.364C147.303 127.688 142.907 128.901 138.433 128.866C133.853 128.841 129.36 127.612 125.405 125.303C121.45 122.994 118.172 119.685 115.899 115.709C122.346 111.313 129.974 108.977 137.777 109.008C145.705 109.025 153.456 111.354 160.082 115.709Z" fill="#407BFF"/>
<path opacity="0.6" d="M145.424 103.114C149.686 98.7787 149.505 91.6897 145.02 87.2804C140.534 82.871 133.443 82.811 129.181 87.1463C124.92 91.4816 125.101 98.5706 129.586 102.98C134.072 107.389 141.163 107.449 145.424 103.114Z" fill="#407BFF"/>
<path d="M174.199 164.854H105.151L104.686 151.132H173.734L174.199 164.854Z" fill="white"/>
<path d="M175.038 189.377H105.982L105.517 175.656H174.573L175.038 189.377Z" fill="white"/>
<path d="M148.388 177.546L131.747 179.833C131.588 179.851 131.435 179.902 131.297 179.982C131.159 180.062 131.039 180.17 130.944 180.299C130.85 180.428 130.783 180.575 130.748 180.731C130.713 180.887 130.711 181.048 130.741 181.205L132.929 192.358C133 192.685 133.192 192.974 133.466 193.167C133.739 193.36 134.075 193.444 134.408 193.402L151.049 191.115C151.207 191.095 151.36 191.043 151.497 190.961C151.634 190.88 151.753 190.771 151.847 190.642C151.941 190.512 152.007 190.365 152.041 190.209C152.076 190.053 152.078 189.892 152.047 189.735L149.867 178.583C149.795 178.256 149.604 177.968 149.33 177.776C149.056 177.584 148.72 177.502 148.388 177.546ZM143.609 188.843L140.559 189.248L140.262 185.649C139.948 185.514 139.671 185.304 139.455 185.039C139.238 184.773 139.089 184.46 139.02 184.125C138.964 183.865 138.963 183.597 139.017 183.337C139.071 183.077 139.179 182.831 139.335 182.616C139.49 182.4 139.688 182.219 139.918 182.085C140.147 181.952 140.402 181.867 140.666 181.838C141.208 181.768 141.755 181.904 142.201 182.219C142.647 182.534 142.959 183.004 143.075 183.538C143.141 183.86 143.121 184.194 143.016 184.506C142.912 184.818 142.727 185.097 142.48 185.314L143.609 188.843Z" fill="#407BFF"/>
<path d="M146.742 176.944C146.447 176.981 146.15 176.908 145.907 176.737C145.665 176.566 145.495 176.311 145.43 176.022L145.217 174.931C144.912 173.444 144.079 172.117 142.87 171.198C141.662 170.278 140.161 169.828 138.646 169.931C137.881 169.974 137.135 170.182 136.458 170.54C135.781 170.897 135.189 171.396 134.722 172.003C134.254 172.61 133.923 173.31 133.751 174.056C133.578 174.802 133.568 175.576 133.722 176.326L133.966 177.584C133.994 177.724 133.993 177.867 133.963 178.006C133.932 178.145 133.873 178.276 133.789 178.391C133.705 178.506 133.598 178.602 133.475 178.673C133.352 178.744 133.215 178.789 133.074 178.804C132.779 178.845 132.48 178.773 132.236 178.601C131.993 178.43 131.823 178.173 131.762 177.882L131.557 176.822C131.347 175.832 131.34 174.809 131.536 173.816C131.732 172.823 132.127 171.88 132.696 171.043C133.266 170.207 133.999 169.494 134.851 168.948C135.703 168.401 136.657 168.033 137.655 167.865C139.819 167.502 142.04 167.985 143.857 169.216C145.674 170.447 146.947 172.33 147.412 174.474L147.656 175.724C147.685 175.865 147.683 176.011 147.651 176.151C147.62 176.292 147.559 176.424 147.472 176.539C147.386 176.654 147.276 176.75 147.15 176.82C147.024 176.889 146.885 176.932 146.742 176.944Z" fill="#407BFF"/>
<path d="M163.642 208.594H118.689L118.392 199.66H163.337L163.642 208.594Z" fill="#407BFF"/>
<path d="M141.955 157.993C141.968 158.319 141.915 158.644 141.799 158.949C141.683 159.254 141.506 159.532 141.28 159.767C141.053 160.001 140.781 160.187 140.481 160.313C140.18 160.44 139.857 160.504 139.53 160.501C138.858 160.496 138.214 160.233 137.73 159.766C137.246 159.3 136.96 158.665 136.931 157.993C136.918 157.668 136.971 157.342 137.087 157.037C137.202 156.733 137.379 156.455 137.606 156.22C137.832 155.986 138.104 155.8 138.405 155.673C138.706 155.547 139.029 155.483 139.355 155.485C140.028 155.489 140.673 155.751 141.158 156.218C141.642 156.685 141.927 157.321 141.955 157.993Z" fill="#263238"/>
<path d="M131.114 157.993C131.129 158.319 131.077 158.645 130.961 158.95C130.846 159.256 130.669 159.534 130.442 159.769C130.215 160.004 129.943 160.19 129.642 160.316C129.34 160.442 129.017 160.505 128.69 160.501C128.019 160.496 127.375 160.233 126.893 159.766C126.41 159.299 126.126 158.664 126.099 157.993C126.085 157.668 126.138 157.342 126.254 157.037C126.37 156.733 126.547 156.455 126.773 156.22C127 155.986 127.272 155.8 127.573 155.673C127.873 155.547 128.196 155.483 128.523 155.485C129.195 155.489 129.839 155.752 130.322 156.219C130.805 156.686 131.089 157.322 131.114 157.993Z" fill="#263238"/>
<path d="M120.343 157.993C120.357 158.319 120.304 158.644 120.188 158.949C120.072 159.254 119.895 159.532 119.669 159.767C119.442 160.001 119.17 160.187 118.869 160.313C118.569 160.44 118.245 160.504 117.919 160.501C117.247 160.498 116.603 160.235 116.12 159.768C115.637 159.301 115.353 158.665 115.327 157.993C115.314 157.668 115.367 157.342 115.483 157.037C115.599 156.733 115.776 156.455 116.002 156.22C116.229 155.986 116.501 155.8 116.801 155.673C117.102 155.547 117.425 155.483 117.752 155.485C118.423 155.489 119.068 155.752 119.551 156.219C120.034 156.686 120.318 157.322 120.343 157.993Z" fill="#263238"/>
<path d="M152.756 157.993C152.77 158.319 152.717 158.644 152.601 158.949C152.485 159.254 152.308 159.532 152.081 159.766C151.855 160.001 151.583 160.187 151.282 160.313C150.981 160.439 150.658 160.503 150.332 160.501C149.66 160.498 149.015 160.235 148.533 159.768C148.05 159.3 147.766 158.665 147.74 157.993C147.729 157.668 147.784 157.344 147.901 157.041C148.019 156.738 148.196 156.462 148.424 156.23C148.651 155.997 148.923 155.813 149.224 155.689C149.524 155.565 149.847 155.504 150.172 155.508C150.839 155.513 151.478 155.774 151.959 156.236C152.44 156.698 152.725 157.327 152.756 157.993Z" fill="#263238"/>
<path d="M163.558 157.993C163.572 158.319 163.52 158.645 163.405 158.95C163.289 159.256 163.112 159.534 162.885 159.769C162.659 160.004 162.386 160.19 162.085 160.316C161.784 160.442 161.46 160.505 161.134 160.501C160.462 160.496 159.819 160.233 159.336 159.766C158.854 159.299 158.569 158.664 158.542 157.993C158.528 157.668 158.581 157.342 158.697 157.037C158.813 156.733 158.99 156.455 159.217 156.22C159.443 155.986 159.715 155.8 160.016 155.673C160.317 155.547 160.64 155.483 160.966 155.485C161.638 155.489 162.283 155.752 162.765 156.219C163.248 156.686 163.532 157.322 163.558 157.993Z" fill="#263238"/>
<path d="M254.537 90.9263C255.551 92.5576 256.397 94.1127 257.266 95.7363C258.135 97.36 258.92 98.9913 259.69 100.661C261.261 104.041 262.561 107.541 263.578 111.127C263.715 111.577 263.814 112.057 263.928 112.522L264.096 113.231L264.18 113.582L264.279 114.161C264.451 115.475 264.371 116.81 264.043 118.094C263.517 120.088 262.716 122 261.664 123.773C259.783 126.997 257.509 129.975 254.895 132.639L251.686 130.215C253.297 127.254 254.73 124.199 255.978 121.067C256.534 119.688 256.925 118.247 257.144 116.776C257.214 116.326 257.193 115.868 257.083 115.426L256.778 114.496C256.656 114.115 256.542 113.734 256.397 113.345C255.238 110.201 253.896 107.126 252.38 104.137C250.855 101.088 249.216 98.0385 247.577 95.1265L254.537 90.9263Z" fill="#FF8B7B"/>
<path d="M252.502 129.155L248.995 131.008L253.02 135.719C253.02 135.719 255.536 134.019 255.65 131.427L252.502 129.155Z" fill="#FF8B7B"/>
<path d="M244.292 133.912L248.599 137.334L253.02 135.718L248.995 131.007L244.292 133.912Z" fill="#FF8B7B"/>
<path d="M229.564 65.984C229.481 66.4109 229.183 66.7082 228.909 66.6548C228.634 66.6015 228.474 66.2051 228.558 65.7858C228.642 65.3665 228.939 65.0235 229.221 65.115C229.503 65.2065 229.648 65.5571 229.564 65.984Z" fill="#263238"/>
<path d="M229.221 66.7158C228.454 67.9098 227.525 68.9923 226.462 69.9327C226.713 70.1929 227.017 70.3958 227.354 70.5274C227.691 70.659 228.052 70.7161 228.413 70.695L229.221 66.7158Z" fill="#FF5652"/>
<path d="M227.849 81.672V76.6714L234.466 77.4337C234.466 77.4337 234.359 81.733 230.655 82.9984L227.849 81.672Z" fill="#FF8B7B"/>
<path d="M229.755 73.0732L234.412 74.4149L234.496 77.4717L227.88 76.6713L229.755 73.0732Z" fill="#FF8B7B"/>
<path opacity="0.2" d="M234.413 74.4149L229.755 73.0732L228.848 74.8113C228.897 76.1808 229.325 77.5098 230.084 78.6508C230.843 79.7919 231.903 80.7004 233.147 81.2755C233.948 80.1577 234.415 78.8364 234.497 77.464L234.413 74.4149Z" fill="black"/>
<path d="M231.592 63.9483C231.641 63.947 231.688 63.9319 231.729 63.9048C231.77 63.8776 231.802 63.8395 231.822 63.7949C231.842 63.7503 231.849 63.7009 231.842 63.6525C231.835 63.6041 231.814 63.5587 231.783 63.5215C231.515 63.2191 231.179 62.9852 230.802 62.8393C230.425 62.6934 230.019 62.6398 229.618 62.6829C229.552 62.6941 229.493 62.7309 229.455 62.7852C229.416 62.8395 229.401 62.9069 229.412 62.9726C229.423 63.0388 229.46 63.098 229.514 63.1378C229.568 63.1776 229.635 63.1949 229.702 63.186C230.02 63.1548 230.341 63.2001 230.638 63.3181C230.935 63.4361 231.199 63.6235 231.409 63.8645C231.432 63.8899 231.461 63.9105 231.492 63.9249C231.524 63.9393 231.557 63.9473 231.592 63.9483Z" fill="#263238"/>
<path d="M241.334 73.6982C240.572 77.6241 240.099 83.0592 242.859 85.6739C242.859 85.6739 241.792 89.653 234.474 89.653C226.462 89.653 230.624 86.1617 230.624 86.1617C233.955 85.125 233.925 81.3364 233.162 78.2873L241.334 73.6982Z" fill="#FF8B7B"/>
<path d="M244.345 88.2962C245.062 87.29 245.031 84.096 244.269 83.5319C243.042 82.6247 237.774 82.4113 230.693 84.0426C231.455 87.1375 229.816 88.7536 229.816 88.7536L244.345 88.2962Z" fill="#407BFF"/>
<path d="M268.175 269.272C267.957 269.349 267.726 269.382 267.496 269.368C267.266 269.355 267.04 269.297 266.833 269.196C266.754 269.123 266.7 269.027 266.678 268.922C266.657 268.817 266.668 268.708 266.711 268.609C266.735 268.527 266.777 268.451 266.833 268.386C266.89 268.321 266.96 268.27 267.039 268.236C267.763 267.885 269.425 268.563 269.501 268.594C269.524 268.603 269.543 268.619 269.557 268.639C269.57 268.66 269.577 268.684 269.577 268.708C269.577 268.733 269.571 268.757 269.559 268.778C269.547 268.799 269.529 268.817 269.509 268.83C269.079 269.019 268.632 269.167 268.175 269.272ZM267.298 268.411C267.248 268.423 267.199 268.441 267.153 268.464C267.106 268.482 267.063 268.51 267.028 268.547C266.994 268.584 266.969 268.629 266.955 268.678C266.886 268.906 266.955 268.983 267.001 269.006C267.29 269.249 268.357 269.006 269.112 268.723C268.538 268.486 267.918 268.379 267.298 268.411Z" fill="#407BFF"/>
<path d="M269.478 268.838H269.417C268.807 268.662 267.511 267.74 267.496 267.138C267.496 267.042 267.528 266.949 267.587 266.874C267.647 266.799 267.73 266.747 267.824 266.726C267.914 266.692 268.011 266.679 268.107 266.687C268.203 266.695 268.297 266.724 268.38 266.772C269.097 267.138 269.554 268.617 269.57 268.685C269.58 268.704 269.586 268.725 269.586 268.746C269.586 268.768 269.58 268.789 269.57 268.807C269.558 268.819 269.543 268.828 269.527 268.833C269.512 268.839 269.495 268.84 269.478 268.838ZM267.953 266.94H267.892C267.74 266.993 267.74 267.069 267.74 267.107C267.74 267.466 268.609 268.19 269.265 268.479C269.105 268.053 268.754 267.206 268.289 266.955C268.186 266.908 268.068 266.902 267.961 266.94H267.953Z" fill="#407BFF"/>
<path d="M228.581 270.172C227.895 270.172 227.232 270.073 227.011 269.768C226.953 269.687 226.922 269.589 226.922 269.49C226.922 269.39 226.953 269.293 227.011 269.211C227.054 269.137 227.113 269.072 227.182 269.021C227.252 268.97 227.331 268.934 227.415 268.914C228.307 268.67 230.182 269.737 230.258 269.783C230.282 269.795 230.3 269.814 230.311 269.837C230.323 269.861 230.325 269.887 230.319 269.913C230.316 269.939 230.305 269.963 230.287 269.983C230.269 270.002 230.246 270.015 230.22 270.019C229.679 270.119 229.131 270.17 228.581 270.172ZM227.735 269.128C227.654 269.114 227.572 269.114 227.491 269.128C227.439 269.138 227.39 269.159 227.347 269.189C227.304 269.22 227.267 269.258 227.239 269.303C227.148 269.463 227.186 269.539 227.239 269.585C227.491 269.936 228.84 269.943 229.839 269.798C229.187 269.442 228.473 269.214 227.735 269.128Z" fill="#407BFF"/>
<path d="M230.212 270.02H230.159C229.511 269.73 228.231 268.571 228.33 267.961C228.33 267.817 228.452 267.641 228.802 267.611C228.928 267.596 229.055 267.607 229.175 267.644C229.296 267.681 229.408 267.742 229.504 267.824C229.992 268.408 230.285 269.131 230.342 269.89C230.342 269.912 230.337 269.933 230.328 269.953C230.319 269.973 230.305 269.99 230.289 270.004C230.265 270.016 230.239 270.022 230.212 270.02ZM228.901 267.847H228.825C228.596 267.847 228.581 267.954 228.581 267.984C228.52 268.35 229.389 269.265 230.052 269.661C229.994 269.05 229.746 268.471 229.343 268.007C229.218 267.9 229.058 267.843 228.894 267.847H228.901Z" fill="#407BFF"/>
<path d="M236.097 269.897H230.738L230.205 257.479H235.564L236.097 269.897Z" fill="#FF8B7B"/>
<path d="M275.455 267.412L270.218 268.548L264.95 256.984L270.195 255.848L275.455 267.412Z" fill="#FF8B7B"/>
<path d="M269.707 268.022L275.599 266.749C275.702 266.727 275.81 266.741 275.904 266.788C275.998 266.835 276.073 266.913 276.118 267.008L278.161 271.445C278.215 271.552 278.243 271.671 278.243 271.791C278.242 271.912 278.213 272.03 278.158 272.137C278.103 272.244 278.024 272.337 277.926 272.407C277.828 272.478 277.715 272.524 277.596 272.542C275.538 272.946 274.509 273.045 271.925 273.602C270.332 273.953 266.734 274.829 264.531 275.302C262.328 275.774 261.573 273.663 262.434 273.274C266.284 271.513 267.885 269.966 268.929 268.525C269.118 268.268 269.395 268.089 269.707 268.022Z" fill="#263238"/>
<path d="M230.776 269.272H236.631C236.737 269.273 236.84 269.31 236.923 269.376C237.006 269.442 237.064 269.535 237.088 269.638L238.148 274.403C238.179 274.518 238.182 274.639 238.158 274.755C238.134 274.872 238.083 274.982 238.009 275.075C237.935 275.169 237.84 275.243 237.731 275.293C237.623 275.343 237.505 275.367 237.385 275.363C235.274 275.325 232.225 275.203 229.572 275.203C226.462 275.203 223.786 275.371 220.142 275.371C217.939 275.371 217.329 273.145 218.252 272.939C222.444 272.024 225.875 271.925 229.496 269.692C229.876 269.437 230.319 269.292 230.776 269.272Z" fill="#263238"/>
<path d="M252.448 86.901C257.472 88.052 261.596 100.881 261.596 100.881L251.556 108.558C248.951 105.772 247.112 102.357 246.22 98.6479C244.444 91.9245 247.31 85.7118 252.448 86.901Z" fill="#407BFF"/>
<path opacity="0.4" d="M252.448 86.901C257.472 88.052 261.596 100.881 261.596 100.881L251.556 108.558C248.951 105.772 247.112 102.357 246.22 98.6479C244.444 91.9245 247.31 85.7118 252.448 86.901Z" fill="black"/>
<path d="M226.02 102.2C224.77 103.55 223.52 104.754 222.208 106.012C221.56 106.622 220.905 107.232 220.234 107.819L219.22 108.71L218.969 108.931L218.534 109.282C218.087 109.639 217.592 109.932 217.063 110.151C216.475 110.401 215.842 110.53 215.203 110.532C214.657 110.535 214.115 110.439 213.602 110.25C213.034 110.034 212.515 109.704 212.078 109.282C211.519 108.736 211.11 108.057 210.888 107.308C210.773 106.939 210.698 106.558 210.667 106.172C210.627 105.721 210.627 105.266 210.667 104.815C210.705 104.449 210.751 104.129 210.812 103.832C211.021 102.792 211.317 101.772 211.696 100.783C212.039 99.8417 212.434 98.9205 212.878 98.023C213.366 97.0549 213.831 96.346 214.296 95.538C216.184 92.444 218.34 89.5209 220.737 86.8021C223.11 84.0993 225.726 81.6191 228.551 79.3926L231.356 82.2817C229.389 84.9192 227.453 87.7473 225.662 90.5297C223.879 93.2963 222.25 96.1592 220.783 99.1055C220.455 99.822 220.021 100.63 219.815 101.209C219.542 101.882 219.305 102.569 219.106 103.268C218.914 103.896 218.769 104.538 218.671 105.189C218.666 105.29 218.666 105.392 218.671 105.494C218.671 105.554 218.671 105.585 218.671 105.425C218.659 105.254 218.626 105.085 218.572 104.922C218.407 104.381 218.105 103.893 217.696 103.504C217.331 103.169 216.903 102.91 216.438 102.742C216.029 102.587 215.595 102.507 215.157 102.505C214.736 102.5 214.319 102.581 213.93 102.742C213.798 102.795 213.671 102.859 213.549 102.932L213.838 102.665L214.761 101.827L216.583 100.119C217.787 98.9835 218.999 97.7715 220.143 96.6433L226.02 102.2Z" fill="#FF8B7B"/>
<path opacity="0.2" d="M248.141 96.3232C250.87 99.0218 251.762 103.946 251.953 108.215L251.511 108.558C248.905 105.772 247.066 102.357 246.175 98.6482C246.076 98.2518 245.984 97.8859 245.916 97.4514L248.141 96.3232Z" fill="black"/>
<path d="M220.691 92.2375C219.594 98.0309 218.908 109.93 222.086 133.485H250.794C250.993 129.087 248.225 107.605 252.471 86.8633C249.299 86.2542 246.091 85.8493 242.866 85.6513C238.804 85.4183 234.732 85.4183 230.67 85.6513C229.328 85.7732 228.002 85.9714 226.858 86.1773C225.338 86.444 223.934 87.1663 222.833 88.2485C221.731 89.3306 220.985 90.7217 220.691 92.2375Z" fill="#407BFF"/>
<path opacity="0.4" d="M220.691 92.2375C219.594 98.0309 218.908 109.93 222.086 133.485H250.794C250.993 129.087 248.225 107.605 252.471 86.8633C249.299 86.2542 246.091 85.8493 242.866 85.6513C238.804 85.4183 234.732 85.4183 230.67 85.6513C229.328 85.7732 228.002 85.9714 226.858 86.1773C225.338 86.444 223.934 87.1663 222.833 88.2485C221.731 89.3306 220.985 90.7217 220.691 92.2375Z" fill="black"/>
<path opacity="0.2" d="M225.082 100.828L219.898 99.5859C219.738 102.727 219.723 106.614 219.952 111.424C222.338 108.711 225.387 104.472 225.082 100.828Z" fill="black"/>
<path opacity="0.2" d="M230.205 257.479L230.479 263.883H235.846L235.571 257.479H230.205Z" fill="black"/>
<path opacity="0.2" d="M270.195 255.848L264.95 256.984L267.664 262.945L272.909 261.809L270.195 255.848Z" fill="black"/>
<path d="M243.88 67.9658C242.508 73.1037 241.959 76.1834 238.788 78.3178C234.024 81.5652 228.078 77.8452 227.925 72.4176C227.758 67.5161 230.037 59.9313 235.548 58.8945C236.76 58.6672 238.009 58.7521 239.178 59.1411C240.347 59.5301 241.398 60.2104 242.232 61.118C243.065 62.0256 243.654 63.1305 243.942 64.3285C244.231 65.5266 244.21 66.7783 243.88 67.9658Z" fill="#FF8B7B"/>
<path d="M231.851 68.1565C231.592 67.4705 230.411 62.1573 231.524 60.7775C232.636 59.3978 245.329 60.3964 247.204 62.2411C250.322 65.2903 248.157 68.0346 244.749 71.564C242.188 74.2168 242.089 77.205 240.793 77.6623C238.506 78.4246 235.015 77.7081 234.314 75.2916C233.612 72.8751 231.851 68.1565 231.851 68.1565Z" fill="#263238"/>
<path d="M245.664 56.1961C241.182 54.2903 232.774 56.4019 228.23 55.3042C228.173 56.9936 228.728 58.6468 229.794 59.9583C230.861 61.2699 232.366 62.1512 234.032 62.4393C237.8 63.1575 241.629 63.5123 245.466 63.4989C250.451 63.2702 249.476 57.8198 245.664 56.1961Z" fill="#263238"/>
<path d="M246.365 62.4013C248.003 62.5624 249.652 62.2474 251.114 61.4941C251.953 63.5218 247.341 64.0783 246.365 62.4013Z" fill="#263238"/>
<path d="M234.291 68.3701C234.188 69.6921 233.652 70.9433 232.766 71.93C231.592 73.2183 230.373 72.4103 230.167 70.8476C229.984 69.4297 230.365 67.0361 231.798 66.35C233.231 65.664 234.39 66.7769 234.291 68.3701Z" fill="#FF8B7B"/>
<path d="M232.263 133.508C232.263 133.508 238.361 174.481 241.693 189.834C245.344 206.642 264.965 262.252 264.965 262.252L274.563 260.171C274.563 260.171 260.841 214.845 257.792 191.343C255.429 173.292 250.787 133.493 250.787 133.493L232.263 133.508Z" fill="#407BFF"/>
<path d="M262.663 259.057C262.625 259.057 264.455 262.533 264.455 262.533L275.249 260.193L274.341 256.946L262.663 259.057Z" fill="#263238"/>
<path opacity="0.3" d="M236.113 148.106C243.149 149.486 242.401 175.724 241.555 189.224C239.528 179.68 236.555 161.324 234.527 148.296C235.018 148.054 235.578 147.987 236.113 148.106Z" fill="black"/>
<path d="M222.086 133.508C222.086 133.508 221.324 173.597 221.934 189.918C222.544 206.925 228.482 262.61 228.482 262.61H237.569C237.569 262.61 237.896 207.915 238.331 191.214C238.773 173.01 240.968 133.478 240.968 133.478L222.086 133.508Z" fill="#407BFF"/>
<path d="M226.736 259.027C226.691 259.027 227.247 262.793 227.247 262.793H238.293L238.598 259.431L226.736 259.027Z" fill="#263238"/>
<path d="M231.928 94.0213C234.497 100.951 219.396 109.115 219.396 109.115L212.855 100.729C212.855 100.729 217.253 92.0241 222.59 88.1059C229.183 83.2729 229.969 88.7462 231.928 94.0213Z" fill="#407BFF"/>
<path opacity="0.4" d="M231.928 94.0213C234.497 100.951 219.396 109.115 219.396 109.115L212.855 100.729C212.855 100.729 217.253 92.0241 222.59 88.1059C229.183 83.2729 229.969 88.7462 231.928 94.0213Z" fill="black"/>
<path d="M291.097 41.4156C306.291 41.4156 318.609 33.5659 318.609 23.8828C318.609 14.1998 306.291 6.3501 291.097 6.3501C275.903 6.3501 263.586 14.1998 263.586 23.8828C263.586 33.5659 275.903 41.4156 291.097 41.4156Z" fill="#407BFF"/>
<path d="M281.172 32.7104C279.36 32.7045 277.607 32.0601 276.223 30.8905C274.839 29.7208 273.911 28.1006 273.602 26.3147C273.299 24.3802 273.736 22.4025 274.825 20.7752C275.914 19.1479 277.576 17.9904 279.48 17.5331C281.042 17.1731 282.678 17.3118 284.158 17.9299C285.637 18.5479 286.886 19.6142 287.728 20.9787L305.39 17.3349C306.069 17.1862 306.779 17.2991 307.378 17.651C307.977 18.0029 308.421 18.5678 308.622 19.233C308.715 19.5827 308.735 19.9476 308.681 20.3054C308.628 20.6632 308.502 21.0063 308.312 21.3138C308.121 21.6213 307.87 21.8868 307.573 22.0939C307.277 22.301 306.941 22.4455 306.587 22.5185L306.13 22.61C306.062 22.6222 305.997 22.6498 305.942 22.6908C305.886 22.7318 305.841 22.785 305.809 22.8463C305.781 22.9085 305.767 22.9761 305.767 23.0445C305.767 23.1128 305.781 23.1804 305.809 23.2427L306.122 24.0507C306.227 24.3126 306.237 24.6028 306.15 24.8714C306.064 25.14 305.887 25.37 305.649 25.5219C305.462 25.6377 305.303 25.7947 305.186 25.9809C305.068 26.1672 304.995 26.3778 304.971 26.5968C304.948 26.8481 304.847 27.0858 304.681 27.2761C304.516 27.4664 304.294 27.5995 304.048 27.6563L303.69 27.7326C303.442 27.7785 303.185 27.7441 302.958 27.6345C302.73 27.5248 302.544 27.3456 302.425 27.1227C302.267 26.8569 302.029 26.647 301.746 26.5224C301.463 26.3977 301.148 26.3646 300.845 26.4275C300.542 26.4904 300.266 26.6463 300.056 26.8734C299.846 27.1006 299.712 27.3876 299.673 27.6945C299.652 27.9442 299.552 28.1806 299.387 28.3697C299.223 28.5588 299.002 28.6907 298.758 28.7464L298.4 28.8227C298.152 28.8673 297.896 28.8324 297.668 28.7229C297.441 28.6134 297.254 28.4349 297.134 28.2128C297.02 28.0238 296.866 27.8618 296.683 27.738C296.5 27.6143 296.293 27.5318 296.075 27.4963C295.782 27.461 295.512 27.3199 295.315 27.0996C295.119 26.8792 295.009 26.5947 295.008 26.2995V25.4305C295.005 25.3625 294.987 25.296 294.956 25.2355C294.924 25.175 294.881 25.1219 294.827 25.0799C294.773 25.038 294.712 25.008 294.645 24.9922C294.579 24.9764 294.51 24.9751 294.444 24.9883L288.81 26.147C288.58 27.7077 287.875 29.1597 286.791 30.3054C285.707 31.4512 284.296 32.235 282.75 32.5503C282.231 32.6564 281.702 32.7101 281.172 32.7104ZM279.647 18.2268C277.918 18.6306 276.407 19.6746 275.417 21.1485C274.426 22.6223 274.032 24.4165 274.311 26.1699C274.611 27.8011 275.485 29.2711 276.774 30.3141C278.064 31.3571 279.684 31.9041 281.342 31.8562C283 31.8083 284.586 31.1687 285.813 30.053C287.04 28.9373 287.828 27.4193 288.033 25.7735V25.4991L294.245 24.2413C294.424 24.1982 294.609 24.1953 294.789 24.2328C294.968 24.2704 295.137 24.3474 295.283 24.4584C295.429 24.5693 295.548 24.7114 295.633 24.8743C295.717 25.0371 295.764 25.2167 295.77 25.4V26.269C295.772 26.3724 295.809 26.4722 295.876 26.5513C295.942 26.6305 296.034 26.6842 296.136 26.7035C296.469 26.7512 296.787 26.8742 297.066 27.063C297.344 27.2519 297.576 27.5017 297.744 27.7936C297.785 27.8758 297.85 27.9435 297.93 27.9872C298.011 28.0309 298.103 28.0485 298.194 28.0375L298.545 27.9613C298.634 27.9384 298.713 27.8875 298.77 27.8161C298.828 27.7447 298.861 27.6566 298.865 27.5649C298.913 27.0903 299.111 26.6434 299.429 26.2885C299.748 25.9337 300.171 25.6895 300.638 25.591C301.105 25.4926 301.591 25.5451 302.026 25.741C302.461 25.9368 302.822 26.2659 303.057 26.6806C303.097 26.7623 303.16 26.8297 303.239 26.8734C303.319 26.9171 303.41 26.935 303.5 26.9245L303.865 26.8483C303.953 26.8241 304.03 26.7725 304.087 26.7013C304.143 26.63 304.175 26.5426 304.178 26.4519C304.216 26.1172 304.329 25.7956 304.51 25.5115C304.691 25.2275 304.935 24.9886 305.222 24.813C305.306 24.7524 305.368 24.6655 305.397 24.5661C305.426 24.4667 305.421 24.3604 305.382 24.2641L305.07 23.4561C305.005 23.2895 304.978 23.1108 304.989 22.9325C305.001 22.7542 305.051 22.5806 305.137 22.4238C305.223 22.267 305.342 22.1308 305.485 22.0247C305.629 21.9186 305.794 21.8452 305.969 21.8096L306.434 21.7105C306.686 21.6568 306.924 21.5529 307.135 21.4051C307.345 21.2572 307.524 21.0684 307.66 20.8499C307.796 20.6314 307.886 20.3878 307.926 20.1335C307.966 19.8793 307.953 19.6197 307.89 19.3702C307.742 18.8905 307.417 18.4848 306.981 18.2345C306.546 17.9843 306.032 17.908 305.543 18.021L287.385 21.7943L287.248 21.558C286.518 20.2593 285.385 19.2333 284.021 18.635C282.657 18.0368 281.135 17.8989 279.686 18.242L279.647 18.2268ZM281.172 29.8746C280.225 29.8852 279.296 29.6203 278.496 29.1123C277.551 28.4917 276.85 27.5625 276.514 26.4831C276.177 25.4036 276.225 24.2407 276.649 23.1927C277.074 22.1447 277.849 21.2764 278.842 20.7358C279.835 20.1953 280.985 20.0159 282.096 20.2283C283.207 20.4408 284.209 21.0318 284.933 21.9008C285.656 22.7697 286.056 23.8627 286.064 24.9935C286.072 26.1242 285.688 27.2227 284.976 28.1017C284.265 28.9807 283.271 29.5857 282.163 29.8136C281.839 29.8724 281.509 29.8979 281.18 29.8899L281.172 29.8746ZM281.172 20.8719C280.888 20.8736 280.605 20.9016 280.326 20.9558C279.795 21.0689 279.291 21.2855 278.844 21.5933C278.397 21.901 278.014 22.2938 277.719 22.7493C277.423 23.2048 277.22 23.7141 277.121 24.248C277.023 24.7819 277.03 25.3301 277.143 25.8612C277.256 26.3922 277.473 26.8958 277.781 27.3431C278.088 27.7905 278.481 28.1728 278.937 28.4684C279.392 28.7639 279.902 28.9668 280.436 29.0655C280.969 29.1643 281.518 29.1568 282.049 29.0437C282.846 28.8778 283.576 28.4795 284.147 27.8991C284.719 27.3187 285.105 26.5822 285.258 25.7825C285.412 24.9827 285.325 24.1555 285.009 23.405C284.692 22.6546 284.161 22.0146 283.482 21.5656C282.807 21.1168 282.013 20.8805 281.203 20.8872L281.172 20.8719Z" fill="white"/>
<path opacity="0.6" d="M268.709 51.6987C273.702 51.6987 277.749 49.1186 277.749 45.9358C277.749 42.753 273.702 40.1729 268.709 40.1729C263.715 40.1729 259.668 42.753 259.668 45.9358C259.668 49.1186 263.715 51.6987 268.709 51.6987Z" fill="#407BFF"/>
<path opacity="0.3" d="M254.324 54.0622C256.374 54.0622 258.036 53.0042 258.036 51.699C258.036 50.3939 256.374 49.3359 254.324 49.3359C252.274 49.3359 250.612 50.3939 250.612 51.699C250.612 53.0042 252.274 54.0622 254.324 54.0622Z" fill="#407BFF"/>
</svg>
