<svg width="358" height="270" viewBox="0 0 358 270" fill="none" xmlns="http://www.w3.org/2000/svg">
<path d="M357.311 237.042H0V237.22H357.311V237.042Z" fill="#E0E0E0"/>
<path d="M318.428 242.473H299.44V242.651H318.428V242.473Z" fill="#E0E0E0"/>
<path d="M206.998 246.046H190.633V246.224H206.998V246.046Z" fill="#E0E0E0"/>
<path d="M173.274 245.517H140.845V245.696H173.274V245.517Z" fill="#E0E0E0"/>
<path d="M130.161 245.517H108.144V245.696H130.161V245.517Z" fill="#E0E0E0"/>
<path d="M92.1856 244.302H57.4121V244.481H92.1856V244.302Z" fill="#E0E0E0"/>
<path d="M292.516 242.473H230.608V242.651H292.516V242.473Z" fill="#E0E0E0"/>
<path d="M41.9768 244.302H36.9102V244.481H41.9768V244.302Z" fill="#E0E0E0"/>
<path d="M169.365 205.169H31.379C30.298 205.167 29.262 204.736 28.4983 203.971C27.7346 203.206 27.3057 202.17 27.3057 201.089V7.11898C27.3151 6.0442 27.7482 5.01654 28.5108 4.25922C29.2735 3.50189 30.3042 3.07606 31.379 3.07422H169.365C170.447 3.07422 171.485 3.50413 172.251 4.26937C173.016 5.03461 173.446 6.07249 173.446 7.15471V201.089C173.446 202.171 173.016 203.209 172.251 203.974C171.485 204.739 170.447 205.169 169.365 205.169ZM31.379 3.21714C30.3454 3.21904 29.3548 3.63096 28.6246 4.36249C27.8944 5.09402 27.4843 6.08538 27.4843 7.11898V201.089C27.4843 202.122 27.8944 203.114 28.6246 203.845C29.3548 204.577 30.3454 204.989 31.379 204.99H169.365C170.4 204.989 171.391 204.577 172.122 203.846C172.854 203.114 173.265 202.123 173.267 201.089V7.11898C173.265 6.08473 172.854 5.09338 172.122 4.36205C171.391 3.63072 170.4 3.21903 169.365 3.21714H31.379Z" fill="#E0E0E0"/>
<path d="M323.945 205.169H185.952C184.87 205.167 183.833 204.737 183.068 203.972C182.304 203.207 181.873 202.17 181.871 201.089V7.11898C181.882 6.04355 182.317 5.0159 183.081 4.25877C183.845 3.50164 184.876 3.07604 185.952 3.07422H323.945C325.019 3.07794 326.047 3.5046 326.809 4.26172C327.57 5.01885 328.002 6.04544 328.011 7.11898V201.089C328.011 202.168 327.583 203.204 326.821 203.969C326.059 204.734 325.025 205.165 323.945 205.169ZM185.952 3.21714C184.917 3.21903 183.926 3.63072 183.195 4.36205C182.463 5.09338 182.052 6.08473 182.05 7.11898V201.089C182.052 202.123 182.463 203.114 183.195 203.846C183.926 204.577 184.917 204.989 185.952 204.99H323.945C324.979 204.989 325.971 204.577 326.702 203.846C327.433 203.114 327.845 202.123 327.847 201.089V7.11898C327.845 6.08473 327.433 5.09338 326.702 4.36205C325.971 3.63072 324.979 3.21903 323.945 3.21714H185.952Z" fill="#E0E0E0"/>
<path d="M44.7707 238.335H59.9492L59.9492 155.953H44.7707L44.7707 238.335Z" fill="#E0E0E0"/>
<path d="M47.6582 238.335H44.7783V230.138H50.6811L47.6582 238.335Z" fill="#EBEBEB"/>
<path d="M116.683 151.694H101.505V238.335H116.683V151.694Z" fill="#E0E0E0"/>
<path d="M44.7784 233.304H104.021L104.021 151.694H44.7784L44.7784 233.304Z" fill="#EBEBEB"/>
<path d="M47.0078 190.67V223.056H73.4274V190.67H47.0078Z" fill="#E0E0E0"/>
<path d="M75.3643 190.662V223.049H101.784V190.662H75.3643Z" fill="#E0E0E0"/>
<path d="M85.9618 192.964H91.1857C92.3097 192.964 93.4219 192.735 94.4541 192.29C95.4863 191.845 96.4168 191.194 97.1885 190.377H79.959C80.7307 191.194 81.6612 191.845 82.6934 192.29C83.7256 192.735 84.8378 192.964 85.9618 192.964Z" fill="#EBEBEB"/>
<path d="M57.3417 192.964H62.5656C63.6956 192.969 64.8146 192.742 65.8533 192.297C66.892 191.852 67.8283 191.198 68.6041 190.377H51.3389C52.1111 191.193 53.0417 191.844 54.0738 192.289C55.1059 192.733 56.2178 192.963 57.3417 192.964Z" fill="#EBEBEB"/>
<path d="M47.0146 154.231V186.618H73.4342V154.231H47.0146Z" fill="#E0E0E0"/>
<path d="M75.3643 154.231V186.618H101.784V154.231H75.3643Z" fill="#E0E0E0"/>
<path d="M85.9618 156.525H91.1857C92.3092 156.527 93.4212 156.299 94.4535 155.855C95.4857 155.411 96.4164 154.762 97.1885 153.945H79.959C80.731 154.762 81.6618 155.411 82.694 155.855C83.7263 156.299 84.8383 156.527 85.9618 156.525Z" fill="#EBEBEB"/>
<path d="M57.3417 156.525H62.5656C63.6891 156.527 64.8011 156.299 65.8334 155.855C66.8656 155.411 67.7963 154.762 68.5684 153.945H51.3389C52.1115 154.761 53.0423 155.41 54.0744 155.854C55.1065 156.297 56.2183 156.526 57.3417 156.525Z" fill="#EBEBEB"/>
<path d="M101.133 238.335H104.02V230.138H98.1104L101.133 238.335Z" fill="#EBEBEB"/>
<path d="M191.733 68.3265H227.914V26.2353L191.733 26.2353V68.3265Z" fill="#E0E0E0"/>
<path d="M187.581 68.3265H227.178V26.2353L187.581 26.2353V68.3265Z" fill="#F5F5F5"/>
<path d="M223.862 65.0033V29.5438L190.904 29.5438V65.0033H223.862Z" fill="#FAFAFA"/>
<path d="M215.873 56.4065V38.1407H198.894V56.4065H215.873Z" fill="#F5F5F5"/>
<path d="M259.443 118.05H314.119V16.6451H259.443V118.05Z" fill="#E0E0E0"/>
<path d="M255.549 118.05H312.297V16.6451H255.549V118.05Z" fill="#EBEBEB"/>
<path d="M259.443 125.267H314.119V118.043H259.443V125.267Z" fill="#E0E0E0"/>
<path d="M249.067 125.267H305.815V118.043H249.067V125.267Z" fill="#EBEBEB"/>
<path d="M306.851 112.605V22.0906L260.986 22.0906V112.605H306.851Z" fill="#F5F5F5"/>
<path d="M298.633 112.605L279.538 22.0906H270.52L289.621 112.605H298.633Z" fill="#FAFAFA"/>
<path d="M304.335 81.8971C304.231 81.8971 304.131 81.8557 304.057 81.782C303.984 81.7083 303.942 81.6083 303.942 81.5041V25.6278C303.944 25.5248 303.986 25.4267 304.06 25.3545C304.134 25.2824 304.232 25.2419 304.335 25.2419C304.438 25.2419 304.536 25.2826 304.608 25.355C304.681 25.4273 304.721 25.5255 304.721 25.6278V81.5041C304.721 81.6071 304.681 81.706 304.609 81.7795C304.537 81.853 304.438 81.8953 304.335 81.8971Z" fill="#EBEBEB"/>
<path d="M287.678 112.605L268.583 22.0906H265.067L284.169 112.605H287.678Z" fill="#FAFAFA"/>
<path d="M261.68 112.605V22.0906H260.987V112.605H261.68Z" fill="#E0E0E0"/>
<path d="M254.263 29.0509H308.938L309.439 24.2058H254.763L254.263 29.0509Z" fill="#E0E0E0"/>
<path d="M254.263 32.6024H308.938L309.439 27.7501H254.763L254.263 32.6024Z" fill="#E0E0E0"/>
<path d="M254.263 36.8617H308.938L309.439 32.0094H254.763L254.263 36.8617Z" fill="#E0E0E0"/>
<path d="M254.263 41.5998H308.938L309.439 36.7546H254.763L254.263 41.5998Z" fill="#E0E0E0"/>
<path d="M254.263 47.2806H308.938L309.439 42.4283H254.763L254.263 47.2806Z" fill="#E0E0E0"/>
<path d="M254.263 53.6624H308.938L309.439 48.8173H254.763L254.263 53.6624Z" fill="#E0E0E0"/>
<path d="M281.718 140.282C281.718 142.426 280.21 143.955 282.375 143.955C284.541 143.955 289.522 142.447 289.522 140.282C289.522 139.239 289.107 138.24 288.37 137.503C287.633 136.765 286.634 136.351 285.591 136.351C284.549 136.351 283.549 136.765 282.812 137.503C282.075 138.24 281.661 139.239 281.661 140.282H281.718Z" fill="#E0E0E0"/>
<path d="M275.008 142.161C275.008 144.305 273.507 145.827 275.665 145.827C277.823 145.827 282.847 144.319 282.847 142.161C282.847 141.119 282.433 140.119 281.696 139.382C280.959 138.645 279.959 138.231 278.917 138.231C277.874 138.231 276.875 138.645 276.138 139.382C275.4 140.119 274.986 141.119 274.986 142.161H275.008Z" fill="#E0E0E0"/>
<path d="M268.59 140.996C268.59 143.14 267.082 144.662 269.247 144.662C271.413 144.662 276.394 143.154 276.394 140.996C276.394 139.954 275.98 138.954 275.242 138.217C274.505 137.48 273.506 137.066 272.463 137.066C271.421 137.066 270.421 137.48 269.684 138.217C268.947 138.954 268.533 139.954 268.533 140.996H268.59Z" fill="#E0E0E0"/>
<path d="M291.951 141.518C291.951 141.518 291.63 149.157 279.353 149.157C267.075 149.157 266.754 141.518 266.754 141.518H291.951Z" fill="#EBEBEB"/>
<path d="M147.369 237.034H152.936V149.157H147.369V237.034Z" fill="#E0E0E0"/>
<path d="M145.611 237.034H149.478V149.157H145.611V237.034Z" fill="#F0F0F0"/>
<path d="M260.008 149.165H144.418V156.003H260.008V149.165Z" fill="#F0F0F0"/>
<path d="M262.501 237.042H268.068V156.003H262.501V237.042Z" fill="#E0E0E0"/>
<path d="M260.736 237.042H264.603V156.003H260.736V237.042Z" fill="#F0F0F0"/>
<path d="M297.733 237.042H303.3V156.003H297.733V237.042Z" fill="#E0E0E0"/>
<path d="M295.975 237.042H299.841V156.003H295.975V237.042Z" fill="#F0F0F0"/>
<path d="M182.607 237.042H188.174V156.003H182.607V237.042Z" fill="#E0E0E0"/>
<path d="M180.849 237.042H184.715V156.003H180.849V237.042Z" fill="#F0F0F0"/>
<path d="M260 156.003H303.292V149.164H260V156.003Z" fill="#E0E0E0"/>
<path d="M260.744 120.208H214.279L207.54 147.642H254.005L260.744 120.208Z" fill="#E0E0E0"/>
<path d="M254.005 147.642L253.819 149.164H207.354L207.54 147.642H254.005Z" fill="#E0E0E0"/>
<path d="M259.308 120.208H212.85L206.111 147.642H252.576L259.308 120.208Z" fill="#F0F0F0"/>
<path d="M251.597 146.392L257.714 121.458H213.829L207.712 146.392H251.597Z" fill="#FAFAFA"/>
<path d="M240.47 147.642L240.284 149.164H189.117L189.303 147.642H240.47Z" fill="#F0F0F0"/>
<path d="M150.706 137.98C150.84 137.988 150.974 138.002 151.106 138.023V137.123C151.106 136.827 151.222 136.543 151.429 136.332C151.636 136.121 151.918 135.999 152.214 135.994H161.025C161.325 135.994 161.613 136.112 161.826 136.324C162.039 136.536 162.16 136.823 162.161 137.123V149.157H151.085V147.135C150.952 147.154 150.819 147.166 150.685 147.17C149.801 147.17 148.954 146.82 148.33 146.195C147.705 145.571 147.354 144.724 147.354 143.84V141.318C147.354 140.878 147.441 140.443 147.61 140.037C147.778 139.631 148.026 139.263 148.337 138.953C148.648 138.643 149.018 138.397 149.425 138.23C149.831 138.063 150.267 137.979 150.706 137.98ZM148.805 143.84C148.805 144.344 149.005 144.828 149.362 145.184C149.718 145.541 150.202 145.741 150.706 145.741C150.841 145.741 150.975 145.727 151.106 145.698V139.453C150.974 139.427 150.84 139.413 150.706 139.41C150.201 139.412 149.718 139.613 149.361 139.971C149.005 140.329 148.805 140.813 148.805 141.318V143.84Z" fill="#E0E0E0"/>
<path d="M198.607 237.041H200.158L204.574 215.26L205.353 211.444L210.17 187.711H228.679L238.683 237.02H240.227L230.022 186.782C229.99 186.615 229.901 186.463 229.771 186.353C229.642 186.243 229.478 186.18 229.308 186.175H209.555C209.383 186.173 209.216 186.233 209.085 186.345C208.953 186.456 208.867 186.612 208.841 186.782L204.603 207.628L203.824 211.436L198.607 237.041Z" fill="#F0F0F0"/>
<path d="M168.937 237.041H170.487L180.492 187.732H198.972L203.789 211.479L204.56 215.281L208.984 237.063H210.535L205.339 211.465L204.568 207.67L200.33 186.825C200.304 186.654 200.217 186.499 200.086 186.388C199.955 186.276 199.788 186.216 199.615 186.217H179.892C179.721 186.222 179.558 186.285 179.428 186.396C179.298 186.506 179.209 186.658 179.177 186.825L168.937 237.041Z" fill="#F0F0F0"/>
<path d="M214.493 186.954H180.535C177.424 186.947 174.44 185.724 172.219 183.546C169.998 181.368 168.718 178.408 168.651 175.298L167.386 123.681C167.362 122.528 167.569 121.381 167.993 120.309C168.418 119.236 169.053 118.26 169.86 117.436C170.668 116.612 171.631 115.957 172.695 115.51C173.758 115.064 174.9 114.834 176.054 114.834H197.343C199.474 114.832 201.531 115.615 203.122 117.034C204.713 118.452 205.726 120.406 205.968 122.523L214.493 186.954Z" fill="#F0F0F0"/>
<path d="M195.978 180.444H229.215C230.448 180.444 231.632 180.934 232.504 181.806C233.377 182.679 233.867 183.862 233.867 185.096V185.253C233.867 185.702 233.688 186.133 233.371 186.451C233.053 186.768 232.622 186.947 232.173 186.947H195.978V180.444Z" fill="#F0F0F0"/>
<path d="M41.3692 118.05H96.0449L96.0449 16.6451H41.3692L41.3692 118.05Z" fill="#E0E0E0"/>
<path d="M37.4746 118.05H94.2227L94.2227 16.6451H37.4746L37.4746 118.05Z" fill="#EBEBEB"/>
<path d="M41.3692 125.267H96.0449V118.043H41.3692V125.267Z" fill="#E0E0E0"/>
<path d="M31 125.267H87.748V118.043H31V125.267Z" fill="#EBEBEB"/>
<path d="M88.7842 112.605V22.0906L42.9198 22.0906L42.9198 112.605H88.7842Z" fill="#F5F5F5"/>
<path d="M80.5666 112.605L61.4648 22.0906H52.4463L71.5481 112.605H80.5666Z" fill="#FAFAFA"/>
<path d="M86.2619 81.8971C86.1589 81.8953 86.0607 81.853 85.9886 81.7795C85.9164 81.706 85.876 81.6071 85.876 81.5041V25.6278C85.876 25.5255 85.9166 25.4273 85.989 25.355C86.0614 25.2826 86.1595 25.2419 86.2619 25.2419C86.3649 25.2419 86.4638 25.2824 86.5373 25.3545C86.6108 25.4267 86.653 25.5248 86.6549 25.6278V81.5041C86.6549 81.6083 86.6135 81.7083 86.5398 81.782C86.4661 81.8557 86.3661 81.8971 86.2619 81.8971Z" fill="#EBEBEB"/>
<path d="M69.6109 112.605L50.5091 22.0906H46.9932L66.095 112.605H69.6109Z" fill="#FAFAFA"/>
<path d="M43.6133 112.605L43.6133 22.0906H42.9201L42.9201 112.605H43.6133Z" fill="#E0E0E0"/>
<path d="M36.1885 29.0509H90.8713L91.3715 24.2058H36.6887L36.1885 29.0509Z" fill="#E0E0E0"/>
<path d="M36.1885 32.6024H90.8713L91.3715 27.7501H36.6887L36.1885 32.6024Z" fill="#E0E0E0"/>
<path d="M36.1885 36.8617H90.8713L91.3715 32.0094H36.6887L36.1885 36.8617Z" fill="#E0E0E0"/>
<path d="M36.1885 41.5998H90.8713L91.3715 36.7546H36.6887L36.1885 41.5998Z" fill="#E0E0E0"/>
<path d="M36.1885 47.2806H90.8713L91.3715 42.4283H36.6887L36.1885 47.2806Z" fill="#E0E0E0"/>
<path d="M36.1885 53.6624H90.8713L91.3715 48.8173H36.6887L36.1885 53.6624Z" fill="#E0E0E0"/>
<path d="M213.65 110.968H240.698V79.7389H213.65V110.968Z" fill="#E0E0E0"/>
<path d="M210.57 110.968H239.941V79.7389H210.57V110.968Z" fill="#F5F5F5"/>
<path d="M237.482 108.502V82.1973H213.028V108.502H237.482Z" fill="#FAFAFA"/>
<path d="M231.537 95.8251V94.8746C231.538 94.0472 231.376 93.2278 231.06 92.4631C230.744 91.6985 230.281 91.0036 229.696 90.4182C229.111 89.8328 228.417 89.3684 227.652 89.0516C226.888 88.7347 226.069 88.5717 225.241 88.5717C223.57 88.5717 221.967 89.2357 220.785 90.4177C219.603 91.5998 218.938 93.203 218.938 94.8746V95.8251C218.938 97.4967 219.603 99.0999 220.785 100.282C221.967 101.464 223.57 102.128 225.241 102.128C226.069 102.128 226.888 101.965 227.652 101.648C228.417 101.331 229.111 100.867 229.696 100.281C230.281 99.6961 230.744 99.0012 231.06 98.2366C231.376 97.4719 231.538 96.6524 231.537 95.8251Z" fill="#F5F5F5"/>
<path d="M130.604 98.1119H162.555V61.359L130.604 61.359V98.1119Z" fill="#E0E0E0"/>
<path d="M126.981 98.1119H161.555V61.359L126.981 61.359V98.1119Z" fill="#F5F5F5"/>
<path d="M158.653 95.2103V64.2529H129.876V95.2103H158.653Z" fill="#FAFAFA"/>
<path d="M144.261 71.9067L152.136 85.5417H136.393L144.261 71.9067Z" fill="#F5F5F5"/>
<path d="M178.656 269.314C255.179 269.314 317.214 265.692 317.214 261.224C317.214 256.756 255.179 253.135 178.656 253.135C102.132 253.135 40.0977 256.756 40.0977 261.224C40.0977 265.692 102.132 269.314 178.656 269.314Z" fill="#F5F5F5"/>
<path d="M225.677 38.9911C226.292 38.9911 226.899 38.9911 227.507 39.0697C230 34.3321 233.895 30.4792 238.659 28.0364C243.423 25.5937 248.825 24.68 254.128 25.4201C259.43 26.1602 264.375 28.518 268.288 32.1718C272.201 35.8257 274.892 40.5978 275.994 45.8372C278.704 44.9358 281.577 44.634 284.415 44.9526C287.254 45.2712 289.989 46.2026 292.431 47.6824C294.874 49.1621 296.966 51.1549 298.563 53.5229C300.16 55.8908 301.223 58.5774 301.679 61.3968C302.135 64.2161 301.974 67.1009 301.205 69.8516C300.437 72.6023 299.08 75.1531 297.228 77.3277C295.377 79.5023 293.075 81.2487 290.482 82.446C287.889 83.6434 285.067 84.2631 282.211 84.2623H225.677C222.671 84.3158 219.684 83.7698 216.891 82.6562C214.098 81.5426 211.554 79.8838 209.409 77.7766C207.264 75.6694 205.561 73.156 204.398 70.3832C203.235 67.6103 202.636 64.6336 202.636 61.6267C202.636 58.6198 203.235 55.6431 204.398 52.8703C205.561 50.0974 207.264 47.584 209.409 45.4768C211.554 43.3696 214.098 41.7108 216.891 40.5972C219.684 39.4837 222.671 38.9377 225.677 38.9911Z" fill="#407BFF"/>
<path opacity="0.3" d="M225.677 38.9911C226.292 38.9911 226.899 38.9911 227.507 39.0697C230 34.3321 233.895 30.4792 238.659 28.0364C243.423 25.5937 248.825 24.68 254.128 25.4201C259.43 26.1602 264.375 28.518 268.288 32.1718C272.201 35.8257 274.892 40.5978 275.994 45.8372C278.704 44.9358 281.577 44.634 284.415 44.9526C287.254 45.2712 289.989 46.2026 292.431 47.6824C294.874 49.1621 296.966 51.1549 298.563 53.5229C300.16 55.8908 301.223 58.5774 301.679 61.3968C302.135 64.2161 301.974 67.1009 301.205 69.8516C300.437 72.6023 299.08 75.1531 297.228 77.3277C295.377 79.5023 293.075 81.2487 290.482 82.446C287.889 83.6434 285.067 84.2631 282.211 84.2623H225.677C222.671 84.3158 219.684 83.7698 216.891 82.6562C214.098 81.5426 211.554 79.8838 209.409 77.7766C207.264 75.6694 205.561 73.156 204.398 70.3832C203.235 67.6103 202.636 64.6336 202.636 61.6267C202.636 58.6198 203.235 55.6431 204.398 52.8703C205.561 50.0974 207.264 47.584 209.409 45.4768C211.554 43.3696 214.098 41.7108 216.891 40.5972C219.684 39.4837 222.671 38.9377 225.677 38.9911Z" fill="black"/>
<path d="M229.394 57.9785L233.538 50.7894C233.651 50.595 233.812 50.4336 234.007 50.3213C234.201 50.2091 234.422 50.15 234.646 50.15C234.871 50.15 235.091 50.2091 235.286 50.3213C235.48 50.4336 235.642 50.595 235.754 50.7894L239.906 57.9785C240.017 58.1728 240.076 58.393 240.075 58.617C240.075 58.841 240.015 59.061 239.903 59.2549C239.791 59.4488 239.63 59.6099 239.436 59.722C239.242 59.8341 239.022 59.8933 238.798 59.8937H236.911C237.322 62.9764 238.733 65.8392 240.928 68.0428C243.122 70.2463 245.979 71.6689 249.06 72.0922C249.582 72.1571 250.061 72.4112 250.408 72.8065C250.754 73.2017 250.944 73.7105 250.94 74.2361C250.936 74.5412 250.868 74.8421 250.74 75.1187C250.611 75.3953 250.425 75.6412 250.193 75.8401C249.962 76.039 249.691 76.1862 249.398 76.2719C249.105 76.3576 248.798 76.3798 248.496 76.3371C244.384 75.7819 240.579 73.8583 237.695 70.8765C234.81 67.8947 233.014 64.0284 232.595 59.9008H230.451C230.231 59.8926 230.016 59.8273 229.828 59.7114C229.639 59.5954 229.485 59.4327 229.378 59.2391C229.272 59.0456 229.217 58.8277 229.22 58.6068C229.223 58.3858 229.282 58.1694 229.394 57.9785Z" fill="#FAFAFA"/>
<path d="M250.975 41.864C250.972 41.5553 251.035 41.2496 251.161 40.9678C251.287 40.686 251.473 40.4347 251.705 40.2312C251.937 40.0276 252.21 39.8766 252.506 39.7884C252.802 39.7002 253.113 39.6769 253.419 39.7201C257.529 40.2777 261.332 42.2021 264.217 45.1834C267.101 48.1648 268.898 52.0297 269.319 56.1564H271.463C271.688 56.1561 271.909 56.2151 272.104 56.3276C272.299 56.44 272.461 56.6019 272.573 56.7969C272.686 56.9919 272.744 57.2131 272.744 57.4382C272.744 57.6632 272.684 57.8842 272.571 58.0787L268.419 65.2249C268.306 65.4193 268.145 65.5808 267.95 65.693C267.756 65.8052 267.535 65.8643 267.311 65.8643C267.086 65.8643 266.866 65.8052 266.671 65.693C266.477 65.5808 266.316 65.4193 266.203 65.2249L262.058 58.0787C261.945 57.8842 261.885 57.6632 261.885 57.4382C261.885 57.2131 261.943 56.9919 262.056 56.7969C262.168 56.6019 262.33 56.44 262.525 56.3276C262.72 56.2151 262.941 56.1561 263.166 56.1564H265.046C264.635 53.0737 263.224 50.2109 261.03 48.0073C258.835 45.8037 255.978 44.3811 252.897 43.9578C252.376 43.9038 251.893 43.661 251.539 43.2753C251.185 42.8895 250.984 42.3875 250.975 41.864Z" fill="#FAFAFA"/>
<path d="M180.077 255.764L184.951 254.414L182.307 242.98L177.426 244.338L180.077 255.764Z" fill="#FF8B7B"/>
<path d="M121.793 255.607L126.795 256.393L129.004 244.981H123.944L121.793 255.607Z" fill="#FF8B7B"/>
<path d="M127.238 255.872L121.621 254.986C121.522 254.969 121.421 254.987 121.333 255.036C121.246 255.086 121.179 255.164 121.142 255.257L119.456 259.545C119.408 259.649 119.387 259.762 119.392 259.876C119.398 259.99 119.431 260.101 119.488 260.2C119.546 260.299 119.626 260.382 119.722 260.443C119.819 260.505 119.928 260.542 120.042 260.552C122.007 260.824 122.979 260.86 125.451 261.267C126.974 261.51 128.424 261.882 135.135 261.882C137.214 261.882 137.536 259.788 136.671 259.595C132.769 258.744 129.06 257.623 128.003 256.322C127.812 256.083 127.54 255.923 127.238 255.872Z" fill="#263238"/>
<path d="M184.765 253.856L179.434 255.336C179.338 255.364 179.254 255.424 179.196 255.506C179.138 255.587 179.109 255.686 179.113 255.786L179.356 260.388C179.357 260.5 179.384 260.611 179.436 260.71C179.488 260.81 179.562 260.896 179.654 260.961C179.745 261.026 179.85 261.069 179.961 261.087C180.072 261.104 180.185 261.095 180.292 261.06C182.207 260.495 184.951 259.631 187.367 258.916C190.189 258.137 192.669 257.615 195.985 256.693C197.986 256.136 197.979 253.964 197.093 254.006C193.041 254.235 189.903 255.007 186.045 253.885C185.629 253.758 185.186 253.748 184.765 253.856Z" fill="#263238"/>
<path d="M182.307 242.987L183.672 248.876L178.791 250.226L177.426 244.338L182.307 242.987Z" fill="#EA7063"/>
<path d="M123.944 244.981H129.004L127.832 251.027H122.715L123.944 244.981Z" fill="#EA7063"/>
<path d="M164.705 84.2198C164.705 84.2198 170.679 99.5055 165.005 127.969H137.921C137.735 123.81 140.351 103.543 136.342 83.9625C139.334 83.383 142.361 83.001 145.403 82.8191C149.235 82.5938 153.077 82.5938 156.909 82.8191C159.54 83.0824 162.147 83.5507 164.705 84.2198Z" fill="#407BFF"/>
<path opacity="0.1" d="M164.705 84.2198C164.705 84.2198 170.679 99.5055 165.005 127.969H137.921C137.735 123.81 140.351 103.543 136.342 83.9625C139.334 83.383 142.361 83.001 145.403 82.8191C149.235 82.5938 153.077 82.5938 156.909 82.8191C159.54 83.0824 162.147 83.5507 164.705 84.2198Z" fill="black"/>
<path d="M178.891 111.161C178.784 110.76 178.646 110.368 178.476 109.989L178.234 109.396L177.755 108.21L176.79 105.823L174.846 100.978C173.546 97.7618 172.202 94.546 170.809 91.3873L163.427 94.4745C164.727 97.7332 166.114 100.906 167.586 104.122C168.3 105.715 169.065 107.295 169.837 108.881C170.223 109.674 170.608 110.468 171.016 111.254L171.58 112.361L171.423 112.419C169.996 112.918 168.521 113.266 167.021 113.455C163.798 113.926 160.339 114.169 156.966 114.348L156.616 118.3C160.185 119.025 163.816 119.399 167.457 119.415C169.443 119.443 171.425 119.232 173.36 118.786C173.938 118.64 174.504 118.451 175.053 118.221C175.747 117.932 176.396 117.547 176.983 117.078C177.83 116.397 178.467 115.49 178.819 114.462C179.161 113.392 179.185 112.245 178.891 111.161Z" fill="#FF8B7B"/>
<path d="M158.695 87.6857C156.995 92.2164 165.634 105.551 165.634 105.551L175.753 100.056C174.233 95.9091 172.273 91.937 169.908 88.2073C166.328 82.8691 160.568 82.7119 158.695 87.6857Z" fill="#407BFF"/>
<path opacity="0.1" d="M158.695 87.6857C156.995 92.2164 165.634 105.551 165.634 105.551L175.753 100.056C174.233 95.9091 172.273 91.937 169.908 88.2073C166.328 82.8691 160.568 82.7119 158.695 87.6857Z" fill="black"/>
<path d="M148.677 111.583L148.205 116.907L153.014 117.543L153.822 111.704L148.677 111.583Z" fill="#FF8B7B"/>
<path d="M157.638 114.655L153.822 111.697L153.015 117.535C153.015 117.535 156.438 120.008 158.796 117.7L157.638 114.655Z" fill="#FF8B7B"/>
<path d="M146.554 69.8558C147.269 73.5647 147.983 80.3465 145.418 82.8191C145.418 82.8191 146.904 86.5708 153.786 86.5708C160.075 86.5708 156.923 82.8191 156.923 82.8191C152.793 81.8329 153.1 76.6019 154.065 72.7715L146.554 69.8558Z" fill="#FF8B7B"/>
<path d="M147.211 75.0223L149.691 73.2214C149.827 73.6002 151.942 75.0223 151.621 75.7798C150.541 78.3381 148.541 79.2457 147.09 78.7955C147.246 77.5442 147.287 76.2811 147.211 75.0223Z" fill="#EA7063"/>
<path d="M146.225 62.0879L141.98 59.2294C139.98 60.9373 139.629 65.5323 142.173 68.4194C147.262 67.469 146.225 62.0879 146.225 62.0879Z" fill="#263238"/>
<path d="M155.344 63.8171C155.344 69.1268 155.658 72.2354 153.2 75.1296C149.456 79.4816 142.767 77.495 141.152 72.2711C139.722 67.5903 139.894 59.6938 144.932 57.264C146.039 56.7262 147.266 56.4793 148.495 56.5468C149.724 56.6142 150.916 56.9937 151.958 57.6494C153 58.3052 153.857 59.2155 154.45 60.2947C155.042 61.3738 155.35 62.5861 155.344 63.8171Z" fill="#FF8B7B"/>
<path d="M156.359 60.4942L151.292 59.6796C150.199 62.0664 151.828 66.3827 155.351 67.9263C159.575 64.932 156.359 60.4942 156.359 60.4942Z" fill="#263238"/>
<path d="M145.561 61.009C143.381 61.2449 135.963 61.0448 139.708 53.5198C139.708 54.4274 140.558 56.9 142.681 54.2344C144.467 51.9834 148.441 55.0134 148.04 52.8052C148.04 52.8052 149.47 53.5198 148.755 54.4059C148.04 55.2921 153.45 52.5551 156.501 54.3202C154.951 54.4774 154.779 56.6213 157.037 58.0648C159.181 59.4369 157.631 62.9671 154.894 62.3025C152.157 61.6379 150.992 60.4159 145.561 61.009Z" fill="#263238"/>
<path d="M157.781 67.9835C157.519 69.1235 156.821 70.1158 155.837 70.7491C154.537 71.5781 153.472 70.5133 153.493 69.0412C153.493 67.7191 154.208 65.6967 155.68 65.4681C157.152 65.2394 158.096 66.5829 157.781 67.9835Z" fill="#FF8B7B"/>
<path d="M165.006 127.969C165.006 127.969 175.111 168.224 177.155 183.531C179.298 199.446 184.422 246.632 184.422 246.632L176.511 249.169C176.511 249.169 165.213 202.819 162.176 187.347C158.839 170.475 147.212 127.969 147.212 127.969H165.006Z" fill="#407BFF"/>
<path opacity="0.6" d="M165.006 127.969C165.006 127.969 175.111 168.224 177.155 183.531C179.298 199.446 184.422 246.632 184.422 246.632L176.511 249.169C176.511 249.169 165.213 202.819 162.176 187.347C158.839 170.475 147.212 127.969 147.212 127.969H165.006Z" fill="#FAFAFA"/>
<path d="M176.111 249.726L184.987 246.946L184.865 243.652L175.175 246.81L176.111 249.726Z" fill="#407BFF"/>
<path opacity="0.2" d="M176.111 249.726L184.987 246.946L184.865 243.652L175.175 246.81L176.111 249.726Z" fill="black"/>
<path d="M152.857 130.942L150.499 140.16C152.686 148.393 155.616 159.555 158.088 169.596C158.323 156.52 156.559 143.485 152.857 130.942Z" fill="#407BFF"/>
<path opacity="0.4" d="M152.857 130.942L150.499 140.16C152.686 148.393 155.616 159.555 158.088 169.596C158.323 156.52 156.559 143.485 152.857 130.942Z" fill="#FAFAFA"/>
<path d="M155.408 127.969C155.408 127.969 153.107 169.339 149.956 183.824C146.497 199.696 130.061 249.855 130.061 249.855H120.771C120.771 249.855 132.798 200.975 134.763 185.267C136.907 168.217 137.929 127.969 137.929 127.969H155.408Z" fill="#407BFF"/>
<path opacity="0.6" d="M155.408 127.969C155.408 127.969 153.107 169.339 149.956 183.824C146.497 199.696 130.061 249.855 130.061 249.855H120.771C120.771 249.855 132.798 200.975 134.763 185.267C136.907 168.217 137.929 127.969 137.929 127.969H155.408Z" fill="#FAFAFA"/>
<path d="M120.099 249.998H130.725L131.697 247.146H120.099V249.998Z" fill="#407BFF"/>
<path opacity="0.2" d="M120.099 249.998H130.725L131.697 247.146H120.099V249.998Z" fill="black"/>
<path d="M124.515 244.381C124.504 244.379 124.493 244.375 124.483 244.369C124.473 244.363 124.465 244.355 124.458 244.346C124.452 244.336 124.447 244.326 124.444 244.315C124.442 244.303 124.442 244.292 124.444 244.281C124.522 243.809 135.706 199.974 137.471 185.832C139.394 170.517 139.994 133.857 140.037 133.521C140.04 133.499 140.052 133.479 140.069 133.465C140.086 133.45 140.107 133.442 140.13 133.443C140.142 133.444 140.153 133.447 140.164 133.453C140.175 133.458 140.184 133.466 140.191 133.475C140.199 133.485 140.204 133.496 140.207 133.507C140.21 133.519 140.21 133.531 140.208 133.543C140.165 133.879 139.565 170.539 137.643 185.853C135.878 199.967 124.694 243.837 124.615 244.309C124.614 244.32 124.61 244.331 124.604 244.341C124.598 244.351 124.59 244.359 124.58 244.366C124.571 244.373 124.56 244.377 124.549 244.38C124.538 244.382 124.526 244.383 124.515 244.381Z" fill="#407BFF"/>
<path opacity="0.4" d="M124.515 244.381C124.504 244.379 124.493 244.375 124.483 244.369C124.473 244.363 124.465 244.355 124.458 244.346C124.452 244.336 124.447 244.326 124.444 244.315C124.442 244.303 124.442 244.292 124.444 244.281C124.522 243.809 135.706 199.974 137.471 185.832C139.394 170.517 139.994 133.857 140.037 133.521C140.04 133.499 140.052 133.479 140.069 133.465C140.086 133.45 140.107 133.442 140.13 133.443C140.142 133.444 140.153 133.447 140.164 133.453C140.175 133.458 140.184 133.466 140.191 133.475C140.199 133.485 140.204 133.496 140.207 133.507C140.21 133.519 140.21 133.531 140.208 133.543C140.165 133.879 139.565 170.539 137.643 185.853C135.878 199.967 124.694 243.837 124.615 244.309C124.614 244.32 124.61 244.331 124.604 244.341C124.598 244.351 124.59 244.359 124.58 244.366C124.571 244.373 124.56 244.377 124.549 244.38C124.538 244.382 124.526 244.383 124.515 244.381Z" fill="#FAFAFA"/>
<path d="M147.419 65.8611C147.419 66.2899 147.24 66.6543 146.962 66.6757C146.683 66.6972 146.426 66.3613 146.397 65.9254C146.369 65.4895 146.576 65.1322 146.855 65.1179C147.133 65.1036 147.39 65.4323 147.419 65.8611Z" fill="#263238"/>
<path d="M142.552 66.1826C142.552 66.6185 142.373 66.983 142.095 66.9973C141.816 67.0116 141.559 66.6828 141.53 66.2826C141.501 65.8825 141.709 65.4894 141.987 65.468C142.266 65.4465 142.523 65.7538 142.552 66.1826Z" fill="#263238"/>
<path d="M144.11 66.2972C143.683 67.6478 143.075 68.934 142.302 70.1205C142.61 70.3102 142.955 70.4302 143.315 70.4722C143.674 70.5142 144.038 70.477 144.381 70.3634L144.11 66.2972Z" fill="#FF5652"/>
<path d="M145.718 71.4707C145.685 71.4728 145.652 71.462 145.627 71.4407C145.602 71.4194 145.586 71.3892 145.582 71.3564C145.58 71.3393 145.582 71.3219 145.587 71.3055C145.592 71.2891 145.601 71.2739 145.612 71.2611C145.623 71.2482 145.638 71.238 145.653 71.231C145.669 71.224 145.686 71.2205 145.703 71.2206C146.239 71.1963 146.762 71.0458 147.229 70.7813C147.696 70.5168 148.094 70.1458 148.39 69.6985C148.407 69.6695 148.434 69.6481 148.466 69.6388C148.498 69.6295 148.532 69.6329 148.562 69.6484C148.577 69.6559 148.59 69.6664 148.601 69.6793C148.612 69.6921 148.62 69.7071 148.624 69.7232C148.629 69.7393 148.63 69.7563 148.628 69.7729C148.626 69.7895 148.621 69.8056 148.612 69.8199C148.297 70.307 147.87 70.7112 147.366 70.9985C146.863 71.2859 146.297 71.4478 145.718 71.4707Z" fill="#263238"/>
<path d="M148.777 64.196C148.738 64.196 148.699 64.1877 148.663 64.1716C148.627 64.1556 148.595 64.1323 148.569 64.1031C148.365 63.8622 148.108 63.6721 147.818 63.548C147.528 63.424 147.212 63.3694 146.897 63.3885C146.864 63.3946 146.83 63.3938 146.798 63.3861C146.765 63.3785 146.734 63.3641 146.707 63.3439C146.68 63.3238 146.658 63.2983 146.642 63.2691C146.625 63.2399 146.615 63.2075 146.611 63.1741C146.603 63.108 146.621 63.0412 146.661 62.9879C146.701 62.9346 146.76 62.8989 146.826 62.8883C147.23 62.8562 147.635 62.922 148.009 63.08C148.382 63.2379 148.711 63.4835 148.97 63.7958C148.993 63.8191 149.012 63.8469 149.025 63.8776C149.038 63.9083 149.045 63.9412 149.045 63.9745C149.045 64.0078 149.038 64.0407 149.025 64.0714C149.012 64.1021 148.993 64.1299 148.97 64.1532C148.912 64.1899 148.844 64.2051 148.777 64.196Z" fill="#263238"/>
<path d="M140.251 64.6033C140.213 64.6108 140.175 64.6108 140.137 64.6033C140.077 64.5727 140.031 64.5195 140.009 64.4553C139.988 64.3911 139.993 64.321 140.023 64.2603C140.189 63.8947 140.441 63.5743 140.757 63.3257C141.073 63.077 141.443 62.9075 141.838 62.831C141.871 62.8268 141.904 62.8291 141.936 62.8378C141.968 62.8464 141.998 62.8613 142.024 62.8816C142.05 62.9018 142.072 62.927 142.089 62.9557C142.105 62.9845 142.116 63.0162 142.12 63.049C142.124 63.0818 142.122 63.1152 142.113 63.1472C142.105 63.1791 142.09 63.2091 142.069 63.2353C142.049 63.2615 142.024 63.2835 141.995 63.2999C141.967 63.3164 141.935 63.3271 141.902 63.3313C141.59 63.3979 141.299 63.5367 141.05 63.7365C140.802 63.9363 140.604 64.1916 140.473 64.4818C140.451 64.5204 140.418 64.5522 140.379 64.5736C140.34 64.595 140.296 64.6053 140.251 64.6033Z" fill="#263238"/>
<path d="M139.037 92.3163C137.664 96.1252 136.25 99.9485 134.827 103.75C133.405 107.552 131.969 111.375 130.704 115.034C129.589 118.55 128.775 122.559 127.96 126.468C127.145 130.377 126.331 134.429 125.48 138.402L121.528 138.016C121.528 133.872 121.643 129.762 121.957 125.625C122.129 123.567 122.3 121.494 122.579 119.408C122.834 117.258 123.214 115.125 123.715 113.019C124.244 110.911 124.83 108.931 125.444 106.952C126.059 104.972 126.688 103.014 127.345 101.063C128.66 97.1614 130.047 93.3168 131.54 89.4792L139.037 92.3163Z" fill="#FF8B7B"/>
<path d="M136.356 83.9624C131.568 84.677 126.08 101.249 126.08 101.249L136.142 106.966C136.142 106.966 140.565 99.1052 142.752 93.2167C145.068 87.0352 141.494 83.212 136.356 83.9624Z" fill="#407BFF"/>
<path opacity="0.1" d="M136.356 83.9624C131.568 84.677 126.08 101.249 126.08 101.249L136.142 106.966C136.142 106.966 140.565 99.1052 142.752 93.2167C145.068 87.0352 141.494 83.212 136.356 83.9624Z" fill="black"/>
<path d="M128.753 257.008C129.089 257.087 129.442 257.049 129.753 256.901C129.856 256.84 129.942 256.755 130.003 256.652C130.064 256.55 130.099 256.434 130.104 256.315C130.114 256.246 130.105 256.176 130.079 256.112C130.052 256.048 130.009 255.992 129.954 255.95C129.446 255.579 127.674 256.315 127.474 256.401C127.454 256.411 127.436 256.426 127.424 256.445C127.411 256.463 127.404 256.485 127.402 256.508C127.403 256.532 127.409 256.555 127.422 256.575C127.435 256.595 127.452 256.612 127.474 256.622C127.885 256.798 128.314 256.927 128.753 257.008ZM129.661 256.086C129.714 256.094 129.765 256.113 129.811 256.143C129.811 256.143 129.868 256.201 129.861 256.293C129.86 256.375 129.838 256.455 129.798 256.526C129.758 256.598 129.701 256.658 129.632 256.701C129.034 256.867 128.394 256.798 127.845 256.508C128.418 256.253 129.034 256.11 129.661 256.086Z" fill="#407BFF"/>
<path d="M127.502 256.629H127.559C128.124 256.429 129.296 255.493 129.274 254.921C129.272 254.831 129.238 254.744 129.178 254.676C129.118 254.608 129.035 254.563 128.946 254.55C128.859 254.524 128.767 254.517 128.677 254.53C128.587 254.542 128.501 254.573 128.424 254.621C127.767 255.007 127.416 256.429 127.402 256.486C127.399 256.508 127.4 256.53 127.406 256.551C127.413 256.572 127.423 256.591 127.438 256.608L127.502 256.629ZM128.831 254.764H128.881C129.031 254.807 129.039 254.886 129.039 254.914C129.039 255.25 128.281 255.979 127.702 256.286C127.831 255.723 128.125 255.21 128.545 254.814C128.587 254.787 128.634 254.769 128.683 254.761C128.732 254.752 128.783 254.753 128.831 254.764Z" fill="#407BFF"/>
<path d="M187.03 254.142C187.457 254.066 187.845 253.846 188.131 253.521C188.191 253.429 188.228 253.323 188.238 253.213C188.248 253.104 188.231 252.993 188.188 252.892C188.168 252.83 188.132 252.775 188.085 252.731C188.037 252.688 187.979 252.657 187.917 252.642C187.202 252.47 185.544 254.014 185.358 254.185C185.344 254.205 185.336 254.229 185.336 254.253C185.336 254.278 185.344 254.301 185.358 254.321C185.366 254.345 185.381 254.365 185.402 254.38C185.423 254.394 185.448 254.401 185.473 254.4C185.998 254.36 186.52 254.274 187.03 254.142ZM187.631 252.892C187.706 252.871 187.785 252.871 187.859 252.892C187.885 252.899 187.908 252.913 187.927 252.932C187.946 252.95 187.959 252.974 187.967 252.999C187.999 253.062 188.015 253.132 188.015 253.203C188.015 253.273 187.999 253.343 187.967 253.406C187.738 253.756 186.945 254.028 185.823 254.121C186.353 253.613 186.964 253.198 187.631 252.892Z" fill="#407BFF"/>
<path d="M185.465 254.393H185.515C186.03 253.964 186.902 252.585 186.659 252.056C186.602 251.934 186.466 251.798 186.144 251.856C186.026 251.872 185.912 251.914 185.811 251.978C185.71 252.042 185.624 252.127 185.558 252.227C185.259 252.882 185.174 253.615 185.315 254.321C185.329 254.361 185.357 254.394 185.394 254.414L185.465 254.393ZM186.108 252.084H186.18C186.394 252.049 186.43 252.127 186.444 252.149C186.587 252.47 186.023 253.514 185.522 254.042C185.424 253.472 185.504 252.886 185.751 252.363C185.833 252.23 185.96 252.131 186.108 252.084Z" fill="#407BFF"/>
<path d="M125.644 137.831L124.672 141.711L120.342 139.088C120.342 139.088 120.971 134.915 124.272 134.843L125.644 137.831Z" fill="#FF8B7B"/>
<path d="M121.328 143.569L118.112 141.689L120.342 139.117L124.673 141.732L121.328 143.569Z" fill="#FF8B7B"/>
<path d="M192.769 119.765C192.485 119.765 192.212 119.652 192.011 119.451C191.81 119.25 191.697 118.977 191.697 118.693V114.405C191.697 114.121 191.81 113.848 192.011 113.647C192.212 113.446 192.485 113.333 192.769 113.333C193.053 113.333 193.326 113.446 193.527 113.647C193.728 113.848 193.841 114.121 193.841 114.405V118.693C193.841 118.977 193.728 119.25 193.527 119.451C193.326 119.652 193.053 119.765 192.769 119.765Z" fill="#407BFF"/>
<path d="M192.769 105.523C192.485 105.523 192.212 105.41 192.011 105.209C191.81 105.008 191.697 104.735 191.697 104.451V95.9181C191.697 95.6338 191.81 95.3612 192.011 95.1601C192.212 94.9591 192.485 94.8462 192.769 94.8462C193.054 94.8462 193.326 94.9591 193.527 95.1601C193.728 95.3612 193.841 95.6338 193.841 95.9181V104.451C193.841 104.591 193.814 104.731 193.76 104.861C193.706 104.991 193.627 105.109 193.527 105.209C193.428 105.308 193.31 105.387 193.18 105.441C193.05 105.495 192.91 105.523 192.769 105.523ZM192.769 87.0282C192.485 87.0282 192.212 86.9153 192.011 86.7143C191.81 86.5132 191.697 86.2406 191.697 85.9563V77.3951C191.697 77.1108 191.81 76.8382 192.011 76.6372C192.212 76.4361 192.485 76.3232 192.769 76.3232C193.054 76.3232 193.326 76.4361 193.527 76.6372C193.728 76.8382 193.841 77.1108 193.841 77.3951V85.9706C193.838 86.2524 193.723 86.5214 193.522 86.7193C193.322 86.9173 193.051 87.0283 192.769 87.0282ZM106.014 84.82C105.73 84.82 105.457 84.7071 105.256 84.5061C105.055 84.3051 104.942 84.0324 104.942 83.7481V75.2084C104.942 74.9241 105.055 74.6514 105.256 74.4504C105.457 74.2494 105.73 74.1365 106.014 74.1365C106.299 74.1365 106.571 74.2494 106.772 74.4504C106.973 74.6514 107.086 74.9241 107.086 75.2084V83.7481C107.086 84.0324 106.973 84.3051 106.772 84.5061C106.571 84.7071 106.299 84.82 106.014 84.82ZM192.769 68.5338C192.485 68.5338 192.212 68.4209 192.011 68.2199C191.81 68.0188 191.697 67.7462 191.697 67.4619V58.9293C191.697 58.645 191.81 58.3724 192.011 58.1713C192.212 57.9703 192.485 57.8574 192.769 57.8574C193.054 57.8574 193.326 57.9703 193.527 58.1713C193.728 58.3724 193.841 58.645 193.841 58.9293V67.4619C193.841 67.7462 193.728 68.0188 193.527 68.2199C193.326 68.4209 193.054 68.5338 192.769 68.5338ZM106.014 66.3256C105.73 66.3256 105.457 66.2127 105.256 66.0117C105.055 65.8107 104.942 65.538 104.942 65.2537V56.714C104.942 56.4297 105.055 56.157 105.256 55.956C105.457 55.755 105.73 55.6421 106.014 55.6421C106.299 55.6421 106.571 55.755 106.772 55.956C106.973 56.157 107.086 56.4297 107.086 56.714V65.2466C107.087 65.3879 107.06 65.5281 107.007 65.659C106.953 65.7899 106.874 65.9089 106.775 66.0092C106.675 66.1095 106.557 66.1891 106.426 66.2434C106.296 66.2977 106.156 66.3256 106.014 66.3256ZM192.162 50.0751C191.909 50.0751 191.665 49.9852 191.473 49.8215C191.28 49.6579 191.152 49.4312 191.111 49.1819C190.645 46.4444 189.913 43.759 188.925 41.1638C188.837 40.9015 188.853 40.6153 188.971 40.3651C189.089 40.1149 189.3 39.92 189.558 39.8212C189.817 39.7224 190.103 39.7274 190.358 39.8352C190.613 39.9429 190.816 40.145 190.926 40.3992C191.966 43.1203 192.734 45.9377 193.22 48.8103C193.267 49.0898 193.202 49.3768 193.039 49.6085C192.876 49.8402 192.627 49.9977 192.348 50.0466L192.162 50.0751ZM107.051 47.9313C106.972 47.9383 106.893 47.9383 106.815 47.9313C106.677 47.9008 106.547 47.8436 106.432 47.7628C106.316 47.682 106.218 47.5793 106.142 47.4605C106.067 47.3417 106.015 47.2092 105.991 47.0705C105.966 46.9318 105.969 46.7896 106 46.6521C106.633 43.803 107.547 41.0237 108.73 38.3554C108.785 38.2237 108.867 38.1047 108.97 38.0056C109.073 37.9064 109.195 37.8291 109.328 37.7783C109.462 37.7276 109.604 37.7044 109.747 37.7103C109.89 37.7161 110.03 37.7508 110.159 37.8123C110.29 37.8688 110.408 37.9509 110.507 38.0537C110.606 38.1566 110.683 38.2781 110.735 38.4112C110.786 38.5443 110.81 38.6863 110.806 38.8289C110.801 38.9715 110.769 39.1117 110.709 39.2415C109.588 41.7699 108.719 44.403 108.115 47.1023C108.054 47.337 107.916 47.5443 107.723 47.6908C107.53 47.8373 107.293 47.9144 107.051 47.9098V47.9313ZM185.33 33.0672C185.155 33.0675 184.983 33.0246 184.828 32.9423C184.673 32.86 184.542 32.7409 184.444 32.5955C182.889 30.2942 181.108 28.154 179.127 26.2068C178.924 26.0068 178.809 25.7345 178.807 25.4497C178.805 25.1649 178.917 24.891 179.117 24.6882C179.316 24.4854 179.589 24.3704 179.874 24.3684C180.158 24.3664 180.432 24.4776 180.635 24.6775C182.71 26.7295 184.579 28.9793 186.216 31.3949C186.296 31.5111 186.352 31.6418 186.38 31.7796C186.409 31.9174 186.41 32.0596 186.383 32.1978C186.357 32.336 186.303 32.4676 186.225 32.5849C186.148 32.7023 186.047 32.803 185.93 32.8814C185.752 32.9968 185.542 33.0542 185.33 33.0457V33.0672ZM114.74 31.2735C114.541 31.2735 114.346 31.218 114.176 31.1134C114.007 31.0087 113.87 30.859 113.781 30.6809C113.692 30.5029 113.654 30.3035 113.672 30.1053C113.69 29.907 113.763 29.7176 113.882 29.5584C115.639 27.226 117.621 25.0718 119.799 23.1268C119.902 23.0237 120.025 22.9427 120.161 22.8887C120.296 22.8347 120.441 22.8089 120.587 22.8128C120.732 22.8167 120.876 22.8503 121.008 22.9114C121.14 22.9726 121.258 23.0601 121.356 23.1686C121.453 23.2771 121.527 23.4043 121.574 23.5424C121.62 23.6805 121.638 23.8266 121.626 23.9719C121.614 24.1171 121.573 24.2584 121.504 24.3871C121.436 24.5158 121.342 24.6292 121.229 24.7204C119.157 26.5711 117.271 28.6199 115.597 30.8375C115.496 30.9676 115.365 31.0727 115.217 31.1445C115.068 31.2164 114.905 31.2532 114.74 31.252V31.2735ZM172.067 20.3826C171.87 20.3839 171.677 20.3294 171.509 20.2254C169.144 18.7687 166.64 17.5503 164.034 16.588C163.888 16.5531 163.751 16.4877 163.631 16.3962C163.512 16.3046 163.413 16.189 163.341 16.0567C163.269 15.9245 163.226 15.7786 163.215 15.6286C163.203 15.4785 163.223 15.3277 163.273 15.1859C163.324 15.0442 163.404 14.9146 163.507 14.8057C163.611 14.6968 163.737 14.6109 163.876 14.5538C164.015 14.4966 164.165 14.4694 164.315 14.4739C164.466 14.4784 164.614 14.5145 164.749 14.5799C167.489 15.5898 170.122 16.8681 172.61 18.396C172.81 18.5181 172.964 18.7022 173.049 18.9203C173.135 19.1384 173.146 19.3785 173.082 19.6037C173.018 19.829 172.882 20.0271 172.695 20.1678C172.508 20.3084 172.28 20.3839 172.045 20.3826H172.067ZM128.632 19.2535C128.393 19.2547 128.16 19.176 127.971 19.0298C127.782 18.8836 127.647 18.6784 127.588 18.4468C127.529 18.2152 127.549 17.9704 127.645 17.7514C127.741 17.5325 127.907 17.3518 128.118 17.2383C130.679 15.8409 133.372 14.6991 136.157 13.8296C136.423 13.763 136.704 13.8006 136.943 13.9347C137.181 14.0689 137.36 14.2893 137.441 14.5508C137.523 14.8123 137.501 15.0951 137.38 15.341C137.26 15.587 137.05 15.7775 136.793 15.8734C134.144 16.7017 131.583 17.7884 129.147 19.1178C128.99 19.2067 128.812 19.2535 128.632 19.2535ZM154.751 14.2941H154.623C151.866 13.9571 149.082 13.8877 146.312 14.0868C146.028 14.1077 145.747 14.0147 145.531 13.8284C145.315 13.6422 145.182 13.3778 145.161 13.0935C145.14 12.8092 145.233 12.5283 145.42 12.3125C145.606 12.0967 145.87 11.9638 146.155 11.943C149.063 11.7353 151.985 11.8071 154.88 12.1573C155.164 12.1744 155.43 12.3037 155.619 12.5168C155.808 12.7299 155.905 13.0093 155.888 13.2936C155.871 13.5779 155.741 13.8438 155.528 14.0327C155.315 14.2217 155.036 14.3183 154.751 14.3012V14.2941Z" fill="#407BFF"/>
<path d="M106.014 99.1481C105.73 99.1481 105.457 99.0352 105.256 98.8342C105.055 98.6332 104.942 98.3605 104.942 98.0762V93.7885C104.942 93.5042 105.055 93.2315 105.256 93.0305C105.457 92.8295 105.73 92.7166 106.014 92.7166C106.299 92.7166 106.571 92.8295 106.772 93.0305C106.973 93.2315 107.086 93.5042 107.086 93.7885V98.0762C107.086 98.3605 106.973 98.6332 106.772 98.8342C106.571 99.0352 106.299 99.1481 106.014 99.1481Z" fill="#407BFF"/>
<g opacity="0.6">
<path d="M192.769 119.765C192.485 119.765 192.212 119.652 192.011 119.451C191.81 119.25 191.697 118.977 191.697 118.693V114.405C191.697 114.121 191.81 113.848 192.011 113.647C192.212 113.446 192.485 113.333 192.769 113.333C193.053 113.333 193.326 113.446 193.527 113.647C193.728 113.848 193.841 114.121 193.841 114.405V118.693C193.841 118.977 193.728 119.25 193.527 119.451C193.326 119.652 193.053 119.765 192.769 119.765Z" fill="#FAFAFA"/>
<path d="M192.769 105.523C192.485 105.523 192.212 105.41 192.011 105.209C191.81 105.008 191.697 104.735 191.697 104.451V95.9181C191.697 95.6338 191.81 95.3612 192.011 95.1601C192.212 94.9591 192.485 94.8462 192.769 94.8462C193.054 94.8462 193.326 94.9591 193.527 95.1601C193.728 95.3612 193.841 95.6338 193.841 95.9181V104.451C193.841 104.591 193.814 104.731 193.76 104.861C193.706 104.991 193.627 105.109 193.527 105.209C193.428 105.308 193.31 105.387 193.18 105.441C193.05 105.495 192.91 105.523 192.769 105.523ZM192.769 87.0282C192.485 87.0282 192.212 86.9153 192.011 86.7143C191.81 86.5132 191.697 86.2406 191.697 85.9563V77.3951C191.697 77.1108 191.81 76.8382 192.011 76.6372C192.212 76.4361 192.485 76.3232 192.769 76.3232C193.054 76.3232 193.326 76.4361 193.527 76.6372C193.728 76.8382 193.841 77.1108 193.841 77.3951V85.9706C193.838 86.2524 193.723 86.5214 193.522 86.7193C193.322 86.9173 193.051 87.0283 192.769 87.0282ZM106.014 84.82C105.73 84.82 105.457 84.7071 105.256 84.5061C105.055 84.3051 104.942 84.0324 104.942 83.7481V75.2084C104.942 74.9241 105.055 74.6514 105.256 74.4504C105.457 74.2494 105.73 74.1365 106.014 74.1365C106.299 74.1365 106.571 74.2494 106.772 74.4504C106.973 74.6514 107.086 74.9241 107.086 75.2084V83.7481C107.086 84.0324 106.973 84.3051 106.772 84.5061C106.571 84.7071 106.299 84.82 106.014 84.82ZM192.769 68.5338C192.485 68.5338 192.212 68.4209 192.011 68.2199C191.81 68.0188 191.697 67.7462 191.697 67.4619V58.9293C191.697 58.645 191.81 58.3724 192.011 58.1713C192.212 57.9703 192.485 57.8574 192.769 57.8574C193.054 57.8574 193.326 57.9703 193.527 58.1713C193.728 58.3724 193.841 58.645 193.841 58.9293V67.4619C193.841 67.7462 193.728 68.0188 193.527 68.2199C193.326 68.4209 193.054 68.5338 192.769 68.5338ZM106.014 66.3256C105.73 66.3256 105.457 66.2127 105.256 66.0117C105.055 65.8107 104.942 65.538 104.942 65.2537V56.714C104.942 56.4297 105.055 56.157 105.256 55.956C105.457 55.755 105.73 55.6421 106.014 55.6421C106.299 55.6421 106.571 55.755 106.772 55.956C106.973 56.157 107.086 56.4297 107.086 56.714V65.2466C107.087 65.3879 107.06 65.5281 107.007 65.659C106.953 65.7899 106.874 65.9089 106.775 66.0092C106.675 66.1095 106.557 66.1891 106.426 66.2434C106.296 66.2977 106.156 66.3256 106.014 66.3256ZM192.162 50.0751C191.909 50.0751 191.665 49.9852 191.473 49.8215C191.28 49.6579 191.152 49.4312 191.111 49.1819C190.645 46.4444 189.913 43.759 188.925 41.1638C188.837 40.9015 188.853 40.6153 188.971 40.3651C189.089 40.1149 189.3 39.92 189.558 39.8212C189.817 39.7224 190.103 39.7274 190.358 39.8352C190.613 39.9429 190.816 40.145 190.926 40.3992C191.966 43.1203 192.734 45.9377 193.22 48.8103C193.267 49.0898 193.202 49.3768 193.039 49.6085C192.876 49.8402 192.627 49.9977 192.348 50.0466L192.162 50.0751ZM107.051 47.9313C106.972 47.9383 106.893 47.9383 106.815 47.9313C106.677 47.9008 106.547 47.8436 106.432 47.7628C106.316 47.682 106.218 47.5793 106.142 47.4605C106.067 47.3417 106.015 47.2092 105.991 47.0705C105.966 46.9318 105.969 46.7896 106 46.6521C106.633 43.803 107.547 41.0237 108.73 38.3554C108.785 38.2237 108.867 38.1047 108.97 38.0056C109.073 37.9064 109.195 37.8291 109.328 37.7783C109.462 37.7276 109.604 37.7044 109.747 37.7103C109.89 37.7161 110.03 37.7508 110.159 37.8123C110.29 37.8688 110.408 37.9509 110.507 38.0537C110.606 38.1566 110.683 38.2781 110.735 38.4112C110.786 38.5443 110.81 38.6863 110.806 38.8289C110.801 38.9715 110.769 39.1117 110.709 39.2415C109.588 41.7699 108.719 44.403 108.115 47.1023C108.054 47.337 107.916 47.5443 107.723 47.6908C107.53 47.8373 107.293 47.9144 107.051 47.9098V47.9313ZM185.33 33.0672C185.155 33.0675 184.983 33.0246 184.828 32.9423C184.673 32.86 184.542 32.7409 184.444 32.5955C182.889 30.2942 181.108 28.154 179.127 26.2068C178.924 26.0068 178.809 25.7345 178.807 25.4497C178.805 25.1649 178.917 24.891 179.117 24.6882C179.316 24.4854 179.589 24.3704 179.874 24.3684C180.158 24.3664 180.432 24.4776 180.635 24.6775C182.71 26.7295 184.579 28.9793 186.216 31.3949C186.296 31.5111 186.352 31.6418 186.38 31.7796C186.409 31.9174 186.41 32.0596 186.383 32.1978C186.357 32.336 186.303 32.4676 186.225 32.5849C186.148 32.7023 186.047 32.803 185.93 32.8814C185.752 32.9968 185.542 33.0542 185.33 33.0457V33.0672ZM114.74 31.2735C114.541 31.2735 114.346 31.218 114.176 31.1134C114.007 31.0087 113.87 30.859 113.781 30.6809C113.692 30.5029 113.654 30.3035 113.672 30.1053C113.69 29.907 113.763 29.7176 113.882 29.5584C115.639 27.226 117.621 25.0718 119.799 23.1268C119.902 23.0237 120.025 22.9427 120.161 22.8887C120.296 22.8347 120.441 22.8089 120.587 22.8128C120.732 22.8167 120.876 22.8503 121.008 22.9114C121.14 22.9726 121.258 23.0601 121.356 23.1686C121.453 23.2771 121.527 23.4043 121.574 23.5424C121.62 23.6805 121.638 23.8266 121.626 23.9719C121.614 24.1171 121.573 24.2584 121.504 24.3871C121.436 24.5158 121.342 24.6292 121.229 24.7204C119.157 26.5711 117.271 28.6199 115.597 30.8375C115.496 30.9676 115.365 31.0727 115.217 31.1445C115.068 31.2164 114.905 31.2532 114.74 31.252V31.2735ZM172.067 20.3826C171.87 20.3839 171.677 20.3294 171.509 20.2254C169.144 18.7687 166.64 17.5503 164.034 16.588C163.888 16.5531 163.751 16.4877 163.631 16.3962C163.512 16.3046 163.413 16.189 163.341 16.0567C163.269 15.9245 163.226 15.7786 163.215 15.6286C163.203 15.4785 163.223 15.3277 163.273 15.1859C163.324 15.0442 163.404 14.9146 163.507 14.8057C163.611 14.6968 163.737 14.6109 163.876 14.5538C164.015 14.4966 164.165 14.4694 164.315 14.4739C164.466 14.4784 164.614 14.5145 164.749 14.5799C167.489 15.5898 170.122 16.8681 172.61 18.396C172.81 18.5181 172.964 18.7022 173.049 18.9203C173.135 19.1384 173.146 19.3785 173.082 19.6037C173.018 19.829 172.882 20.0271 172.695 20.1678C172.508 20.3084 172.28 20.3839 172.045 20.3826H172.067ZM128.632 19.2535C128.393 19.2547 128.16 19.176 127.971 19.0298C127.782 18.8836 127.647 18.6784 127.588 18.4468C127.529 18.2152 127.549 17.9704 127.645 17.7514C127.741 17.5325 127.907 17.3518 128.118 17.2383C130.679 15.8409 133.372 14.6991 136.157 13.8296C136.423 13.763 136.704 13.8006 136.943 13.9347C137.181 14.0689 137.36 14.2893 137.441 14.5508C137.523 14.8123 137.501 15.0951 137.38 15.341C137.26 15.587 137.05 15.7775 136.793 15.8734C134.144 16.7017 131.583 17.7884 129.147 19.1178C128.99 19.2067 128.812 19.2535 128.632 19.2535ZM154.751 14.2941H154.623C151.866 13.9571 149.082 13.8877 146.312 14.0868C146.028 14.1077 145.747 14.0147 145.531 13.8284C145.315 13.6422 145.182 13.3778 145.161 13.0935C145.14 12.8092 145.233 12.5283 145.42 12.3125C145.606 12.0967 145.87 11.9638 146.155 11.943C149.063 11.7353 151.985 11.8071 154.88 12.1573C155.164 12.1744 155.43 12.3037 155.619 12.5168C155.808 12.7299 155.905 13.0093 155.888 13.2936C155.871 13.5779 155.741 13.8438 155.528 14.0327C155.315 14.2217 155.036 14.3183 154.751 14.3012V14.2941Z" fill="#FAFAFA"/>
<path d="M106.014 99.1481C105.73 99.1481 105.457 99.0352 105.256 98.8342C105.055 98.6332 104.942 98.3605 104.942 98.0762V93.7885C104.942 93.5042 105.055 93.2315 105.256 93.0305C105.457 92.8295 105.73 92.7166 106.014 92.7166C106.299 92.7166 106.571 92.8295 106.772 93.0305C106.973 93.2315 107.086 93.5042 107.086 93.7885V98.0762C107.086 98.3605 106.973 98.6332 106.772 98.8342C106.571 99.0352 106.299 99.1481 106.014 99.1481Z" fill="#FAFAFA"/>
</g>
<path d="M222.626 184.695C214.427 184.684 206.566 181.422 200.769 175.624C194.971 169.826 191.709 161.966 191.697 153.767V126.704C191.697 126.42 191.81 126.147 192.011 125.946C192.212 125.745 192.485 125.632 192.769 125.632C193.053 125.632 193.326 125.745 193.527 125.946C193.728 126.147 193.841 126.42 193.841 126.704V153.767C193.841 161.401 196.874 168.722 202.272 174.121C207.67 179.519 214.992 182.552 222.626 182.552C230.26 182.552 237.582 179.519 242.98 174.121C248.378 168.722 251.411 161.401 251.411 153.767V79.1958C251.411 78.9115 251.524 78.6389 251.725 78.4379C251.926 78.2368 252.199 78.1239 252.483 78.1239C252.767 78.1239 253.04 78.2368 253.241 78.4379C253.442 78.6389 253.555 78.9115 253.555 79.1958V153.767C253.544 161.966 250.281 169.826 244.484 175.624C238.686 181.422 230.825 184.684 222.626 184.695Z" fill="#407BFF"/>
<path opacity="0.3" d="M222.626 184.695C214.427 184.684 206.566 181.422 200.769 175.624C194.971 169.826 191.709 161.966 191.697 153.767V126.704C191.697 126.42 191.81 126.147 192.011 125.946C192.212 125.745 192.485 125.632 192.769 125.632C193.053 125.632 193.326 125.745 193.527 125.946C193.728 126.147 193.841 126.42 193.841 126.704V153.767C193.841 161.401 196.874 168.722 202.272 174.121C207.67 179.519 214.992 182.552 222.626 182.552C230.26 182.552 237.582 179.519 242.98 174.121C248.378 168.722 251.411 161.401 251.411 153.767V79.1958C251.411 78.9115 251.524 78.6389 251.725 78.4379C251.926 78.2368 252.199 78.1239 252.483 78.1239C252.767 78.1239 253.04 78.2368 253.241 78.4379C253.442 78.6389 253.555 78.9115 253.555 79.1958V153.767C253.544 161.966 250.281 169.826 244.484 175.624C238.686 181.422 230.825 184.684 222.626 184.695Z" fill="black"/>
<path d="M85.3833 262.482H138.151C139.162 262.492 140.164 262.292 141.094 261.893C142.023 261.495 142.859 260.907 143.549 260.167C144.239 259.428 144.767 258.553 145.1 257.598C145.433 256.643 145.563 255.629 145.483 254.621L135.064 105.98C134.875 103.859 133.909 101.883 132.351 100.432C130.793 98.9803 128.753 98.1566 126.624 98.1191H73.885C72.8735 98.1079 71.8707 98.3077 70.9408 98.7058C70.0109 99.104 69.1742 99.6917 68.4842 100.431C67.7942 101.171 67.2661 102.047 66.9336 103.002C66.6011 103.957 66.4714 104.972 66.553 105.98L76.9436 254.621C77.132 256.742 78.0983 258.718 79.6564 260.17C81.2145 261.621 83.2543 262.445 85.3833 262.482Z" fill="#407BFF"/>
<path opacity="0.3" d="M85.3833 262.482H138.151C139.162 262.492 140.164 262.292 141.094 261.893C142.023 261.495 142.859 260.907 143.549 260.167C144.239 259.428 144.767 258.553 145.1 257.598C145.433 256.643 145.563 255.629 145.483 254.621L135.064 105.98C134.875 103.859 133.909 101.883 132.351 100.432C130.793 98.9803 128.753 98.1566 126.624 98.1191H73.885C72.8735 98.1079 71.8707 98.3077 70.9408 98.7058C70.0109 99.104 69.1742 99.6917 68.4842 100.431C67.7942 101.171 67.2661 102.047 66.9336 103.002C66.6011 103.957 66.4714 104.972 66.553 105.98L76.9436 254.621C77.132 256.742 78.0983 258.718 79.6564 260.17C81.2145 261.621 83.2543 262.445 85.3833 262.482Z" fill="#FAFAFA"/>
<path d="M91.0714 262.482H143.846C144.857 262.492 145.86 262.292 146.789 261.893C147.718 261.495 148.555 260.907 149.244 260.168C149.934 259.428 150.462 258.553 150.795 257.598C151.128 256.643 151.259 255.63 151.178 254.621L140.78 105.98C140.595 103.859 139.631 101.882 138.074 100.43C136.516 98.9788 134.477 98.1554 132.348 98.1193H79.5803C78.5688 98.1081 77.566 98.3079 76.6361 98.7061C75.7062 99.1042 74.8695 99.692 74.1795 100.432C73.4896 101.171 72.9614 102.047 72.6289 103.002C72.2964 103.958 72.1667 104.972 72.2483 105.98L82.6389 254.621C82.8256 256.742 83.7904 258.718 85.3473 260.169C86.9043 261.621 88.9432 262.445 91.0714 262.482Z" fill="#407BFF"/>
<path opacity="0.6" d="M91.0714 262.482H143.846C144.857 262.492 145.86 262.292 146.789 261.893C147.718 261.495 148.555 260.907 149.244 260.168C149.934 259.428 150.462 258.553 150.795 257.598C151.128 256.643 151.259 255.63 151.178 254.621L140.78 105.98C140.595 103.859 139.631 101.882 138.074 100.43C136.516 98.9788 134.477 98.1554 132.348 98.1193H79.5803C78.5688 98.1081 77.566 98.3079 76.6361 98.7061C75.7062 99.1042 74.8695 99.692 74.1795 100.432C73.4896 101.171 72.9614 102.047 72.6289 103.002C72.2964 103.958 72.1667 104.972 72.2483 105.98L82.6389 254.621C82.8256 256.742 83.7904 258.718 85.3473 260.169C86.9043 261.621 88.9432 262.445 91.0714 262.482Z" fill="#FAFAFA"/>
<path d="M84.5618 253.942H149.071C149.208 253.943 149.345 253.915 149.471 253.86C149.597 253.805 149.711 253.725 149.805 253.625C149.899 253.524 149.971 253.405 150.017 253.275C150.062 253.146 150.081 253.008 150.071 252.87L139.945 108.074C139.929 107.82 139.816 107.582 139.63 107.408C139.444 107.234 139.199 107.137 138.944 107.138H74.4356C74.2977 107.138 74.1613 107.167 74.035 107.223C73.9087 107.278 73.7951 107.359 73.7013 107.46C73.6075 107.561 73.5355 107.681 73.4897 107.811C73.4439 107.941 73.4254 108.079 73.4352 108.217L83.5613 253.006C83.5777 253.26 83.6903 253.499 83.8762 253.672C84.0621 253.846 84.3072 253.943 84.5618 253.942Z" fill="#FAFAFA"/>
<path d="M80.202 172.247L84.9256 160.463C85.4902 159.069 87.5054 159.069 88.563 160.463L97.4458 172.247C98.4963 173.676 97.7959 175.398 96.1809 175.398H93.0937C96.2881 185.775 105.957 194.021 116.569 195.408C117.469 195.535 118.307 195.936 118.97 196.558C119.632 197.18 120.087 197.991 120.271 198.881C120.383 199.352 120.373 199.844 120.243 200.311C120.113 200.777 119.866 201.203 119.526 201.548C119.186 201.894 118.763 202.147 118.299 202.284C117.834 202.421 117.342 202.437 116.869 202.332C102.755 200.503 89.8994 189.333 86.0404 175.413H82.5745C80.9595 175.398 79.6374 173.647 80.202 172.247Z" fill="#407BFF"/>
<path d="M110.917 145.82C110.805 145.35 110.815 144.858 110.945 144.392C111.075 143.927 111.321 143.501 111.66 143.156C111.999 142.811 112.421 142.558 112.884 142.42C113.348 142.283 113.839 142.265 114.311 142.369C128.425 144.198 141.281 155.368 145.14 169.288H148.642C150.257 169.288 151.579 171.039 151.014 172.433L146.291 184.217C145.733 185.646 143.711 185.646 142.653 184.217L133.735 172.44C132.684 171.046 133.385 169.296 135 169.296H138.094C134.893 158.919 125.231 150.673 114.612 149.286C113.714 149.158 112.878 148.757 112.217 148.137C111.556 147.517 111.102 146.708 110.917 145.82Z" fill="#407BFF"/>
<g opacity="0.3">
<path d="M80.2029 172.247L84.9266 160.463C85.4911 159.069 87.5064 159.069 88.564 160.463L97.4467 172.247C98.4972 173.676 97.7969 175.398 96.1819 175.398H93.0947C96.2891 185.775 105.958 194.021 116.57 195.408C117.47 195.535 118.308 195.937 118.971 196.558C119.633 197.18 120.088 197.991 120.272 198.881C120.384 199.352 120.374 199.844 120.244 200.311C120.114 200.778 119.867 201.204 119.527 201.549C119.187 201.894 118.764 202.147 118.3 202.284C117.835 202.421 117.343 202.438 116.87 202.333C102.756 200.503 89.9003 189.334 86.0414 175.413H82.5755C80.9604 175.398 79.6384 173.648 80.2029 172.247Z" fill="black"/>
<path d="M110.917 145.82C110.805 145.35 110.815 144.858 110.945 144.392C111.075 143.927 111.321 143.501 111.66 143.156C111.999 142.811 112.421 142.558 112.884 142.42C113.348 142.283 113.839 142.265 114.311 142.369C128.425 144.198 141.281 155.368 145.14 169.288H148.642C150.257 169.288 151.579 171.039 151.014 172.433L146.291 184.217C145.733 185.646 143.711 185.646 142.653 184.217L133.735 172.44C132.684 171.046 133.385 169.296 135 169.296H138.094C134.893 158.919 125.231 150.673 114.612 149.286C113.714 149.158 112.878 148.757 112.217 148.137C111.556 147.517 111.102 146.708 110.917 145.82Z" fill="black"/>
</g>
<path d="M95.1088 102.25C95.1337 102.585 95.2834 102.898 95.5281 103.128C95.7728 103.359 96.0949 103.489 96.4308 103.493C96.591 103.496 96.7499 103.465 96.8973 103.402C97.0446 103.339 97.1772 103.246 97.2863 103.129C97.3955 103.012 97.4788 102.873 97.5308 102.721C97.5829 102.57 97.6025 102.409 97.5885 102.25C97.567 101.91 97.4184 101.59 97.1722 101.354C96.9259 101.119 96.6001 100.984 96.2593 100.978C96.0967 100.974 95.9354 101.006 95.7861 101.071C95.6369 101.135 95.5032 101.231 95.3942 101.351C95.2851 101.472 95.2032 101.615 95.1539 101.77C95.1047 101.925 95.0893 102.088 95.1088 102.25Z" fill="#407BFF"/>
<path opacity="0.4" d="M95.1088 102.25C95.1337 102.585 95.2834 102.898 95.5281 103.128C95.7728 103.359 96.0949 103.489 96.4308 103.493C96.591 103.496 96.7499 103.465 96.8973 103.402C97.0446 103.339 97.1772 103.246 97.2863 103.129C97.3955 103.012 97.4788 102.873 97.5308 102.721C97.5829 102.57 97.6025 102.409 97.5885 102.25C97.567 101.91 97.4184 101.59 97.1722 101.354C96.9259 101.119 96.6001 100.984 96.2593 100.978C96.0967 100.974 95.9354 101.006 95.7861 101.071C95.6369 101.135 95.5032 101.231 95.3942 101.351C95.2851 101.472 95.2032 101.615 95.1539 101.77C95.1047 101.925 95.0893 102.088 95.1088 102.25Z" fill="#FAFAFA"/>
<path d="M101.476 103.493H115.211C115.371 103.494 115.528 103.461 115.674 103.398C115.82 103.334 115.951 103.241 116.06 103.124C116.168 103.007 116.25 102.869 116.302 102.719C116.354 102.568 116.375 102.408 116.362 102.25C116.342 101.913 116.197 101.595 115.955 101.36C115.713 101.124 115.392 100.988 115.054 100.978H101.333C101.173 100.976 101.015 101.008 100.868 101.071C100.721 101.134 100.589 101.227 100.48 101.344C100.371 101.461 100.288 101.6 100.236 101.751C100.183 101.902 100.163 102.062 100.176 102.221C100.198 102.556 100.343 102.871 100.583 103.105C100.823 103.34 101.141 103.478 101.476 103.493Z" fill="#407BFF"/>
<path opacity="0.4" d="M101.476 103.493H115.211C115.371 103.494 115.528 103.461 115.674 103.398C115.82 103.334 115.951 103.241 116.06 103.124C116.168 103.007 116.25 102.869 116.302 102.719C116.354 102.568 116.375 102.408 116.362 102.25C116.342 101.913 116.197 101.595 115.955 101.36C115.713 101.124 115.392 100.988 115.054 100.978H101.333C101.173 100.976 101.015 101.008 100.868 101.071C100.721 101.134 100.589 101.227 100.48 101.344C100.371 101.461 100.288 101.6 100.236 101.751C100.183 101.902 100.163 102.062 100.176 102.221C100.198 102.556 100.343 102.871 100.583 103.105C100.823 103.34 101.141 103.478 101.476 103.493Z" fill="#FAFAFA"/>
</svg>
