<svg width="354" height="264" viewBox="0 0 354 264" fill="none" xmlns="http://www.w3.org/2000/svg">
<path d="M353.965 231.776H0V231.953H353.965V231.776Z" fill="#EBEBEB"/>
<path d="M60.5844 238.516H37.1377V238.693H60.5844V238.516Z" fill="#EBEBEB"/>
<path d="M154.329 236.597H121.155V236.774H154.329V236.597Z" fill="#EBEBEB"/>
<path d="M107.662 245.093H84.4775V245.27H107.662V245.093Z" fill="#EBEBEB"/>
<path d="M318.498 243.903H312.912V244.08H318.498V243.903Z" fill="#EBEBEB"/>
<path d="M306.612 243.903H277.134V244.08H306.612V243.903Z" fill="#EBEBEB"/>
<path d="M226.771 240.916H196.245V241.093H226.771V240.916Z" fill="#EBEBEB"/>
<path d="M167.779 200.203H31.085C30.0142 200.201 28.9878 199.774 28.2313 199.016C27.4747 198.258 27.0498 197.231 27.0498 196.16V4.00689C27.0591 2.94218 27.4882 1.92414 28.2437 1.1739C28.9992 0.423667 30.0203 0.0018239 31.085 0H167.779C168.851 0 169.88 0.425882 170.638 1.18396C171.396 1.94203 171.822 2.9702 171.822 4.04228V196.16C171.822 197.233 171.396 198.261 170.638 199.019C169.88 199.777 168.851 200.203 167.779 200.203ZM31.085 0.141587C30.0611 0.143462 29.0798 0.551524 28.3564 1.27621C27.6331 2.00089 27.2268 2.98297 27.2268 4.00689V196.16C27.2268 197.184 27.6331 198.166 28.3564 198.891C29.0798 199.616 30.0611 200.024 31.085 200.026H167.779C168.804 200.024 169.786 199.616 170.51 198.892C171.235 198.167 171.643 197.185 171.645 196.16V4.00689C171.643 2.98232 171.235 2.00025 170.51 1.27577C169.786 0.551294 168.804 0.143458 167.779 0.141587H31.085Z" fill="#EBEBEB"/>
<path d="M320.912 200.203H184.21C183.139 200.201 182.112 199.774 181.354 199.017C180.596 198.259 180.17 197.232 180.168 196.16V4.00689C180.179 2.94153 180.61 1.9235 181.366 1.17346C182.123 0.423419 183.145 0.00180401 184.21 0H320.912C321.975 0.00368442 322.994 0.426351 323.748 1.17639C324.502 1.92643 324.93 2.9434 324.94 4.00689V196.16C324.94 197.23 324.516 198.256 323.761 199.014C323.006 199.771 321.981 200.199 320.912 200.203ZM184.21 0.141587C183.186 0.143458 182.204 0.551294 181.479 1.27577C180.755 2.00025 180.347 2.98232 180.345 4.00689V196.16C180.347 197.185 180.755 198.167 181.479 198.892C182.204 199.616 183.186 200.024 184.21 200.026H320.912C321.936 200.024 322.918 199.616 323.643 198.892C324.367 198.167 324.775 197.185 324.777 196.16V4.00689C324.775 2.98232 324.367 2.00025 323.643 1.27577C322.918 0.551294 321.936 0.143458 320.912 0.141587H184.21Z" fill="#EBEBEB"/>
<path d="M271.484 69.8018H309.755V25.7685L271.484 25.7685V69.8018Z" fill="#EBEBEB"/>
<path d="M275.654 28.5791C275.694 28.5772 275.733 28.565 275.767 28.5437C275.873 28.48 286.57 22.1157 289.975 22.1157C293.38 22.1157 303.582 28.487 303.688 28.5437C303.713 28.5592 303.74 28.5697 303.769 28.5746C303.797 28.5794 303.827 28.5785 303.855 28.572C303.883 28.5654 303.91 28.5532 303.934 28.5362C303.957 28.5192 303.977 28.4977 303.992 28.4729C304.022 28.4228 304.031 28.3632 304.018 28.3065C304.005 28.2498 303.97 28.2004 303.922 28.1685C303.497 27.8995 293.501 21.6768 289.975 21.6768C286.45 21.6768 275.98 27.8995 275.541 28.1685C275.515 28.1831 275.493 28.2026 275.475 28.226C275.458 28.2493 275.445 28.2759 275.438 28.3043C275.43 28.3326 275.429 28.3622 275.433 28.3911C275.437 28.4201 275.447 28.4479 275.463 28.4729C275.484 28.5048 275.512 28.5312 275.545 28.5497C275.578 28.5682 275.616 28.5783 275.654 28.5791Z" fill="#EBEBEB"/>
<path d="M267.144 69.8018H308.565V25.7685L267.144 25.7685V69.8018Z" fill="#F5F5F5"/>
<path d="M305.097 66.3331V29.2446L270.62 29.2446V66.3331H305.097Z" fill="white"/>
<path d="M285.841 54.0291C285.841 53.189 285.592 52.3678 285.125 51.6692C284.658 50.9707 283.995 50.4263 283.219 50.1048C282.443 49.7833 281.589 49.6992 280.765 49.8631C279.941 50.027 279.184 50.4316 278.59 51.0256C277.996 51.6196 277.591 52.3765 277.427 53.2004C277.263 54.0244 277.348 54.8784 277.669 55.6546C277.991 56.4307 278.535 57.0941 279.233 57.5608C279.932 58.0275 280.753 58.2767 281.593 58.2767C282.72 58.2767 283.8 57.8291 284.597 57.0326C285.393 56.236 285.841 55.1556 285.841 54.0291Z" fill="#F5F5F5"/>
<path d="M298.315 41.5485C298.315 40.7084 298.065 39.8872 297.599 39.1887C297.132 38.4901 296.469 37.9457 295.692 37.6242C294.916 37.3027 294.062 37.2186 293.238 37.3825C292.414 37.5464 291.657 37.951 291.063 38.545C290.469 39.139 290.065 39.8959 289.901 40.7198C289.737 41.5438 289.821 42.3978 290.143 43.174C290.464 43.9501 291.009 44.6135 291.707 45.0802C292.406 45.547 293.227 45.7961 294.067 45.7961C295.193 45.7961 296.274 45.3486 297.07 44.552C297.867 43.7554 298.315 42.675 298.315 41.5485Z" fill="#F5F5F5"/>
<path d="M216.648 105.899H254.919V61.8661L216.648 61.8661V105.899Z" fill="#EBEBEB"/>
<path d="M220.81 64.6765C220.847 64.6861 220.886 64.6861 220.923 64.6765C221.03 64.6128 231.726 58.2485 235.132 58.2485C238.537 58.2485 248.738 64.6199 248.844 64.6694C248.869 64.685 248.896 64.6955 248.925 64.7003C248.954 64.7052 248.983 64.7043 249.011 64.6977C249.039 64.6911 249.066 64.679 249.09 64.6619C249.113 64.6449 249.133 64.6234 249.149 64.5986C249.178 64.5485 249.187 64.4889 249.174 64.4323C249.161 64.3756 249.126 64.3262 249.078 64.2942C248.653 64.0323 238.657 57.8025 235.132 57.8025C231.606 57.8025 221.136 64.0252 220.697 64.2942C220.671 64.3088 220.649 64.3284 220.632 64.3517C220.614 64.375 220.601 64.4016 220.594 64.43C220.587 64.4584 220.585 64.4879 220.589 64.5169C220.594 64.5458 220.604 64.5736 220.619 64.5986C220.642 64.6263 220.671 64.6479 220.705 64.6614C220.738 64.675 220.774 64.6802 220.81 64.6765Z" fill="#EBEBEB"/>
<path d="M212.302 105.899H253.723V61.8661L212.302 61.8661V105.899Z" fill="#F5F5F5"/>
<path d="M250.246 102.43V65.3418H215.77V102.43H250.246Z" fill="white"/>
<path d="M229.737 91.3795C229.737 90.5395 229.488 89.7182 229.022 89.0197C228.555 88.3212 227.891 87.7768 227.115 87.4553C226.339 87.1338 225.485 87.0497 224.661 87.2136C223.837 87.3775 223.08 87.782 222.486 88.376C221.892 88.9701 221.488 89.7269 221.324 90.5509C221.16 91.3748 221.244 92.2289 221.566 93.005C221.887 93.7812 222.431 94.4446 223.13 94.9113C223.828 95.378 224.65 95.6271 225.49 95.6271C226.616 95.6271 227.697 95.1796 228.493 94.383C229.29 93.5865 229.737 92.5061 229.737 91.3795Z" fill="#F5F5F5"/>
<path d="M244.725 76.3927C244.725 75.5526 244.476 74.7314 244.009 74.0329C243.542 73.3344 242.879 72.79 242.103 72.4685C241.326 72.147 240.472 72.0629 239.648 72.2268C238.824 72.3907 238.068 72.7952 237.474 73.3892C236.88 73.9833 236.475 74.7401 236.311 75.5641C236.147 76.388 236.231 77.2421 236.553 78.0182C236.874 78.7944 237.419 79.4577 238.117 79.9245C238.816 80.3912 239.637 80.6403 240.477 80.6403C241.604 80.6403 242.684 80.1928 243.481 79.3962C244.277 78.5996 244.725 77.5193 244.725 76.3927Z" fill="#F5F5F5"/>
<path d="M236.286 91.3795C236.286 90.5395 236.535 89.7182 237.002 89.0197C237.469 88.3212 238.132 87.7768 238.908 87.4553C239.684 87.1338 240.538 87.0497 241.362 87.2136C242.186 87.3775 242.943 87.782 243.537 88.376C244.131 88.9701 244.536 89.7269 244.7 90.5509C244.864 91.3748 244.779 92.2289 244.458 93.005C244.136 93.7812 243.592 94.4446 242.894 94.9113C242.195 95.378 241.374 95.6271 240.534 95.6271C239.407 95.6271 238.327 95.1796 237.53 94.383C236.734 93.5865 236.286 92.5061 236.286 91.3795Z" fill="#F5F5F5"/>
<path d="M221.292 76.3927C221.292 75.5526 221.541 74.7314 222.008 74.0329C222.475 73.3344 223.138 72.79 223.914 72.4685C224.69 72.147 225.544 72.0629 226.368 72.2268C227.192 72.3907 227.949 72.7952 228.543 73.3892C229.137 73.9833 229.542 74.7401 229.706 75.5641C229.869 76.388 229.785 77.2421 229.464 78.0182C229.142 78.7944 228.598 79.4577 227.899 79.9245C227.201 80.3912 226.38 80.6403 225.54 80.6403C224.413 80.6403 223.333 80.1928 222.536 79.3962C221.74 78.5996 221.292 77.5193 221.292 76.3927Z" fill="#F5F5F5"/>
<path d="M55.1972 134.521L193.116 134.521L193.116 17.1886L55.1972 17.1886L55.1972 134.521Z" fill="#E6E6E6"/>
<path d="M53.2148 134.521L191.134 134.521L191.134 17.1886L53.2148 17.1886L53.2148 134.521Z" fill="#F5F5F5"/>
<path d="M187.58 130.528V21.1814L56.7758 21.1814V130.528H187.58Z" fill="white"/>
<path d="M58.2695 130.528L58.2695 21.1814H56.7687L56.7687 130.528H58.2695Z" fill="#E6E6E6"/>
<path d="M54.6881 118.423L189.662 118.423V113.056L54.6881 113.056V118.423Z" fill="#F5F5F5"/>
<path d="M49.3432 10.5766H196.989C197.061 10.5756 197.133 10.5891 197.2 10.616C197.267 10.643 197.328 10.683 197.379 10.7337C197.431 10.7844 197.471 10.8448 197.499 10.9114C197.527 10.978 197.541 11.0495 197.541 11.1217C197.541 11.1939 197.527 11.2653 197.499 11.3319C197.471 11.3985 197.431 11.459 197.379 11.5097C197.328 11.5604 197.267 11.6004 197.2 11.6274C197.133 11.6543 197.061 11.6677 196.989 11.6668H49.3432C49.271 11.6677 49.1994 11.6543 49.1324 11.6274C49.0655 11.6004 49.0045 11.5604 48.9532 11.5097C48.9018 11.459 48.861 11.3985 48.8332 11.3319C48.8053 11.2653 48.791 11.1939 48.791 11.1217C48.791 11.0495 48.8053 10.978 48.8332 10.9114C48.861 10.8448 48.9018 10.7844 48.9532 10.7337C49.0045 10.683 49.0655 10.643 49.1324 10.616C49.1994 10.5891 49.271 10.5756 49.3432 10.5766Z" fill="#E6E6E6"/>
<path d="M46.0576 11.1215C46.0576 11.6637 46.2185 12.1937 46.5198 12.6444C46.8212 13.0951 47.2495 13.4462 47.7505 13.6534C48.2516 13.8605 48.8028 13.9143 49.3344 13.8081C49.8661 13.7018 50.3542 13.4401 50.7371 13.0563C51.1199 12.6724 51.3803 12.1836 51.4852 11.6517C51.5901 11.1198 51.5349 10.5687 51.3264 10.0682C51.118 9.5677 50.7657 9.14031 50.3143 8.84012C49.8628 8.53993 49.3324 8.38044 48.7902 8.38185C48.4308 8.38184 48.0749 8.45276 47.7429 8.59053C47.4109 8.7283 47.1093 8.93021 46.8555 9.18471C46.6016 9.43921 46.4005 9.74129 46.2636 10.0736C46.1267 10.406 46.0567 10.7621 46.0576 11.1215Z" fill="#E6E6E6"/>
<path d="M192.373 14.1585C192.469 14.1633 192.565 14.1486 192.655 14.1151C192.745 14.0817 192.827 14.0303 192.897 13.9641C192.966 13.8979 193.021 13.8182 193.059 13.7299C193.097 13.6416 193.116 13.5466 193.116 13.4506V11.8577C193.116 11.7617 193.097 11.6667 193.059 11.5784C193.021 11.4901 192.966 11.4104 192.897 11.3442C192.827 11.278 192.745 11.2266 192.655 11.1932C192.565 11.1598 192.469 11.145 192.373 11.1498C192.185 11.1498 192.005 11.2244 191.872 11.3572C191.74 11.4899 191.665 11.67 191.665 11.8577V13.4506C191.665 13.6383 191.74 13.8184 191.872 13.9512C192.005 14.0839 192.185 14.1585 192.373 14.1585Z" fill="#E6E6E6"/>
<path d="M57.5976 14.1587C57.7853 14.1587 57.9654 14.0841 58.0982 13.9514C58.2309 13.8186 58.3055 13.6386 58.3055 13.4508V11.858C58.3055 11.6702 58.2309 11.4901 58.0982 11.3574C57.9654 11.2246 57.7853 11.15 57.5976 11.15C57.4098 11.15 57.2298 11.2246 57.097 11.3574C56.9642 11.4901 56.8896 11.6702 56.8896 11.858V13.4508C56.8896 13.6386 56.9642 13.8186 57.097 13.9514C57.2298 14.0841 57.4098 14.1587 57.5976 14.1587Z" fill="#E6E6E6"/>
<path opacity="0.4" d="M49.5131 101.107L189.662 101.107V11.1215L49.5131 11.1215V101.107Z" fill="#E0E0E0"/>
<path d="M180.834 11.1215C180.834 11.6634 180.995 12.1931 181.296 12.6436C181.597 13.0942 182.025 13.4453 182.525 13.6527C183.026 13.86 183.577 13.9143 184.108 13.8086C184.64 13.7029 185.128 13.4419 185.511 13.0588C185.894 12.6756 186.155 12.1875 186.261 11.656C186.366 11.1246 186.312 10.5737 186.105 10.0731C185.897 9.57248 185.546 9.1446 185.096 8.84356C184.645 8.54252 184.116 8.38184 183.574 8.38184C182.847 8.38184 182.15 8.67048 181.636 9.18427C181.123 9.69807 180.834 10.3949 180.834 11.1215Z" fill="#E6E6E6"/>
<path d="M264.943 153.954H264.433C264.454 153.858 264.468 153.761 264.475 153.663C264.475 151.54 261.877 149.805 258.663 149.798C258.863 149.368 258.969 148.899 258.975 148.425C258.975 146.301 256.929 144.552 254.395 144.552C253.704 144.555 253.02 144.695 252.384 144.963C252.408 144.827 252.424 144.69 252.434 144.552C252.434 141.792 249.786 139.547 246.515 139.547C243.768 139.547 241.489 141.133 240.809 143.271C239.947 142.374 238.91 141.665 237.761 141.187C236.612 140.71 235.377 140.474 234.134 140.496C232.703 140.458 231.285 140.77 230.002 141.404C228.719 142.038 227.61 142.975 226.771 144.135C226.31 143.68 225.764 143.321 225.164 143.078C224.564 142.835 223.921 142.713 223.274 142.719C220.747 142.719 218.701 144.446 218.701 146.584C218.702 147.059 218.809 147.528 219.012 147.958C215.798 147.958 213.193 149.692 213.193 151.83C213.203 152.029 213.234 152.225 213.285 152.418H212.726C208.478 152.418 205.052 153.833 205.052 155.653C205.052 157.472 208.485 158.881 212.726 158.881C214.291 158.899 215.849 158.679 217.349 158.23C219.09 160.7 224.52 162.477 230.948 162.477C238.367 162.477 244.455 160.077 245.106 157.019C247.239 157.768 249.487 158.132 251.747 158.095C253.618 158.11 255.483 157.872 257.29 157.387H257.325C257.623 159.058 260.929 160.375 264.971 160.375C269.219 160.375 272.652 158.923 272.652 157.139C272.652 155.355 269.183 153.954 264.943 153.954Z" fill="#E6E6E6"/>
<path d="M275.909 155.908C277.473 155.908 278.973 156.529 280.079 157.635C281.185 158.741 281.806 160.241 281.806 161.805C281.806 168.332 265.623 173.677 245.843 173.677H227.989C208.21 173.677 192.026 168.332 192.026 161.805C192.026 160.241 192.648 158.741 193.754 157.635C194.859 156.529 196.359 155.908 197.923 155.908H275.909Z" fill="#F0F0F0"/>
<path d="M111.79 231.776H143.08V173.677H111.79V231.776Z" fill="#E6E6E6"/>
<path d="M117.729 231.776H111.782V226.347H123.959L117.729 231.776Z" fill="#F0F0F0"/>
<path d="M281.53 231.776H312.82V173.677H281.53V231.776Z" fill="#E6E6E6"/>
<path d="M111.789 229.376L286.719 229.376V173.684L111.789 173.684V229.376Z" fill="#F0F0F0"/>
<path d="M280.772 231.776H286.711V226.347H274.542L280.772 231.776Z" fill="#F0F0F0"/>
<path d="M281.756 178.724V199.962H116.808V178.724H281.756ZM282.131 178.349H116.397V200.345H282.103V178.349H282.131Z" fill="#FAFAFA"/>
<path d="M281.756 203.07V224.308H116.808V203.07H281.756ZM282.131 202.695H116.397V224.704H282.103V202.695H282.131Z" fill="#FAFAFA"/>
<path d="M183.991 180.522H214.503C214.792 180.522 215.078 180.465 215.345 180.354C215.611 180.244 215.854 180.081 216.058 179.877C216.261 179.672 216.423 179.43 216.533 179.163C216.643 178.895 216.699 178.609 216.698 178.321H181.797C181.796 178.609 181.852 178.895 181.962 179.163C182.072 179.43 182.233 179.672 182.437 179.877C182.641 180.081 182.883 180.244 183.15 180.354C183.417 180.465 183.703 180.522 183.991 180.522Z" fill="#FAFAFA"/>
<path d="M183.991 204.889H214.503C214.791 204.889 215.077 204.832 215.343 204.722C215.609 204.612 215.851 204.45 216.055 204.246C216.259 204.043 216.421 203.801 216.531 203.534C216.641 203.268 216.698 202.983 216.698 202.695H181.797C181.797 203.277 182.028 203.835 182.44 204.246C182.851 204.658 183.409 204.889 183.991 204.889Z" fill="#FAFAFA"/>
<path d="M176.982 263.746C252.789 263.746 314.243 260.159 314.243 255.733C314.243 251.307 252.789 247.719 176.982 247.719C101.175 247.719 39.7217 251.307 39.7217 255.733C39.7217 260.159 101.175 263.746 176.982 263.746Z" fill="#F5F5F5"/>
<path d="M93.383 93.1988L92.7529 92.8731C98.2526 82.1355 105.638 72.4743 114.557 64.3506L115.039 64.8745C106.181 72.9415 98.8454 82.5356 93.383 93.1988Z" fill="#407BFF"/>
<path d="M84.5195 118.472L83.8115 118.33C84.8363 113.325 86.2421 108.404 88.0166 103.613L88.6821 103.86C86.9218 108.617 85.5301 113.502 84.5195 118.472Z" fill="#407BFF"/>
<path opacity="0.9" d="M238.559 194.96C269.824 163.694 269.824 113.003 238.559 81.7379C207.294 50.4726 156.603 50.4726 125.337 81.7379C94.0721 113.003 94.0721 163.694 125.337 194.96C156.603 226.225 207.294 226.225 238.559 194.96Z" fill="#FAFAFA"/>
<g opacity="0.4">
<path d="M125.297 183.127H106.473L110.111 174.193H121.658L125.297 183.127Z" fill="#407BFF"/>
<path opacity="0.2" d="M125.297 183.127H106.473L110.111 174.193H121.658L125.297 183.127Z" fill="#FAFAFA"/>
<path d="M153.904 183.127H125.297L121.658 174.193H150.266L153.904 183.127Z" fill="#407BFF"/>
<path opacity="0.3" d="M153.904 183.127H125.297L121.658 174.193H150.266L153.904 183.127Z" fill="black"/>
<path d="M149.324 183.127H130.493L134.132 174.193H145.685L149.324 183.127Z" fill="#407BFF"/>
<path opacity="0.2" d="M149.324 183.127H130.493L134.132 174.193H145.685L149.324 183.127Z" fill="#FAFAFA"/>
<path d="M177.924 183.127H149.323L145.685 174.193H174.285L177.924 183.127Z" fill="#407BFF"/>
<path opacity="0.3" d="M177.924 183.127H149.323L145.685 174.193H174.285L177.924 183.127Z" fill="black"/>
<path d="M173.343 183.127H154.52L158.158 174.193H169.705L173.343 183.127Z" fill="#407BFF"/>
<path opacity="0.2" d="M173.343 183.127H154.52L158.158 174.193H169.705L173.343 183.127Z" fill="#FAFAFA"/>
<path d="M201.944 183.127H173.344L169.705 174.193H198.313L201.944 183.127Z" fill="#407BFF"/>
<path opacity="0.3" d="M201.944 183.127H173.344L169.705 174.193H198.313L201.944 183.127Z" fill="black"/>
<path d="M197.364 183.127H178.54L182.179 174.193H193.725L197.364 183.127Z" fill="#407BFF"/>
<path opacity="0.2" d="M197.364 183.127H178.54L182.179 174.193H193.725L197.364 183.127Z" fill="#FAFAFA"/>
<path d="M225.972 183.127H197.364L193.726 174.193H222.333L225.972 183.127Z" fill="#407BFF"/>
<path opacity="0.3" d="M225.972 183.127H197.364L193.726 174.193H222.333L225.972 183.127Z" fill="black"/>
<path d="M221.391 183.127H202.561L206.199 174.193H217.753L221.391 183.127Z" fill="#407BFF"/>
<path opacity="0.2" d="M221.391 183.127H202.561L206.199 174.193H217.753L221.391 183.127Z" fill="#FAFAFA"/>
<path d="M236.654 183.127C237.565 180.168 238.39 177.19 239.131 174.193H217.752L221.391 183.127H236.654Z" fill="#407BFF"/>
<path opacity="0.3" d="M236.654 183.127C237.565 180.168 238.39 177.19 239.131 174.193H217.752L221.391 183.127H236.654Z" fill="black"/>
<path d="M239.131 174.193H230.226L226.587 183.127H236.654C237.569 180.168 238.395 177.19 239.131 174.193Z" fill="#407BFF"/>
<path opacity="0.2" d="M239.131 174.193H230.226L226.587 183.127H236.654C237.569 180.168 238.395 177.19 239.131 174.193Z" fill="#FAFAFA"/>
<path d="M132.638 174.193H113.807L117.445 165.252H128.999L132.638 174.193Z" fill="#407BFF"/>
<path opacity="0.2" d="M132.638 174.193H113.807L117.445 165.252H128.999L132.638 174.193Z" fill="#FAFAFA"/>
<path d="M161.238 174.193H132.638L128.999 165.252H157.599L161.238 174.193Z" fill="#407BFF"/>
<path opacity="0.3" d="M161.238 174.193H132.638L128.999 165.252H157.599L161.238 174.193Z" fill="black"/>
<path d="M156.658 174.193H137.834L141.473 165.252H153.019L156.658 174.193Z" fill="#407BFF"/>
<path opacity="0.2" d="M156.658 174.193H137.834L141.473 165.252H153.019L156.658 174.193Z" fill="#FAFAFA"/>
<path d="M185.259 174.193H156.658L153.02 165.252H181.627L185.259 174.193Z" fill="#407BFF"/>
<path opacity="0.3" d="M185.259 174.193H156.658L153.02 165.252H181.627L185.259 174.193Z" fill="black"/>
<path d="M180.678 174.193H161.854L165.493 165.252H177.04L180.678 174.193Z" fill="#407BFF"/>
<path opacity="0.2" d="M180.678 174.193H161.854L165.493 165.252H177.04L180.678 174.193Z" fill="#FAFAFA"/>
<path d="M209.285 174.193H180.678L177.039 165.252H205.647L209.285 174.193Z" fill="#407BFF"/>
<path opacity="0.3" d="M209.285 174.193H180.678L177.039 165.252H205.647L209.285 174.193Z" fill="black"/>
<path d="M204.705 174.193H185.874L189.513 165.252H201.066L204.705 174.193Z" fill="#407BFF"/>
<path opacity="0.2" d="M204.705 174.193H185.874L189.513 165.252H201.066L204.705 174.193Z" fill="#FAFAFA"/>
<path d="M233.306 174.193H204.705L201.066 165.252H229.667L233.306 174.193Z" fill="#407BFF"/>
<path opacity="0.3" d="M233.306 174.193H204.705L201.066 165.252H229.667L233.306 174.193Z" fill="black"/>
<path d="M228.725 174.193H209.901L213.54 165.252H225.086L228.725 174.193Z" fill="#407BFF"/>
<path opacity="0.2" d="M228.725 174.193H209.901L213.54 165.252H225.086L228.725 174.193Z" fill="#FAFAFA"/>
<path d="M239.132 174.193C239.84 171.227 240.512 168.254 241.065 165.252H225.122L228.761 174.193H239.132Z" fill="#407BFF"/>
<path opacity="0.3" d="M239.132 174.193C239.84 171.227 240.512 168.254 241.065 165.252H225.122L228.761 174.193H239.132Z" fill="black"/>
<path d="M241.064 165.252H237.56L233.921 174.193H239.131C239.86 171.227 240.512 168.254 241.064 165.252Z" fill="#407BFF"/>
<path opacity="0.2" d="M241.064 165.252H237.56L233.921 174.193H239.131C239.86 171.227 240.512 168.254 241.064 165.252Z" fill="#FAFAFA"/>
<path d="M138.924 165.252H120.101L123.739 156.318H135.286L138.924 165.252Z" fill="#407BFF"/>
<path opacity="0.2" d="M138.924 165.252H120.101L123.739 156.318H135.286L138.924 165.252Z" fill="#FAFAFA"/>
<path d="M167.531 165.252H138.924L135.285 156.318H163.893L167.531 165.252Z" fill="#407BFF"/>
<path opacity="0.3" d="M167.531 165.252H138.924L135.285 156.318H163.893L167.531 165.252Z" fill="black"/>
<path d="M162.951 165.252H144.12L147.759 156.318H159.305L162.951 165.252Z" fill="#407BFF"/>
<path opacity="0.2" d="M162.951 165.252H144.12L147.759 156.318H159.305L162.951 165.252Z" fill="#FAFAFA"/>
<path d="M191.552 165.252H162.952L159.306 156.318H187.913L191.552 165.252Z" fill="#407BFF"/>
<path opacity="0.3" d="M191.552 165.252H162.952L159.306 156.318H187.913L191.552 165.252Z" fill="black"/>
<path d="M186.971 165.252H168.147L171.786 156.318H183.333L186.971 165.252Z" fill="#407BFF"/>
<path opacity="0.2" d="M186.971 165.252H168.147L171.786 156.318H183.333L186.971 165.252Z" fill="#FAFAFA"/>
<path d="M215.572 165.252H186.972L183.333 156.318H211.933L215.572 165.252Z" fill="#407BFF"/>
<path opacity="0.3" d="M215.572 165.252H186.972L183.333 156.318H211.933L215.572 165.252Z" fill="black"/>
<path d="M210.992 165.252H192.168L195.807 156.318H207.353L210.992 165.252Z" fill="#407BFF"/>
<path opacity="0.2" d="M210.992 165.252H192.168L195.807 156.318H207.353L210.992 165.252Z" fill="#FAFAFA"/>
<path d="M239.599 165.252H210.991L207.353 156.318H235.96L239.599 165.252Z" fill="#407BFF"/>
<path opacity="0.3" d="M239.599 165.252H210.991L207.353 156.318H235.96L239.599 165.252Z" fill="black"/>
<path d="M235.018 165.252H216.188L219.826 156.318H231.38L235.018 165.252Z" fill="#407BFF"/>
<path opacity="0.2" d="M235.018 165.252H216.188L219.826 156.318H231.38L235.018 165.252Z" fill="#FAFAFA"/>
<path d="M241.064 165.252C241.617 162.293 242.089 159.315 242.48 156.318H231.38L235.033 165.252H241.064Z" fill="#407BFF"/>
<path opacity="0.3" d="M241.064 165.252C241.617 162.293 242.089 159.315 242.48 156.318H231.38L235.033 165.252H241.064Z" fill="black"/>
<path d="M241.694 161.613L240.215 165.252H241.064C241.291 164.044 241.501 162.831 241.694 161.613Z" fill="#407BFF"/>
<path opacity="0.2" d="M241.694 161.613L240.215 165.252H241.064C241.291 164.044 241.501 162.831 241.694 161.613Z" fill="#FAFAFA"/>
<path d="M146.258 156.318H127.435L131.073 147.384H142.627L146.258 156.318Z" fill="#407BFF"/>
<path opacity="0.2" d="M146.258 156.318H127.435L131.073 147.384H142.627L146.258 156.318Z" fill="#FAFAFA"/>
<path d="M174.866 156.318H146.259L142.627 147.384H171.227L174.866 156.318Z" fill="#407BFF"/>
<path opacity="0.3" d="M174.866 156.318H146.259L142.627 147.384H171.227L174.866 156.318Z" fill="black"/>
<path d="M170.286 156.318H151.462L155.101 147.384H166.647L170.286 156.318Z" fill="#407BFF"/>
<path opacity="0.2" d="M170.286 156.318H151.462L155.101 147.384H166.647L170.286 156.318Z" fill="#FAFAFA"/>
<path d="M198.886 156.318H170.285L166.646 147.384H195.254L198.886 156.318Z" fill="#407BFF"/>
<path opacity="0.3" d="M198.886 156.318H170.285L166.646 147.384H195.254L198.886 156.318Z" fill="black"/>
<path d="M194.305 156.318H175.481L179.12 147.384H190.667L194.305 156.318Z" fill="#407BFF"/>
<path opacity="0.2" d="M194.305 156.318H175.481L179.12 147.384H190.667L194.305 156.318Z" fill="#FAFAFA"/>
<path d="M222.913 156.318H194.306L190.667 147.384H219.274L222.913 156.318Z" fill="#407BFF"/>
<path opacity="0.3" d="M222.913 156.318H194.306L190.667 147.384H219.274L222.913 156.318Z" fill="black"/>
<path d="M218.333 156.318H199.502L203.141 147.384H214.694L218.333 156.318Z" fill="#407BFF"/>
<path opacity="0.2" d="M218.333 156.318H199.502L203.141 147.384H214.694L218.333 156.318Z" fill="#FAFAFA"/>
<path d="M242.452 156.318C242.82 153.35 243.092 150.371 243.266 147.384H214.694L218.333 156.318H242.452Z" fill="#407BFF"/>
<path opacity="0.3" d="M242.452 156.318C242.82 153.35 243.092 150.371 243.266 147.384H214.694L218.333 156.318H242.452Z" fill="black"/>
<path d="M242.353 156.318H223.529L227.168 147.384H238.714L242.353 156.318Z" fill="#407BFF"/>
<path opacity="0.2" d="M242.353 156.318H223.529L227.168 147.384H238.714L242.353 156.318Z" fill="#FAFAFA"/>
<path d="M242.452 156.318C242.82 153.35 243.091 150.371 243.266 147.384H238.714L242.353 156.318H242.452Z" fill="#407BFF"/>
<path opacity="0.3" d="M242.452 156.318C242.82 153.35 243.091 150.371 243.266 147.384H238.714L242.353 156.318H242.452Z" fill="black"/>
<path d="M142.089 218.871H148.517L144.878 209.937H130.62C134.668 212.614 138.502 215.601 142.089 218.871Z" fill="#407BFF"/>
<path opacity="0.3" d="M142.089 218.871H148.517L144.878 209.937H130.62C134.668 212.614 138.502 215.601 142.089 218.871Z" fill="black"/>
<path d="M142.089 218.871H143.936L140.298 209.937H130.62C134.668 212.614 138.502 215.601 142.089 218.871Z" fill="#407BFF"/>
<path opacity="0.2" d="M142.089 218.871H143.936L140.298 209.937H130.62C134.668 212.614 138.502 215.601 142.089 218.871Z" fill="#FAFAFA"/>
<path d="M172.537 218.871H143.937L140.298 209.937H168.898L172.537 218.871Z" fill="#407BFF"/>
<path opacity="0.3" d="M172.537 218.871H143.937L140.298 209.937H168.898L172.537 218.871Z" fill="black"/>
<path d="M167.957 218.871H149.133L152.772 209.937H164.318L167.957 218.871Z" fill="#407BFF"/>
<path opacity="0.2" d="M167.957 218.871H149.133L152.772 209.937H164.318L167.957 218.871Z" fill="#FAFAFA"/>
<path d="M196.557 218.871H167.956L164.317 209.937H192.918L196.557 218.871Z" fill="#407BFF"/>
<path opacity="0.3" d="M196.557 218.871H167.956L164.317 209.937H192.918L196.557 218.871Z" fill="black"/>
<path d="M191.977 218.871H173.153L176.792 209.937H188.338L191.977 218.871Z" fill="#407BFF"/>
<path opacity="0.2" d="M191.977 218.871H173.153L176.792 209.937H188.338L191.977 218.871Z" fill="#FAFAFA"/>
<path d="M220.428 218.489L216.945 209.937H188.31L191.948 218.871H220.004C220.166 218.751 220.294 218.616 220.428 218.489Z" fill="#407BFF"/>
<path opacity="0.3" d="M220.428 218.489L216.945 209.937H188.31L191.948 218.871H220.004C220.166 218.751 220.294 218.616 220.428 218.489Z" fill="black"/>
<path d="M216.004 218.871H197.173L200.812 209.937H212.365L216.004 218.871Z" fill="#407BFF"/>
<path opacity="0.2" d="M216.004 218.871H197.173L200.812 209.937H212.365L216.004 218.871Z" fill="#FAFAFA"/>
<path d="M220.032 218.871C222.667 216.273 224.852 213.253 226.495 209.937H212.379L216.018 218.871H220.032Z" fill="#407BFF"/>
<path opacity="0.3" d="M220.032 218.871C222.667 216.273 224.852 213.253 226.495 209.937H212.379L216.018 218.871H220.032Z" fill="black"/>
<path d="M226.495 209.937H224.839L222.092 216.676C223.797 214.594 225.273 212.334 226.495 209.937Z" fill="#407BFF"/>
<path opacity="0.2" d="M226.495 209.937H224.839L222.092 216.676C223.797 214.594 225.273 212.334 226.495 209.937Z" fill="#FAFAFA"/>
<path d="M119.867 202.001C123.272 204.882 126.946 207.395 130.62 209.937H131.831L128.192 201.003H118.713C119.095 201.335 119.477 201.675 119.867 202.001Z" fill="#407BFF"/>
<path opacity="0.3" d="M119.867 202.001C123.272 204.882 126.946 207.395 130.62 209.937H131.831L128.192 201.003H118.713C119.095 201.335 119.477 201.675 119.867 202.001Z" fill="black"/>
<path d="M119.867 202.001C121.807 203.643 123.838 205.165 125.905 206.638L123.612 200.974H118.713C119.095 201.335 119.477 201.675 119.867 202.001Z" fill="#407BFF"/>
<path opacity="0.2" d="M119.867 202.001C121.807 203.643 123.838 205.165 125.905 206.638L123.612 200.974H118.713C119.095 201.335 119.477 201.675 119.867 202.001Z" fill="#FAFAFA"/>
<path d="M130.62 209.937H155.851L152.205 201.003H123.604L125.898 206.666C127.463 207.756 129.048 208.839 130.62 209.937Z" fill="#407BFF"/>
<path opacity="0.3" d="M130.62 209.937H155.851L152.205 201.003H123.604L125.898 206.666C127.463 207.756 129.048 208.839 130.62 209.937Z" fill="black"/>
<path d="M151.27 209.937H132.446L136.085 201.003H147.631L151.27 209.937Z" fill="#407BFF"/>
<path opacity="0.2" d="M151.27 209.937H132.446L136.085 201.003H147.631L151.27 209.937Z" fill="#FAFAFA"/>
<path d="M179.878 209.937H151.271L147.632 201.003H176.239L179.878 209.937Z" fill="#407BFF"/>
<path opacity="0.3" d="M179.878 209.937H151.271L147.632 201.003H176.239L179.878 209.937Z" fill="black"/>
<path d="M175.291 209.937H156.467L160.106 201.003H171.652L175.291 209.937Z" fill="#407BFF"/>
<path opacity="0.2" d="M175.291 209.937H156.467L160.106 201.003H171.652L175.291 209.937Z" fill="#FAFAFA"/>
<path d="M203.899 209.937H175.291L171.652 201.003H200.26L203.899 209.937Z" fill="#407BFF"/>
<path opacity="0.3" d="M203.899 209.937H175.291L171.652 201.003H200.26L203.899 209.937Z" fill="black"/>
<path d="M199.318 209.937H180.494L184.133 201.003H195.679L199.318 209.937Z" fill="#407BFF"/>
<path opacity="0.2" d="M199.318 209.937H180.494L184.133 201.003H195.679L199.318 209.937Z" fill="#FAFAFA"/>
<path d="M227.281 208.379L224.279 201.003H195.679L199.317 209.937H226.495C226.771 209.42 227.026 208.903 227.281 208.379Z" fill="#407BFF"/>
<path opacity="0.3" d="M227.281 208.379L224.279 201.003H195.679L199.317 209.937H226.495C226.771 209.42 227.026 208.903 227.281 208.379Z" fill="black"/>
<path d="M223.338 209.937H204.514L208.152 201.003H219.699L223.338 209.937Z" fill="#407BFF"/>
<path opacity="0.2" d="M223.338 209.937H204.514L208.152 201.003H219.699L223.338 209.937Z" fill="#FAFAFA"/>
<path d="M226.495 209.937C227.976 207.04 229.281 204.056 230.403 201.003H219.699L223.338 209.937H226.495Z" fill="#407BFF"/>
<path opacity="0.3" d="M226.495 209.937C227.976 207.04 229.281 204.056 230.403 201.003H219.699L223.338 209.937H226.495Z" fill="black"/>
<path d="M118.713 201.003H138.117L134.507 192.062H110.133C112.744 195.271 115.614 198.262 118.713 201.003Z" fill="#407BFF"/>
<path opacity="0.3" d="M118.713 201.003H138.117L134.507 192.062H110.133C112.744 195.271 115.614 198.262 118.713 201.003Z" fill="black"/>
<path d="M118.713 201.003H133.537L129.898 192.062H118.352L115.811 198.299C116.75 199.228 117.717 200.13 118.713 201.003Z" fill="#407BFF"/>
<path opacity="0.2" d="M118.713 201.003H133.537L129.898 192.062H118.352L115.811 198.299C116.75 199.228 117.717 200.13 118.713 201.003Z" fill="#FAFAFA"/>
<path d="M162.145 201.003H133.537L129.898 192.062H158.506L162.145 201.003Z" fill="#407BFF"/>
<path opacity="0.3" d="M162.145 201.003H133.537L129.898 192.062H158.506L162.145 201.003Z" fill="black"/>
<path d="M157.557 201.003H138.733L142.372 192.062H153.926L157.557 201.003Z" fill="#407BFF"/>
<path opacity="0.2" d="M157.557 201.003H138.733L142.372 192.062H153.926L157.557 201.003Z" fill="#FAFAFA"/>
<path d="M186.164 201.003H157.556L153.925 192.062H182.525L186.164 201.003Z" fill="#407BFF"/>
<path opacity="0.3" d="M186.164 201.003H157.556L153.925 192.062H182.525L186.164 201.003Z" fill="black"/>
<path d="M181.584 201.003H162.76L166.399 192.062H177.945L181.584 201.003Z" fill="#407BFF"/>
<path opacity="0.2" d="M181.584 201.003H162.76L166.399 192.062H177.945L181.584 201.003Z" fill="#FAFAFA"/>
<path d="M210.184 201.003H181.584L177.945 192.062H206.546L210.184 201.003Z" fill="#407BFF"/>
<path opacity="0.3" d="M210.184 201.003H181.584L177.945 192.062H206.546L210.184 201.003Z" fill="black"/>
<path d="M205.604 201.003H186.78L190.419 192.062H201.965L205.604 201.003Z" fill="#407BFF"/>
<path opacity="0.2" d="M205.604 201.003H186.78L190.419 192.062H201.965L205.604 201.003Z" fill="#FAFAFA"/>
<path d="M232.202 196.054L230.58 192.062H201.966L205.605 201.003H230.382C231.041 199.318 231.628 197.654 232.202 196.054Z" fill="#407BFF"/>
<path opacity="0.3" d="M232.202 196.054L230.58 192.062H201.966L205.605 201.003H230.382C231.041 199.318 231.628 197.654 232.202 196.054Z" fill="black"/>
<path d="M229.632 201.003H210.801L214.44 192.062H225.993L229.632 201.003Z" fill="#407BFF"/>
<path opacity="0.2" d="M229.632 201.003H210.801L214.44 192.062H225.993L229.632 201.003Z" fill="#FAFAFA"/>
<path d="M230.403 201.003C231.571 197.909 232.59 194.886 233.581 192.21C233.595 192.16 233.611 192.11 233.631 192.062H225.992L229.631 201.003H230.403Z" fill="#407BFF"/>
<path opacity="0.3" d="M230.403 201.003C231.571 197.909 232.59 194.886 233.581 192.21C233.595 192.16 233.611 192.11 233.631 192.062H225.992L229.631 201.003H230.403Z" fill="black"/>
<path d="M110.133 192.062H116.851L113.212 183.127H103.825C105.718 186.248 107.826 189.233 110.133 192.062Z" fill="#407BFF"/>
<path opacity="0.2" d="M110.133 192.062H116.851L113.212 183.127H103.825C105.718 186.248 107.826 189.233 110.133 192.062Z" fill="#FAFAFA"/>
<path d="M145.458 192.062H116.851L113.212 183.127H141.819L145.458 192.062Z" fill="#407BFF"/>
<path opacity="0.3" d="M145.458 192.062H116.851L113.212 183.127H141.819L145.458 192.062Z" fill="black"/>
<path d="M140.878 192.062H122.047L125.686 183.127H137.239L140.878 192.062Z" fill="#407BFF"/>
<path opacity="0.2" d="M140.878 192.062H122.047L125.686 183.127H137.239L140.878 192.062Z" fill="#FAFAFA"/>
<path d="M169.478 192.062H140.878L137.239 183.127H165.84L169.478 192.062Z" fill="#407BFF"/>
<path opacity="0.3" d="M169.478 192.062H140.878L137.239 183.127H165.84L169.478 192.062Z" fill="black"/>
<path d="M164.898 192.062H146.074L149.713 183.127H161.259L164.898 192.062Z" fill="#407BFF"/>
<path opacity="0.2" d="M164.898 192.062H146.074L149.713 183.127H161.259L164.898 192.062Z" fill="#FAFAFA"/>
<path d="M193.499 192.062H164.899L161.26 183.127H189.86L193.499 192.062Z" fill="#407BFF"/>
<path opacity="0.3" d="M193.499 192.062H164.899L161.26 183.127H189.86L193.499 192.062Z" fill="black"/>
<path d="M188.919 192.062H170.095L173.733 183.127H185.28L188.919 192.062Z" fill="#407BFF"/>
<path opacity="0.2" d="M188.919 192.062H170.095L173.733 183.127H185.28L188.919 192.062Z" fill="#FAFAFA"/>
<path d="M217.526 192.062H188.918L185.279 183.127H213.887L217.526 192.062Z" fill="#407BFF"/>
<path opacity="0.3" d="M217.526 192.062H188.918L185.279 183.127H213.887L217.526 192.062Z" fill="black"/>
<path d="M212.945 192.062H194.114L197.753 183.127H209.306L212.945 192.062Z" fill="#407BFF"/>
<path opacity="0.2" d="M212.945 192.062H194.114L197.753 183.127H209.306L212.945 192.062Z" fill="#FAFAFA"/>
<path d="M233.617 192.062C234.707 189.107 235.715 186.129 236.64 183.127H209.307L212.945 192.062H233.617Z" fill="#407BFF"/>
<path opacity="0.3" d="M233.617 192.062C234.707 189.107 235.715 186.129 236.64 183.127H209.307L212.945 192.062H233.617Z" fill="black"/>
<path d="M235.174 187.672L233.327 183.127H221.78L218.142 192.062H233.617C234.169 190.61 234.679 189.145 235.174 187.672Z" fill="#407BFF"/>
<path opacity="0.2" d="M235.174 187.672L233.327 183.127H221.78L218.142 192.062H233.617C234.169 190.61 234.679 189.145 235.174 187.672Z" fill="#FAFAFA"/>
<path d="M236.653 183.127H233.326L235.174 187.672C235.693 186.167 236.186 184.652 236.653 183.127Z" fill="#407BFF"/>
<path opacity="0.3" d="M236.653 183.127H233.326L235.174 187.672C235.693 186.167 236.186 184.652 236.653 183.127Z" fill="black"/>
</g>
<path d="M182.066 40.6421C162.725 40.6421 143.819 46.3772 127.739 57.1221C111.658 67.867 99.1241 83.1391 91.7229 101.007C84.3217 118.875 82.3852 138.537 86.1583 157.506C89.9314 176.474 99.2446 193.898 112.92 207.574C126.596 221.25 144.02 230.563 162.989 234.336C181.957 238.109 201.619 236.173 219.487 228.771C237.355 221.37 252.627 208.837 263.372 192.756C274.117 176.675 279.852 157.769 279.852 138.429C279.852 112.494 269.55 87.6216 251.211 69.2831C232.873 50.9446 208 40.6421 182.066 40.6421ZM181.938 218.41C166.104 218.409 150.626 213.712 137.461 204.915C124.297 196.117 114.036 183.612 107.978 168.983C101.919 154.354 100.335 138.257 103.425 122.727C106.515 107.198 114.14 92.9331 125.337 81.7373C136.534 70.5414 150.799 62.9172 166.329 59.8286C181.859 56.7401 197.956 58.3259 212.585 64.3857C227.213 70.4454 239.716 80.7069 248.513 93.8725C257.31 107.038 262.005 122.517 262.005 138.351C262.005 148.865 259.934 159.276 255.91 168.99C251.887 178.704 245.989 187.53 238.554 194.964C231.119 202.398 222.292 208.295 212.578 212.318C202.864 216.341 192.453 218.411 181.938 218.41Z" fill="#407BFF"/>
<path opacity="0.4" d="M182.066 231.182C233.207 231.182 274.805 189.569 274.805 138.443C274.805 87.316 233.193 45.7039 182.066 45.7039C130.939 45.7039 89.3271 87.3089 89.3271 138.443C89.3271 189.577 130.918 231.182 182.066 231.182ZM182.066 46.4118C206.464 46.4436 229.854 56.15 247.107 73.4022C264.359 90.6545 274.065 114.044 274.097 138.443C274.097 189.194 232.803 230.474 182.066 230.474C131.329 230.474 90.0351 189.18 90.0351 138.443C90.0351 87.7054 131.307 46.3835 182.066 46.3835V46.4118Z" fill="#FAFAFA"/>
<path d="M157.288 74.3324C161.295 75.281 165.401 76.2296 169.457 77.0933C173.514 77.957 177.591 78.7428 181.584 79.2808L183.064 79.4507L183.425 79.4861H183.368C183.368 79.4861 183.403 79.4861 183.481 79.4861C184.12 79.3235 184.725 79.0529 185.272 78.6861C186.862 77.6417 188.354 76.4571 189.732 75.1465C192.677 72.4209 195.552 69.3344 198.32 66.262L201.555 68.5061C199.435 72.3481 196.959 75.9818 194.157 79.3587C192.677 81.1728 191.003 82.8202 189.166 84.2717C188.022 85.1905 186.719 85.8912 185.322 86.3389C184.86 86.479 184.386 86.5739 183.906 86.622C183.623 86.6401 183.339 86.6401 183.057 86.622H182.625L180.94 86.5371C176.583 86.2143 172.248 85.6447 167.956 84.831C163.709 84.0523 159.546 83.1319 155.334 81.9993L157.288 74.3324Z" fill="#7F3E3B"/>
<path d="M151.214 81.525C154.046 85.6168 171.036 87.1884 171.036 87.1884L172.077 76.3005C167.75 74.785 163.299 73.6526 158.775 72.9166C146.775 71.2034 148.127 77.0367 151.214 81.525Z" fill="#407BFF"/>
<path opacity="0.2" d="M151.214 81.525C154.046 85.6168 171.036 87.1884 171.036 87.1884L172.077 76.3005C167.75 74.785 163.299 73.6526 158.775 72.9166C146.775 71.2034 148.127 77.0367 151.214 81.525Z" fill="white"/>
<path d="M197.654 67.6213L199.006 62.6091L203.672 64.6126C203.672 64.6126 201.704 70.0141 199.927 69.7451L197.654 67.6213Z" fill="#7F3E3B"/>
<path d="M202.857 59.5084L206.715 59.2677L203.671 64.6126L199.006 62.6091L202.857 59.5084Z" fill="#7F3E3B"/>
<path d="M162.625 74.1271C162.625 74.1271 169.365 89.9777 164.509 119.491H136.432C136.092 115.18 138.067 94.1616 133.211 73.8581C136.299 73.2569 139.423 72.8596 142.563 72.6688C146.538 72.4421 150.523 72.4421 154.498 72.6688C157.241 72.9473 159.958 73.4348 162.625 74.1271Z" fill="#407BFF"/>
<path opacity="0.2" d="M162.625 74.1271C162.625 74.1271 169.365 89.9777 164.509 119.491H136.432C136.092 115.18 138.067 94.1616 133.211 73.8581C136.299 73.2569 139.423 72.8596 142.563 72.6688C146.538 72.4421 150.523 72.4421 154.498 72.6688C157.241 72.9473 159.958 73.4348 162.625 74.1271Z" fill="white"/>
<path opacity="0.3" d="M134.089 77.9215C135.402 84.8694 136.179 91.9082 136.411 98.9754C137.439 94.8348 138.135 90.6186 138.492 86.3671C138.79 81.6594 136.963 78.679 134.089 77.9215Z" fill="black"/>
<path d="M154.25 96.6111C151.758 93.8714 147.475 88.4133 146.145 83.5073L152.827 79.9677L159.05 83.1533C158.986 87.323 156.763 92.9723 155.171 96.4129C154.965 96.8306 154.541 96.9367 154.25 96.6111Z" fill="#FAFAFA"/>
<path d="M143.285 59.2322C144.17 63.0762 145.161 70.106 142.577 72.6829C142.577 72.6829 143.703 75.8615 150.839 75.8615C158.683 75.8615 154.513 72.6829 154.513 72.6829C150.194 71.6634 150.194 68.4848 150.839 65.5044L143.285 59.2322Z" fill="#7F3E3B"/>
<path opacity="0.2" d="M146.357 61.788L150.824 65.4834C150.664 66.1813 150.564 66.8919 150.527 67.6072C148.885 67.3735 146.577 65.5754 146.343 63.8622C146.218 63.176 146.223 62.4724 146.357 61.788Z" fill="black"/>
<path d="M154.824 57.0378C155.985 56.0467 156.509 50.1213 154.222 47.2825C151.936 44.4437 149.975 51.3248 149.975 51.3248C149.975 51.3248 151.022 60.2942 154.824 57.0378Z" fill="#263238"/>
<path d="M141.586 55.2182C143.186 60.1737 143.866 63.1683 147.094 65.2C148.135 65.8694 149.34 66.2412 150.577 66.2753C151.815 66.3095 153.038 66.0046 154.115 65.3937C155.191 64.7828 156.081 63.8892 156.686 62.8094C157.292 61.7296 157.59 60.5049 157.55 59.2676C157.486 54.5032 154.881 47.169 149.395 46.2558C148.213 46.0259 146.991 46.1109 145.852 46.5023C144.713 46.8937 143.697 47.5776 142.906 48.4856C142.115 49.3935 141.577 50.4935 141.345 51.6752C141.113 52.8569 141.197 54.0788 141.586 55.2182Z" fill="#7F3E3B"/>
<path d="M154.952 44.9817C155.117 44.6806 155.198 44.3407 155.186 43.9977C155.182 43.5852 155.048 43.1844 154.803 42.8531C154.557 42.5217 154.212 42.277 153.819 42.1541C153.425 42.0313 153.002 42.0366 152.612 42.1695C152.221 42.3024 151.883 42.5558 151.646 42.8933C151.244 42.4334 150.746 42.068 150.187 41.8233C149.628 41.5785 149.021 41.4604 148.411 41.4774C147.769 41.499 147.141 41.6712 146.577 41.9801C146.213 41.6699 145.745 41.5082 145.268 41.527C144.803 41.5437 144.36 41.7253 144.017 42.0393C143.675 42.3533 143.456 42.7791 143.399 43.2402C143.2 43.2082 142.998 43.194 142.797 43.1977C141.964 43.2273 141.176 43.5859 140.607 44.1949C140.038 44.804 139.733 45.6139 139.76 46.4471C139.76 46.4471 139.76 46.4471 139.76 46.4896C139.64 46.4823 139.519 46.4823 139.399 46.4896C139.063 46.5015 138.733 46.5794 138.427 46.7189C138.122 46.8584 137.847 47.0568 137.618 47.3027C137.389 47.5486 137.211 47.8372 137.094 48.152C136.977 48.4668 136.923 48.8016 136.935 49.1373V49.1797C136.615 49.3533 136.351 49.6133 136.172 49.93C135.993 50.2467 135.907 50.6074 135.923 50.9708C135.937 51.3575 136.065 51.7314 136.291 52.046C136.516 52.3607 136.829 52.6022 137.19 52.7406C137.238 53.3403 137.499 53.9032 137.924 54.3286C138.349 54.754 138.912 55.0142 139.512 55.0626C139.788 57.5404 140.68 61.3774 143.576 59.3952C144.68 58.6377 145.699 54.0432 144.602 50.8575C144.687 50.8575 144.779 50.8575 144.871 50.8575C145.349 50.8398 145.817 50.7125 146.238 50.4855C146.659 50.2584 147.022 49.9376 147.299 49.5479C147.905 49.747 148.548 49.804 149.179 49.7144C149.81 49.6248 150.412 49.391 150.938 49.0311C151.165 49.1105 151.405 49.1488 151.646 49.1443C151.976 49.1293 152.297 49.032 152.58 48.8612C152.983 49.1346 153.46 49.2757 153.947 49.2647C154.452 49.2491 154.939 49.0669 155.33 48.7463C155.721 48.4257 155.995 47.9848 156.11 47.4921C156.225 46.9994 156.173 46.4827 155.964 46.0223C155.755 45.5618 155.399 45.1836 154.952 44.9463V44.9817Z" fill="#263238"/>
<path d="M140.729 61.264C141.678 62.1867 142.945 62.7111 144.269 62.7295C146.017 62.7295 146.393 61.0729 145.451 59.6854C144.616 58.4465 142.704 56.9457 141.161 57.6111C139.618 58.2766 139.568 60.1243 140.729 61.264Z" fill="#7F3E3B"/>
<path d="M149.67 54.9352C149.769 55.3458 150.074 55.6431 150.378 55.5723C150.682 55.5015 150.781 55.1263 150.675 54.7157C150.569 54.3051 150.265 54.0078 149.967 54.0857C149.67 54.1635 149.564 54.5104 149.67 54.9352Z" fill="#263238"/>
<path d="M154.328 53.9085C154.434 54.3191 154.739 54.6165 155.036 54.5457C155.333 54.4749 155.44 54.1068 155.333 53.6962C155.227 53.2856 154.923 52.9882 154.625 53.059C154.328 53.1298 154.236 53.4979 154.328 53.9085Z" fill="#263238"/>
<path d="M152.913 54.4396C153.732 55.5875 154.699 56.6228 155.787 57.5191C155.551 57.7818 155.26 57.9895 154.934 58.1277C154.609 58.2659 154.257 58.3312 153.904 58.319L152.913 54.4396Z" fill="#630F0F"/>
<path d="M152.112 59.8128C151.25 59.8214 150.413 59.5199 149.755 58.9633C149.732 58.9408 149.72 58.9102 149.72 58.8784C149.72 58.8465 149.732 58.816 149.755 58.7934C149.766 58.7812 149.78 58.7714 149.795 58.7648C149.81 58.7581 149.827 58.7546 149.843 58.7546C149.86 58.7546 149.876 58.7581 149.892 58.7648C149.907 58.7714 149.921 58.7812 149.932 58.7934C150.346 59.1302 150.832 59.3689 151.351 59.4915C151.871 59.6141 152.412 59.6174 152.933 59.5013C152.965 59.4948 152.998 59.5007 153.026 59.5178C153.054 59.535 153.074 59.562 153.082 59.5934C153.086 59.6097 153.087 59.6267 153.084 59.6433C153.081 59.6599 153.075 59.6757 153.066 59.6897C153.056 59.7038 153.044 59.7156 153.03 59.7247C153.016 59.7337 153 59.7396 152.983 59.742C152.696 59.799 152.404 59.8227 152.112 59.8128Z" fill="#263238"/>
<path d="M147.816 53.7529C147.783 53.7596 147.749 53.7596 147.717 53.7529C147.686 53.7406 147.659 53.7223 147.636 53.699C147.613 53.6757 147.595 53.648 147.583 53.6175C147.571 53.587 147.565 53.5544 147.567 53.5217C147.568 53.489 147.575 53.4569 147.589 53.4273C147.74 53.0686 147.977 52.7521 148.278 52.5054C148.579 52.2587 148.935 52.0891 149.317 52.0114C149.382 52.005 149.447 52.0232 149.5 52.0625C149.552 52.1018 149.588 52.1594 149.6 52.2238C149.608 52.2893 149.59 52.3554 149.551 52.4082C149.511 52.4611 149.453 52.4965 149.387 52.5069C149.088 52.5744 148.809 52.7133 148.575 52.9118C148.341 53.1103 148.158 53.3624 148.042 53.6467C148.017 53.6829 147.983 53.7118 147.944 53.7305C147.904 53.7492 147.86 53.7569 147.816 53.7529Z" fill="#263238"/>
<path d="M155.921 51.8768C155.885 51.8771 155.848 51.869 155.815 51.853C155.782 51.8371 155.753 51.8137 155.73 51.7848C155.531 51.5371 155.279 51.3373 154.992 51.2001C154.705 51.0628 154.391 50.9917 154.074 50.9919C154.008 50.9976 153.943 50.9769 153.892 50.9344C153.842 50.8919 153.81 50.8311 153.805 50.7654C153.799 50.6997 153.82 50.6344 153.862 50.584C153.905 50.5335 153.965 50.502 154.031 50.4964C154.429 50.4883 154.824 50.5715 155.184 50.7396C155.545 50.9078 155.863 51.1563 156.112 51.4662C156.154 51.5182 156.173 51.5843 156.167 51.6504C156.16 51.7166 156.128 51.7775 156.077 51.8202C156.033 51.8564 155.978 51.8764 155.921 51.8768Z" fill="#263238"/>
<path d="M138.754 81.4118L137.735 83.6135C137.395 84.371 137.063 85.1355 136.737 85.9001C136.086 87.4292 135.47 88.9796 134.875 90.5229C134.28 92.0662 133.756 93.6236 133.254 95.1811C132.751 96.7385 132.362 98.2889 132.036 99.8322V99.9667V99.9242C132.039 99.8865 132.039 99.8486 132.036 99.8109C132.027 99.7326 132.005 99.6562 131.973 99.5844C131.916 99.4499 131.852 99.4216 131.88 99.4995C132.138 99.8616 132.472 100.164 132.857 100.384C134.128 101.159 135.481 101.788 136.893 102.26C140.052 103.346 143.272 104.249 146.535 104.965L146.209 108.894C142.557 109.011 138.903 108.726 135.314 108.044C133.343 107.687 131.427 107.073 129.615 106.218C128.439 105.658 127.381 104.877 126.5 103.917C125.899 103.231 125.446 102.429 125.169 101.56C125.019 101.067 124.929 100.559 124.9 100.045C124.886 99.7899 124.886 99.5347 124.9 99.28L124.936 98.9119V98.7207C125.407 95.0349 126.249 91.4061 127.449 87.8894C128.025 86.162 128.659 84.4607 129.353 82.7852C129.707 81.9499 130.061 81.1216 130.45 80.2933C130.84 79.465 131.215 78.6721 131.675 77.7872L138.754 81.4118Z" fill="#7F3E3B"/>
<path d="M133.211 73.8582C128.256 74.5661 123.18 92.767 123.18 92.767L135.122 97.3119C135.122 97.3119 138.124 89.4893 140.177 83.4153C142.329 77.051 138.506 73.0795 133.211 73.8582Z" fill="#407BFF"/>
<path opacity="0.2" d="M133.211 73.8582C128.256 74.5661 123.18 92.767 123.18 92.767L135.122 97.3119C135.122 97.3119 138.124 89.4893 140.177 83.4153C142.329 77.051 138.506 73.0795 133.211 73.8582Z" fill="white"/>
<path d="M140.743 252.993H145.996L146.676 240.838H141.43L140.743 252.993Z" fill="#7F3E3B"/>
<path opacity="0.2" d="M141.423 240.838H146.676L146.322 247.103H141.069L141.423 240.838Z" fill="black"/>
<path d="M146.272 252.384H140.375C140.326 252.381 140.277 252.388 140.231 252.404C140.185 252.421 140.142 252.446 140.106 252.479C140.07 252.512 140.04 252.552 140.02 252.596C139.999 252.641 139.987 252.689 139.986 252.738L139.695 257.403C139.694 257.525 139.717 257.646 139.763 257.759C139.809 257.872 139.876 257.974 139.962 258.061C140.047 258.148 140.149 258.217 140.261 258.264C140.373 258.312 140.494 258.337 140.616 258.338C142.669 258.302 143.653 258.182 146.279 258.182C147.872 258.182 154.654 258.352 156.856 258.352C159.057 258.352 158.979 256.171 158.066 255.973C153.875 255.088 148.693 253.849 147.206 252.703C146.94 252.494 146.611 252.382 146.272 252.384Z" fill="#263238"/>
<path d="M148.127 253.29C148.478 253.324 148.829 253.225 149.111 253.014C149.193 252.928 149.25 252.821 149.276 252.705C149.302 252.589 149.296 252.469 149.259 252.356C149.246 252.28 149.214 252.209 149.166 252.15C149.118 252.09 149.055 252.044 148.983 252.016C148.339 251.761 146.859 252.773 146.69 252.894C146.671 252.907 146.657 252.926 146.648 252.947C146.64 252.968 146.637 252.991 146.64 253.014C146.646 253.036 146.658 253.056 146.674 253.072C146.69 253.088 146.71 253.1 146.732 253.106C147.189 253.216 147.657 253.278 148.127 253.29ZM148.735 252.207C148.789 252.196 148.845 252.196 148.898 252.207C148.933 252.222 148.964 252.245 148.987 252.275C149.011 252.304 149.026 252.34 149.033 252.377C149.058 252.452 149.063 252.533 149.048 252.611C149.033 252.689 148.999 252.762 148.948 252.823C148.7 253.064 147.999 253.092 147.058 252.908C147.56 252.556 148.132 252.317 148.735 252.207Z" fill="#407BFF"/>
<path d="M146.76 253.106H146.817C147.341 252.795 148.12 251.69 147.999 251.131C147.977 251.03 147.922 250.938 147.843 250.872C147.763 250.805 147.664 250.767 147.56 250.763C147.467 250.751 147.372 250.76 147.283 250.789C147.193 250.819 147.112 250.868 147.044 250.933C146.52 251.443 146.633 252.95 146.64 253.014C146.642 253.034 146.649 253.052 146.66 253.069C146.671 253.085 146.686 253.098 146.704 253.106C146.722 253.113 146.742 253.113 146.76 253.106ZM147.468 250.982H147.525C147.709 250.982 147.744 251.096 147.766 251.166C147.851 251.563 147.291 252.398 146.86 252.766C146.788 252.185 146.907 251.596 147.199 251.089C147.236 251.053 147.279 251.026 147.327 251.008C147.374 250.989 147.425 250.981 147.475 250.982H147.468Z" fill="#407BFF"/>
<path d="M187.381 240.023L192.549 239.124L191.141 227.033L185.973 227.932L187.381 240.023Z" fill="#7F3E3B"/>
<path opacity="0.2" d="M185.973 227.939L191.148 227.04L191.87 233.27L186.695 234.169L185.973 227.939Z" fill="black"/>
<path d="M192.557 238.494L186.731 237.602C186.633 237.584 186.532 237.605 186.45 237.66C186.367 237.716 186.311 237.802 186.292 237.9L185.301 242.466C185.264 242.709 185.324 242.956 185.469 243.155C185.613 243.354 185.83 243.488 186.072 243.528C188.104 243.804 189.095 243.832 191.658 244.236C193.236 244.476 199.912 245.652 202.093 245.991C204.273 246.331 204.535 244.165 203.643 243.825C199.636 242.324 194.695 240.335 193.399 238.962C193.182 238.712 192.884 238.547 192.557 238.494Z" fill="#263238"/>
<path d="M164.508 119.491C164.508 119.491 180.791 157.557 184.083 172.239C187.7 188.316 193.831 231.394 193.831 231.394L184.359 233.043C184.359 233.043 175.637 192.804 170.611 177.294C165.153 160.466 143.355 119.491 143.355 119.491H164.508Z" fill="#263238"/>
<path opacity="0.3" d="M151.086 127.902L150.704 133.657C153.161 138.499 155.992 144.149 158.76 149.883C159.992 144.205 156.849 130.563 151.086 127.902Z" fill="black"/>
<path d="M155.115 119.491C155.115 119.491 155.023 159.595 154.173 174.625C153.239 191.077 148.573 245.595 148.573 245.595H138.96C138.96 245.595 139.25 192.408 138.669 176.119C138.039 158.42 136.411 119.484 136.411 119.484L155.115 119.491Z" fill="#263238"/>
<path d="M138.577 245.68H148.962L149.536 242.034L138.074 242.6L138.577 245.68Z" fill="#407BFF"/>
<path opacity="0.3" d="M138.577 245.68H148.962L149.536 242.034L138.074 242.6L138.577 245.68Z" fill="black"/>
<path d="M183.976 233.107L194.206 231.33L194.149 227.635L182.957 230.162L183.976 233.107Z" fill="#407BFF"/>
<path opacity="0.3" d="M183.976 233.107L194.206 231.33L194.149 227.635L182.957 230.162L183.976 233.107Z" fill="black"/>
<path d="M194.284 239.67C194.625 239.757 194.986 239.714 195.297 239.549C195.389 239.474 195.46 239.377 195.505 239.267C195.549 239.157 195.565 239.037 195.552 238.919C195.549 238.842 195.526 238.766 195.487 238.699C195.447 238.633 195.392 238.577 195.325 238.537C194.73 238.19 193.109 238.969 192.925 239.061C192.905 239.07 192.889 239.086 192.878 239.104C192.866 239.123 192.861 239.145 192.861 239.167C192.86 239.19 192.866 239.213 192.879 239.232C192.892 239.251 192.911 239.266 192.932 239.273C193.367 239.456 193.82 239.589 194.284 239.67ZM195.049 238.693C195.104 238.696 195.158 238.713 195.205 238.742C195.24 238.759 195.269 238.787 195.288 238.821C195.307 238.855 195.315 238.895 195.311 238.933C195.325 239.011 195.319 239.091 195.293 239.166C195.267 239.24 195.222 239.306 195.162 239.358C194.879 239.563 194.185 239.486 193.279 239.153C193.829 238.873 194.433 238.716 195.049 238.693Z" fill="#407BFF"/>
<path d="M192.96 239.28C192.981 239.287 193.003 239.287 193.024 239.28C193.583 239.054 194.525 238.091 194.489 237.51C194.483 237.406 194.442 237.307 194.373 237.229C194.303 237.15 194.21 237.097 194.107 237.079C194.017 237.053 193.923 237.048 193.831 237.063C193.739 237.079 193.652 237.116 193.576 237.171C192.974 237.595 192.868 239.103 192.868 239.167C192.865 239.187 192.869 239.206 192.878 239.224C192.886 239.242 192.9 239.256 192.918 239.266C192.93 239.276 192.945 239.281 192.96 239.28ZM193.987 237.284H194.043C194.22 237.333 194.248 237.426 194.256 237.503C194.256 237.907 193.604 238.643 193.116 238.919C193.135 238.333 193.344 237.77 193.71 237.312C193.791 237.27 193.885 237.26 193.972 237.284H193.987Z" fill="#407BFF"/>
<path d="M145.748 104.922L150.052 103.74L150.647 109.184C150.647 109.184 146.4 110.458 145.345 108.228L145.748 104.922Z" fill="#7F3E3B"/>
<path d="M153.961 104.49L153.699 109.396L150.647 109.184L150.053 103.74L153.961 104.49Z" fill="#7F3E3B"/>
<path d="M225.745 233.043C203.133 229.638 185.959 187.375 185.959 138.428C185.959 89.4821 203.133 47.2186 225.745 43.8135L246.82 40.642V236.215L225.745 233.043Z" fill="#407BFF"/>
<path opacity="0.3" d="M225.745 233.043C203.133 229.638 185.959 187.375 185.959 138.428C185.959 89.4821 203.133 47.2186 225.745 43.8135L246.82 40.642V236.215L225.745 233.043Z" fill="black"/>
<path d="M246.819 236.215C267.217 236.215 283.752 192.434 283.752 138.429C283.752 84.4226 267.217 40.6421 246.819 40.6421C226.422 40.6421 209.887 84.4226 209.887 138.429C209.887 192.434 226.422 236.215 246.819 236.215Z" fill="#407BFF"/>
<path opacity="0.2" d="M253.658 89.907C242.331 89.907 233.206 111.633 233.206 138.436C233.206 165.238 242.36 186.957 253.658 186.957C264.957 186.957 274.11 165.238 274.11 138.436C274.11 111.633 264.957 89.907 253.658 89.907ZM269.941 138.436C269.941 146.145 268.695 153.153 266.656 158.413L260.752 138.046L266.542 118.104C268.666 123.392 269.969 130.542 269.969 138.429L269.941 138.436ZM257.488 108.908C259.987 108.908 262.302 110.649 264.249 113.644L258.961 131.986L252.858 111.032C254.07 109.737 255.744 108.971 257.516 108.901L257.488 108.908ZM245.05 138.436C245.05 128.454 247.138 119.64 250.331 114.295L257.24 138.046L250.232 162.342C247.11 156.99 245.078 148.276 245.078 138.429L245.05 138.436ZM257.488 167.963C256.582 167.914 255.694 167.684 254.877 167.288C254.061 166.892 253.331 166.337 252.731 165.656L258.989 144.085L264.447 162.944C262.465 166.123 260.086 167.956 257.516 167.956L257.488 167.963Z" fill="#FAFAFA"/>
<path opacity="0.4" d="M247.818 233.737C231.182 233.737 213.37 195.438 213.37 138.429C213.37 81.4189 231.182 43.1199 247.818 43.1199C264.454 43.1199 282.273 81.4189 282.273 138.429C282.273 195.438 264.461 233.737 247.818 233.737ZM247.818 43.8278C231.536 43.8278 214.078 81.8366 214.078 138.429C214.078 195.021 231.493 233.029 247.818 233.029C264.143 233.029 281.565 195.013 281.565 138.429C281.565 81.8437 264.115 43.8278 247.818 43.8278Z" fill="#FAFAFA"/>
</svg>
