<svg width="389" height="290" viewBox="0 0 389 290" fill="none" xmlns="http://www.w3.org/2000/svg">
<path d="M388.536 254.413H0V254.607H388.536V254.413Z" fill="#EBEBEB"/>
<path d="M349.604 266.916H323.868V267.111H349.604V266.916Z" fill="#EBEBEB"/>
<path d="M257.382 269.03H250.629V269.224H257.382V269.03Z" fill="#EBEBEB"/>
<path d="M323.091 259.705H308.179V259.899H323.091V259.705Z" fill="#EBEBEB"/>
<path d="M74.3269 261.01H40.7651V261.205H74.3269V261.01Z" fill="#EBEBEB"/>
<path d="M86.1694 261.01H81.2505V261.205H86.1694V261.01Z" fill="#EBEBEB"/>
<path d="M174.958 264.29H102.162V264.484H174.958V264.29Z" fill="#EBEBEB"/>
<path d="M184.166 219.756H34.1212C32.9458 219.754 31.8192 219.285 30.9887 218.454C30.1583 217.622 29.6919 216.494 29.6919 215.319V4.39822C29.7021 3.22953 30.1731 2.11206 31.0024 1.28855C31.8317 0.465045 32.9525 0.00200204 34.1212 0H184.166C185.343 0 186.471 0.467477 187.303 1.29959C188.136 2.1317 188.603 3.26029 188.603 4.43708V215.319C188.603 216.496 188.136 217.624 187.303 218.456C186.471 219.288 185.343 219.756 184.166 219.756ZM34.1212 0.155415C32.9973 0.157473 31.9201 0.605389 31.1261 1.40085C30.3321 2.19631 29.8862 3.27431 29.8862 4.39822V215.319C29.8862 216.443 30.3321 217.521 31.1261 218.316C31.9201 219.112 32.9973 219.559 34.1212 219.562H184.166C185.291 219.559 186.369 219.112 187.164 218.317C187.959 217.521 188.407 216.443 188.409 215.319V4.39822C188.407 3.27359 187.959 2.19561 187.164 1.40037C186.369 0.605137 185.291 0.157469 184.166 0.155415H34.1212Z" fill="#EBEBEB"/>
<path d="M352.254 219.756H202.202C201.026 219.754 199.898 219.286 199.067 218.454C198.235 217.622 197.767 216.495 197.765 215.319V4.39822C197.777 3.22882 198.25 2.11136 199.08 1.28807C199.911 0.464773 201.032 0.0019802 202.202 0H352.254C353.422 0.00404427 354.54 0.467991 355.368 1.29128C356.196 2.11457 356.666 3.23087 356.676 4.39822V215.319C356.676 216.493 356.21 217.619 355.382 218.451C354.553 219.282 353.428 219.752 352.254 219.756ZM202.202 0.155415C201.077 0.157469 199.999 0.605137 199.204 1.40037C198.409 2.19561 197.961 3.27359 197.959 4.39822V215.319C197.961 216.443 198.409 217.521 199.204 218.317C199.999 219.112 201.077 219.559 202.202 219.562H352.254C353.379 219.559 354.457 219.112 355.252 218.317C356.047 217.521 356.495 216.443 356.497 215.319V4.39822C356.495 3.27359 356.047 2.19561 355.252 1.40037C354.457 0.605137 353.379 0.157469 352.254 0.155415H202.202Z" fill="#EBEBEB"/>
<path d="M347.537 64.9709H246.176V70.1773H347.537V64.9709Z" fill="#E0E0E0"/>
<path d="M255.307 45.7773H250.839V64.971H255.307V45.7773Z" fill="#EBEBEB"/>
<path d="M276.902 45.7773H272.434V64.971H276.902V45.7773Z" fill="#EBEBEB"/>
<path d="M301.417 45.285L297.014 46.0439L300.274 64.9587L304.677 64.1997L301.417 45.285Z" fill="#EBEBEB"/>
<path d="M260.84 48.3105H256.372V64.9787H260.84V48.3105Z" fill="#EBEBEB"/>
<path d="M271.105 48.3105H266.637V64.9787H271.105V48.3105Z" fill="#EBEBEB"/>
<path d="M297.012 48.3105H292.544V64.9787H297.012V48.3105Z" fill="#EBEBEB"/>
<path d="M282.766 47.7226L278.404 48.692L282.02 64.9632L286.382 63.9938L282.766 47.7226Z" fill="#EBEBEB"/>
<path d="M264.702 44.8215H262.472V64.971H264.702V44.8215Z" fill="#EBEBEB"/>
<path d="M291.262 44.8215H289.032V64.971H291.262V44.8215Z" fill="#EBEBEB"/>
<path d="M337.809 49.7792H316.051V64.8H337.809V49.7792Z" fill="#EBEBEB"/>
<path d="M246.176 109.054L347.538 109.054V103.848L246.176 103.848V109.054Z" fill="#E0E0E0"/>
<path d="M338.399 103.856H342.867V84.6619H338.399V103.856Z" fill="#EBEBEB"/>
<path d="M316.812 103.856H321.28V84.6619H316.812V103.856Z" fill="#EBEBEB"/>
<path d="M289.043 103.093L293.446 103.852L296.706 84.937L292.303 84.178L289.043 103.093Z" fill="#EBEBEB"/>
<path d="M332.866 103.848H337.334V87.1797H332.866V103.848Z" fill="#EBEBEB"/>
<path d="M322.609 103.848H327.077V87.1797H322.609V103.848Z" fill="#EBEBEB"/>
<path d="M296.701 103.848H301.169V87.1797H296.701V103.848Z" fill="#EBEBEB"/>
<path d="M307.343 102.87L311.705 103.839L315.321 87.5682L310.959 86.5988L307.343 102.87Z" fill="#EBEBEB"/>
<path d="M329.012 103.848H331.242V83.6984H329.012V103.848Z" fill="#EBEBEB"/>
<path d="M302.452 103.848H304.682V83.6984H302.452V103.848Z" fill="#EBEBEB"/>
<path d="M255.897 103.685H277.655V88.6639H255.897V103.685Z" fill="#EBEBEB"/>
<path d="M41.1846 163.962V254.88H45.847V173.287H128.217V254.88H133.656V163.962H41.1846Z" fill="#E0E0E0"/>
<path d="M92.4717 163.962V254.88H97.1341V173.287H179.504V254.88H184.943V163.962H92.4717Z" fill="#F5F5F5"/>
<path d="M121.907 130.082C120.866 128.372 119.156 129.864 119.156 129.864C119.397 126.577 116.382 124.339 116.382 124.339C116.382 124.339 119.887 124.339 120.376 120.99C120.866 117.641 119.156 119.203 117.548 119.179C115.939 119.156 114.261 123.842 116.382 126.484C118.504 129.126 117.936 133.633 113.041 137.961C111.869 139.056 110.99 140.426 110.484 141.948C110.857 137.969 111.067 132.359 109.894 128.621C107.904 122.257 111.696 120.547 112.792 117.369C113.888 114.191 109.894 111.494 109.894 111.494C109.894 111.494 113.655 109.785 111.813 107.826C109.971 105.868 106.195 106.132 106.195 108.697C106.195 111.261 108.759 112.232 108.759 112.232C108.759 112.232 111.696 115.286 111.696 116.895C111.696 118.503 108.759 121.907 108.759 121.907C108.759 121.907 110.103 118.977 107.415 118.853C104.726 118.729 103.864 122.272 104.967 123.865C106.07 125.458 107.904 124.106 107.904 124.106C108.017 125.962 108.298 127.803 108.744 129.608C109.016 130.525 108.891 134.115 108.658 137.845C108.147 136.498 107.33 135.287 106.272 134.309C101.385 129.981 100.833 125.474 102.931 122.832C105.029 120.19 103.374 115.504 101.765 115.527C100.157 115.551 98.4474 113.973 98.9369 117.338C99.4265 120.703 102.931 120.687 102.931 120.687C102.931 120.687 99.916 122.925 100.165 126.212C100.165 126.212 98.4474 124.72 97.4061 126.43C95.5567 129.491 99.8539 131.387 100.577 129.88C100.577 129.88 109.699 136.337 107.5 145.631L108.013 146.408C107.943 147.185 107.904 147.613 107.904 147.613L108.619 147.309L109.396 148.506C109.369 149.856 109.439 151.207 109.606 152.547L111.782 149.322C109.583 139.997 118.706 133.571 118.706 133.571C119.459 135.039 123.764 133.143 121.907 130.082Z" fill="#E0E0E0"/>
<path d="M116.382 163.962L113.437 147.107L114.268 142.204H104.998L105.829 147.107L102.892 163.962H116.382Z" fill="#EBEBEB"/>
<path d="M194.268 289.506C277.479 289.506 344.934 285.567 344.934 280.709C344.934 275.851 277.479 271.913 194.268 271.913C111.057 271.913 43.6016 275.851 43.6016 280.709C43.6016 285.567 111.057 289.506 194.268 289.506Z" fill="#F5F5F5"/>
<path d="M233.693 40.6331L209.755 27.7062L192.873 58.9669L216.811 71.8939L233.693 40.6331Z" fill="#407BFF"/>
<path opacity="0.6" d="M233.693 40.6331L209.755 27.7062L192.873 58.9669L216.811 71.8939L233.693 40.6331Z" fill="white"/>
<path d="M227.732 43.1347L210.939 34.0663L210.027 35.7551L226.82 44.8236L227.732 43.1347Z" fill="#407BFF"/>
<path d="M226.136 46.0941L209.343 37.0256L208.431 38.7145L225.224 47.7829L226.136 46.0941Z" fill="#407BFF"/>
<path d="M224.537 49.0506L207.744 39.9822L206.832 41.671L223.625 50.7395L224.537 49.0506Z" fill="#407BFF"/>
<path d="M222.934 52.0063L206.141 42.9379L205.229 44.6267L222.022 53.6951L222.934 52.0063Z" fill="#407BFF"/>
<path d="M221.341 54.9588L204.548 45.8904L203.636 47.5792L220.429 56.6477L221.341 54.9588Z" fill="#407BFF"/>
<path d="M219.746 57.9222L202.953 48.8538L202.041 50.5426L218.834 59.611L219.746 57.9222Z" fill="#407BFF"/>
<path d="M218.153 60.8747L201.36 51.8063L200.448 53.4951L217.241 62.5636L218.153 60.8747Z" fill="#407BFF"/>
<path d="M210.626 60.6362L199.755 54.7654L198.843 56.4542L209.714 62.3251L210.626 60.6362Z" fill="#407BFF"/>
<path d="M170.093 40.8662C166.707 40.5196 163.499 39.1766 160.876 37.007C158.252 34.8373 156.331 31.9385 155.356 28.6772C154.38 25.4158 154.393 21.9383 155.394 18.6844C156.394 15.4305 158.337 12.5465 160.977 10.3969C163.617 8.24729 166.834 6.92874 170.224 6.60797C173.613 6.28719 177.021 6.9786 180.017 8.59475C183.013 10.2109 185.463 12.6792 187.056 15.6876C188.649 18.6959 189.315 22.1092 188.968 25.4957C188.497 30.0345 186.246 34.2014 182.708 37.0827C179.17 39.964 174.633 41.3246 170.093 40.8662Z" fill="#407BFF"/>
<path opacity="0.3" d="M173.055 39.3834C181.703 38.718 188.174 31.1681 187.509 22.5203C186.843 13.8724 179.293 7.40135 170.646 8.06676C161.998 8.73218 155.527 16.2821 156.192 24.9299C156.858 33.5778 164.407 40.0488 173.055 39.3834Z" fill="white"/>
<path d="M177.172 18.6497C175.362 17.3675 172.836 12.9849 172.836 12.9615L171.204 28.8449C171.243 28.4874 169.829 28.1222 168.873 28.0678C166.596 27.8269 164.677 28.8993 164.522 30.399C164.366 31.8988 166.076 33.3908 168.407 33.6239C170.738 33.857 172.58 32.7846 172.743 31.246C172.743 31.0129 172.58 30.7643 172.603 30.5544L173.854 18.3156C174.789 19.3919 175.938 20.2625 177.227 20.8721C178.944 21.6492 179.558 24.0348 179.558 24.0348C179.642 23.0093 179.468 21.9791 179.051 21.0384C178.634 20.0976 177.988 19.2764 177.172 18.6497Z" fill="white"/>
<path opacity="0.5" d="M174.762 29.2411C180.835 26.0919 183.642 19.459 181.032 14.4262C178.423 9.39341 171.384 7.86647 165.311 11.0157C159.238 14.1649 156.431 20.7978 159.041 25.8306C161.65 30.8634 168.689 32.3903 174.762 29.2411Z" fill="white"/>
<path d="M138.154 1.39904L101.171 4.4071L103.423 32.096L140.406 29.0879L138.154 1.39904Z" fill="#407BFF"/>
<path d="M136.51 3.34207L103.206 6.0509L105.159 30.0608L138.463 27.352L136.51 3.34207Z" fill="#407BFF"/>
<path opacity="0.5" d="M136.51 3.34207L103.206 6.0509L105.159 30.0608L138.463 27.352L136.51 3.34207Z" fill="white"/>
<path d="M138.195 24.0892L138.459 27.3529L105.154 30.0649L104.206 18.3932L110.585 11.8192L121.596 20.9343L126.678 16.5593L138.195 24.0892Z" fill="#407BFF"/>
<path opacity="0.3" d="M138.195 24.0892L138.459 27.3529L105.154 30.0649L104.206 18.3932L110.585 11.8192L121.596 20.9343L126.678 16.5593L138.195 24.0892Z" fill="white"/>
<path d="M131.473 10.102C131.515 10.6319 131.4 11.1627 131.141 11.6271C130.883 12.0916 130.492 12.4689 130.019 12.7113C129.546 12.9537 129.011 13.0504 128.483 12.9892C127.955 12.9279 127.457 12.7115 127.052 12.3672C126.646 12.0229 126.352 11.5662 126.207 11.0548C126.061 10.5435 126.07 10.0004 126.233 9.49433C126.396 8.98824 126.706 8.54183 127.122 8.21153C127.539 7.88123 128.044 7.68187 128.574 7.63866C128.926 7.60994 129.281 7.6509 129.617 7.75917C129.953 7.86745 130.265 8.04092 130.534 8.26969C130.803 8.49845 131.024 8.77802 131.186 9.09242C131.347 9.40681 131.444 9.74986 131.473 10.102Z" fill="#407BFF"/>
<path opacity="0.3" d="M131.473 10.102C131.515 10.6319 131.4 11.1627 131.141 11.6271C130.883 12.0916 130.492 12.4689 130.019 12.7113C129.546 12.9537 129.011 13.0504 128.483 12.9892C127.955 12.9279 127.457 12.7115 127.052 12.3672C126.646 12.0229 126.352 11.5662 126.207 11.0548C126.061 10.5435 126.07 10.0004 126.233 9.49433C126.396 8.98824 126.706 8.54183 127.122 8.21153C127.539 7.88123 128.044 7.68187 128.574 7.63866C128.926 7.60994 129.281 7.6509 129.617 7.75917C129.953 7.86745 130.265 8.04092 130.534 8.26969C130.803 8.49845 131.024 8.77802 131.186 9.09242C131.347 9.40681 131.444 9.74986 131.473 10.102Z" fill="white"/>
<path d="M67.1313 34.0902L65.7015 33.2121C65.448 33.0554 65.1612 32.9604 64.8643 32.9347C64.5674 32.9091 64.2686 32.9535 63.9919 33.0644L57.6433 35.7453C57.3764 35.8537 57.1423 36.0296 56.9638 36.2558C56.7854 36.4819 56.6687 36.7505 56.6253 37.0353L56.3922 38.5894C56.3527 38.8735 56.2384 39.142 56.0608 39.3674C55.8833 39.5927 55.649 39.7667 55.382 39.8716L51.5899 41.4257C51.3733 41.5137 51.1776 41.6461 51.0154 41.8145C50.8532 41.9828 50.7281 42.1834 50.6483 42.4031C50.5685 42.6228 50.5356 42.8568 50.5519 43.09C50.5682 43.3232 50.6333 43.5504 50.7429 43.7569L60.8448 64.4581C61.0584 64.8871 61.4253 65.2203 61.8729 65.3915C62.3205 65.5628 62.8161 65.5597 63.2615 65.3828L93.3031 52.8409C93.5211 52.7547 93.7185 52.6233 93.8822 52.4555C94.0459 52.2876 94.1723 52.087 94.253 51.8669C94.3337 51.6467 94.367 51.412 94.3506 51.1781C94.3342 50.9442 94.2685 50.7164 94.1578 50.5097L84.0559 29.8163C83.8437 29.3859 83.4773 29.051 83.0296 28.8783C82.5819 28.7055 82.0856 28.7075 81.6392 28.8838L68.8409 34.2378C68.5642 34.3487 68.2654 34.3931 67.9685 34.3675C67.6716 34.3419 67.3848 34.2469 67.1313 34.0902Z" fill="#407BFF"/>
<path d="M85.4779 29.653L57.9618 41.1848C57.4006 41.4275 56.9481 41.8679 56.6902 42.4223C56.4323 42.9767 56.3871 43.6065 56.563 44.192L62.5853 63.2536C62.6702 63.5268 62.812 63.7788 63.0015 63.9931C63.1911 64.2073 63.4239 64.3789 63.6847 64.4964C63.9455 64.614 64.2282 64.6748 64.5143 64.6749C64.8003 64.6749 65.0831 64.6143 65.3439 64.4969L92.8678 52.9807C93.4268 52.7353 93.8772 52.2946 94.1347 51.741C94.3921 51.1875 94.439 50.5591 94.2665 49.9734L88.2365 30.9119C88.1544 30.6366 88.0144 30.3821 87.8259 30.1654C87.6373 29.9487 87.4045 29.7749 87.1432 29.6556C86.8819 29.5364 86.5981 29.4745 86.3108 29.474C86.0236 29.4736 85.7396 29.5346 85.4779 29.653Z" fill="#407BFF"/>
<path opacity="0.5" d="M85.4779 29.653L57.9618 41.1848C57.4006 41.4275 56.9481 41.8679 56.6902 42.4223C56.4323 42.9767 56.3871 43.6065 56.563 44.192L62.5853 63.2536C62.6702 63.5268 62.812 63.7788 63.0015 63.9931C63.1911 64.2073 63.4239 64.3789 63.6847 64.4964C63.9455 64.614 64.2282 64.6748 64.5143 64.6749C64.8003 64.6749 65.0831 64.6143 65.3439 64.4969L92.8678 52.9807C93.4268 52.7353 93.8772 52.2946 94.1347 51.741C94.3921 51.1875 94.439 50.5591 94.2665 49.9734L88.2365 30.9119C88.1544 30.6366 88.0144 30.3821 87.8259 30.1654C87.6373 29.9487 87.4045 29.7749 87.1432 29.6556C86.8819 29.5364 86.5981 29.4745 86.3108 29.474C86.0236 29.4736 85.7396 29.5346 85.4779 29.653Z" fill="white"/>
<path d="M185.316 75.3759C185.657 73.7717 185.829 72.1361 185.829 70.4959C185.829 67.4529 185.23 64.4397 184.065 61.6283C182.901 58.8169 181.194 56.2624 179.042 54.1107C176.89 51.9589 174.336 50.2521 171.524 49.0875C168.713 47.923 165.7 47.3237 162.657 47.3237C161.22 47.3251 159.787 47.4578 158.375 47.72C157.784 47.6112 157.186 47.72 156.572 47.65C154.388 42.9045 150.881 38.8903 146.471 36.0893C142.062 33.2884 136.937 31.8198 131.714 31.8599H123.166C119.588 31.8425 116.043 32.5311 112.732 33.8863C109.421 35.2414 106.41 37.2364 103.871 39.7571C101.332 42.2778 99.3157 45.2745 97.937 48.5757C96.5583 51.8769 95.8444 55.4177 95.8363 58.9953C95.8363 59.1973 95.8363 59.2983 95.8363 59.5004C90.1833 60.4987 85.1123 63.5858 81.6296 68.149C78.1468 72.7122 76.5068 78.4179 77.0351 84.134C77.5634 89.85 80.2213 95.1586 84.4813 99.0062C88.7414 102.854 94.2923 104.959 100.032 104.905H183.956C187.872 105.083 191.698 103.698 194.593 101.056C197.488 98.4128 199.214 94.7282 199.393 90.8125C199.571 86.8967 198.186 83.0705 195.544 80.1756C192.901 77.2807 189.216 75.5542 185.301 75.3759H185.316Z" fill="#407BFF"/>
<path opacity="0.5" d="M185.316 75.3759C185.657 73.7717 185.829 72.1361 185.829 70.4959C185.829 67.4529 185.23 64.4397 184.065 61.6283C182.901 58.8169 181.194 56.2624 179.042 54.1107C176.89 51.9589 174.336 50.2521 171.524 49.0875C168.713 47.923 165.7 47.3237 162.657 47.3237C161.22 47.3251 159.787 47.4578 158.375 47.72C157.784 47.6112 157.186 47.72 156.572 47.65C154.388 42.9045 150.881 38.8903 146.471 36.0893C142.062 33.2884 136.937 31.8198 131.714 31.8599H123.166C119.588 31.8425 116.043 32.5311 112.732 33.8863C109.421 35.2414 106.41 37.2364 103.871 39.7571C101.332 42.2778 99.3157 45.2745 97.937 48.5757C96.5583 51.8769 95.8444 55.4177 95.8363 58.9953C95.8363 59.1973 95.8363 59.2983 95.8363 59.5004C90.1833 60.4987 85.1123 63.5858 81.6296 68.149C78.1468 72.7122 76.5068 78.4179 77.0351 84.134C77.5634 89.85 80.2213 95.1586 84.4813 99.0062C88.7414 102.854 94.2923 104.959 100.032 104.905H183.956C187.872 105.083 191.698 103.698 194.593 101.056C197.488 98.4128 199.214 94.7282 199.393 90.8125C199.571 86.8967 198.186 83.0705 195.544 80.1756C192.901 77.2807 189.216 75.5542 185.301 75.3759H185.316Z" fill="white"/>
<path opacity="0.4" d="M185.316 75.3759C185.658 73.7717 185.829 72.1361 185.829 70.4959C185.829 67.4529 185.23 64.4397 184.065 61.6283C182.901 58.8169 181.194 56.2624 179.042 54.1107C176.89 51.9589 174.336 50.2521 171.524 49.0875C168.713 47.923 165.7 47.3237 162.657 47.3237C161.22 47.3251 159.787 47.4578 158.375 47.72C157.784 47.6112 157.186 47.72 156.572 47.65C154.388 42.9045 150.881 38.8903 146.471 36.0893C142.062 33.2884 136.938 31.8198 131.714 31.8599C128.136 31.8425 124.59 32.5311 121.279 33.8863C117.969 35.2414 114.957 37.2364 112.419 39.7571C109.88 42.2778 107.864 45.2745 106.485 48.5757C105.106 51.8769 104.392 55.4177 104.384 58.9953C104.384 59.1973 104.384 59.2983 104.384 59.5004C98.7312 60.4987 93.6602 63.5858 90.1774 68.149C86.6947 72.7122 85.0547 78.4179 85.583 84.134C86.1112 89.85 88.7691 95.1586 93.0292 99.0062C97.2893 102.854 102.84 104.959 108.58 104.905H183.956C187.872 105.083 191.698 103.698 194.593 101.056C197.488 98.4128 199.215 94.7282 199.393 90.8125C199.571 86.8967 198.186 83.0705 195.544 80.1756C192.901 77.2807 189.216 75.5542 185.301 75.3759H185.316Z" fill="white"/>
<path d="M207.999 142.981H181.835C171.534 142.969 161.659 138.871 154.375 131.588C147.091 124.304 142.994 114.428 142.981 104.128V96.3569H135.21V104.128C135.225 116.489 140.142 128.339 148.882 137.08C157.623 145.821 169.474 150.738 181.835 150.752H207.999V142.981Z" fill="#407BFF"/>
<path d="M139.002 91.1815L132.265 97.911H145.732L139.002 91.1815Z" fill="#407BFF"/>
<path d="M81.033 242.703L76.3706 228.459C78.67 226.496 81.3782 225.071 84.2979 224.288C87.2177 223.504 90.2755 223.381 93.2486 223.929L97.134 237.263L81.033 242.703Z" fill="#407BFF"/>
<path opacity="0.7" d="M81.033 242.703L76.3706 228.459C78.67 226.496 81.3782 225.071 84.2979 224.288C87.2177 223.504 90.2755 223.381 93.2486 223.929L97.134 237.263L81.033 242.703Z" fill="white"/>
<g opacity="0.2">
<path d="M78.5928 231.824C79.1493 231.202 79.7662 230.637 80.4344 230.137C81.1166 229.61 81.8388 229.138 82.5947 228.723C83.0065 228.506 83.4417 228.273 83.9002 228.07C84.3586 227.868 84.8171 227.674 85.3067 227.527C85.7834 227.366 86.2685 227.231 86.7598 227.122L87.4825 226.959L88.2052 226.874C88.4383 226.874 88.6714 226.804 88.8967 226.788H89.565C89.9746 226.765 90.3855 226.778 90.7928 226.827C91.1658 226.866 91.5077 226.897 91.8108 226.951L92.5878 227.13L93.2483 227.301C93.2483 227.301 92.9919 227.301 92.5645 227.301L91.7875 227.262H90.7773C90.3847 227.272 89.993 227.303 89.6039 227.356C89.1679 227.395 88.7347 227.46 88.3062 227.55L87.6223 227.674L86.9385 227.853C86.4701 227.964 86.0083 228.102 85.5553 228.265C85.0813 228.389 84.6384 228.599 84.1877 228.762C83.737 228.925 83.3174 229.135 82.9055 229.329C82.4937 229.524 82.1284 229.718 81.7244 229.928C81.3203 230.137 81.0017 230.316 80.6831 230.503C80.0459 230.876 79.5175 231.194 79.129 231.443L78.5928 231.824Z" fill="black"/>
<path d="M79.0044 233.121C79.0044 233.121 79.1831 232.966 79.525 232.725C79.8669 232.484 80.3487 232.135 80.9626 231.777C81.6596 231.357 82.3781 230.973 83.1151 230.627C83.8922 230.238 84.8169 229.897 85.7105 229.57C86.169 229.438 86.6275 229.283 87.0782 229.158C87.5289 229.034 87.9873 228.925 88.4303 228.855C88.8732 228.785 89.3006 228.684 89.7124 228.653C90.1243 228.622 90.4895 228.568 90.8703 228.56C91.4461 228.544 92.0223 228.564 92.5954 228.622L93.2481 228.7C93.2481 228.7 93.0072 228.739 92.5954 228.778C92.3933 228.778 92.1447 228.778 91.8649 228.855L90.9169 229.003C90.5672 229.057 90.202 229.158 89.8057 229.228C89.4094 229.298 89.0286 229.43 88.5857 229.524C88.1428 229.617 87.7309 229.772 87.288 229.881C86.845 229.99 86.4099 230.169 85.967 230.308C84.1952 230.899 82.4624 231.614 81.1647 232.166C80.5197 232.453 79.968 232.671 79.6105 232.849L79.0044 233.121Z" fill="black"/>
<path d="M80.1001 235.779C80.2521 235.627 80.413 235.484 80.5819 235.352C80.8927 235.095 81.359 234.73 81.9184 234.334C82.5747 233.882 83.2571 233.469 83.9621 233.098C84.7686 232.665 85.6018 232.283 86.4565 231.956C87.3168 231.632 88.1999 231.372 89.0986 231.179C89.5142 231.092 89.9346 231.03 90.3574 230.992C90.7615 230.992 91.1345 230.907 91.492 230.915L92.4478 230.953C92.7353 230.953 92.9762 231.023 93.1782 231.047L93.8076 231.155C93.8076 231.155 93.5745 231.155 93.1704 231.194C92.9684 231.194 92.7275 231.194 92.4555 231.241L91.523 231.365C91.1889 231.404 90.8315 231.497 90.4429 231.56C90.0544 231.622 89.6658 231.762 89.254 231.847C88.8422 231.933 88.4303 232.103 88.0029 232.22C87.5755 232.337 87.1559 232.515 86.7285 232.663C86.3011 232.811 85.8815 232.982 85.4697 233.16C85.0578 233.339 84.646 233.494 84.2652 233.681C83.4881 234.031 82.7655 234.388 82.1516 234.691C81.5377 234.994 81.017 235.258 80.6674 235.468L80.1001 235.779Z" fill="black"/>
<path d="M80.7529 237.59C81.2914 237.057 81.8765 236.573 82.5013 236.144C83.1423 235.701 83.812 235.301 84.5062 234.948C84.8947 234.761 85.2833 234.575 85.7106 234.404C86.138 234.233 86.5577 234.069 87.0006 233.945C87.4374 233.808 87.8809 233.694 88.3294 233.603C88.762 233.504 89.2007 233.434 89.6426 233.393C90.0548 233.34 90.4704 233.317 90.8859 233.323C91.2544 233.311 91.6233 233.326 91.9894 233.37L92.9219 233.494L93.6212 233.665C94.002 233.766 94.2196 233.836 94.2196 233.836C94.2196 233.836 93.9865 233.836 93.5979 233.836H92.8908H91.9816C91.6258 233.835 91.2703 233.856 90.917 233.898C90.5207 233.932 90.1265 233.987 89.7359 234.062C89.3318 234.116 88.9588 234.233 88.4926 234.326C88.0263 234.419 87.6533 234.551 87.2337 234.676C86.4052 234.927 85.5907 235.223 84.7937 235.561C84.0166 235.888 83.325 236.222 82.7267 236.517C82.1283 236.812 81.631 237.077 81.2891 237.294L80.7529 237.59Z" fill="black"/>
<path d="M81.6543 240.014C81.7986 239.863 81.9517 239.72 82.1128 239.587C82.4158 239.33 82.8432 238.965 83.3949 238.569C84.0245 238.117 84.681 237.705 85.3609 237.333C85.7261 237.123 86.138 236.921 86.5265 236.735C86.9151 236.548 87.358 236.385 87.7776 236.199C88.1972 236.012 88.6402 235.903 89.0676 235.771C89.4949 235.639 89.9301 235.546 90.3575 235.468C90.7611 235.393 91.1683 235.338 91.5775 235.305C91.9738 235.305 92.3546 235.243 92.6887 235.258L93.6212 235.321C93.8932 235.321 94.1341 235.414 94.3283 235.445L94.9344 235.585H94.3128C94.1185 235.585 93.8776 235.585 93.6134 235.585L92.712 235.67C92.3857 235.709 92.0282 235.795 91.663 235.841C91.2978 235.888 90.8859 236.028 90.5051 236.105C90.1244 236.183 89.7281 236.354 89.2851 236.463C88.8422 236.572 88.4614 236.743 88.0496 236.898C87.6377 237.053 87.2259 237.209 86.8296 237.388C86.4333 237.566 86.0525 237.722 85.664 237.908C84.8869 238.258 84.2264 238.615 83.6281 238.918C83.0297 239.221 82.5324 239.478 82.1982 239.695L81.6543 240.014Z" fill="black"/>
</g>
<path d="M79.0126 242.804L88.5861 235.546C88.7028 235.456 88.8374 235.392 88.9808 235.359C89.1242 235.325 89.2731 235.323 89.4175 235.352L100.351 237.426C100.565 237.466 100.762 237.571 100.914 237.727C101.066 237.883 101.165 238.083 101.198 238.298C101.232 238.513 101.197 238.733 101.1 238.928C101.002 239.123 100.846 239.282 100.654 239.385L91.6322 244.272C91.4851 244.348 91.3234 244.39 91.1582 244.397L79.6575 244.692C79.436 244.695 79.2191 244.628 79.038 244.501C78.8568 244.373 78.7207 244.192 78.6491 243.982C78.5775 243.773 78.5741 243.546 78.6394 243.334C78.7047 243.122 78.8353 242.937 79.0126 242.804Z" fill="#407BFF"/>
<path d="M96.271 247.109C96.271 247.109 110.989 211.496 113.584 209.289C116.18 207.082 132.622 216.648 132.622 216.648L117.982 254.235L96.271 247.109Z" fill="#407BFF"/>
<path opacity="0.2" d="M100.499 246.852C100.499 246.852 114.595 212.832 116.693 211.363C118.791 209.895 130.804 216.158 130.804 216.158C130.804 216.158 118.286 208.512 114.447 209.809C110.608 211.107 97.5225 246.075 97.5225 246.075L100.499 246.852Z" fill="black"/>
<path d="M130.159 243.612H67.6519V280.523H130.159V243.612Z" fill="#263238"/>
<path opacity="0.2" d="M130.159 243.612H67.6519V280.523H130.159V243.612Z" fill="white"/>
<path opacity="0.4" d="M130.159 243.612H91.3525V280.523H130.159V243.612Z" fill="white"/>
<path d="M91.3525 244L106.07 232.15L138.902 234.388L130.159 244H91.3525Z" fill="#263238"/>
<path d="M91.3524 244.001L80.2325 231.179L56.7261 233.704L67.6517 243.612L91.3524 244.001Z" fill="#263238"/>
<path opacity="0.1" d="M91.3524 244.001L80.2325 231.179L56.7261 233.704L67.6517 243.612L91.3524 244.001Z" fill="white"/>
<path opacity="0.4" d="M91.3525 244L106.07 232.15L138.902 234.388L130.159 244H91.3525Z" fill="white"/>
<path d="M118.325 260.599C116.36 260.599 114.44 261.181 112.807 262.272C111.174 263.364 109.901 264.915 109.15 266.729C108.398 268.544 108.201 270.541 108.584 272.467C108.968 274.394 109.913 276.163 111.302 277.552C112.691 278.941 114.461 279.887 116.387 280.27C118.314 280.653 120.31 280.456 122.125 279.705C123.94 278.953 125.491 277.68 126.582 276.047C127.673 274.414 128.256 272.494 128.256 270.53C128.256 267.896 127.209 265.37 125.347 263.507C123.484 261.645 120.958 260.599 118.325 260.599ZM118.325 274.485C117.54 274.485 116.774 274.252 116.122 273.817C115.47 273.381 114.962 272.761 114.662 272.037C114.363 271.312 114.285 270.515 114.438 269.746C114.592 268.977 114.97 268.271 115.525 267.717C116.08 267.163 116.787 266.786 117.556 266.634C118.325 266.482 119.123 266.562 119.847 266.863C120.571 267.164 121.189 267.673 121.623 268.326C122.058 268.979 122.289 269.746 122.288 270.53C122.288 271.05 122.185 271.565 121.986 272.045C121.787 272.526 121.494 272.962 121.126 273.329C120.758 273.697 120.321 273.988 119.841 274.186C119.36 274.385 118.845 274.486 118.325 274.485Z" fill="#407BFF"/>
<path opacity="0.7" d="M127.276 266.217C127.097 265.85 126.895 265.494 126.67 265.152C126.38 264.69 126.047 264.256 125.676 263.855C123.979 261.974 121.621 260.821 119.094 260.638C118.836 260.609 118.576 260.596 118.317 260.599C116.809 260.601 115.321 260.947 113.966 261.61C112.611 262.272 111.425 263.235 110.497 264.424C109.57 265.613 108.925 266.997 108.611 268.473C108.298 269.948 108.325 271.475 108.689 272.939C108.781 273.32 108.9 273.694 109.046 274.058C109.254 274.6 109.515 275.12 109.823 275.612C110.629 276.956 111.742 278.091 113.071 278.922C114.401 279.752 115.908 280.256 117.47 280.391C117.757 280.391 118.045 280.43 118.332 280.43C120.012 280.428 121.663 280.001 123.133 279.188C124.602 278.375 125.842 277.203 126.736 275.782C127.63 274.36 128.149 272.735 128.245 271.058C128.341 269.382 128.01 267.708 127.284 266.194L127.276 266.217ZM118.325 274.485C118.2 274.493 118.076 274.493 117.952 274.485C117.234 274.419 116.547 274.158 115.968 273.729C115.388 273.3 114.938 272.72 114.665 272.053C114.572 271.826 114.5 271.592 114.447 271.353C114.421 271.204 114.403 271.054 114.393 270.903C114.385 270.786 114.385 270.67 114.393 270.553C114.392 270.033 114.493 269.518 114.691 269.037C114.89 268.556 115.181 268.119 115.548 267.751C115.916 267.383 116.352 267.091 116.833 266.892C117.313 266.693 117.828 266.59 118.348 266.59C118.441 266.582 118.535 266.582 118.628 266.59C119.443 266.641 120.223 266.945 120.858 267.46C121.014 267.591 121.16 267.734 121.293 267.888C121.407 268.011 121.511 268.144 121.604 268.284C122.068 268.944 122.315 269.731 122.311 270.538C122.31 271.059 122.206 271.575 122.005 272.056C121.804 272.537 121.509 272.974 121.139 273.34C120.768 273.707 120.329 273.997 119.846 274.194C119.363 274.39 118.846 274.489 118.325 274.485Z" fill="white"/>
<path opacity="0.2" d="M117.951 274.462L117.462 280.414C115.9 280.279 114.393 279.776 113.063 278.945C111.734 278.114 110.621 276.98 109.815 275.635L114.664 272.029C114.937 272.697 115.388 273.276 115.968 273.705C116.547 274.134 117.233 274.396 117.951 274.462Z" fill="white"/>
<path opacity="0.2" d="M125.676 263.855L120.835 267.452C120.2 266.938 119.42 266.633 118.604 266.582L119.094 260.638C121.621 260.821 123.979 261.974 125.676 263.855Z" fill="white"/>
<path opacity="0.2" d="M114.447 271.33L109.054 274.058C108.908 273.694 108.789 273.32 108.697 272.939L114.393 270.879C114.403 271.03 114.421 271.181 114.447 271.33Z" fill="white"/>
<path opacity="0.2" d="M127.276 266.217L121.58 268.276C121.488 268.136 121.384 268.003 121.27 267.88L126.67 265.152C126.895 265.494 127.097 265.85 127.276 266.217Z" fill="white"/>
<path d="M125.575 263.357C120.135 263.357 117.159 267.188 119.024 271.905C120.889 276.622 126.834 280.453 132.312 280.453C137.79 280.453 140.735 276.63 138.87 271.905C137.005 267.18 131.061 263.357 125.575 263.357ZM130.291 275.316C129.179 275.292 128.096 274.96 127.161 274.358C126.225 273.756 125.475 272.907 124.992 271.905C124.215 270.025 125.419 268.494 127.603 268.494C128.714 268.52 129.797 268.852 130.732 269.454C131.667 270.056 132.418 270.904 132.902 271.905C133.656 273.786 132.475 275.316 130.291 275.316Z" fill="#407BFF"/>
<path opacity="0.1" d="M136.43 268.191C136.127 267.88 135.809 267.569 135.467 267.274C135.013 266.872 134.532 266.501 134.029 266.163C131.768 264.567 129.119 263.609 126.36 263.388C126.088 263.388 125.831 263.388 125.582 263.388C120.143 263.388 117.167 267.212 119.032 271.936C119.32 272.669 119.693 273.365 120.143 274.011C120.38 274.349 120.64 274.671 120.92 274.975C121.318 275.46 121.752 275.914 122.218 276.334C124.771 278.684 128.025 280.131 131.48 280.453C131.776 280.453 132.071 280.453 132.359 280.453C137.845 280.453 140.782 276.622 138.925 271.905C138.339 270.519 137.492 269.258 136.43 268.191ZM130.284 275.316H129.903C128.319 275.16 126.852 274.414 125.792 273.226C125.626 273.036 125.475 272.834 125.342 272.62C125.264 272.495 125.194 272.365 125.132 272.231C125.079 272.134 125.032 272.032 124.992 271.928C124.215 270.04 125.419 268.517 127.603 268.517C127.696 268.509 127.79 268.509 127.883 268.517C128.772 268.584 129.635 268.85 130.408 269.294C130.61 269.407 130.804 269.531 130.991 269.667C131.147 269.77 131.295 269.884 131.434 270.009C132.082 270.519 132.589 271.185 132.91 271.944C133.656 273.786 132.475 275.316 130.284 275.316Z" fill="white"/>
<path opacity="0.2" d="M129.903 275.293L131.457 280.422C128.002 280.1 124.748 278.653 122.194 276.303L125.815 273.195C126.868 274.381 128.326 275.129 129.903 275.293Z" fill="white"/>
<path opacity="0.2" d="M134.029 266.162L130.408 269.271C129.635 268.827 128.772 268.561 127.883 268.494L126.329 263.373C129.1 263.593 131.76 264.556 134.029 266.162Z" fill="white"/>
<path opacity="0.2" d="M125.341 272.597L120.873 274.928C120.593 274.624 120.334 274.302 120.096 273.964L125.108 272.208C125.178 272.342 125.256 272.472 125.341 272.597Z" fill="white"/>
<path opacity="0.2" d="M136.43 268.191L131.434 269.97C131.295 269.845 131.147 269.731 130.991 269.628L135.467 267.297C135.809 267.569 136.127 267.88 136.43 268.191Z" fill="white"/>
<path d="M289.382 213.695L289.662 225.794L290.936 280.523H295.14L296.407 225.794L296.686 213.695H289.382Z" fill="#407BFF"/>
<path opacity="0.4" d="M289.382 213.695L289.662 225.794L290.936 280.523H295.14L296.407 225.794L296.686 213.695H289.382Z" fill="white"/>
<path opacity="0.2" d="M289.382 213.695L289.662 226.128H296.407L296.686 213.695H289.382Z" fill="black"/>
<path d="M266.551 280.329L270.437 214.549H276.785L271.346 280.329H266.551Z" fill="#407BFF"/>
<path opacity="0.5" d="M271.361 280.328H266.559L270.087 220.455L270.437 214.472H276.785L276.296 220.455L271.361 280.328Z" fill="white"/>
<path opacity="0.2" d="M276.785 214.472L276.296 220.688H270.087L270.437 214.472H276.785Z" fill="black"/>
<path d="M314.73 280.329L309.29 214.549H315.639L319.524 280.329H314.73Z" fill="#407BFF"/>
<path opacity="0.5" d="M314.714 280.328L309.78 220.455L309.29 214.472H315.639L315.988 220.455L319.516 280.328H314.714Z" fill="white"/>
<path opacity="0.2" d="M309.29 214.472L309.78 220.688H315.988L315.639 214.472H309.29Z" fill="black"/>
<path d="M319.035 216.826H267.033V211.643C267.033 210.613 267.442 209.624 268.171 208.896C268.9 208.167 269.888 207.758 270.918 207.758H315.149C316.18 207.758 317.168 208.167 317.897 208.896C318.625 209.624 319.035 210.613 319.035 211.643V216.842V216.826Z" fill="#407BFF"/>
<path d="M266.108 216.818H319.967C320.83 216.818 321.529 216.119 321.529 215.257V213.842C321.529 212.98 320.83 212.28 319.967 212.28H266.108C265.245 212.28 264.546 212.98 264.546 213.842V215.257C264.546 216.119 265.245 216.818 266.108 216.818Z" fill="#407BFF"/>
<path opacity="0.6" d="M266.108 216.818H319.967C320.83 216.818 321.529 216.119 321.529 215.257V213.842C321.529 212.98 320.83 212.28 319.967 212.28H266.108C265.245 212.28 264.546 212.98 264.546 213.842V215.257C264.546 216.119 265.245 216.818 266.108 216.818Z" fill="white"/>
<path d="M274.376 134.045C274.376 134.045 274.159 134.635 273.762 135.599C273.366 136.563 272.76 138.031 272.022 139.632C270.234 143.517 267.639 148.46 264.927 151.125C264.246 151.842 263.426 152.413 262.518 152.803C259.627 153.915 252.377 154.117 245.904 154.054C239.431 153.992 233.898 153.666 233.898 153.666V148.763L255.182 143.09C255.182 143.09 266.403 122.839 273.055 119.84L274.376 134.045Z" fill="#263238"/>
<path opacity="0.2" d="M273.762 135.607C273.358 136.617 272.76 138.039 272.021 139.64C270.234 143.525 267.639 148.467 264.927 151.133C262.168 140.968 272.371 131.294 272.371 131.294L273.762 135.607Z" fill="black"/>
<path d="M271.011 274.912L264.818 274.065L263.963 259.348L270.141 260.202L271.011 274.912Z" fill="#EBB376"/>
<path opacity="0.2" d="M270.141 260.202L263.963 259.355L264.453 267.763L270.631 268.307L270.141 260.202Z" fill="black"/>
<path d="M270.763 188.409L272.271 178.944L306.943 176.869C306.943 176.869 310.635 196.56 307.798 201.806C302.74 211.169 275.464 206.468 267.476 207.362C272.278 226.905 271.812 264.981 271.812 264.981L260.412 265.852C260.412 265.852 251.647 224.768 249.868 205.24C248.663 192.092 259.589 192.418 270.763 188.409Z" fill="#407BFF"/>
<path d="M273.149 265.549L259.449 266.442L258.275 260.575L273.327 259.884L273.149 265.549Z" fill="#407BFF"/>
<path d="M256.729 269.418L250.497 269.877L246.596 255.664L252.82 255.214L256.729 269.418Z" fill="#EBB376"/>
<path d="M249.658 270.087H249.549C249.549 269.994 249.23 268.245 248.477 267.833C248.38 267.785 248.274 267.76 248.166 267.76C248.058 267.76 247.951 267.785 247.855 267.833C247.736 267.87 247.634 267.946 247.564 268.05C247.495 268.153 247.463 268.277 247.474 268.4C247.625 268.916 247.949 269.363 248.391 269.667C247.824 269.473 247.206 269.49 246.65 269.714C246.576 269.77 246.516 269.845 246.478 269.93C246.44 270.016 246.425 270.11 246.433 270.203C246.423 270.35 246.455 270.497 246.525 270.626C246.595 270.755 246.701 270.862 246.829 270.934C247.219 271.086 247.652 271.086 248.041 270.934C248.582 270.773 249.103 270.554 249.596 270.281H249.65C249.65 270.281 249.65 270.281 249.65 270.234C249.667 270.214 249.677 270.188 249.678 270.162C249.68 270.135 249.672 270.109 249.658 270.087ZM247.785 268.346C247.785 268.261 247.785 268.152 247.995 268.074H248.065C248.12 268.055 248.178 268.049 248.236 268.056C248.294 268.062 248.35 268.082 248.399 268.113C248.85 268.354 249.176 269.302 249.308 269.869L249.168 269.83C248.554 269.465 247.839 268.766 247.785 268.346ZM246.969 270.631C246.892 270.578 246.83 270.508 246.788 270.425C246.746 270.342 246.725 270.25 246.728 270.157C246.724 270.111 246.731 270.066 246.749 270.024C246.766 269.982 246.794 269.945 246.829 269.916C247.187 269.652 248.321 269.877 249.16 270.126C248.127 270.638 247.334 270.825 246.969 270.631Z" fill="#407BFF"/>
<path opacity="0.2" d="M252.82 255.214L246.596 255.672L248.826 263.792L254.98 263.039L252.82 255.214Z" fill="black"/>
<path d="M244.482 262.79L255.454 259.542C255.454 259.542 248.904 222.569 242.244 209.747C242.741 209.584 243.402 209.374 244.218 209.133C245.687 208.69 247.637 208.139 249.929 207.501C265.875 203.08 298.193 194.788 298.193 194.788L283.429 181.011C283.429 181.011 224.62 189.978 223.4 205.473C222.833 212.918 244.482 262.79 244.482 262.79Z" fill="#407BFF"/>
<path d="M256.869 259.806L243.659 263.544L241.289 258.05L255.866 254.234L256.869 259.806Z" fill="#407BFF"/>
<path opacity="0.2" d="M244.234 209.157C245.702 208.714 247.653 208.162 249.945 207.525C249.487 203.764 249.479 199.451 251.289 197.252C254.887 192.869 264.142 190.297 269.411 189.365C273.817 188.588 288.62 187.033 288.62 187.033C288.62 187.033 269.411 185.192 249.766 190.919C240.068 193.763 241.957 203.251 244.234 209.157Z" fill="black"/>
<path d="M308.902 186.761C311.233 184.982 308.995 168.43 310.184 152.151C311.994 127.362 310.184 119.397 308.358 118.628C304.986 118.043 301.576 117.705 298.155 117.618C293.151 117.439 288.141 117.548 283.15 117.944C279.734 118.363 276.356 119.049 273.048 119.995C273.048 119.995 264.873 146.027 270.095 183.521L308.902 186.761Z" fill="#263238"/>
<path opacity="0.8" d="M310.829 139.391C310.727 143.036 310.51 147.263 310.152 152.143C308.964 168.422 311.186 184.974 308.87 186.754L270.056 183.513C267.738 167.239 267.725 150.719 270.017 134.441C273.172 129.515 279.295 123.896 282.108 121.433C283.042 122.456 284.309 123.114 285.682 123.29C288.705 123.881 292.155 122.513 295.007 120.772C297.261 123.018 301.535 127.564 303.407 131.395C303.603 131.792 303.777 132.199 303.928 132.615C305.117 135.941 308.746 131.838 310.595 126.492C310.913 130.784 310.991 135.09 310.829 139.391Z" fill="white"/>
<path d="M296.313 100.794C295.466 105.643 294.712 114.501 298.155 117.656C296.757 119.157 295.076 120.367 293.209 121.215C291.342 122.063 289.325 122.533 287.276 122.599C281.059 122.871 283.157 117.936 283.157 117.936C288.519 116.537 288.286 112.543 287.268 108.813L296.313 100.794Z" fill="#EBB376"/>
<path opacity="0.2" d="M292.622 104.081L287.268 108.852C287.519 109.718 287.693 110.605 287.788 111.502C289.84 111.168 292.614 108.844 292.793 106.684C292.895 105.813 292.837 104.931 292.622 104.081Z" fill="black"/>
<path d="M284.556 88.2442C287.237 90.0626 286.017 93.1398 279.956 97.9654C277.5 94.8027 277.088 88.5861 279.047 87.032C281.005 85.4778 282.225 86.6668 284.556 88.2442Z" fill="#263238"/>
<path d="M296.064 93.2486C295.777 99.7993 295.932 103.638 292.692 107.057C287.812 112.194 279.683 109.334 278.013 102.83C276.521 96.9863 277.236 87.2885 283.6 84.5454C284.998 83.9395 286.528 83.7015 288.044 83.8541C289.56 84.0067 291.012 84.5448 292.262 85.4172C293.511 86.2896 294.516 87.4673 295.182 88.8381C295.848 90.2089 296.151 91.7273 296.064 93.2486Z" fill="#EBB376"/>
<path d="M286.343 95.1912C286.343 95.7274 286.079 96.1625 285.729 96.1703C285.379 96.178 285.1 95.7507 285.092 95.2145C285.084 94.6783 285.348 94.2509 285.698 94.2431C286.048 94.2354 286.296 94.6705 286.343 95.1912Z" fill="#263238"/>
<path d="M280.29 95.3078C280.29 95.8363 280.026 96.2714 279.676 96.2792C279.326 96.287 279.039 95.8673 279.031 95.3234C279.023 94.7794 279.295 94.3521 279.645 94.3521C279.994 94.3521 280.282 94.8027 280.29 95.3078Z" fill="#263238"/>
<path d="M282.271 95.5254C281.666 97.1623 280.837 98.7078 279.808 100.118C280.177 100.369 280.595 100.538 281.035 100.613C281.475 100.688 281.926 100.668 282.357 100.553L282.271 95.5254Z" fill="#D58745"/>
<path d="M287.967 93.2485C288.035 93.2574 288.104 93.2408 288.161 93.2019C288.194 93.1774 288.221 93.1467 288.242 93.1116C288.263 93.0765 288.277 93.0376 288.282 92.9972C288.288 92.9568 288.286 92.9156 288.276 92.8761C288.266 92.8365 288.248 92.7994 288.223 92.7667C287.926 92.3675 287.537 92.0455 287.09 91.8278C286.642 91.6101 286.149 91.503 285.651 91.5157C285.612 91.5176 285.573 91.5275 285.538 91.5447C285.502 91.5619 285.47 91.586 285.444 91.6157C285.418 91.6455 285.398 91.6801 285.386 91.7176C285.373 91.7552 285.368 91.7948 285.372 91.8342C285.381 91.9146 285.421 91.9882 285.483 92.0402C285.545 92.0921 285.625 92.1185 285.706 92.114C286.099 92.1097 286.487 92.199 286.838 92.3747C287.189 92.5504 287.494 92.8073 287.726 93.1242C287.756 93.1602 287.792 93.1899 287.834 93.2112C287.875 93.2326 287.92 93.2453 287.967 93.2485Z" fill="#263238"/>
<path d="M277.5 93.3107C277.56 93.311 277.618 93.2943 277.669 93.2627C277.72 93.2311 277.761 93.1858 277.787 93.132C277.94 92.7704 278.177 92.4506 278.479 92.1992C278.78 91.9478 279.137 91.7721 279.52 91.6866C279.602 91.6732 279.676 91.6284 279.725 91.5616C279.774 91.4948 279.796 91.4114 279.784 91.3292C279.773 91.2479 279.73 91.1745 279.664 91.125C279.599 91.0755 279.516 91.0539 279.435 91.065C278.948 91.1666 278.493 91.3833 278.108 91.697C277.723 92.0107 277.418 92.4121 277.22 92.8678C277.185 92.942 277.182 93.027 277.209 93.1041C277.237 93.1812 277.294 93.2443 277.368 93.2796C277.408 93.302 277.454 93.3128 277.5 93.3107Z" fill="#263238"/>
<path d="M293.375 87.4826C290.337 88.5861 290.772 91.8731 295.466 98.0275C298.636 95.5331 300.556 89.6196 299.025 87.6381C297.494 85.6565 296.064 86.5268 293.375 87.4826Z" fill="#263238"/>
<path d="M299.289 98.4161C299.078 99.2052 298.713 99.9449 298.216 100.593C297.718 101.241 297.098 101.784 296.391 102.193C294.487 103.265 293.018 101.688 293.104 99.6284C293.189 97.7634 294.277 94.9659 296.398 94.7328C298.52 94.4997 299.802 96.4579 299.289 98.4161Z" fill="#EBB376"/>
<path d="M287.268 101.633C286.808 102.337 286.162 102.9 285.403 103.261C284.643 103.621 283.799 103.765 282.963 103.677" stroke="#263238" stroke-width="0.526291" stroke-linecap="round" stroke-linejoin="round"/>
<path d="M286.739 86.4414C286.739 86.4414 287.718 92.9999 294.036 93.4351C300.354 93.8702 301.706 89.946 301.706 89.946C301.191 90.0209 300.672 90.0624 300.151 90.0703C300.151 90.0703 302.001 86.8921 300.151 83.8538C298.302 80.8154 292.008 77.5673 287.338 79.1913C285.884 78.7165 284.348 78.5473 282.827 78.6944C281.305 78.8415 279.83 79.3017 278.494 80.0461C274.12 82.5871 274.897 88.1277 274.897 88.1277C274.897 88.1277 274.702 84.7629 276.746 83.8227C276.746 83.8227 274.221 90.7464 278.005 92.5958C277.997 92.5725 278.37 85.7576 286.739 86.4414Z" fill="#263238"/>
<path d="M275.992 148.421C275.992 148.421 253.457 147.908 252.183 147.783C250.908 147.659 245.57 144.675 244.412 144.512C243.254 144.349 240.231 149.174 239.851 150.293C239.47 151.412 248.398 154.443 249.261 154.311C250.26 154.045 251.23 153.683 252.16 153.231L275.161 156.191L275.992 148.421Z" fill="#EBB376"/>
<path d="M210.586 153.083V155.142C210.586 155.756 211.643 156.191 212.257 156.191H260.272C260.894 156.191 261.873 155.756 261.873 155.142V153.083H210.586Z" fill="#263238"/>
<path opacity="0.6" d="M210.586 153.083V155.142C210.586 155.756 211.643 156.191 212.257 156.191H260.272C260.894 156.191 261.873 155.756 261.873 155.142V153.083H210.586Z" fill="white"/>
<path opacity="0.2" d="M210.586 153.083V155.142C210.586 155.756 211.643 156.191 212.257 156.191H243.923C244.544 156.191 245.555 155.756 245.555 155.142V153.083H210.586Z" fill="black"/>
<path d="M202.886 127.836L208.605 153.86C208.706 154.284 208.941 154.665 209.276 154.945C209.611 155.225 210.026 155.389 210.462 155.414H241.669C241.87 155.396 242.063 155.334 242.237 155.232C242.41 155.13 242.558 154.99 242.67 154.823C242.783 154.657 242.857 154.467 242.886 154.268C242.916 154.069 242.901 153.866 242.843 153.674L237.131 127.937C237.015 127.544 236.767 127.202 236.429 126.97C236.09 126.738 235.683 126.63 235.274 126.663H204.067C203.227 126.663 202.699 126.989 202.886 127.836Z" fill="#263238"/>
<path opacity="0.6" d="M202.886 127.836L208.605 153.86C208.706 154.284 208.941 154.665 209.276 154.945C209.611 155.225 210.026 155.389 210.462 155.414H241.669C241.87 155.396 242.063 155.334 242.237 155.232C242.41 155.13 242.558 154.99 242.67 154.823C242.783 154.657 242.857 154.467 242.886 154.268C242.916 154.069 242.901 153.866 242.843 153.674L237.131 127.937C237.015 127.544 236.767 127.202 236.429 126.97C236.09 126.738 235.683 126.63 235.274 126.663H204.067C203.227 126.663 202.699 126.989 202.886 127.836Z" fill="white"/>
<path opacity="0.4" d="M202.886 127.836L208.605 153.86C208.706 154.284 208.941 154.665 209.276 154.945C209.611 155.225 210.026 155.389 210.462 155.414H240.62C240.821 155.396 241.014 155.334 241.188 155.232C241.361 155.129 241.51 154.99 241.623 154.824C241.736 154.657 241.81 154.467 241.841 154.269C241.872 154.07 241.859 153.867 241.801 153.674L236.09 127.937C235.973 127.544 235.725 127.202 235.387 126.97C235.049 126.738 234.641 126.63 234.233 126.663H204.067C203.227 126.663 202.699 126.989 202.886 127.836Z" fill="white"/>
<path opacity="0.2" d="M221.255 144.535C219.802 144.535 218.31 142.981 217.93 141.054C217.549 139.127 218.427 137.542 219.911 137.542C220.177 137.547 220.44 137.6 220.688 137.697C220.823 138.384 221.118 139.03 221.548 139.582C221.979 140.134 222.533 140.577 223.167 140.875C223.184 140.926 223.197 140.978 223.206 141.031C223.594 142.981 222.716 144.535 221.255 144.535Z" fill="black"/>
<path opacity="0.2" d="M310.828 139.391C307.479 144.831 302.794 150.62 298.123 150.348C293.236 150.06 298.162 140.083 303.415 131.395C303.611 131.792 303.785 132.199 303.936 132.615C305.125 135.941 308.754 131.838 310.603 126.492C310.918 130.784 310.993 135.09 310.828 139.391Z" fill="black"/>
<path d="M308.357 118.628C319.881 122.777 299.654 153.984 293.368 157.202C287.081 160.419 270.561 156.712 270.561 156.712L271.586 147.068C271.586 147.068 284.664 147.954 287.268 147.294C289.871 146.633 296.056 133.307 299.615 127.051C301.59 123.409 304.644 120.466 308.357 118.628Z" fill="#263238"/>
<path opacity="0.2" d="M273.149 265.549L259.449 266.442L258.275 260.575L273.327 259.884L273.149 265.549Z" fill="white"/>
<path opacity="0.2" d="M256.869 259.806L243.659 263.544L241.289 258.05L255.866 254.234L256.869 259.806Z" fill="white"/>
<path d="M249.891 269.24L256.636 267.359C256.747 267.324 256.868 267.334 256.972 267.386C257.076 267.438 257.156 267.529 257.195 267.639L259.021 272.892C259.098 273.175 259.059 273.477 258.913 273.732C258.768 273.987 258.527 274.174 258.244 274.252C255.874 274.866 254.716 275.029 251.74 275.853C249.914 276.358 246.355 277.523 243.752 277.819C241.149 278.114 240.931 275.534 242.003 275.184C244.552 274.33 247.606 271.672 248.927 269.869C249.169 269.558 249.508 269.336 249.891 269.24Z" fill="#263238"/>
<path d="M264.204 274.073C264.204 273.964 264.096 272.2 263.427 271.641C263.328 271.567 263.215 271.515 263.095 271.487C262.974 271.459 262.85 271.455 262.728 271.478C262.602 271.489 262.483 271.541 262.388 271.625C262.293 271.709 262.227 271.82 262.2 271.944C262.227 272.478 262.445 272.985 262.814 273.374C262.294 273.069 261.683 272.956 261.088 273.055C261.004 273.096 260.93 273.157 260.875 273.233C260.819 273.309 260.783 273.397 260.77 273.49C260.733 273.629 260.736 273.775 260.777 273.912C260.818 274.049 260.896 274.172 261.003 274.267C261.353 274.491 261.775 274.574 262.184 274.5C262.739 274.455 263.286 274.345 263.816 274.174C263.824 274.178 263.834 274.18 263.843 274.18C263.853 274.18 263.862 274.178 263.87 274.174V274.127C263.87 274.127 264.018 274.127 264.026 274.073C264.034 274.019 264.158 274.073 264.158 274.073H264.204ZM262.487 271.975C262.487 271.89 262.542 271.781 262.744 271.742H262.814C262.872 271.737 262.931 271.744 262.986 271.764C263.041 271.784 263.091 271.817 263.132 271.858C263.528 272.185 263.637 273.172 263.661 273.762L263.536 273.692C262.995 273.261 262.624 272.653 262.487 271.975ZM261.213 274.034C261.153 273.966 261.111 273.885 261.09 273.796C261.07 273.708 261.072 273.616 261.096 273.529C261.101 273.483 261.118 273.44 261.145 273.403C261.173 273.366 261.209 273.337 261.252 273.319C261.648 273.133 262.712 273.591 263.466 274.003C262.347 274.306 261.524 274.306 261.213 274.065V274.034Z" fill="#407BFF"/>
<path d="M264.352 273.319L271.346 272.884C271.404 272.877 271.462 272.881 271.518 272.896C271.575 272.912 271.627 272.939 271.673 272.975C271.718 273.011 271.756 273.056 271.784 273.107C271.812 273.158 271.83 273.215 271.835 273.273L272.519 278.79C272.53 278.933 272.512 279.078 272.466 279.214C272.42 279.351 272.348 279.477 272.254 279.585C272.159 279.694 272.044 279.782 271.914 279.846C271.785 279.909 271.645 279.947 271.501 279.956C269.061 280.072 267.888 280.002 264.811 280.173C262.922 280.282 259.2 280.686 256.589 280.43C253.978 280.173 254.305 277.609 255.431 277.484C258.097 277.181 261.648 275.223 263.303 273.731C263.597 273.481 263.966 273.336 264.352 273.319Z" fill="#263238"/>
<path d="M233.207 280.523H237.962L238.747 161.437H232.43L233.207 280.523Z" fill="#407BFF"/>
<path opacity="0.4" d="M232.422 161.631L232.546 180.848L233.199 280.523H237.962L238.615 180.848L238.739 161.631H232.422Z" fill="white"/>
<path opacity="0.2" d="M232.422 161.631L232.546 181.058H238.615L238.739 161.631H232.422Z" fill="black"/>
<path d="M182.666 280.523H187.422L195.977 161.437H189.66L182.666 280.523Z" fill="#407BFF"/>
<path opacity="0.5" d="M182.658 280.523H187.422L195.558 167.358L195.977 161.631H189.66L189.318 167.358L182.658 280.523Z" fill="white"/>
<path opacity="0.2" d="M189.318 167.07H195.558L195.977 161.631H189.66L189.318 167.07Z" fill="black"/>
<path d="M283.747 280.523H288.503L281.509 161.437H275.192L283.747 280.523Z" fill="#407BFF"/>
<path opacity="0.5" d="M275.192 161.631L275.611 167.358L283.747 280.523H288.503L281.851 167.358L281.509 161.631H275.192Z" fill="white"/>
<path opacity="0.2" d="M281.509 161.631H275.192L275.611 167.07H281.851L281.509 161.631Z" fill="black"/>
<path d="M284.835 164.421H186.334C186.113 164.421 185.895 164.377 185.691 164.293C185.488 164.209 185.303 164.085 185.147 163.929C184.991 163.773 184.867 163.588 184.783 163.385C184.699 163.181 184.655 162.963 184.655 162.742V158.461H286.514V162.742C286.514 163.187 286.337 163.614 286.022 163.929C285.707 164.244 285.28 164.421 284.835 164.421Z" fill="#407BFF"/>
<path opacity="0.6" d="M284.835 164.421H186.334C186.113 164.421 185.895 164.377 185.691 164.293C185.488 164.209 185.303 164.085 185.147 163.929C184.991 163.773 184.867 163.588 184.783 163.385C184.699 163.181 184.655 162.963 184.655 162.742V158.461H286.514V162.742C286.514 163.187 286.337 163.614 286.022 163.929C285.707 164.244 285.28 164.421 284.835 164.421Z" fill="white"/>
<path opacity="0.2" d="M184.655 161.437H286.514V158.453H184.655V161.437Z" fill="black"/>
<path d="M181.702 159.238H289.467C289.913 159.235 290.339 159.057 290.654 158.741C290.969 158.425 291.145 157.997 291.145 157.551C291.145 157.106 290.968 156.679 290.654 156.364C290.339 156.05 289.912 155.873 289.467 155.873H181.702C181.257 155.873 180.83 156.05 180.516 156.364C180.201 156.679 180.024 157.106 180.024 157.551C180.024 157.997 180.201 158.425 180.515 158.741C180.83 159.057 181.257 159.235 181.702 159.238Z" fill="#407BFF"/>
<path opacity="0.6" d="M181.702 159.238H289.467C289.913 159.235 290.339 159.057 290.654 158.741C290.969 158.425 291.145 157.997 291.145 157.551C291.145 157.106 290.968 156.679 290.654 156.364C290.339 156.05 289.912 155.873 289.467 155.873H181.702C181.257 155.873 180.83 156.05 180.516 156.364C180.201 156.679 180.024 157.106 180.024 157.551C180.024 157.997 180.201 158.425 180.515 158.741C180.83 159.057 181.257 159.235 181.702 159.238Z" fill="white"/>
</svg>
