<svg width="363" height="270" viewBox="0 0 363 270" fill="none" xmlns="http://www.w3.org/2000/svg">
<path d="M362.358 237.272H6.10352e-05V237.453H362.358V237.272Z" fill="#E6E6E6"/>
<path d="M339.457 243.664H325.854V243.845H339.457V243.664Z" fill="#E6E6E6"/>
<path d="M276.667 248.635H270.37V248.817H276.667V248.635Z" fill="#E6E6E6"/>
<path d="M216.922 246.135H202.891V246.316H216.922V246.135Z" fill="#E6E6E6"/>
<path d="M89.9517 246.041H58.6513V246.222H89.9517V246.041Z" fill="#E6E6E6"/>
<path d="M52.2013 246.041H47.6139V246.222H52.2013V246.041Z" fill="#E6E6E6"/>
<path d="M205.08 241.751H137.189V241.932H205.08V241.751Z" fill="#E6E6E6"/>
<path d="M171.758 204.95H31.8223C30.7261 204.948 29.6754 204.511 28.9009 203.735C28.1264 202.959 27.6914 201.908 27.6914 200.811V4.10189C27.701 3.01194 28.1402 1.96976 28.9136 1.20174C29.6871 0.433712 30.7323 0.00186715 31.8223 0H171.758C172.855 0 173.908 0.43598 174.684 1.21203C175.46 1.98808 175.896 3.04063 175.896 4.13812V200.811C175.896 201.909 175.46 202.961 174.684 203.738C173.908 204.514 172.855 204.95 171.758 204.95ZM31.8223 0.144944C30.7741 0.146863 29.7695 0.564601 29.029 1.30646C28.2885 2.04833 27.8726 3.0537 27.8726 4.10189V200.811C27.8726 201.86 28.2885 202.865 29.029 203.607C29.7695 204.349 30.7741 204.766 31.8223 204.768H171.758C172.806 204.766 173.812 204.349 174.553 203.607C175.295 202.866 175.713 201.86 175.715 200.811V4.10189C175.713 3.05303 175.295 2.04768 174.553 1.30602C173.812 0.564365 172.806 0.146859 171.758 0.144944H31.8223Z" fill="#E6E6E6"/>
<path d="M328.521 204.95H188.578C187.481 204.948 186.43 204.511 185.654 203.735C184.879 202.96 184.442 201.908 184.44 200.811V4.10189C184.452 3.01127 184.892 1.96911 185.667 1.20128C186.442 0.433459 187.488 0.00184678 188.578 0H328.521C329.61 0.00377178 330.653 0.436459 331.425 1.20428C332.197 1.9721 332.635 3.01319 332.644 4.10189V200.811C332.644 201.906 332.21 202.957 331.438 203.732C330.665 204.508 329.616 204.946 328.521 204.95ZM188.578 0.144944C187.529 0.146859 186.524 0.564365 185.782 1.30602C185.041 2.04768 184.623 3.05303 184.621 4.10189V200.811C184.623 201.86 185.041 202.866 185.782 203.607C186.524 204.349 187.529 204.766 188.578 204.768H328.521C329.57 204.766 330.575 204.349 331.317 203.607C332.058 202.866 332.476 201.86 332.478 200.811V4.10189C332.476 3.05303 332.058 2.04768 331.317 1.30602C330.575 0.564365 329.57 0.146859 328.521 0.144944H188.578Z" fill="#E6E6E6"/>
<path d="M189.122 13.5377H42.5481V117.991H189.122V13.5377Z" fill="#FAFAFA"/>
<path d="M191.832 13.5377H43.8163V117.991H191.832V13.5377Z" fill="#F5F5F5"/>
<path d="M188.035 113.722V17.799L47.6139 17.799V113.722L188.035 113.722Z" fill="#FAFAFA"/>
<path d="M73.1818 113.722L95.4596 17.799H124.666L102.388 113.722H73.1818Z" fill="white"/>
<path d="M107.113 113.722L129.398 17.799H142.588L120.303 113.722H107.113Z" fill="white"/>
<path d="M188.035 113.722V17.799H187.549V113.722H188.035Z" fill="#FAFAFA"/>
<path d="M39.7 13.3638V54.7595H50.6504C50.6504 54.7595 70.2974 41.9248 74.7979 15.5234C74.907 14.8911 74.8762 14.2426 74.7076 13.6235C74.5391 13.0043 74.237 12.4297 73.8225 11.9399C73.408 11.4501 72.8912 11.057 72.3085 10.7884C71.7258 10.5198 71.0913 10.3822 70.4496 10.3852H42.6785C41.8886 10.3852 41.131 10.699 40.5724 11.2576C40.0138 11.8162 39.7 12.5738 39.7 13.3638Z" fill="#E0E0E0"/>
<path d="M39.7 130.768V58.1004H50.6504C50.6504 58.1004 72.8774 100.895 75.4502 130.768H39.7Z" fill="#E0E0E0"/>
<path d="M50.3315 54.7595H40.0986C39.4942 54.7595 39.0042 55.2494 39.0042 55.8538V57.0061C39.0042 57.6105 39.4942 58.1004 40.0986 58.1004H50.3315C50.9359 58.1004 51.4259 57.6105 51.4259 57.0061V55.8538C51.4259 55.2494 50.9359 54.7595 50.3315 54.7595Z" fill="#F5F5F5"/>
<path d="M194.948 13.3637V54.7595H183.976C183.976 54.7595 164.3 41.9248 159.829 15.5234C159.721 14.8912 159.753 14.2432 159.922 13.6246C160.091 13.0061 160.393 12.4319 160.807 11.9424C161.222 11.4529 161.738 11.0599 162.32 10.7909C162.902 10.5219 163.536 10.3834 164.177 10.3851H191.977C192.765 10.389 193.52 10.7042 194.077 11.2622C194.633 11.8202 194.947 12.5756 194.948 13.3637Z" fill="#E0E0E0"/>
<path d="M194.949 130.768V58.1004H183.976C183.976 58.1004 161.757 100.895 159.177 130.768H194.949Z" fill="#E0E0E0"/>
<path d="M184.295 58.0932H194.528C195.133 58.0932 195.622 57.6032 195.622 56.9989V55.8466C195.622 55.2422 195.133 54.7523 194.528 54.7523H184.295C183.691 54.7523 183.201 55.2422 183.201 55.8466V56.9989C183.201 57.6032 183.691 58.0932 184.295 58.0932Z" fill="#F5F5F5"/>
<path d="M191.637 143.972H167.554V237.272H191.637V143.972Z" fill="#FAFAFA"/>
<path d="M185.208 237.272H191.637V226.495H178.468L185.208 237.272Z" fill="#F4F8FF"/>
<path d="M76.4213 143.972H52.339V237.272H76.4213V143.972Z" fill="#E0E0E0"/>
<path d="M191.637 143.972H70.812V233.561H191.637V143.972Z" fill="#FAFAFA"/>
<path d="M107.113 128.13C107.113 136.826 115.491 143.972 125.738 143.972H134.986C145.226 143.972 153.603 136.841 153.603 128.13H107.113Z" fill="#EBEBEB"/>
<path d="M101.75 108.222H119.143C119.143 108.222 116.121 116.194 116.121 120.89C116.121 125.586 129.355 143.972 110.447 143.972C91.5389 143.972 104.772 125.579 104.772 120.89C104.772 116.201 101.75 108.222 101.75 108.222Z" fill="#E0E0E0"/>
<path d="M186.65 149.429H75.798V172.018H186.65V149.429Z" fill="#EBEBEB"/>
<path d="M77.2402 237.272H70.812V226.495H83.9873L77.2402 237.272Z" fill="#FAFAFA"/>
<path d="M127.818 160.72C127.818 161.394 128.018 162.052 128.392 162.612C128.766 163.173 129.298 163.609 129.921 163.867C130.543 164.125 131.228 164.192 131.889 164.061C132.55 163.929 133.156 163.605 133.633 163.129C134.109 162.652 134.434 162.045 134.565 161.385C134.696 160.724 134.629 160.039 134.371 159.417C134.113 158.794 133.677 158.262 133.117 157.888C132.557 157.514 131.898 157.314 131.224 157.314C130.321 157.314 129.455 157.673 128.816 158.312C128.177 158.95 127.818 159.817 127.818 160.72Z" fill="#FAFAFA"/>
<path d="M186.65 177.476H75.798V200.065H186.65V177.476Z" fill="#EBEBEB"/>
<path d="M127.818 188.767C127.818 189.44 128.018 190.099 128.392 190.659C128.766 191.219 129.298 191.656 129.921 191.913C130.543 192.171 131.228 192.239 131.889 192.107C132.55 191.976 133.156 191.651 133.633 191.175C134.109 190.699 134.434 190.092 134.565 189.431C134.696 188.77 134.629 188.086 134.371 187.463C134.113 186.841 133.677 186.309 133.117 185.934C132.557 185.56 131.898 185.36 131.224 185.36C130.321 185.36 129.455 185.719 128.816 186.358C128.177 186.997 127.818 187.863 127.818 188.767Z" fill="#FAFAFA"/>
<path d="M186.65 205.515H75.798V228.104H186.65V205.515Z" fill="#EBEBEB"/>
<path d="M131.224 220.219C133.105 220.219 134.63 218.694 134.63 216.813C134.63 214.932 133.105 213.407 131.224 213.407C129.343 213.407 127.818 214.932 127.818 216.813C127.818 218.694 129.343 220.219 131.224 220.219Z" fill="#FAFAFA"/>
<path d="M268.058 12.2767H214.262V50.5706H268.058V12.2767Z" fill="#E0E0E0"/>
<path d="M272.45 12.2767H217.32V50.5706H272.45V12.2767Z" fill="#F5F5F5"/>
<path d="M268.935 47.0558V15.7915L220.835 15.7915V47.0558H268.935Z" fill="white"/>
<path d="M260.47 37.9461V24.894L229.3 24.894V37.9461H260.47Z" fill="#F5F5F5"/>
<path d="M311.7 31.4236H278.957V65.7607H311.7V31.4236Z" fill="#E0E0E0"/>
<path d="M316.106 31.4236H282.023V65.7607H316.106V31.4236Z" fill="#F5F5F5"/>
<path d="M312.592 62.2458V34.9385H285.538V62.2458H312.592Z" fill="white"/>
<path d="M294.003 48.5922C294.003 47.3864 294.481 46.2298 295.333 45.3765C296.185 44.5232 297.341 44.0429 298.547 44.041H299.576C300.781 44.0429 301.937 44.5232 302.789 45.3765C303.641 46.2298 304.12 47.3864 304.12 48.5922C304.12 49.7973 303.641 50.9531 302.789 51.8052C301.937 52.6574 300.781 53.1361 299.576 53.1361H298.583C297.983 53.1409 297.388 53.0269 296.833 52.8007C296.277 52.5745 295.772 52.2405 295.346 51.8181C294.92 51.3957 294.583 50.8932 294.352 50.3395C294.121 49.7858 294.003 49.192 294.003 48.5922Z" fill="#F5F5F5"/>
<path d="M362.358 77.4358H275.899H260.18V97.4162H244.461V117.397H228.742V137.377H213.023V157.357H197.304V177.331H181.585V197.311H165.866V217.291H150.147V237.272H165.866H362.358V77.4358Z" fill="#FAFAFA"/>
<path d="M238.127 217.291H148.53V223.285H238.127V217.291Z" fill="#EBEBEB"/>
<path d="M253.846 197.311H164.25V203.304H253.846V197.311Z" fill="#EBEBEB"/>
<path d="M269.565 177.331H179.969V183.324H269.565V177.331Z" fill="#EBEBEB"/>
<path d="M285.284 157.35H195.688V163.344H285.284V157.35Z" fill="#EBEBEB"/>
<path d="M301.003 137.377H211.407V143.37H301.003V137.377Z" fill="#EBEBEB"/>
<path d="M316.722 117.397H227.126V123.39H316.722V117.397Z" fill="#EBEBEB"/>
<path d="M332.441 97.4162H242.845V103.41H332.441V97.4162Z" fill="#EBEBEB"/>
<path d="M348.161 77.4358H258.564V83.4292H348.161V77.4358Z" fill="#EBEBEB"/>
<path d="M346.639 77.4358V97.4162H330.92V117.397H315.201V137.377H299.481V157.357H283.762V177.331H268.043V197.311H252.324V217.291H236.605V237.272H252.324H362.358V97.4162V77.4358H346.639Z" fill="white"/>
<path d="M181.179 270C258.783 270 321.694 266.327 321.694 261.796C321.694 257.265 258.783 253.592 181.179 253.592C103.574 253.592 40.6637 257.265 40.6637 261.796C40.6637 266.327 103.574 270 181.179 270Z" fill="#F5F5F5"/>
<path d="M264.63 77.5446C265.644 80.9435 270.877 87.3065 271.29 91.9374C271.703 96.5684 262.782 103.975 262.782 103.975C262.782 103.975 256.114 81.6827 260.289 79.081C264.463 76.4793 264.63 77.5446 264.63 77.5446Z" fill="#263238"/>
<path d="M246.309 101.627C244.729 102.946 243.178 104.055 241.562 105.192C239.946 106.33 238.279 107.367 236.583 108.338C234.881 109.345 233.128 110.262 231.329 111.084C230.416 111.497 229.51 111.903 228.568 112.258C228.104 112.447 227.633 112.628 227.155 112.787L225.705 113.295C224.466 113.641 223.17 113.735 221.893 113.57C220.827 113.445 219.77 113.242 218.734 112.961C216.801 112.427 214.909 111.753 213.074 110.947C209.51 109.391 206.072 107.561 202.79 105.475L204.145 102.953C205.855 103.678 207.609 104.403 209.349 105.033C211.088 105.664 212.842 106.33 214.595 106.874C216.305 107.434 218.048 107.889 219.813 108.236C220.624 108.395 221.445 108.494 222.27 108.533C222.885 108.581 223.504 108.517 224.097 108.345C225.75 107.712 227.366 106.986 228.938 106.171C229.742 105.75 230.539 105.323 231.322 104.859C232.105 104.395 232.902 103.946 233.677 103.468C235.235 102.504 236.757 101.482 238.265 100.431C239.772 99.3802 241.272 98.2569 242.613 97.1916L246.309 101.627Z" fill="#E58A7B"/>
<path d="M250.135 93.9086C248.338 92.5027 240.903 97.1046 238.649 99.0251L240.294 108.975C240.294 108.975 250.983 104.497 251.621 101.438C252.295 98.2424 251.476 94.9812 250.135 93.9086Z" fill="#407BFF"/>
<path opacity="0.2" d="M250.135 93.9086C248.338 92.5027 240.903 97.1046 238.649 99.0251L240.294 108.975C240.294 108.975 250.983 104.497 251.621 101.438C252.295 98.2424 251.476 94.9812 250.135 93.9086Z" fill="black"/>
<path d="M275.145 124.021L252.578 128.42C240.917 96.8438 243.454 95.8074 243.454 95.8074C245.094 94.9063 246.788 94.1075 248.527 93.4159L248.831 93.2999C250.28 92.7709 250.57 92.6911 252.498 92.1259C255.817 91.3359 258.912 90.6764 262.746 90.1329L263.47 90.0314C264.195 89.9445 264.854 89.872 265.521 89.8068C265.97 89.756 266.42 89.7271 266.847 89.6981L268.297 89.6184C270.775 89.4952 272.551 89.5314 272.551 89.5314C271.862 109.251 272.978 114.911 275.145 124.021Z" fill="#407BFF"/>
<path opacity="0.2" d="M275.145 124.021L252.578 128.42C240.917 96.8438 243.454 95.8074 243.454 95.8074C245.094 94.9063 246.788 94.1075 248.527 93.4159L248.831 93.2999C250.28 92.7709 250.57 92.6911 252.498 92.1259C255.817 91.3359 258.912 90.6764 262.746 90.1329L263.47 90.0314C264.195 89.9445 264.854 89.872 265.521 89.8068C265.97 89.756 266.42 89.7271 266.847 89.6981L268.297 89.6184C270.775 89.4952 272.551 89.5314 272.551 89.5314C271.862 109.251 272.978 114.911 275.145 124.021Z" fill="black"/>
<path d="M257.47 79.813C256.02 82.2118 261.274 83.3206 264.383 80.8638C266.869 78.8926 266.282 74.3414 264.151 73.2833C262.021 72.2252 257.47 79.813 257.47 79.813Z" fill="#407BFF"/>
<path opacity="0.4" d="M257.47 79.813C256.02 82.2118 261.274 83.3206 264.383 80.8638C266.869 78.8926 266.282 74.3414 264.151 73.2833C262.021 72.2252 257.47 79.813 257.47 79.813Z" fill="black"/>
<path d="M279.436 254.716L273.79 255.136L271.725 242.142L277.37 241.722L279.436 254.716Z" fill="#E58A7B"/>
<path d="M319.368 236.554L314.577 239.569L306.047 229.452L310.838 226.43L319.368 236.554Z" fill="#E58A7B"/>
<path d="M271.725 242.142L272.87 249.36L278.436 248.425L277.378 241.729L271.725 242.142Z" fill="#CF6F64"/>
<path d="M310.845 226.437L306.047 229.452L309.584 233.641L314.483 230.749L310.845 226.437Z" fill="#CF6F64"/>
<path d="M252.926 128.42C252.926 128.42 252.846 173.222 256.506 190.093C260.318 207.645 271.529 247.577 271.529 247.577L279.66 246.526C279.66 246.526 273.305 206.189 270.594 188.745C267.645 169.736 269.456 125.202 269.456 125.202L252.926 128.42Z" fill="#407BFF"/>
<path opacity="0.7" d="M252.926 128.42C252.926 128.42 252.846 173.222 256.506 190.093C260.318 207.645 271.529 247.577 271.529 247.577L279.66 246.526C279.66 246.526 273.305 206.189 270.594 188.745C267.645 169.736 269.456 125.202 269.456 125.202L252.926 128.42Z" fill="black"/>
<path opacity="0.5" d="M268.949 145.059L264.963 141.088C265.115 158.3 266.079 166.801 269.391 176.062C268.869 166.271 268.826 154.691 268.949 145.059Z" fill="black"/>
<path d="M258.535 127.26C258.535 127.26 270.688 164.286 276.718 185.614C283.081 208.117 307.475 233.003 307.475 233.003L314.476 228.959C314.476 228.959 297.807 205.334 291.676 184.339C279.211 141.718 284.335 132.688 275.138 124.021L258.535 127.26Z" fill="#407BFF"/>
<path opacity="0.7" d="M258.535 127.26C258.535 127.26 270.688 164.286 276.718 185.614C283.081 208.117 307.475 233.003 307.475 233.003L314.476 228.959C314.476 228.959 297.807 205.334 291.676 184.339C279.211 141.718 284.335 132.688 275.138 124.021L258.535 127.26Z" fill="black"/>
<path d="M248.983 66.7391C252.215 67.8189 255.151 75.8415 255.274 79.0013C255.397 82.161 245.91 86.5166 245.91 86.5166C245.91 86.5166 241.729 76.3705 242.896 69.8481C243.403 67.0145 248.983 66.7391 248.983 66.7391Z" fill="#263238"/>
<path d="M204.623 103.221L200.79 99.0469L199.536 104.279C199.536 104.279 202.261 106.685 204.464 105.859L204.623 103.221Z" fill="#E58A7B"/>
<path d="M196.905 97.8511L194.224 99.9818L199.536 104.279L200.79 99.0469L196.905 97.8511Z" fill="#E58A7B"/>
<path d="M313.077 238.489L317.556 233.974C317.633 233.897 317.736 233.85 317.845 233.842C317.954 233.834 318.062 233.866 318.15 233.931L322.23 236.96C322.331 237.039 322.414 237.139 322.474 237.253C322.533 237.367 322.568 237.492 322.575 237.62C322.583 237.748 322.563 237.876 322.517 237.996C322.472 238.116 322.401 238.225 322.31 238.315C320.715 239.859 319.875 240.526 317.904 242.511C316.693 243.736 315.048 245.642 313.374 247.331C311.7 249.019 309.939 247.447 310.475 246.606C312.918 242.787 312.483 241.359 312.649 239.417C312.675 239.066 312.827 238.736 313.077 238.489Z" fill="#263238"/>
<path d="M273.413 254.324H279.776C279.888 254.324 279.997 254.363 280.083 254.435C280.169 254.506 280.227 254.606 280.247 254.716L281.248 259.745C281.27 259.869 281.265 259.996 281.232 260.118C281.2 260.239 281.141 260.352 281.06 260.448C280.979 260.544 280.878 260.621 280.764 260.674C280.65 260.727 280.525 260.754 280.4 260.753C278.175 260.716 277.102 260.586 274.305 260.586C272.587 260.586 269.036 260.76 266.659 260.76C264.282 260.76 264.028 258.412 265.007 258.202C269.355 257.245 271.058 255.933 272.486 254.672C272.744 254.451 273.073 254.328 273.413 254.324Z" fill="#263238"/>
<g style="mix-blend-mode:multiply" opacity="0.27">
<path d="M273.283 100.96L269.804 103.033L273.819 118.129C272.942 113.556 273.334 108.533 273.283 100.96Z" fill="#407BFF"/>
</g>
<path d="M253.513 77.3924C255.984 79.4578 259.571 82.4654 263.796 78.9505C267.42 75.9212 269.956 67.9711 263.456 67.6812C260.057 67.529 253.513 77.3924 253.513 77.3924Z" fill="#263238"/>
<path d="M259.484 78.8056C259.484 82.2263 260.013 88.3936 262.746 90.1474C262.746 90.1474 262.499 93.6695 256.368 94.858C249.635 96.1698 252.498 92.1404 252.498 92.1404C256.006 90.546 255.397 87.8355 254.237 85.4005L259.484 78.8056Z" fill="#E58A7B"/>
<path d="M257.346 81.4943L254.245 85.4005C254.516 85.965 254.739 86.5518 254.911 87.1543C256.274 86.676 257.904 84.7627 257.767 83.2626C257.737 82.6522 257.594 82.0527 257.346 81.4943Z" fill="#CF6F64"/>
<path d="M259.81 70.9497C260.535 76.5227 260.977 78.8636 258.745 82.2335C255.39 87.3065 248.389 86.9804 246.005 81.7407C243.83 77.0228 243.019 68.6958 247.976 65.4708C249.066 64.7492 250.322 64.3186 251.626 64.2199C252.929 64.1212 254.236 64.3577 255.422 64.9068C256.609 65.456 257.635 66.2996 258.403 67.3573C259.171 68.415 259.655 69.6517 259.81 70.9497Z" fill="#E58A7B"/>
<path d="M250.128 61.1878C246.36 63.862 253.919 64.6519 253.926 68.5291C253.926 70.1308 256.556 75.211 260.296 74.9211L263.92 68.4857C267.732 62.3256 258.723 55.0784 250.128 61.1878Z" fill="#263238"/>
<path d="M250.128 61.1877C243.497 60.8399 240.605 66.1158 241.366 70.8555C245.992 69.7021 250.777 69.3225 255.527 69.7321C264.615 70.6598 250.128 61.1877 250.128 61.1877Z" fill="#263238"/>
<path d="M261.622 75.7545C261.714 76.8363 261.373 77.9103 260.673 78.7404C259.738 79.8347 258.499 79.1897 258.064 77.8924C257.694 76.7184 257.738 74.7399 258.999 74.1167C259.277 73.9878 259.584 73.9304 259.89 73.9495C260.196 73.9687 260.493 74.0638 260.753 74.2263C261.014 74.3889 261.229 74.6137 261.381 74.8805C261.533 75.1473 261.616 75.4477 261.622 75.7545Z" fill="#E58A7B"/>
<path d="M251.759 74.1167C251.846 74.566 251.679 74.9718 251.389 75.0298C251.099 75.0878 250.788 74.7689 250.701 74.3051C250.614 73.8413 250.78 73.4427 251.07 73.3847C251.36 73.3267 251.672 73.6674 251.759 74.1167Z" fill="#263238"/>
<path d="M246.693 75.1023C246.78 75.5516 246.613 75.9647 246.324 76.0227C246.034 76.0806 245.722 75.7618 245.635 75.2979C245.548 74.8341 245.715 74.4355 246.005 74.3848C246.295 74.3341 246.606 74.6457 246.693 75.1023Z" fill="#263238"/>
<path d="M246.142 74.3921L245.005 74.2979C245.005 74.2979 245.722 75.0298 246.142 74.3921Z" fill="#263238"/>
<path d="M248.186 75.6168C247.982 76.7147 247.631 77.78 247.142 78.7838C247.402 78.905 247.686 78.9677 247.972 78.9677C248.259 78.9677 248.542 78.905 248.802 78.7838L248.186 75.6168Z" fill="#DF5753"/>
<path d="M250.694 80.2333C250.662 80.2337 250.632 80.223 250.608 80.2031C250.584 80.1831 250.568 80.1553 250.563 80.1246C250.56 80.1074 250.56 80.0898 250.564 80.0728C250.568 80.0558 250.575 80.0397 250.585 80.0255C250.595 80.0113 250.608 79.9993 250.623 79.9902C250.638 79.9811 250.655 79.975 250.672 79.9724C251.232 79.8749 251.761 79.647 252.217 79.3071C252.673 78.9671 253.042 78.5247 253.295 78.0156C253.302 77.9995 253.312 77.9848 253.324 77.9724C253.336 77.96 253.351 77.9501 253.367 77.9434C253.383 77.9367 253.401 77.9332 253.418 77.9331C253.436 77.9331 253.453 77.9365 253.469 77.9432C253.485 77.9498 253.5 77.9596 253.512 77.972C253.525 77.9843 253.535 77.999 253.541 78.0151C253.548 78.0313 253.552 78.0486 253.552 78.0661C253.552 78.0836 253.548 78.1009 253.542 78.1171C253.276 78.6704 252.882 79.1515 252.391 79.5199C251.9 79.8882 251.328 80.133 250.722 80.2333H250.694Z" fill="#263238"/>
<path d="M252.926 72.1889C252.859 72.1897 252.795 72.1665 252.744 72.1237C252.501 71.892 252.205 71.7212 251.883 71.6255C251.561 71.5298 251.22 71.5118 250.889 71.5729C250.816 71.5912 250.739 71.5797 250.674 71.5409C250.61 71.5022 250.563 71.4394 250.545 71.3664C250.527 71.2933 250.538 71.216 250.577 71.1515C250.616 71.0869 250.678 71.0404 250.751 71.0221C251.169 70.9399 251.601 70.9581 252.01 71.0753C252.42 71.1925 252.796 71.4052 253.107 71.6961C253.156 71.7463 253.184 71.814 253.184 71.8845C253.184 71.9551 253.156 72.0228 253.107 72.073C253.087 72.1041 253.06 72.1305 253.029 72.1505C252.997 72.1705 252.962 72.1836 252.926 72.1889Z" fill="#263238"/>
<path d="M243.888 73.1963C243.855 73.2038 243.82 73.2038 243.787 73.1963C243.754 73.1828 243.724 73.1629 243.699 73.1376C243.673 73.1124 243.653 73.0823 243.64 73.0492C243.626 73.0162 243.62 72.9807 243.62 72.945C243.62 72.9092 243.628 72.874 243.642 72.8412C243.796 72.4448 244.043 72.0912 244.362 71.81C244.681 71.5288 245.063 71.3282 245.476 71.2251C245.51 71.2178 245.546 71.2177 245.581 71.2248C245.616 71.2319 245.649 71.2461 245.678 71.2664C245.708 71.2868 245.732 71.3129 245.751 71.3432C245.77 71.3735 245.782 71.4073 245.787 71.4425C245.795 71.4768 245.795 71.5122 245.788 71.5467C245.782 71.5811 245.768 71.6139 245.748 71.643C245.729 71.6721 245.703 71.6969 245.674 71.716C245.645 71.7351 245.612 71.7481 245.577 71.7541C245.251 71.8429 244.951 72.0064 244.699 72.2316C244.448 72.4567 244.252 72.7374 244.128 73.0513C244.104 73.0947 244.07 73.1309 244.028 73.1564C243.986 73.1819 243.938 73.1957 243.888 73.1963Z" fill="#263238"/>
<path d="M311.396 241.12C311.271 241.117 311.15 241.083 311.041 241.023C310.933 240.962 310.84 240.876 310.772 240.772C310.721 240.711 310.686 240.637 310.672 240.558C310.658 240.479 310.665 240.398 310.693 240.323C310.946 239.642 312.947 239.207 313.171 239.156C313.197 239.151 313.224 239.154 313.249 239.165C313.273 239.175 313.294 239.192 313.309 239.214C313.324 239.235 313.332 239.26 313.332 239.286C313.332 239.313 313.324 239.338 313.309 239.359C312.918 240.004 312.149 241.084 311.432 241.12H311.396ZM312.91 239.489C312.12 239.692 311.077 240.055 310.946 240.417C310.934 240.45 310.931 240.487 310.939 240.521C310.946 240.556 310.964 240.588 310.99 240.613C311.035 240.687 311.099 240.749 311.175 240.791C311.251 240.833 311.337 240.854 311.425 240.852C311.809 240.83 312.352 240.33 312.91 239.489Z" fill="#407BFF"/>
<path d="M312.584 239.489C311.86 239.489 310.954 239.308 310.686 238.917C310.626 238.828 310.599 238.721 310.608 238.614C310.617 238.508 310.662 238.407 310.736 238.33C310.8 238.249 310.88 238.183 310.971 238.135C311.062 238.088 311.163 238.06 311.265 238.054H311.323C312.135 238.054 313.251 239.149 313.294 239.192C313.312 239.209 313.324 239.229 313.331 239.252C313.337 239.275 313.337 239.3 313.331 239.323C313.324 239.345 313.312 239.366 313.296 239.382C313.279 239.398 313.259 239.41 313.236 239.417C313.023 239.468 312.804 239.493 312.584 239.489ZM311.323 238.323H311.28C311.215 238.325 311.151 238.342 311.093 238.372C311.036 238.402 310.985 238.444 310.946 238.497C310.845 238.634 310.874 238.714 310.91 238.765C311.128 239.098 312.236 239.287 312.918 239.207C312.483 238.764 311.929 238.457 311.323 238.323Z" fill="#407BFF"/>
<path d="M271.333 255.317C270.846 255.36 270.358 255.238 269.949 254.969C269.852 254.894 269.776 254.795 269.728 254.682C269.68 254.57 269.661 254.446 269.674 254.324C269.673 254.252 269.692 254.18 269.727 254.116C269.763 254.053 269.814 254 269.877 253.962C270.544 253.571 272.877 254.73 273.138 254.861C273.163 254.874 273.183 254.894 273.196 254.918C273.208 254.943 273.214 254.971 273.21 254.998C273.207 255.026 273.196 255.051 273.177 255.072C273.159 255.093 273.136 255.107 273.109 255.114C272.525 255.237 271.93 255.305 271.333 255.317ZM270.261 254.143C270.176 254.138 270.091 254.155 270.014 254.194C269.99 254.207 269.97 254.227 269.957 254.252C269.944 254.276 269.939 254.304 269.942 254.332C269.935 254.413 269.947 254.496 269.979 254.571C270.011 254.647 270.06 254.714 270.123 254.766C270.486 255.078 271.42 255.129 272.652 254.926C271.904 254.534 271.096 254.269 270.261 254.143Z" fill="#407BFF"/>
<path d="M273.08 255.1H273.029C272.305 254.788 270.906 253.556 271.007 252.926C271.007 252.781 271.138 252.592 271.5 252.556H271.609C272.87 252.556 273.196 254.861 273.21 254.962C273.214 254.986 273.211 255.011 273.202 255.034C273.193 255.057 273.178 255.077 273.16 255.093C273.134 255.102 273.107 255.105 273.08 255.1ZM271.631 252.81H271.551C271.319 252.81 271.304 252.918 271.304 252.947C271.246 253.331 272.203 254.295 272.928 254.723C272.783 254.158 272.413 252.824 271.602 252.824L271.631 252.81Z" fill="#407BFF"/>
<path d="M251.208 73.4065L250.07 73.305C250.07 73.305 250.788 74.0442 251.208 73.4065Z" fill="#263238"/>
<path d="M256.187 99.6774C244.062 102.381 247.809 95.0464 248.534 93.4303L248.838 93.3144C250.288 92.7853 250.578 92.7056 252.505 92.1403C255.869 91.2323 259.294 90.5662 262.753 90.1474L263.478 90.0459C264.202 89.9517 264.862 89.8792 265.528 89.8212C265.978 89.7705 266.427 89.7415 266.855 89.7125L268.304 89.6256C268.551 90.7561 269.152 96.8002 256.187 99.6774Z" fill="#E58A7B"/>
<path d="M275.218 122.629L276.631 124.455C276.74 124.593 276.588 124.789 276.327 124.839L252.657 129.449C252.455 129.492 252.266 129.449 252.23 129.296L251.628 127.318C251.628 127.18 251.744 127.028 251.962 126.985L274.819 122.535C274.888 122.515 274.961 122.513 275.031 122.529C275.101 122.546 275.165 122.58 275.218 122.629Z" fill="#26395A"/>
<path d="M272.645 125.782L273.261 125.666C273.384 125.666 273.464 125.564 273.442 125.484L272.645 122.919C272.645 122.839 272.5 122.803 272.377 122.825L271.768 122.941C271.645 122.941 271.565 123.049 271.587 123.122L272.384 125.695C272.406 125.767 272.529 125.811 272.645 125.782Z" fill="#407BFF"/>
<path d="M258.781 134.333L254.063 132.579L254.788 137.065C254.788 137.065 258.209 138.297 259.955 136.718L258.781 134.333Z" fill="#E58A7B"/>
<path d="M249.57 133.768L248.447 136.71L254.788 137.065L254.063 132.579L249.57 133.768Z" fill="#E58A7B"/>
<path d="M254.419 129.333L255.035 129.217C255.151 129.217 255.237 129.115 255.208 129.036L254.411 126.47C254.411 126.39 254.274 126.354 254.15 126.376L253.534 126.492C253.411 126.492 253.331 126.601 253.36 126.673L254.158 129.246C254.179 129.318 254.295 129.362 254.419 129.333Z" fill="#407BFF"/>
<path d="M263.535 127.55L264.144 127.434C264.267 127.434 264.347 127.333 264.325 127.253L263.528 124.687C263.528 124.608 263.383 124.571 263.26 124.593L262.651 124.709C262.528 124.709 262.448 124.818 262.47 124.89L263.267 127.463C263.296 127.505 263.338 127.536 263.387 127.552C263.435 127.568 263.487 127.567 263.535 127.55Z" fill="#407BFF"/>
<path d="M260.955 87.2702C261.47 87.0746 262.115 88.8864 261.956 89.1183C261.586 89.6473 254.817 91.4953 254.513 90.459C254.494 89.8972 254.58 89.3369 254.766 88.8066C254.962 88.4588 256.462 89.0965 260.955 87.2702Z" fill="#407BFF"/>
<path d="M259.81 87.3137C260.071 86.7122 260.818 85.7484 261.47 86.2991C262.122 86.8499 262.398 88.0385 261.97 88.2341C261.543 88.4298 259.361 88.3211 259.81 87.3137Z" fill="#407BFF"/>
<path d="M261.195 87.6254C261.644 87.147 262.644 86.4876 263.101 87.2268C263.557 87.966 263.39 89.1763 262.927 89.2125C262.463 89.2487 260.434 88.4153 261.195 87.6254Z" fill="#407BFF"/>
<path d="M261.441 87.5167C261.405 87.1313 261.48 86.7437 261.659 86.4004C261.838 86.0571 262.112 85.7728 262.448 85.5817C263.275 85.0454 264.079 84.6975 264.398 84.1322C264.535 84.6622 264.562 85.2147 264.478 85.7556C264.311 86.531 261.738 87.1253 261.912 87.7993L261.441 87.5167Z" fill="#407BFF"/>
<path d="M261.332 87.4804C261.092 87.1763 260.945 86.8091 260.909 86.4234C260.873 86.0376 260.95 85.6496 261.129 85.3063C261.521 84.4076 262.014 83.6829 261.985 83.0452C262.387 83.4159 262.71 83.8647 262.934 84.3642C263.209 85.0889 261.376 86.9949 261.89 87.4732L261.332 87.4804Z" fill="#407BFF"/>
<path d="M311.736 229.054C311.722 229.053 311.707 229.049 311.694 229.041C311.682 229.034 311.671 229.023 311.664 229.01C311.497 228.778 294.93 205.138 288.857 184.368C284.894 171.044 281.848 157.465 279.74 143.726C278.486 135.986 277.725 131.311 275.232 127.477C275.216 127.46 275.206 127.437 275.206 127.412C275.206 127.388 275.216 127.365 275.232 127.347C275.25 127.332 275.271 127.324 275.294 127.324C275.317 127.324 275.339 127.332 275.356 127.347C277.878 131.217 278.639 135.906 279.892 143.668C282.01 157.388 285.061 170.947 289.024 184.252C295.09 204.993 311.642 228.604 311.809 228.843C311.822 228.861 311.83 228.883 311.83 228.905C311.83 228.927 311.822 228.949 311.809 228.967C311.808 228.987 311.8 229.006 311.787 229.022C311.774 229.038 311.756 229.049 311.736 229.054Z" fill="#407BFF"/>
<path opacity="0.4" d="M311.736 229.054C311.722 229.053 311.707 229.049 311.694 229.041C311.682 229.034 311.671 229.023 311.664 229.01C311.497 228.778 294.93 205.138 288.857 184.368C284.894 171.044 281.848 157.465 279.74 143.726C278.486 135.986 277.725 131.311 275.232 127.477C275.216 127.46 275.206 127.437 275.206 127.412C275.206 127.388 275.216 127.365 275.232 127.347C275.25 127.332 275.271 127.324 275.294 127.324C275.317 127.324 275.339 127.332 275.356 127.347C277.878 131.217 278.639 135.906 279.892 143.668C282.01 157.388 285.061 170.947 289.024 184.252C295.09 204.993 311.642 228.604 311.809 228.843C311.822 228.861 311.83 228.883 311.83 228.905C311.83 228.927 311.822 228.949 311.809 228.967C311.808 228.987 311.8 229.006 311.787 229.022C311.774 229.038 311.756 229.049 311.736 229.054Z" fill="black"/>
<path d="M281.117 246.497L270.043 247.932L269.319 244.845L280.849 242.403L281.117 246.497Z" fill="#407BFF"/>
<path d="M315.063 228.713L306.895 233.431L304.141 231.075L313.077 225.031L315.063 228.713Z" fill="#407BFF"/>
<path d="M276.733 97.2061C277.124 99.2208 277.349 101.12 277.566 103.084C277.783 105.048 277.863 106.99 277.921 108.954C277.979 110.933 277.935 112.914 277.791 114.889C277.711 115.882 277.624 116.875 277.486 117.875C277.428 118.368 277.363 118.868 277.269 119.368L277.001 120.904C276.704 122.157 276.159 123.337 275.399 124.376C274.776 125.25 274.088 126.076 273.341 126.847C271.942 128.284 270.441 129.616 268.848 130.833C265.766 133.206 262.505 135.335 259.093 137.203L257.542 134.797C258.992 133.645 260.441 132.456 261.89 131.246C263.34 130.036 264.717 128.811 266.043 127.535C267.354 126.308 268.59 125.003 269.746 123.629C270.277 122.993 270.762 122.32 271.196 121.615C271.538 121.1 271.784 120.528 271.92 119.926C272.156 118.167 272.294 116.396 272.334 114.621C272.334 113.715 272.334 112.809 272.334 111.903C272.334 110.997 272.297 110.077 272.254 109.164C272.167 107.338 272 105.54 271.804 103.685C271.609 101.83 271.355 99.9963 271.08 98.2787L276.733 97.2061Z" fill="#E58A7B"/>
<path d="M275.856 91.046C278.95 93.5535 278.211 101.004 278.211 101.004L267.775 104.439C267.775 104.439 268.253 95.8509 268.775 92.7636C269.384 89.0893 272.805 88.5747 275.856 91.046Z" fill="#407BFF"/>
<path opacity="0.2" d="M275.856 91.046C278.95 93.5535 278.211 101.004 278.211 101.004L267.775 104.439C267.775 104.439 268.253 95.8509 268.775 92.7636C269.384 89.0893 272.805 88.5747 275.856 91.046Z" fill="black"/>
<path d="M137.993 122.136C137.588 120.379 136.599 118.811 135.188 117.688C133.777 116.566 132.027 115.954 130.224 115.954H72.2468C70.1325 115.954 68.1049 116.794 66.6098 118.289C65.1148 119.784 64.2749 121.812 64.2749 123.926V252.795C64.2749 254.909 65.1148 256.937 66.6098 258.432C68.1049 259.927 70.1325 260.767 72.2468 260.767H256.325C258.439 260.767 260.466 259.927 261.961 258.432C263.456 256.937 264.296 254.909 264.296 252.795V144.544C264.296 142.43 263.456 140.403 261.961 138.908C260.466 137.412 258.439 136.573 256.325 136.573H156.133C151.922 136.573 147.835 135.146 144.54 132.524C141.246 129.902 138.937 126.24 137.993 122.136Z" fill="#407BFF"/>
<path opacity="0.6" d="M137.993 122.136C137.588 120.379 136.599 118.811 135.188 117.688C133.777 116.566 132.027 115.954 130.224 115.954H72.2468C70.1325 115.954 68.1049 116.794 66.6098 118.289C65.1148 119.784 64.2749 121.812 64.2749 123.926V252.795C64.2749 254.909 65.1148 256.937 66.6098 258.432C68.1049 259.927 70.1325 260.767 72.2468 260.767H256.325C258.439 260.767 260.466 259.927 261.961 258.432C263.456 256.937 264.296 254.909 264.296 252.795V144.544C264.296 142.43 263.456 140.403 261.961 138.908C260.466 137.412 258.439 136.573 256.325 136.573H156.133C151.922 136.573 147.835 135.146 144.54 132.524C141.246 129.902 138.937 126.24 137.993 122.136Z" fill="black"/>
<path opacity="0.22" d="M117.527 82.0015L122.694 98.7352C123.354 100.865 124.832 102.646 126.803 103.687C128.775 104.727 131.079 104.943 133.21 104.286L149.936 99.1193L117.527 82.0015Z" fill="#407BFF"/>
<path d="M117.527 82.0015L57.738 100.474C56.6825 100.799 55.7014 101.328 54.8506 102.032C53.9998 102.736 53.2962 103.6 52.7799 104.576C52.2637 105.552 51.9449 106.62 51.8418 107.72C51.7388 108.819 51.8535 109.928 52.1794 110.983L86.3135 221.487C86.6393 222.543 87.1698 223.523 87.8746 224.373C88.5794 225.223 89.4448 225.926 90.4213 226.442C91.3978 226.957 92.4663 227.275 93.5658 227.378C94.6653 227.48 95.7742 227.365 96.8291 227.039L173.352 203.399C174.407 203.074 175.387 202.544 176.237 201.84C177.087 201.136 177.79 200.271 178.305 199.295C178.821 198.319 179.139 197.251 179.242 196.152C179.344 195.053 179.229 193.945 178.903 192.89L149.915 99.1193L117.527 82.0015Z" fill="#407BFF"/>
<path opacity="0.8" d="M117.527 82.0015L57.738 100.474C56.6825 100.799 55.7014 101.328 54.8506 102.032C53.9998 102.736 53.2962 103.6 52.7799 104.576C52.2637 105.552 51.9449 106.62 51.8418 107.72C51.7388 108.819 51.8535 109.928 52.1794 110.983L86.3135 221.487C86.6393 222.543 87.1698 223.523 87.8746 224.373C88.5794 225.223 89.4448 225.926 90.4213 226.442C91.3978 226.957 92.4663 227.275 93.5658 227.378C94.6653 227.48 95.7742 227.365 96.8291 227.039L173.352 203.399C174.407 203.074 175.387 202.544 176.237 201.84C177.087 201.136 177.79 200.271 178.305 199.295C178.821 198.319 179.139 197.251 179.242 196.152C179.344 195.053 179.229 193.945 178.903 192.89L149.915 99.1193L117.527 82.0015Z" fill="white"/>
<g opacity="0.28">
<path d="M149.697 198.572L99.9527 213.936C99.0224 214.222 98.0168 214.128 97.1558 213.674C96.2948 213.22 95.6484 212.444 95.358 211.516C95.0748 210.585 95.1711 209.581 95.626 208.721C96.0808 207.862 96.8573 207.217 97.7858 206.928L147.53 191.557C148.461 191.271 149.468 191.367 150.329 191.822C151.19 192.277 151.836 193.055 152.125 193.985C152.408 194.915 152.312 195.92 151.857 196.779C151.402 197.639 150.626 198.283 149.697 198.572Z" fill="#407BFF"/>
</g>
<g opacity="0.28">
<path d="M96.1624 108.403L69.8553 116.527C68.925 116.811 67.9203 116.715 67.0598 116.262C66.1993 115.809 65.5527 115.034 65.2606 114.106C64.9771 113.175 65.0733 112.169 65.528 111.309C65.9828 110.448 66.7593 109.802 67.6884 109.512L93.9955 101.387C94.9258 101.1 95.9323 101.193 96.7938 101.647C97.6553 102.101 98.3014 102.878 98.5902 103.808C98.8737 104.739 98.7775 105.745 98.3228 106.605C97.868 107.466 97.0915 108.112 96.1624 108.403Z" fill="#407BFF"/>
</g>
<g opacity="0.28">
<path d="M117.629 117.02L74.1457 130.449C73.2173 130.728 72.2165 130.629 71.3603 130.174C70.5042 129.72 69.8618 128.946 69.5727 128.021C69.2872 127.092 69.3816 126.087 69.8353 125.227C70.289 124.367 71.065 123.722 71.9933 123.434L115.476 110.005C116.406 109.719 117.412 109.813 118.273 110.267C119.134 110.72 119.78 111.496 120.071 112.425C120.352 113.358 120.253 114.365 119.795 115.225C119.338 116.086 118.559 116.731 117.629 117.02Z" fill="#407BFF"/>
</g>
<g opacity="0.28">
<path d="M141.906 124.767L78.4503 144.334C77.521 144.62 76.5164 144.525 75.6566 144.072C74.7967 143.618 74.1518 142.842 73.8629 141.914C73.5792 140.984 73.6743 139.979 74.1276 139.118C74.5809 138.258 75.3557 137.611 76.2834 137.319L139.74 117.752C140.669 117.468 141.673 117.564 142.532 118.017C143.391 118.47 144.036 119.245 144.327 120.172C144.613 121.103 144.518 122.108 144.065 122.969C143.611 123.83 142.835 124.477 141.906 124.767Z" fill="#407BFF"/>
</g>
<g opacity="0.28">
<path d="M146.204 138.682L109.316 150.081C108.386 150.365 107.381 150.268 106.522 149.813C105.662 149.358 105.018 148.582 104.729 147.654C104.445 146.724 104.54 145.72 104.994 144.861C105.447 144.002 106.222 143.357 107.149 143.066L144.037 131.666C144.968 131.385 145.973 131.482 146.833 131.936C147.693 132.391 148.34 133.166 148.632 134.094C148.915 135.024 148.819 136.029 148.364 136.888C147.909 137.748 147.133 138.393 146.204 138.682Z" fill="#407BFF"/>
</g>
<g opacity="0.28">
<path d="M92.4012 155.307L82.7552 158.285C81.8249 158.571 80.8193 158.477 79.9583 158.023C79.0973 157.569 78.4509 156.793 78.1605 155.865C77.8751 154.933 77.9703 153.927 78.4253 153.066C78.8804 152.205 79.6581 151.559 80.5883 151.27L90.2343 148.291C91.1645 148.008 92.1693 148.103 93.0297 148.556C93.8902 149.009 94.5369 149.784 94.829 150.712C95.1104 151.643 95.0134 152.648 94.5589 153.508C94.1044 154.368 93.3291 155.014 92.4012 155.307Z" fill="#407BFF"/>
</g>
<g opacity="0.28">
<path d="M150.509 152.603L87.0528 172.207C86.1225 172.49 85.1179 172.394 84.2584 171.939C83.3989 171.484 82.7543 170.708 82.4653 169.779C82.1798 168.85 82.2742 167.845 82.7279 166.985C83.1816 166.125 83.9576 165.48 84.8859 165.192L148.342 145.588C149.271 145.305 150.275 145.4 151.134 145.853C151.994 146.307 152.639 147.081 152.929 148.009C153.215 148.939 153.121 149.944 152.667 150.805C152.214 151.666 151.438 152.313 150.509 152.603Z" fill="#407BFF"/>
</g>
<g opacity="0.28">
<path d="M130.318 174.084L91.3503 186.122C90.421 186.405 89.4172 186.31 88.5579 185.856C87.6986 185.403 87.0533 184.628 86.7628 183.701C86.4791 182.771 86.5742 181.766 87.0275 180.905C87.4809 180.045 88.2557 179.398 89.1834 179.106L128.151 167.069C129.083 166.785 130.088 166.881 130.949 167.336C131.809 167.791 132.455 168.568 132.746 169.497C133.031 170.427 132.936 171.432 132.481 172.292C132.026 173.152 131.248 173.797 130.318 174.084Z" fill="#407BFF"/>
</g>
<g opacity="0.28">
<path d="M154.806 166.525L144.407 169.736C143.475 170.019 142.47 169.923 141.609 169.468C140.749 169.013 140.103 168.237 139.812 167.308C139.529 166.377 139.625 165.373 140.08 164.513C140.535 163.654 141.311 163.009 142.24 162.72L152.639 159.51C153.569 159.224 154.573 159.319 155.433 159.772C156.293 160.226 156.938 161.002 157.227 161.93C157.513 162.861 157.418 163.866 156.965 164.727C156.511 165.588 155.735 166.235 154.806 166.525Z" fill="#407BFF"/>
</g>
<g opacity="0.28">
<path d="M159.104 180.454L95.6623 200.021C94.7311 200.307 93.7247 200.212 92.8635 199.757C92.0023 199.301 91.3566 198.524 91.0676 197.594C90.7824 196.663 90.8778 195.658 91.333 194.798C91.7881 193.938 92.5658 193.293 93.4954 193.006L156.944 173.403C157.875 173.121 158.88 173.218 159.74 173.673C160.6 174.127 161.247 174.902 161.539 175.83C161.685 176.294 161.737 176.781 161.693 177.265C161.649 177.749 161.51 178.219 161.284 178.649C161.058 179.079 160.749 179.46 160.374 179.769C160 180.079 159.568 180.312 159.104 180.454Z" fill="#407BFF"/>
</g>
<path d="M160.466 40.4463L179.439 82.7262C179.932 83.8299 179.968 85.0837 179.538 86.2135C179.109 87.3434 178.25 88.2574 177.149 88.7558L96.6625 124.883C95.559 125.377 94.3045 125.414 93.1741 124.985C92.0437 124.555 91.1297 123.695 90.6328 122.593L71.6525 80.3129C71.1557 79.2087 71.1179 77.9523 71.5474 76.8202C71.9768 75.6881 72.8384 74.7729 73.9426 74.276L154.43 38.149C155.535 37.6566 156.791 37.6218 157.922 38.0523C159.053 38.4828 159.968 39.3435 160.466 40.4463Z" fill="#407BFF"/>
<path opacity="0.3" d="M160.466 40.4463L179.439 82.7262C179.932 83.8299 179.968 85.0837 179.538 86.2135C179.109 87.3434 178.25 88.2574 177.149 88.7558L96.6625 124.883C95.559 125.377 94.3045 125.414 93.1741 124.985C92.0437 124.555 91.1297 123.695 90.6328 122.593L71.6525 80.3129C71.1557 79.2087 71.1179 77.9523 71.5474 76.8202C71.9768 75.6881 72.8384 74.7729 73.9426 74.276L154.43 38.149C155.535 37.6566 156.791 37.6218 157.922 38.0523C159.053 38.4828 159.968 39.3435 160.466 40.4463Z" fill="black"/>
<path d="M147.781 38.3572L145.209 39.511L145.506 40.1722L148.078 39.0184L147.781 38.3572Z" fill="#407BFF"/>
<path d="M141.607 41.1235L133.586 44.7214L133.883 45.3826L141.903 41.7847L141.607 41.1235Z" fill="#407BFF"/>
<path d="M71.5811 84.5739L70.92 84.8708L73.1166 89.7632L73.7778 89.4663L71.5811 84.5739Z" fill="#407BFF"/>
<path opacity="0.6" d="M157.77 37.9968L137.015 78.6533C135.089 82.4217 131.935 85.42 128.074 87.1529C124.213 88.8857 119.876 89.2492 115.78 88.1833L71.609 76.6676C72.0621 75.6078 72.8942 74.7551 73.9426 74.2761L154.429 38.149C155.484 37.6775 156.678 37.6232 157.77 37.9968Z" fill="#407BFF"/>
<path d="M186.303 90.0314L123.847 93.8869C122.743 93.9524 121.664 94.235 120.669 94.7183C119.675 95.2016 118.786 95.8762 118.053 96.7035C117.32 97.5308 116.758 98.4945 116.397 99.5395C116.037 100.585 115.887 101.69 115.954 102.794L123.078 218.226C123.145 219.33 123.428 220.41 123.913 221.405C124.398 222.399 125.074 223.288 125.903 224.02C126.731 224.753 127.696 225.314 128.743 225.673C129.789 226.032 130.896 226.181 132 226.111L211.936 221.176C213.038 221.109 214.116 220.826 215.109 220.342C216.101 219.858 216.988 219.183 217.719 218.356C218.451 217.528 219.011 216.565 219.369 215.52C219.727 214.476 219.876 213.371 219.806 212.269L213.791 114.309L186.303 90.0314Z" fill="#407BFF"/>
<path opacity="0.8" d="M186.303 90.0314L123.847 93.8869C122.743 93.9524 121.664 94.235 120.669 94.7183C119.675 95.2016 118.786 95.8762 118.053 96.7035C117.32 97.5308 116.758 98.4945 116.397 99.5395C116.037 100.585 115.887 101.69 115.954 102.794L123.078 218.226C123.145 219.33 123.428 220.41 123.913 221.405C124.398 222.399 125.074 223.288 125.903 224.02C126.731 224.753 127.696 225.314 128.743 225.673C129.789 226.032 130.896 226.181 132 226.111L211.936 221.176C213.038 221.109 214.116 220.826 215.109 220.342C216.101 219.858 216.988 219.183 217.719 218.356C218.451 217.528 219.011 216.565 219.369 215.52C219.727 214.476 219.876 213.371 219.806 212.269L213.791 114.309L186.303 90.0314Z" fill="white"/>
<g opacity="0.22">
<path d="M190.078 210.892L138.109 214.103C137.138 214.158 136.185 213.827 135.457 213.182C134.729 212.538 134.286 211.631 134.225 210.66C134.169 209.69 134.498 208.737 135.142 208.008C135.785 207.279 136.69 206.834 137.66 206.769L189.629 203.565C190.6 203.508 191.554 203.837 192.283 204.48C193.012 205.124 193.457 206.03 193.521 207.001C193.578 207.973 193.248 208.928 192.603 209.657C191.958 210.387 191.05 210.831 190.078 210.892Z" fill="#407BFF"/>
</g>
<g opacity="0.22">
<path d="M159.321 110.65L131.833 112.331C130.863 112.387 129.909 112.057 129.181 111.414C128.452 110.77 128.006 109.866 127.941 108.896C127.886 107.924 128.216 106.97 128.861 106.241C129.506 105.512 130.413 105.067 131.384 105.004L158.872 103.308C159.842 103.251 160.796 103.58 161.524 104.224C162.252 104.867 162.695 105.773 162.757 106.743C162.818 107.717 162.491 108.675 161.847 109.407C161.203 110.139 160.295 110.586 159.321 110.65Z" fill="#407BFF"/>
</g>
<g opacity="0.22">
<path d="M178.149 124.086L132.732 126.883C131.76 126.943 130.805 126.614 130.075 125.97C129.346 125.326 128.901 124.419 128.84 123.448C128.782 122.476 129.112 121.521 129.757 120.791C130.403 120.062 131.31 119.618 132.282 119.556L177.693 116.759C178.664 116.699 179.62 117.027 180.349 117.671C181.079 118.316 181.523 119.223 181.585 120.194C181.642 121.165 181.313 122.119 180.67 122.848C180.026 123.577 179.12 124.022 178.149 124.086Z" fill="#407BFF"/>
</g>
<g opacity="0.22">
<path d="M199.913 137.341L133.63 141.428C132.656 141.488 131.698 141.159 130.966 140.514C130.234 139.868 129.787 138.959 129.724 137.986C129.666 137.016 129.996 136.062 130.639 135.334C131.283 134.606 132.189 134.163 133.159 134.101L199.449 130.007C200.42 129.951 201.373 130.282 202.101 130.927C202.829 131.572 203.272 132.479 203.333 133.449C203.391 134.418 203.064 135.37 202.424 136.098C201.783 136.827 200.881 137.274 199.913 137.341Z" fill="#407BFF"/>
</g>
<g opacity="0.22">
<path d="M200.811 151.879L162.278 154.256C161.307 154.313 160.353 153.984 159.624 153.341C158.895 152.697 158.45 151.791 158.387 150.82C158.327 149.849 158.655 148.894 159.299 148.164C159.943 147.435 160.85 146.99 161.822 146.929L200.355 144.552C201.326 144.492 202.281 144.82 203.011 145.464C203.741 146.108 204.185 147.016 204.247 147.987C204.304 148.958 203.975 149.912 203.332 150.641C202.688 151.37 201.782 151.815 200.811 151.879Z" fill="#407BFF"/>
</g>
<g opacity="0.22">
<path d="M144.602 155.343L134.522 155.966C133.551 156.023 132.598 155.694 131.87 155.051C131.142 154.407 130.699 153.501 130.637 152.531C130.58 151.56 130.909 150.606 131.552 149.877C132.196 149.147 133.102 148.702 134.072 148.639L144.153 148.016C145.125 147.96 146.079 148.291 146.808 148.936C147.537 149.58 147.981 150.487 148.045 151.458C148.1 152.429 147.77 153.382 147.125 154.11C146.48 154.838 145.573 155.281 144.602 155.343Z" fill="#407BFF"/>
</g>
<g opacity="0.22">
<path d="M201.71 166.416L135.42 170.504C134.449 170.561 133.495 170.232 132.766 169.589C132.037 168.945 131.592 168.039 131.529 167.068C131.473 166.097 131.804 165.143 132.448 164.414C133.093 163.685 134 163.24 134.971 163.177L201.253 159.089C202.225 159.032 203.181 159.362 203.91 160.007C204.639 160.652 205.084 161.56 205.145 162.532C205.203 163.502 204.873 164.455 204.23 165.183C203.586 165.911 202.68 166.355 201.71 166.416Z" fill="#407BFF"/>
</g>
<g opacity="0.22">
<path d="M177.026 182.534L136.319 185.049C135.347 185.104 134.393 184.774 133.664 184.129C132.935 183.484 132.491 182.577 132.427 181.606C132.372 180.636 132.702 179.682 133.347 178.954C133.992 178.227 134.899 177.783 135.87 177.722L176.577 175.207C177.548 175.152 178.501 175.482 179.229 176.127C179.957 176.772 180.4 177.679 180.461 178.65C180.521 179.62 180.192 180.575 179.548 181.303C178.904 182.032 177.997 182.474 177.026 182.534Z" fill="#407BFF"/>
</g>
<g opacity="0.22">
<path d="M202.601 180.961L191.731 181.628C190.76 181.686 189.807 181.356 189.079 180.713C188.351 180.069 187.908 179.163 187.846 178.193C187.787 177.222 188.115 176.266 188.759 175.537C189.403 174.807 190.31 174.363 191.281 174.301L202.152 173.634C203.123 173.575 204.079 173.903 204.808 174.547C205.538 175.191 205.982 176.098 206.044 177.07C206.099 178.041 205.769 178.995 205.124 179.724C204.479 180.453 203.572 180.898 202.601 180.961Z" fill="#407BFF"/>
</g>
<g opacity="0.22">
<path d="M203.5 195.499L137.218 199.587C136.247 199.644 135.292 199.315 134.563 198.672C133.834 198.028 133.389 197.122 133.326 196.151C133.268 195.18 133.597 194.226 134.241 193.497C134.884 192.768 135.79 192.323 136.761 192.26L203.051 188.172C204.021 188.115 204.974 188.444 205.702 189.088C206.43 189.732 206.874 190.638 206.935 191.607C206.995 192.579 206.666 193.534 206.022 194.264C205.378 194.993 204.471 195.438 203.5 195.499Z" fill="#407BFF"/>
</g>
<path opacity="0.22" d="M186.303 90.0314L187.382 107.512C187.45 108.614 187.734 109.692 188.218 110.684C188.702 111.677 189.377 112.564 190.204 113.295C191.031 114.027 191.994 114.588 193.038 114.948C194.082 115.307 195.187 115.457 196.289 115.389L213.791 114.309L186.303 90.0314Z" fill="#407BFF"/>
<path opacity="0.5" d="M165.851 133.637C165.84 132.8 165.661 131.973 165.325 131.205C164.989 130.438 164.503 129.746 163.895 129.169C163.287 128.593 162.57 128.145 161.785 127.85C161.001 127.556 160.166 127.422 159.329 127.456H101.279C96.8799 127.456 92.5823 131.029 91.7561 135.428L68.8479 252.795C67.9927 257.194 70.8626 260.767 75.2616 260.767H259.339C263.738 260.767 268 257.201 268.862 252.795L287.755 156.046C288.611 151.639 285.741 148.074 281.342 148.074H181.179C172.482 148.074 166.148 142.088 165.851 133.637Z" fill="#407BFF"/>
</svg>
