<svg width="389" height="283" viewBox="0 0 389 283" fill="none" xmlns="http://www.w3.org/2000/svg">
<path d="M388.536 248.61H0V248.8H388.536V248.61Z" fill="#EBEBEB"/>
<path d="M349.605 260.828H323.868V261.018H349.605V260.828Z" fill="#EBEBEB"/>
<path d="M257.382 262.894H250.629V263.084H257.382V262.894Z" fill="#EBEBEB"/>
<path d="M323.091 253.781H308.179V253.971H323.091V253.781Z" fill="#EBEBEB"/>
<path d="M74.3269 255.057H40.7651V255.247H74.3269V255.057Z" fill="#EBEBEB"/>
<path d="M86.1694 255.057H81.2505V255.247H86.1694V255.057Z" fill="#EBEBEB"/>
<path d="M174.958 258.262H102.162V258.452H174.958V258.262Z" fill="#EBEBEB"/>
<path d="M184.166 214.743H34.1212C32.9458 214.741 31.8192 214.284 30.9887 213.471C30.1583 212.658 29.6919 211.556 29.6919 210.408V4.29791C29.7021 3.15587 30.1731 2.06389 31.0024 1.25916C31.8317 0.454438 32.9525 0.00195637 34.1212 0H184.166C185.343 0 186.471 0.456814 187.303 1.26995C188.136 2.08308 188.603 3.18593 188.603 4.33587V210.408C188.603 211.558 188.136 212.66 187.303 213.474C186.471 214.287 185.343 214.743 184.166 214.743ZM34.1212 0.15187C32.9973 0.153882 31.9201 0.591581 31.1261 1.3689C30.3321 2.14621 29.8862 3.19962 29.8862 4.29791V210.408C29.8862 211.506 30.3321 212.559 31.1261 213.337C31.9201 214.114 32.9973 214.552 34.1212 214.554H184.166C185.291 214.552 186.369 214.114 187.164 213.337C187.959 212.56 188.407 211.507 188.409 210.408V4.29791C188.407 3.19893 187.959 2.14553 187.164 1.36843C186.369 0.591335 185.291 0.153877 184.166 0.15187H34.1212Z" fill="#EBEBEB"/>
<path d="M352.254 214.743H202.202C201.026 214.741 199.898 214.284 199.067 213.471C198.235 212.659 197.767 211.557 197.765 210.408V4.29791C197.777 3.15517 198.25 2.06321 199.08 1.25869C199.911 0.454172 201.032 0.00193504 202.202 0H352.254C353.422 0.00395202 354.54 0.457316 355.368 1.26183C356.196 2.06634 356.666 3.15718 356.676 4.29791V210.408C356.676 211.555 356.21 212.655 355.382 213.468C354.553 214.281 353.428 214.739 352.254 214.743ZM202.202 0.15187C201.077 0.153877 199.999 0.591335 199.204 1.36843C198.409 2.14553 197.961 3.19893 197.959 4.29791V210.408C197.961 211.507 198.409 212.56 199.204 213.337C199.999 214.114 201.077 214.552 202.202 214.554H352.254C353.379 214.552 354.457 214.114 355.252 213.337C356.047 212.56 356.495 211.507 356.497 210.408V4.29791C356.495 3.19893 356.047 2.14553 355.252 1.36843C354.457 0.591335 353.379 0.153877 352.254 0.15187H202.202Z" fill="#EBEBEB"/>
<path d="M342.665 56.0551H45.8706V248.276H342.665V56.0551Z" fill="#E0E0E0"/>
<path d="M194.268 247.418V51.5065C194.268 51.5065 232.088 39.5164 333.208 39.5164V247.418H194.268Z" fill="#F5F5F5"/>
<path d="M194.268 247.418V51.5065C194.268 51.5065 156.448 39.5164 55.3276 39.5164V247.418H194.268Z" fill="#F0F0F0"/>
<path d="M205.085 71.7507C204.569 71.789 204.06 71.6257 203.668 71.2967C203.276 70.9677 203.034 70.5001 202.994 69.9966C202.955 69.4931 203.122 68.9951 203.459 68.612C203.796 68.2289 204.274 67.9922 204.789 67.954C242.698 62.8494 280.916 60.2491 319.182 60.1707C319.697 60.1707 320.191 60.3707 320.556 60.7267C320.92 61.0827 321.125 61.5655 321.125 62.069C321.125 62.5725 320.92 63.0554 320.556 63.4114C320.191 63.7674 319.697 63.9674 319.182 63.9674C281.113 64.0523 243.092 66.6451 205.38 71.7279C205.282 71.7431 205.184 71.7507 205.085 71.7507Z" fill="#E6E6E6"/>
<path d="M205.085 85.8063C204.57 85.8375 204.063 85.6674 203.676 85.3335C203.289 84.9996 203.054 84.5291 203.022 84.0256C202.99 83.5222 203.164 83.0269 203.506 82.6488C203.847 82.2707 204.329 82.0408 204.844 82.0096C205.419 81.9412 263.023 74.9476 319.182 74.9476C319.698 74.9476 320.192 75.1476 320.556 75.5037C320.92 75.8597 321.125 76.3425 321.125 76.846C321.125 77.3495 320.92 77.8323 320.556 78.1884C320.192 78.5444 319.698 78.7444 319.182 78.7444C263.272 78.7444 205.901 85.7076 205.326 85.7759L205.085 85.8063Z" fill="#E6E6E6"/>
<path d="M205.085 99.8922C204.569 99.9174 204.065 99.7415 203.683 99.4033C203.3 99.0651 203.071 98.5923 203.045 98.0888C203.019 97.5853 203.199 97.0924 203.545 96.7186C203.891 96.3448 204.375 96.1207 204.89 96.0955C205.52 96.0272 268.649 89.7397 319.182 89.7397C319.697 89.7397 320.191 89.9398 320.556 90.2958C320.92 90.6518 321.125 91.1346 321.125 91.6381C321.125 92.1416 320.92 92.6245 320.556 92.9805C320.191 93.3365 319.697 93.5365 319.182 93.5365C268.851 93.5365 205.916 99.8087 205.287 99.8695L205.085 99.8922Z" fill="#E6E6E6"/>
<path d="M205.085 113.97C204.569 113.992 204.067 113.812 203.687 113.471C203.307 113.13 203.082 112.655 203.06 112.152C203.039 111.648 203.223 111.157 203.572 110.786C203.921 110.415 204.406 110.195 204.921 110.174C205.613 110.121 274.275 104.532 319.151 104.532C319.666 104.532 320.16 104.732 320.525 105.088C320.889 105.444 321.094 105.927 321.094 106.43C321.094 106.934 320.889 107.416 320.525 107.772C320.16 108.128 319.666 108.328 319.151 108.328C274.407 108.328 205.908 113.902 205.217 113.963L205.085 113.97Z" fill="#E6E6E6"/>
<path d="M205.085 128.041C204.569 128.058 204.068 127.875 203.692 127.531C203.315 127.187 203.093 126.711 203.076 126.207C203.058 125.704 203.246 125.214 203.598 124.846C203.95 124.478 204.437 124.261 204.952 124.244C205.73 124.199 279.893 119.309 319.182 119.309C319.697 119.309 320.191 119.509 320.556 119.865C320.92 120.221 321.125 120.703 321.125 121.207C321.125 121.71 320.92 122.193 320.556 122.549C320.191 122.905 319.697 123.105 319.182 123.105C280.025 123.105 205.963 127.988 205.217 128.034L205.085 128.041Z" fill="#E6E6E6"/>
<path d="M205.085 142.112C204.569 142.125 204.07 141.938 203.696 141.591C203.322 141.244 203.105 140.766 203.091 140.263C203.078 139.759 203.27 139.271 203.625 138.906C203.98 138.541 204.468 138.328 204.984 138.315C205.761 138.277 285.512 134.086 319.213 134.086C319.728 134.086 320.223 134.286 320.587 134.642C320.951 134.998 321.156 135.48 321.156 135.984C321.156 136.487 320.951 136.97 320.587 137.326C320.223 137.682 319.728 137.882 319.213 137.882C285.644 137.882 206.025 142.066 205.225 142.112H205.085Z" fill="#E6E6E6"/>
<path d="M205.085 156.183C204.57 156.193 204.071 156.002 203.7 155.653C203.328 155.305 203.114 154.826 203.103 154.322C203.093 153.819 203.288 153.332 203.645 152.969C204.002 152.606 204.492 152.396 205.007 152.386C205.862 152.386 291.122 148.863 319.182 148.863C319.698 148.863 320.192 149.063 320.556 149.419C320.92 149.775 321.125 150.257 321.125 150.761C321.125 151.264 320.92 151.747 320.556 152.103C320.192 152.459 319.698 152.659 319.182 152.659C291.208 152.659 206.025 156.145 205.17 156.183H205.085Z" fill="#E6E6E6"/>
<path d="M205.085 170.253C204.83 170.257 204.576 170.212 204.339 170.12C204.102 170.029 203.885 169.892 203.702 169.719C203.519 169.545 203.372 169.338 203.271 169.11C203.169 168.881 203.115 168.635 203.111 168.385C203.107 168.136 203.153 167.888 203.247 167.657C203.341 167.425 203.481 167.213 203.658 167.034C203.836 166.855 204.047 166.712 204.282 166.613C204.516 166.514 204.768 166.461 205.023 166.457C205.94 166.457 296.717 163.632 319.182 163.632C319.697 163.632 320.192 163.832 320.556 164.188C320.92 164.544 321.125 165.027 321.125 165.53C321.125 166.034 320.92 166.517 320.556 166.873C320.192 167.229 319.697 167.429 319.182 167.429C296.803 167.429 206.064 170.223 205.147 170.246L205.085 170.253Z" fill="#E6E6E6"/>
<path d="M205.085 184.332C204.57 184.337 204.073 184.141 203.705 183.789C203.337 183.437 203.128 182.956 203.123 182.452C203.118 181.949 203.317 181.464 203.678 181.104C204.039 180.745 204.531 180.54 205.046 180.535C206.017 180.535 302.351 178.416 319.182 178.416C319.697 178.416 320.192 178.616 320.556 178.972C320.92 179.328 321.125 179.811 321.125 180.315C321.125 180.818 320.92 181.301 320.556 181.657C320.192 182.013 319.697 182.213 319.182 182.213C302.397 182.213 206.103 184.309 205.131 184.332H205.085Z" fill="#E6E6E6"/>
<path d="M205.085 198.402C204.57 198.402 204.075 198.202 203.711 197.846C203.347 197.49 203.142 197.007 203.142 196.504C203.142 196.001 203.347 195.518 203.711 195.162C204.075 194.806 204.57 194.606 205.085 194.606C206.111 194.606 307.985 193.193 319.205 193.193C319.721 193.193 320.215 193.393 320.579 193.749C320.943 194.105 321.148 194.588 321.148 195.092C321.148 195.595 320.943 196.078 320.579 196.434C320.215 196.79 319.721 196.99 319.205 196.99C308.016 196.99 206.165 198.387 205.139 198.402H205.085Z" fill="#E6E6E6"/>
<path d="M205.085 212.473C204.57 212.473 204.075 212.273 203.711 211.917C203.347 211.561 203.142 211.078 203.142 210.575C203.142 210.071 203.347 209.588 203.711 209.232C204.075 208.876 204.57 208.676 205.085 208.676C206.165 208.676 313.579 207.97 319.19 207.97C319.705 207.97 320.199 208.17 320.564 208.526C320.928 208.882 321.133 209.365 321.133 209.868C321.133 210.372 320.928 210.855 320.564 211.211C320.199 211.567 319.705 211.767 319.19 211.767C313.595 211.767 206.188 212.465 205.108 212.473H205.085Z" fill="#E6E6E6"/>
<path d="M319.182 226.544H205.085C204.57 226.544 204.075 226.344 203.711 225.988C203.347 225.632 203.142 225.149 203.142 224.645C203.142 224.142 203.347 223.659 203.711 223.303C204.075 222.947 204.57 222.747 205.085 222.747H319.182C319.697 222.747 320.192 222.947 320.556 223.303C320.92 223.659 321.125 224.142 321.125 224.645C321.125 225.149 320.92 225.632 320.556 225.988C320.192 226.344 319.697 226.544 319.182 226.544Z" fill="#E6E6E6"/>
<path d="M183.451 71.7508C183.966 71.789 184.476 71.6257 184.868 71.2968C185.26 70.9678 185.502 70.5001 185.541 69.9967C185.58 69.4932 185.413 68.9951 185.076 68.612C184.74 68.229 184.261 67.9923 183.746 67.954C145.837 62.8571 107.619 60.2644 69.3533 60.1935C68.8381 60.1935 68.344 60.3935 67.9796 60.7495C67.6153 61.1055 67.4106 61.5884 67.4106 62.0919C67.4106 62.5953 67.6153 63.0782 67.9796 63.4342C68.344 63.7902 68.8381 63.9902 69.3533 63.9902C107.422 64.0676 145.442 66.6527 183.155 71.728C183.253 71.7431 183.352 71.7507 183.451 71.7508Z" fill="#E0E0E0"/>
<path d="M183.451 85.8063C183.966 85.8375 184.473 85.6674 184.86 85.3335C185.247 84.9996 185.482 84.5291 185.514 84.0256C185.546 83.5222 185.372 83.0269 185.03 82.6488C184.688 82.2707 184.207 82.0408 183.692 82.0096C183.117 81.9412 125.512 74.9476 69.3533 74.9476C68.8381 74.9476 68.344 75.1476 67.9796 75.5037C67.6153 75.8597 67.4106 76.3425 67.4106 76.846C67.4106 77.3495 67.6153 77.8323 67.9796 78.1884C68.344 78.5444 68.8381 78.7444 69.3533 78.7444C125.264 78.7444 182.635 85.7076 183.21 85.7759L183.451 85.8063Z" fill="#E0E0E0"/>
<path d="M183.451 99.8922C183.966 99.9174 184.47 99.7415 184.853 99.4033C185.235 99.0651 185.465 98.5923 185.491 98.0888C185.516 97.5853 185.336 97.0924 184.99 96.7186C184.644 96.3448 184.16 96.1207 183.645 96.0955C183.016 96.0272 119.886 89.7397 69.3533 89.7397C68.8381 89.7397 68.344 89.9398 67.9796 90.2958C67.6153 90.6518 67.4106 91.1346 67.4106 91.6381C67.4106 92.1416 67.6153 92.6245 67.9796 92.9805C68.344 93.3365 68.8381 93.5365 69.3533 93.5365C119.684 93.5365 182.619 99.8087 183.249 99.8695L183.451 99.8922Z" fill="#E0E0E0"/>
<path d="M183.451 113.97C183.966 113.992 184.469 113.812 184.848 113.471C185.228 113.13 185.454 112.655 185.475 112.152C185.497 111.648 185.313 111.157 184.964 110.786C184.615 110.415 184.129 110.195 183.614 110.174C182.922 110.121 114.26 104.532 69.3846 104.532C68.8693 104.532 68.3752 104.732 68.0109 105.088C67.6466 105.444 67.4419 105.927 67.4419 106.43C67.4419 106.934 67.6466 107.416 68.0109 107.772C68.3752 108.128 68.8693 108.328 69.3846 108.328C114.128 108.328 182.627 113.902 183.319 113.963L183.451 113.97Z" fill="#E0E0E0"/>
<path d="M183.451 128.041C183.706 128.05 183.96 128.009 184.199 127.921C184.438 127.834 184.657 127.701 184.844 127.531C185.03 127.36 185.181 127.156 185.286 126.929C185.392 126.702 185.451 126.457 185.459 126.207C185.468 125.958 185.426 125.709 185.337 125.476C185.247 125.242 185.111 125.028 184.937 124.846C184.763 124.664 184.554 124.517 184.321 124.414C184.089 124.31 183.838 124.253 183.583 124.244C182.806 124.199 108.642 119.309 69.3533 119.309C68.8381 119.309 68.344 119.509 67.9796 119.865C67.6153 120.221 67.4106 120.703 67.4106 121.207C67.4106 121.71 67.6153 122.193 67.9796 122.549C68.344 122.905 68.8381 123.105 69.3533 123.105C108.51 123.105 182.573 127.988 183.319 128.034L183.451 128.041Z" fill="#E0E0E0"/>
<path d="M183.451 142.112C183.966 142.125 184.466 141.938 184.84 141.591C185.213 141.244 185.431 140.766 185.444 140.263C185.458 139.759 185.266 139.271 184.911 138.906C184.556 138.541 184.067 138.328 183.552 138.315C182.775 138.277 103.024 134.086 69.3226 134.086C68.8073 134.086 68.3132 134.286 67.9489 134.642C67.5846 134.998 67.3799 135.48 67.3799 135.984C67.3799 136.487 67.5846 136.97 67.9489 137.326C68.3132 137.682 68.8073 137.882 69.3226 137.882C102.892 137.882 182.511 142.066 183.311 142.112H183.451Z" fill="#E0E0E0"/>
<path d="M183.451 156.183C183.706 156.188 183.959 156.143 184.197 156.053C184.435 155.962 184.652 155.826 184.836 155.653C185.02 155.481 185.167 155.274 185.27 155.046C185.372 154.817 185.427 154.572 185.432 154.322C185.437 154.073 185.392 153.825 185.299 153.593C185.206 153.361 185.068 153.149 184.891 152.969C184.714 152.789 184.503 152.645 184.269 152.545C184.035 152.445 183.784 152.391 183.528 152.386C182.674 152.386 97.4134 148.863 69.3533 148.863C68.8381 148.863 68.344 149.063 67.9796 149.419C67.6153 149.775 67.4106 150.257 67.4106 150.761C67.4106 151.264 67.6153 151.747 67.9796 152.103C68.344 152.459 68.8381 152.659 69.3533 152.659C97.3279 152.659 182.51 156.145 183.365 156.183H183.451Z" fill="#E0E0E0"/>
<path d="M183.451 170.253C183.966 170.261 184.463 170.069 184.834 169.719C185.204 169.368 185.416 168.889 185.424 168.385C185.433 167.882 185.236 167.396 184.877 167.034C184.519 166.672 184.028 166.465 183.513 166.457C182.596 166.457 91.8185 163.632 69.3533 163.632C68.8381 163.632 68.344 163.832 67.9796 164.188C67.6153 164.544 67.4106 165.027 67.4106 165.53C67.4106 166.034 67.6153 166.517 67.9796 166.873C68.344 167.229 68.8381 167.429 69.3533 167.429C91.733 167.429 182.472 170.223 183.389 170.246L183.451 170.253Z" fill="#E0E0E0"/>
<path d="M183.451 184.332C183.966 184.332 184.46 184.132 184.825 183.776C185.189 183.42 185.394 182.937 185.394 182.433C185.394 181.93 185.189 181.447 184.825 181.091C184.46 180.735 183.966 180.535 183.451 180.535C182.48 180.535 86.1461 178.416 69.3147 178.416C68.7995 178.416 68.3054 178.616 67.9411 178.972C67.5767 179.328 67.3721 179.811 67.3721 180.315C67.3721 180.818 67.5767 181.301 67.9411 181.657C68.3054 182.013 68.7995 182.213 69.3147 182.213C86.0995 182.213 182.394 184.309 183.366 184.332H183.451Z" fill="#E0E0E0"/>
<path d="M183.451 198.402C183.966 198.402 184.46 198.202 184.825 197.846C185.189 197.49 185.394 197.007 185.394 196.504C185.394 196.001 185.189 195.518 184.825 195.162C184.46 194.806 183.966 194.606 183.451 194.606C182.425 194.606 80.5513 193.193 69.3304 193.193C68.8151 193.193 68.321 193.393 67.9567 193.749C67.5924 194.105 67.3877 194.588 67.3877 195.092C67.3877 195.595 67.5924 196.078 67.9567 196.434C68.321 196.79 68.8151 196.99 69.3304 196.99C80.5202 196.99 182.371 198.387 183.397 198.402H183.451Z" fill="#E0E0E0"/>
<path d="M183.451 212.473C183.966 212.473 184.461 212.273 184.825 211.917C185.189 211.561 185.394 211.078 185.394 210.575C185.394 210.071 185.189 209.588 184.825 209.232C184.461 208.876 183.966 208.676 183.451 208.676C182.371 208.676 74.9565 207.97 69.346 207.97C68.8308 207.97 68.3366 208.17 67.9723 208.526C67.608 208.882 67.4033 209.365 67.4033 209.868C67.4033 210.372 67.608 210.855 67.9723 211.211C68.3366 211.567 68.8308 211.767 69.346 211.767C74.9409 211.767 182.34 212.465 183.428 212.473H183.451Z" fill="#E0E0E0"/>
<path d="M69.3533 226.544H183.451C183.966 226.544 184.46 226.344 184.824 225.988C185.189 225.632 185.393 225.149 185.393 224.645C185.393 224.142 185.189 223.659 184.824 223.303C184.46 222.947 183.966 222.747 183.451 222.747H69.3533C68.8381 222.747 68.344 222.947 67.9796 223.303C67.6153 223.659 67.4106 224.142 67.4106 224.645C67.4106 225.149 67.6153 225.632 67.9796 225.988C68.344 226.344 68.8381 226.544 69.3533 226.544Z" fill="#E0E0E0"/>
<path d="M206.786 118.83L200.391 112.756L194.003 118.83V49.6158L206.786 47.3378V118.83Z" fill="#E0E0E0"/>
<path d="M194.268 282.903C277.479 282.903 344.934 279.054 344.934 274.307C344.934 269.559 277.479 265.711 194.268 265.711C111.057 265.711 43.6016 269.559 43.6016 274.307C43.6016 279.054 111.057 282.903 194.268 282.903Z" fill="#F5F5F5"/>
<path d="M58.6065 272.689C58.2974 272.689 58.0009 272.569 57.7823 272.356C57.5637 272.142 57.4409 271.852 57.4409 271.55V130.403C57.4356 121.753 60.1366 113.308 65.1819 106.2C70.2272 99.0931 77.3756 93.6629 85.6687 90.638C93.9617 87.6131 103.003 87.1381 111.58 89.2767C120.157 91.4153 127.86 96.0652 133.656 102.603C133.758 102.716 133.836 102.848 133.886 102.991C133.936 103.133 133.957 103.284 133.947 103.435C133.938 103.585 133.898 103.733 133.83 103.868C133.762 104.003 133.667 104.125 133.551 104.224C133.435 104.324 133.301 104.4 133.155 104.449C133.008 104.498 132.854 104.518 132.7 104.509C132.546 104.499 132.395 104.46 132.257 104.394C132.118 104.327 131.994 104.235 131.892 104.122C126.407 97.9403 119.12 93.5448 111.007 91.5241C102.894 89.5033 94.3427 89.954 86.4991 92.8157C78.6555 95.6773 71.8944 100.813 67.1216 107.535C62.3489 114.257 59.7927 122.244 59.7955 130.426V271.55C59.7955 271.702 59.7646 271.852 59.7045 271.992C59.6445 272.131 59.5566 272.258 59.4459 272.364C59.3351 272.47 59.2039 272.553 59.0598 272.609C58.9156 272.665 58.7616 272.692 58.6065 272.689Z" fill="#263238"/>
<path d="M83.8537 274.041H50.02L52.0637 268.634H81.81L83.8537 274.041Z" fill="black"/>
<path opacity="0.2" d="M83.8537 274.041H50.02L52.0637 268.634H81.81L83.8537 274.041Z" fill="white"/>
<path opacity="0.2" d="M83.8538 274.041H62.2979V268.634H81.8101L83.8538 274.041Z" fill="white"/>
<path d="M130.84 100.257L131.236 100.148C133.802 99.4381 136.551 99.7537 138.879 101.025C141.207 102.296 142.923 104.419 143.649 106.927L144.024 108.22L124.269 113.683L123.895 112.389C123.535 111.147 123.429 109.848 123.584 108.566C123.738 107.284 124.149 106.044 124.794 104.917C125.439 103.79 126.305 102.799 127.342 101.999C128.38 101.2 129.568 100.608 130.84 100.257Z" fill="#263238"/>
<path opacity="0.2" d="M143.696 107.129L144.015 108.23L124.262 113.697L123.943 112.596C123.208 110.039 123.542 107.301 124.871 104.983C126.199 102.666 128.414 100.958 131.03 100.234C131.763 100.035 132.516 99.9131 133.276 99.8695C135.6 99.7475 137.899 100.402 139.792 101.725C141.686 103.049 143.063 104.962 143.696 107.152V107.129Z" fill="white"/>
<path opacity="0.2" d="M143.696 107.129L144.014 108.23L131.395 111.723L131.076 110.622C129.74 106.02 130.734 101.593 133.275 99.8466C135.6 99.7246 137.898 100.379 139.792 101.702C141.686 103.026 143.062 104.939 143.696 107.129Z" fill="white"/>
<path d="M219.911 164.361C219.236 163.97 218.645 163.454 218.171 162.842C216.881 161.118 216.446 152.857 214.285 150.693C213.904 150.313 212.436 149.812 210.276 149.242C203.352 147.435 189.295 144.959 181.213 143.593L180.25 143.426V137.442L181.027 137.662C188.253 139.636 203.08 143.737 211.239 146.501C214.309 147.534 216.422 148.361 216.85 148.779C218.404 150.366 220.432 159.592 221.24 163.434C221.271 163.599 221.253 163.769 221.189 163.924C221.125 164.079 221.016 164.213 220.877 164.31C220.738 164.407 220.573 164.464 220.402 164.473C220.231 164.482 220.06 164.443 219.911 164.361Z" fill="#263238"/>
<path opacity="0.4" d="M211.255 146.486L210.268 149.212C203.344 147.404 189.287 144.929 181.205 143.562L180.809 138.657C180.792 138.412 180.826 138.167 180.91 137.935C180.948 137.837 180.992 137.74 181.042 137.647C188.269 139.621 203.095 143.76 211.255 146.486Z" fill="white"/>
<path d="M180.281 137.442L178.866 137.055C178.602 136.986 179.558 135.263 179.558 135.263L175.789 136.584C175.558 136.66 175.358 136.807 175.218 137.002C175.078 137.197 175.006 137.431 175.012 137.67L175.09 141.626C175.095 141.889 175.194 142.143 175.37 142.342C175.546 142.542 175.788 142.675 176.053 142.719L180.265 143.418L180.281 137.442Z" fill="#263238"/>
<path opacity="0.1" d="M179.504 135.24C179.17 135.575 178.743 135.808 178.276 135.908C177.248 136.22 176.251 136.624 175.3 137.115C175.004 137.358 175.3 141.474 175.3 141.869C175.3 142.264 178.905 142.742 178.905 142.742L178.812 137.032L179.504 135.24Z" fill="white"/>
<path opacity="0.1" d="M178.726 136.143C177.641 136.463 176.575 136.841 175.533 137.275C175.492 137.78 175.492 138.288 175.533 138.794C175.533 138.794 175.937 137.799 176.31 138.034C176.683 138.27 176.496 138.953 177.196 138.794C177.895 138.634 178.26 139.454 178.26 139.454C178.26 139.454 178.128 136.683 178.726 136.143Z" fill="white"/>
<path d="M309.919 148.786C307.984 146.767 268.828 136.204 268.828 136.204C268.828 136.204 264.787 135.004 262.914 134.594L262.308 142.347H267.748C267.748 142.347 305.187 148.498 307.339 150.7C309.492 152.902 309.919 161.141 311.225 162.85C311.666 163.42 312.205 163.91 312.818 164.3C312.979 164.399 313.166 164.45 313.357 164.445C313.547 164.441 313.732 164.383 313.888 164.277C314.045 164.171 314.166 164.022 314.237 163.849C314.308 163.677 314.325 163.487 314.286 163.305C313.447 159.349 311.419 150.351 309.919 148.786Z" fill="#263238"/>
<path d="M217.013 140.168C217.149 141.963 217.047 143.767 216.71 145.536C216.158 147.685 214.596 148.065 212.902 151.034C211.208 154.003 215.723 138.421 217.013 140.168Z" fill="#263238"/>
<path d="M229.694 139.955C230.542 141.686 231.186 143.505 231.614 145.377C231.956 147.549 230.541 147.928 230.06 150.92C229.578 153.912 227.682 138.201 229.694 139.955Z" fill="#263238"/>
<path d="M265.556 136.204C265.53 135.896 265.405 135.603 265.199 135.369C265.004 135.171 260.272 130.501 246.837 130.501C234.574 130.501 227.759 135.058 227.472 135.293C227.425 135.331 227.379 135.392 227.332 135.437C225.871 134.534 222.297 133.007 217.665 135.437C217.627 135.373 217.58 135.314 217.525 135.263C217.285 135.065 211.503 130.471 199.249 130.471C185.805 130.471 180.032 135.141 179.822 135.338C179.565 135.564 179.375 135.852 179.27 136.174C179.19 136.419 179.156 136.676 179.169 136.933L180.514 154.474C180.972 160.443 184.562 164.604 189.248 164.604H197.718C203.934 164.604 209.933 159.402 212.692 151.642C212.692 151.642 217.269 140.419 217.448 140.312C222.6 137.153 226.26 140.13 226.407 140.259C226.555 140.388 228.669 151.649 228.669 151.649C229.679 159.41 234.528 164.611 240.721 164.611H249.191C253.854 164.611 258.415 160.45 260.21 154.482L265.51 136.941C265.571 136.7 265.587 136.45 265.556 136.204ZM229.485 137.776C229.59 137.427 229.83 137.13 230.153 136.948C235.261 134.63 240.84 133.472 246.471 133.562C255.244 133.562 260.078 135.635 262.207 136.91C262.341 137.002 262.453 137.122 262.534 137.261C262.614 137.4 262.662 137.556 262.673 137.715C262.712 137.97 262.691 138.229 262.611 138.475L257.949 153.806C256.566 158.4 253.061 161.627 249.455 161.627H240.985C235.825 161.627 231.754 157.246 230.883 150.799L229.329 138.604C229.307 138.319 229.36 138.034 229.485 137.776ZM181.749 137.715C181.861 137.377 182.096 137.09 182.41 136.91C184.826 135.635 190.126 133.562 198.907 133.562C206.934 133.562 212.063 135.65 214.448 136.948C214.591 137.039 214.71 137.161 214.796 137.305C214.883 137.449 214.934 137.61 214.946 137.776C214.986 138.05 214.957 138.329 214.86 138.588L210.586 150.776C208.294 157.23 203.227 161.612 198.068 161.612H189.597C185.992 161.612 183.21 158.385 182.86 153.791L181.687 138.459C181.66 138.21 181.681 137.957 181.749 137.715Z" fill="#263238"/>
<path d="M264.709 136.47C264.682 136.167 264.554 135.882 264.344 135.657C264.15 135.46 259.41 130.912 245.974 130.912C233.712 130.912 226.913 135.384 226.625 135.574C226.574 135.618 226.528 135.667 226.485 135.718C225.016 134.845 221.442 133.349 216.818 135.718L216.678 135.551C216.438 135.361 210.641 130.889 198.386 130.889C184.943 130.889 179.177 135.445 178.959 135.635C178.702 135.85 178.511 136.132 178.408 136.447C178.327 136.692 178.295 136.95 178.314 137.207L179.705 154.299C180.179 160.116 183.785 164.171 188.471 164.171H196.941C203.157 164.171 209.141 159.106 211.876 151.543C211.876 151.543 216.422 140.601 216.593 140.502C221.745 137.427 225.413 140.327 225.56 140.457C225.708 140.586 227.853 151.543 227.853 151.543C228.886 159.137 233.743 164.171 239.944 164.171H248.414C253.077 164.171 257.622 160.116 259.402 154.299L264.647 137.207C264.718 136.968 264.739 136.717 264.709 136.47ZM228.638 137.989C228.75 137.646 228.992 137.358 229.314 137.184C234.435 134.913 240.009 133.785 245.632 133.881C254.405 133.881 259.246 135.908 261.376 137.146C261.506 137.231 261.617 137.343 261.699 137.474C261.78 137.605 261.832 137.753 261.85 137.905C261.887 138.16 261.866 138.419 261.787 138.665L257.211 153.601C255.843 158.073 252.346 161.194 248.733 161.194H240.263C235.103 161.194 231.023 156.927 230.161 150.647L228.544 138.771C228.512 138.509 228.544 138.244 228.638 137.996V137.989ZM180.91 137.928C181.028 137.607 181.26 137.338 181.563 137.169C183.979 135.931 189.271 133.903 198.052 133.903C206.079 133.903 211.216 135.938 213.594 137.207C213.737 137.292 213.857 137.41 213.945 137.55C214.033 137.69 214.085 137.848 214.099 138.011C214.139 138.28 214.109 138.554 214.013 138.809L209.716 150.677C207.439 156.965 202.388 161.232 197.228 161.232H188.828C185.223 161.232 182.433 158.089 182.068 153.639L180.848 138.702C180.816 138.445 180.837 138.185 180.91 137.936V137.928Z" fill="#263238"/>
<path opacity="0.1" d="M217.27 139.447C217.27 139.447 217.837 137.168 217.596 136.523C217.355 135.878 219.531 135.08 220.821 135.042C221.582 134.94 222.356 135.003 223.09 135.225C223.292 135.392 222.08 135.179 221.279 135.855C220.479 136.531 221.334 137.077 220.378 137.692C219.422 138.307 219.935 138.383 219.686 138.573C218.899 138.91 218.092 139.201 217.27 139.447Z" fill="white"/>
<path opacity="0.1" d="M213.804 134.329C213.804 134.329 208.776 131.2 197.586 131.2C186.396 131.2 180.18 135.179 179.239 136.204C178.299 137.229 178.82 139.295 179.496 147.131C180.172 154.968 180.413 159.091 183.941 161.612C183.941 161.612 181.384 157.565 181.555 156.023C181.726 154.482 180.871 150.207 180.576 145.164C180.281 140.122 179.651 137.153 180.576 136.576C181.501 135.999 186.21 132.924 194.851 132.612C203.492 132.301 208.108 134.283 209.009 133.888C209.91 133.493 212.18 134.435 212.716 134.435C213.081 134.429 213.445 134.394 213.804 134.329Z" fill="white"/>
<g opacity="0.4">
<path d="M197.213 161.802H188.743C185.021 161.802 182.177 158.514 181.812 153.806L180.638 138.475C180.624 138.197 180.661 137.919 180.747 137.655C180.881 137.267 181.158 136.942 181.524 136.743C183.917 135.483 189.248 133.372 198.115 133.372C206.258 133.372 211.418 135.513 213.773 136.781C213.943 136.884 214.087 137.025 214.191 137.193C214.295 137.361 214.356 137.55 214.371 137.746C214.417 138.05 214.385 138.36 214.278 138.649L209.942 150.799C207.587 157.398 202.482 161.802 197.213 161.802ZM198.091 133.752C189.31 133.752 184.042 135.832 181.687 137.078C181.411 137.232 181.208 137.485 181.12 137.784C181.043 137.995 181.011 138.22 181.027 138.444L182.2 153.776C182.542 158.279 185.238 161.422 188.743 161.422H197.213C202.311 161.422 207.268 157.117 209.545 150.708L213.881 138.558C213.973 138.316 214 138.054 213.959 137.799C213.951 137.662 213.911 137.528 213.843 137.409C213.774 137.289 213.678 137.186 213.563 137.108C211.239 135.863 206.142 133.752 198.091 133.752Z" fill="white"/>
<path d="M248.663 161.802H240.193C234.917 161.802 230.791 157.382 229.92 150.806L228.366 138.611C228.325 138.306 228.363 137.995 228.475 137.708C228.599 137.311 228.879 136.978 229.252 136.781C234.391 134.439 240.01 133.273 245.679 133.372C254.538 133.372 259.402 135.483 261.516 136.751C261.675 136.857 261.808 136.997 261.905 137.16C262.002 137.322 262.06 137.505 262.076 137.692C262.113 137.968 262.089 138.247 262.006 138.513L257.343 153.844C255.96 158.529 252.393 161.802 248.663 161.802ZM245.648 133.751C240.04 133.653 234.483 134.806 229.4 137.123C229.117 137.276 228.907 137.533 228.817 137.837C228.72 138.078 228.688 138.339 228.724 138.596L230.278 150.791C231.117 157.17 235.088 161.422 240.162 161.422H248.663C252.191 161.422 255.61 158.263 256.97 153.737L261.633 138.406C261.7 138.193 261.719 137.967 261.687 137.746C261.679 137.614 261.642 137.486 261.577 137.37C261.513 137.255 261.423 137.155 261.314 137.077C259.239 135.832 254.445 133.751 245.679 133.751H245.648Z" fill="white"/>
</g>
<path opacity="0.1" d="M226.905 136.007C226.431 136.424 226.641 136.941 226.68 138.042C226.679 138.81 226.579 139.575 226.384 140.32C226.384 140.32 228.669 152.819 229.042 153.813C229.415 154.808 229.617 154.39 229.749 154.231C229.881 154.072 230.65 155.271 230.65 155.271C229.628 151.882 228.951 148.403 228.63 144.883C227.931 138.353 227.659 137.427 228.109 136.789C228.56 136.151 234.155 133.706 238.895 133.182C243.562 132.682 248.27 132.682 252.937 133.182C256.27 133.653 256.387 132.597 256.9 132.81C257.539 132.975 258.197 133.064 258.858 133.076C258.858 133.076 249.759 130.312 240.208 131.557C230.658 132.802 226.905 136.007 226.905 136.007Z" fill="white"/>
<path d="M241.39 138.148C242.882 135.43 241.141 136.576 239.975 138.353C238.81 140.13 234.481 154.649 235.227 157.99C234.313 156.216 233.274 154.506 232.119 152.872C231.762 152.484 231.389 150.472 231.062 148.05C230.767 145.855 230.511 143.327 230.34 141.345C230.2 139.644 230.114 138.353 230.138 138.034C230.176 136.948 236.44 134.594 245.259 134.594C245.259 134.594 239.96 145.293 238.491 149.842C238.468 149.842 239.905 140.859 241.39 138.148Z" fill="white"/>
<path opacity="0.2" d="M231.039 148.073C230.744 145.878 230.487 143.35 230.316 141.368C230.894 142.663 231.329 144.015 231.614 145.4C231.76 146.329 231.555 147.279 231.039 148.073Z" fill="black"/>
<path opacity="0.1" d="M268.408 136.311C268.408 136.311 265.3 135.392 263.552 134.982V135.042C261.749 133.752 256.558 130.912 245.936 130.912C233.673 130.912 226.874 135.384 226.586 135.574C226.536 135.618 226.489 135.667 226.447 135.718C224.978 134.845 221.403 133.349 216.78 135.718C216.733 135.665 216.694 135.604 216.64 135.551C216.399 135.361 210.602 130.889 198.348 130.889C184.904 130.889 179.138 135.445 178.921 135.635C178.663 135.85 178.472 136.132 178.369 136.447C178.288 136.692 178.257 136.95 178.276 137.207L179.667 154.299C180.141 160.116 183.746 164.171 188.432 164.171H196.902C203.119 164.171 209.102 159.106 211.838 151.543C211.838 151.543 216.383 140.601 216.554 140.502C221.706 137.427 225.374 140.327 225.522 140.457C225.669 140.586 227.814 151.543 227.814 151.543C228.848 159.137 233.704 164.171 239.905 164.171H248.376C253.038 164.171 257.584 160.116 259.363 154.299L263.816 139.796L263.528 141.656H267.414C267.414 141.656 267.927 141.565 268.02 141.292C268.113 141.019 268.797 137.495 268.797 137.07C268.762 136.78 268.625 136.511 268.408 136.311ZM214.013 138.794L209.716 150.662C207.439 156.95 202.388 161.217 197.229 161.217H188.829C185.223 161.217 182.433 158.073 182.068 153.624L180.848 138.687C180.83 138.43 180.864 138.172 180.949 137.928C181.067 137.607 181.299 137.338 181.602 137.169C184.018 135.931 189.31 133.903 198.091 133.903C206.118 133.903 211.255 135.938 213.633 137.207C213.776 137.292 213.896 137.41 213.984 137.55C214.072 137.69 214.124 137.848 214.138 138.011C214.173 138.276 214.141 138.544 214.045 138.794H214.013ZM261.764 138.665L257.211 153.601C255.843 158.073 252.346 161.194 248.733 161.194H240.263C235.103 161.194 231.024 156.927 230.161 150.647L228.545 138.771C228.509 138.502 228.541 138.228 228.638 137.974C228.75 137.631 228.992 137.343 229.314 137.169C234.435 134.898 240.01 133.77 245.632 133.865C254.406 133.865 259.247 135.893 261.376 137.131C261.507 137.216 261.617 137.328 261.699 137.459C261.781 137.59 261.832 137.737 261.85 137.89C261.892 138.149 261.873 138.414 261.796 138.665H261.764Z" fill="white"/>
<path opacity="0.1" d="M264.204 135.642C264.74 135.931 264.849 136.121 264.701 137.009C264.554 137.897 264.204 139.401 264.204 139.401C264.204 139.401 264.445 138.376 265.362 138.429C266.277 138.489 267.194 138.355 268.051 138.034C268.214 137.829 268.455 136.918 268.315 136.834C268.175 136.751 265.984 135.961 265.362 135.802C264.984 135.705 264.595 135.652 264.204 135.642Z" fill="white"/>
<path d="M197.905 134.594C197.905 134.594 196.063 137.715 194.019 141.284C193.242 142.636 192.465 144.056 191.688 145.392C190.336 147.807 189.202 149.948 188.813 150.935C188.867 150.639 189.427 148.05 190.15 145.126C190.538 143.608 190.966 141.967 191.409 140.57C191.692 139.591 192.029 138.628 192.419 137.685C192.357 137.776 191.797 138.482 190.865 139.477C190.681 139.732 190.53 140.007 190.414 140.297C189.971 141.261 189.318 142.947 188.619 144.853C186.762 149.941 184.485 156.76 184.485 156.76C183.898 156.236 183.546 155.508 183.506 154.732C183.506 154.732 183.008 148.612 182.651 143.82C182.441 140.912 182.278 138.505 182.317 138.194C182.329 138.135 182.356 138.08 182.394 138.034C183.242 137.1 189.497 134.693 197.905 134.594Z" fill="white"/>
<path opacity="0.2" d="M190.468 140.267C190.025 141.231 189.372 142.917 188.673 144.823C186.536 144.451 184.516 144.063 182.705 143.79C182.495 140.882 182.332 138.474 182.371 138.163C182.383 138.105 182.41 138.05 182.449 138.004C184.702 138.649 187.484 139.424 190.468 140.267Z" fill="black"/>
<path opacity="0.2" d="M194.035 141.284C193.258 142.636 192.481 144.056 191.704 145.392L190.149 145.127C190.538 143.608 190.965 141.968 191.408 140.57L194.035 141.284Z" fill="black"/>
<path d="M182.285 229.262H229.096V209.42H182.285V229.262Z" fill="#407BFF"/>
<path opacity="0.8" d="M182.285 229.262H229.096V209.42H182.285V229.262Z" fill="white"/>
<path opacity="0.2" d="M225.335 211.365H182.278V209.428H225.297L225.335 211.365Z" fill="black"/>
<path opacity="0.2" d="M225.343 213.058L186.497 213.87L225.343 214.675V213.058Z" fill="black"/>
<path opacity="0.2" d="M225.343 220.393L184.205 221.077L225.343 221.646V220.393Z" fill="black"/>
<path opacity="0.2" d="M225.343 224.683L184.57 225.488L225.343 226.301V224.683Z" fill="black"/>
<path opacity="0.2" d="M182.278 215.883L221.722 217.052L182.278 217.857V215.883Z" fill="black"/>
<path d="M286.74 219.246C286.741 220.427 286.503 221.595 286.041 222.686C285.579 223.776 284.901 224.767 284.046 225.601C283.191 226.434 282.177 227.095 281.06 227.545C279.943 227.995 278.747 228.225 277.539 228.222H180.117C179.937 228.224 179.766 228.295 179.639 228.42C179.512 228.545 179.441 228.714 179.441 228.89V229.596C179.44 229.684 179.457 229.77 179.491 229.851C179.524 229.932 179.574 230.006 179.637 230.068C179.7 230.13 179.774 230.18 179.857 230.213C179.94 230.247 180.028 230.264 180.117 230.264H278.029C279.518 230.262 280.992 229.973 282.367 229.413C283.741 228.852 284.989 228.032 286.038 226.999C287.087 225.966 287.917 224.741 288.48 223.393C289.043 222.046 289.329 220.603 289.319 219.148C289.246 216.204 287.991 213.406 285.824 211.358C283.658 209.311 280.755 208.179 277.741 208.205H180.117C179.938 208.205 179.766 208.275 179.639 208.399C179.513 208.523 179.441 208.691 179.441 208.866V209.58C179.44 209.667 179.457 209.754 179.491 209.835C179.524 209.916 179.574 209.99 179.637 210.052C179.7 210.114 179.774 210.163 179.857 210.197C179.94 210.231 180.028 210.248 180.117 210.248H277.251C279.722 210.239 282.099 211.176 283.872 212.858C285.645 214.539 286.675 216.833 286.74 219.246Z" fill="#263238"/>
<path opacity="0.4" d="M286.74 219.246C286.741 220.427 286.503 221.595 286.041 222.686C285.579 223.776 284.901 224.767 284.046 225.601C283.191 226.434 282.177 227.095 281.06 227.545C279.943 227.995 278.747 228.225 277.539 228.222H180.117C179.937 228.224 179.766 228.295 179.639 228.42C179.512 228.545 179.441 228.714 179.441 228.89V229.596C179.44 229.684 179.457 229.77 179.491 229.851C179.524 229.932 179.574 230.006 179.637 230.068C179.7 230.13 179.774 230.18 179.857 230.213C179.94 230.247 180.028 230.264 180.117 230.264H278.029C279.518 230.262 280.992 229.973 282.367 229.413C283.741 228.852 284.989 228.032 286.038 226.999C287.087 225.966 287.917 224.741 288.48 223.393C289.043 222.046 289.329 220.603 289.319 219.148C289.246 216.204 287.991 213.406 285.824 211.358C283.658 209.311 280.755 208.179 277.741 208.205H180.117C179.938 208.205 179.766 208.275 179.639 208.399C179.513 208.523 179.441 208.691 179.441 208.866V209.58C179.44 209.667 179.457 209.754 179.491 209.835C179.524 209.916 179.574 209.99 179.637 210.052C179.7 210.114 179.774 210.163 179.857 210.197C179.94 210.231 180.028 210.248 180.117 210.248H277.251C279.722 210.239 282.099 211.176 283.872 212.858C285.645 214.539 286.675 216.833 286.74 219.246Z" fill="white"/>
<path d="M322.29 219.361C322.294 220.667 322.034 221.962 321.526 223.171C321.017 224.379 320.269 225.478 319.324 226.403C318.38 227.329 317.258 228.063 316.023 228.564C314.788 229.065 313.464 229.323 312.126 229.323H225.351V209.428H312.126C314.822 209.428 317.407 210.475 319.313 212.337C321.219 214.2 322.29 216.726 322.29 219.361Z" fill="#407BFF"/>
<path opacity="0.7" d="M225.351 209.428V229.323H312.126C314.774 229.252 317.289 228.173 319.136 226.318C320.983 224.462 322.017 221.976 322.017 219.387C322.017 216.798 320.983 214.312 319.136 212.456C317.289 210.601 314.774 209.523 312.126 209.451L225.351 209.428Z" fill="white"/>
<path opacity="0.2" d="M225.343 214.675V213.058L311.846 213.741L225.343 214.675Z" fill="black"/>
<path opacity="0.2" d="M225.343 221.646V220.393L264.173 221.752L225.343 221.646Z" fill="black"/>
<path opacity="0.2" d="M225.343 226.301V224.683L287.951 225.617L225.343 226.301Z" fill="black"/>
<path opacity="0.2" d="M312.266 211.365C313.937 211.367 315.548 211.973 316.789 213.066C316.251 214.093 315.824 215.172 315.514 216.285L228.731 216.953L315.312 217.166C315.008 218.66 315.035 220.201 315.39 221.684L256.946 222.929L315.942 223.598C316.447 224.976 317.104 226.298 317.9 227.539C319.685 226.336 321.031 224.607 321.739 222.604C322.447 220.601 322.481 218.43 321.836 216.406C321.191 214.383 319.901 212.615 318.154 211.359C316.407 210.104 314.295 209.427 312.126 209.428H225.351V211.365H312.266Z" fill="black"/>
<path d="M321.49 219.246C321.489 220.427 321.25 221.595 320.787 222.685C320.323 223.775 319.645 224.765 318.789 225.599C317.934 226.432 316.919 227.093 315.803 227.543C314.686 227.993 313.49 228.224 312.282 228.222H223.882C223.702 228.224 223.53 228.295 223.404 228.42C223.277 228.545 223.206 228.714 223.206 228.89V229.596C223.205 229.684 223.222 229.77 223.255 229.851C223.289 229.932 223.338 230.006 223.401 230.068C223.464 230.13 223.539 230.18 223.622 230.213C223.704 230.247 223.793 230.264 223.882 230.264H312.795C314.284 230.264 315.758 229.975 317.133 229.415C318.508 228.854 319.755 228.034 320.804 227.001C321.853 225.967 322.682 224.742 323.244 223.394C323.806 222.046 324.089 220.603 324.078 219.148C324.004 216.204 322.749 213.406 320.583 211.358C318.416 209.311 315.513 208.179 312.499 208.205H223.913C223.734 208.205 223.562 208.275 223.435 208.399C223.308 208.523 223.237 208.691 223.237 208.866V209.58C223.236 209.667 223.253 209.754 223.286 209.835C223.32 209.916 223.37 209.99 223.432 210.052C223.495 210.114 223.57 210.163 223.653 210.197C223.735 210.231 223.824 210.248 223.913 210.248H312.018C314.486 210.243 316.858 211.182 318.628 212.863C320.398 214.544 321.425 216.835 321.49 219.246Z" fill="#263238"/>
<path d="M311.847 216.718V224.684L308.894 221.806L306.034 224.6V216.718H311.847Z" fill="#263238"/>
<path d="M315.685 253.205H189.341V273.077H315.685V253.205Z" fill="#407BFF"/>
<path opacity="0.7" d="M315.685 253.205H189.341V273.077H315.685V253.205Z" fill="white"/>
<path opacity="0.2" d="M315.693 258.459V256.842L229.182 257.518L315.693 258.459Z" fill="black"/>
<path opacity="0.2" d="M315.693 265.423V264.177L276.855 265.529L315.693 265.423Z" fill="black"/>
<path opacity="0.2" d="M315.693 270.077V268.467L253.077 269.401L315.693 270.077Z" fill="black"/>
<path opacity="0.2" d="M217.58 253.205L215.762 268.05L217.922 265.772C218.651 268.476 220.01 270.979 221.893 273.084C223.246 271.352 224.323 269.429 225.087 267.382L284.09 266.721L225.638 265.476C225.824 264.67 225.92 263.848 225.926 263.023C225.923 262.327 225.853 261.633 225.716 260.95L312.305 260.737L225.514 260.077C225.214 258.96 224.786 257.88 224.24 256.857C225.481 255.764 227.091 255.158 228.762 255.156H315.693V253.212L217.58 253.205Z" fill="black"/>
<path d="M219.538 263.023C219.543 265.407 220.515 267.692 222.241 269.376C223.967 271.06 226.307 272.006 228.747 272.006H317.146C317.236 272.005 317.325 272.021 317.408 272.054C317.49 272.087 317.566 272.135 317.63 272.197C317.693 272.258 317.744 272.331 317.778 272.412C317.813 272.493 317.83 272.579 317.83 272.667V273.365C317.83 273.453 317.813 273.539 317.778 273.62C317.744 273.7 317.693 273.774 317.63 273.835C317.566 273.897 317.49 273.945 317.408 273.978C317.325 274.011 317.236 274.027 317.146 274.026H179.605C178.116 274.027 176.641 273.74 175.266 273.181C173.891 272.622 172.643 271.802 171.594 270.769C170.545 269.736 169.715 268.511 169.154 267.163C168.592 265.815 168.309 264.372 168.322 262.917C168.395 259.972 169.65 257.173 171.816 255.125C173.982 253.076 176.886 251.942 179.9 251.967H317.146C317.236 251.966 317.325 251.982 317.408 252.015C317.49 252.048 317.566 252.096 317.63 252.158C317.693 252.219 317.744 252.292 317.778 252.373C317.813 252.454 317.83 252.54 317.83 252.627V253.341C317.83 253.429 317.813 253.515 317.778 253.596C317.744 253.676 317.693 253.75 317.63 253.811C317.566 253.873 317.49 253.921 317.408 253.954C317.325 253.987 317.236 254.003 317.146 254.002H229.019C226.546 253.999 224.171 254.941 222.399 256.627C220.628 258.312 219.601 260.608 219.538 263.023Z" fill="#407BFF"/>
<path opacity="0.4" d="M219.538 263.023C219.543 265.407 220.515 267.692 222.241 269.376C223.967 271.06 226.307 272.006 228.747 272.006H317.146C317.236 272.005 317.325 272.021 317.408 272.054C317.49 272.087 317.566 272.135 317.63 272.197C317.693 272.258 317.744 272.331 317.778 272.412C317.813 272.493 317.83 272.579 317.83 272.667V273.365C317.83 273.453 317.813 273.539 317.778 273.62C317.744 273.7 317.693 273.774 317.63 273.835C317.566 273.897 317.49 273.945 317.408 273.978C317.325 274.011 317.236 274.027 317.146 274.026H179.605C178.116 274.027 176.641 273.74 175.266 273.181C173.891 272.622 172.643 271.802 171.594 270.769C170.545 269.736 169.715 268.511 169.154 267.163C168.592 265.815 168.309 264.372 168.322 262.917C168.395 259.972 169.65 257.173 171.816 255.125C173.982 253.076 176.886 251.942 179.9 251.967H317.146C317.236 251.966 317.325 251.982 317.408 252.015C317.49 252.048 317.566 252.096 317.63 252.158C317.693 252.219 317.744 252.292 317.778 252.373C317.813 252.454 317.83 252.54 317.83 252.627V253.341C317.83 253.429 317.813 253.515 317.778 253.596C317.744 253.676 317.693 253.75 317.63 253.811C317.566 253.873 317.49 253.921 317.408 253.954C317.325 253.987 317.236 254.003 317.146 254.002H229.019C226.546 253.999 224.171 254.941 222.399 256.627C220.628 258.312 219.601 260.608 219.538 263.023Z" fill="black"/>
<path d="M219.538 263.023C219.542 265.407 220.514 267.692 222.241 269.376C223.967 271.06 226.307 272.006 228.746 272.006H317.146C317.236 272.005 317.324 272.021 317.407 272.054C317.49 272.087 317.566 272.135 317.629 272.197C317.693 272.258 317.743 272.331 317.778 272.412C317.812 272.493 317.83 272.579 317.83 272.667V273.365C317.83 273.453 317.812 273.539 317.778 273.62C317.743 273.7 317.693 273.774 317.629 273.835C317.566 273.897 317.49 273.945 317.407 273.978C317.324 274.011 317.236 274.027 317.146 274.026H228.241C226.752 274.026 225.277 273.738 223.902 273.179C222.528 272.62 221.279 271.8 220.23 270.767C219.18 269.735 218.35 268.51 217.788 267.162C217.225 265.815 216.94 264.372 216.95 262.917C217.024 259.972 218.279 257.173 220.445 255.125C222.611 253.076 225.515 251.942 228.529 251.967H317.115C317.204 251.966 317.293 251.982 317.376 252.015C317.459 252.048 317.534 252.096 317.598 252.158C317.662 252.219 317.712 252.292 317.747 252.373C317.781 252.454 317.799 252.54 317.799 252.627V253.341C317.799 253.429 317.781 253.515 317.747 253.596C317.712 253.676 317.662 253.75 317.598 253.811C317.534 253.873 317.459 253.921 317.376 253.954C317.293 253.987 317.204 254.003 317.115 254.002H229.018C226.546 253.999 224.17 254.941 222.399 256.627C220.628 258.312 219.601 260.608 219.538 263.023Z" fill="#407BFF"/>
<path d="M229.182 260.502V268.467L232.135 265.582L234.994 268.376V260.502H229.182Z" fill="#263238"/>
<path opacity="0.1" d="M219.538 263.023C219.542 265.407 220.514 267.692 222.241 269.376C223.967 271.06 226.307 272.006 228.746 272.006H317.146C317.236 272.005 317.324 272.021 317.407 272.054C317.49 272.087 317.566 272.135 317.629 272.197C317.693 272.258 317.743 272.331 317.778 272.412C317.812 272.493 317.83 272.579 317.83 272.667V273.365C317.83 273.453 317.812 273.539 317.778 273.62C317.743 273.7 317.693 273.774 317.629 273.835C317.566 273.897 317.49 273.945 317.407 273.978C317.324 274.011 317.236 274.027 317.146 274.026H228.241C226.752 274.026 225.277 273.738 223.902 273.179C222.528 272.62 221.279 271.8 220.23 270.767C219.18 269.735 218.35 268.51 217.788 267.162C217.225 265.815 216.94 264.372 216.95 262.917C217.024 259.972 218.279 257.173 220.445 255.125C222.611 253.076 225.515 251.942 228.529 251.967H317.115C317.204 251.966 317.293 251.982 317.376 252.015C317.459 252.048 317.534 252.096 317.598 252.158C317.662 252.219 317.712 252.292 317.747 252.373C317.781 252.454 317.799 252.54 317.799 252.627V253.341C317.799 253.429 317.781 253.515 317.747 253.596C317.712 253.676 317.662 253.75 317.598 253.811C317.534 253.873 317.459 253.921 317.376 253.954C317.293 253.987 317.204 254.003 317.115 254.002H229.018C226.546 253.999 224.17 254.941 222.399 256.627C220.628 258.312 219.601 260.608 219.538 263.023Z" fill="white"/>
<path opacity="0.1" d="M212.863 270.814C214.983 272.882 217.856 274.043 220.852 274.041H217.098C215.609 274.042 214.133 273.755 212.758 273.195C211.382 272.636 210.134 271.815 209.085 270.782C208.036 269.748 207.206 268.521 206.645 267.173C206.084 265.824 205.802 264.38 205.815 262.924C205.887 259.979 207.141 257.181 209.308 255.133C211.475 253.085 214.38 251.953 217.394 251.982H221.139C218.126 251.955 215.222 253.088 213.056 255.135C210.89 257.182 209.634 259.98 209.561 262.924C209.547 264.388 209.832 265.839 210.399 267.194C210.966 268.549 211.804 269.779 212.863 270.814Z" fill="white"/>
<path opacity="0.1" d="M205.364 270.814C207.485 272.88 210.358 274.041 213.353 274.041H209.599C208.11 274.042 206.634 273.755 205.259 273.195C203.883 272.636 202.635 271.816 201.586 270.782C200.536 269.748 199.707 268.522 199.146 267.173C198.585 265.824 198.303 264.38 198.316 262.924C198.39 259.98 199.645 257.182 201.811 255.135C203.978 253.088 206.881 251.955 209.895 251.982H213.64C210.623 251.949 207.713 253.079 205.542 255.127C203.371 257.175 202.112 259.976 202.039 262.924C202.028 264.39 202.316 265.842 202.888 267.197C203.459 268.552 204.301 269.781 205.364 270.814Z" fill="white"/>
<path d="M325.593 231.312H199.249V251.185H325.593V231.312Z" fill="#407BFF"/>
<path opacity="0.8" d="M325.593 231.312H199.249V251.185H325.593V231.312Z" fill="white"/>
<path opacity="0.2" d="M325.593 236.567V234.95L239.089 235.626L325.593 236.567Z" fill="black"/>
<path opacity="0.2" d="M325.593 243.53V242.285L286.755 243.644L325.593 243.53Z" fill="black"/>
<path opacity="0.2" d="M325.593 248.185V246.575L262.977 247.509L325.593 248.185Z" fill="black"/>
<path opacity="0.2" d="M227.496 231.312L225.662 246.127L227.822 243.849C228.556 246.553 229.918 249.055 231.8 251.162C233.149 249.43 234.223 247.51 234.986 245.467L293.99 244.799L235.538 243.553C235.89 242.07 235.919 240.53 235.624 239.035L322.205 238.822L235.453 238.177C235.144 237.063 234.717 235.984 234.178 234.957C235.418 233.863 237.03 233.256 238.701 233.256H325.593V231.312H227.496Z" fill="black"/>
<path d="M229.446 241.131C229.45 243.514 230.421 245.797 232.146 247.481C233.871 249.165 236.208 250.112 238.647 250.114H327.054C327.233 250.114 327.405 250.184 327.532 250.308C327.659 250.432 327.73 250.6 327.73 250.775V251.489C327.73 251.664 327.659 251.832 327.532 251.956C327.405 252.08 327.233 252.149 327.054 252.149H196.506C195.017 252.149 193.542 251.861 192.167 251.302C190.792 250.743 189.544 249.923 188.495 248.891C187.445 247.858 186.615 246.633 186.052 245.286C185.489 243.938 185.205 242.495 185.215 241.04C185.286 238.1 186.535 235.306 188.693 233.257C190.851 231.208 193.746 230.068 196.755 230.083H327.054C327.143 230.083 327.232 230.1 327.315 230.134C327.397 230.167 327.472 230.217 327.535 230.279C327.598 230.341 327.647 230.415 327.681 230.496C327.714 230.577 327.731 230.663 327.73 230.751V231.457C327.73 231.632 327.659 231.8 327.532 231.924C327.405 232.048 327.233 232.118 327.054 232.118H238.919C233.852 232.125 229.438 236.157 229.446 241.131Z" fill="#263238"/>
<path opacity="0.4" d="M229.446 241.131C229.45 243.514 230.421 245.797 232.146 247.481C233.871 249.165 236.208 250.112 238.647 250.114H327.054C327.233 250.114 327.405 250.184 327.532 250.308C327.659 250.432 327.73 250.6 327.73 250.775V251.489C327.73 251.664 327.659 251.832 327.532 251.956C327.405 252.08 327.233 252.149 327.054 252.149H196.506C195.017 252.149 193.542 251.861 192.167 251.302C190.792 250.743 189.544 249.923 188.495 248.891C187.445 247.858 186.615 246.633 186.052 245.286C185.489 243.938 185.205 242.495 185.215 241.04C185.286 238.1 186.535 235.306 188.693 233.257C190.851 231.208 193.746 230.068 196.755 230.083H327.054C327.143 230.083 327.232 230.1 327.315 230.134C327.397 230.167 327.472 230.217 327.535 230.279C327.598 230.341 327.647 230.415 327.681 230.496C327.714 230.577 327.731 230.663 327.73 230.751V231.457C327.73 231.632 327.659 231.8 327.532 231.924C327.405 232.048 327.233 232.118 327.054 232.118H238.919C233.852 232.125 229.438 236.157 229.446 241.131Z" fill="white"/>
<path d="M229.446 241.131C229.45 243.513 230.421 245.797 232.146 247.481C233.87 249.165 236.208 250.112 238.646 250.114H327.054C327.233 250.114 327.405 250.184 327.532 250.308C327.659 250.431 327.73 250.599 327.73 250.775V251.488C327.73 251.664 327.659 251.832 327.532 251.956C327.405 252.079 327.233 252.149 327.054 252.149H238.141C236.652 252.149 235.177 251.861 233.802 251.302C232.427 250.743 231.179 249.923 230.13 248.891C229.08 247.858 228.25 246.633 227.687 245.285C227.125 243.938 226.84 242.495 226.85 241.04C226.922 238.094 228.176 235.293 230.342 233.243C232.509 231.193 235.413 230.058 238.429 230.082H327.054C327.143 230.082 327.232 230.1 327.314 230.133C327.397 230.167 327.472 230.216 327.535 230.279C327.597 230.341 327.647 230.414 327.681 230.496C327.714 230.577 327.731 230.663 327.73 230.751V231.457C327.73 231.632 327.659 231.8 327.532 231.924C327.405 232.048 327.233 232.117 327.054 232.117H238.918C233.852 232.125 229.438 236.157 229.446 241.131Z" fill="#263238"/>
<path d="M246.091 235.778V243.751L249.044 240.865L251.903 243.66V235.778H246.091Z" fill="#407BFF"/>
<path opacity="0.6" d="M229.446 241.131C229.45 243.513 230.421 245.797 232.146 247.481C233.87 249.165 236.208 250.112 238.646 250.114H327.054C327.233 250.114 327.405 250.184 327.532 250.308C327.659 250.431 327.73 250.599 327.73 250.775V251.488C327.73 251.664 327.659 251.832 327.532 251.956C327.405 252.079 327.233 252.149 327.054 252.149H238.141C236.652 252.149 235.177 251.861 233.802 251.302C232.427 250.743 231.179 249.923 230.13 248.891C229.08 247.858 228.25 246.633 227.687 245.285C227.125 243.938 226.84 242.495 226.85 241.04C226.922 238.094 228.176 235.293 230.342 233.243C232.509 231.193 235.413 230.058 238.429 230.082H327.054C327.143 230.082 327.232 230.1 327.314 230.133C327.397 230.167 327.472 230.216 327.535 230.279C327.597 230.341 327.647 230.414 327.681 230.496C327.714 230.577 327.731 230.663 327.73 230.751V231.457C327.73 231.632 327.659 231.8 327.532 231.924C327.405 232.048 327.233 232.117 327.054 232.117H238.918C233.852 232.125 229.438 236.157 229.446 241.131Z" fill="white"/>
<path opacity="0.2" d="M222.755 235.937H193.903C193.168 236.544 192.578 237.3 192.173 238.152C191.768 239.004 191.558 239.933 191.558 240.873C191.558 241.813 191.768 242.741 192.173 243.594C192.578 244.446 193.168 245.202 193.903 245.809H222.755C220.89 243.318 220.89 238.435 222.755 235.937Z" fill="black"/>
<path d="M314.295 165.644H267.484V185.486H314.295V165.644Z" fill="#407BFF"/>
<path opacity="0.7" d="M314.295 165.644H267.484V185.486H314.295V165.644Z" fill="white"/>
<path opacity="0.2" d="M271.237 167.588H314.294V165.644H271.283L271.237 167.588Z" fill="black"/>
<path opacity="0.2" d="M271.237 169.281L310.083 170.086L271.237 170.899V169.281Z" fill="black"/>
<path opacity="0.2" d="M271.237 176.617L312.375 177.293L271.237 177.862V176.617Z" fill="black"/>
<path opacity="0.2" d="M271.237 180.907L312.002 181.712L271.237 182.517V180.907Z" fill="black"/>
<path opacity="0.2" d="M314.294 172.106L274.858 173.268L314.294 174.073V172.106Z" fill="black"/>
<path d="M209.81 175.462C209.814 177.845 210.785 180.129 212.509 181.813C214.234 183.497 216.572 184.444 219.01 184.446H316.455C316.634 184.446 316.806 184.515 316.933 184.639C317.06 184.763 317.131 184.931 317.131 185.106V185.82C317.131 185.995 317.06 186.163 316.933 186.287C316.806 186.411 316.634 186.481 316.455 186.481H218.544C217.055 186.486 215.58 186.203 214.204 185.648C212.828 185.093 211.578 184.277 210.526 183.248C209.475 182.219 208.642 180.996 208.076 179.651C207.51 178.305 207.222 176.864 207.23 175.409C207.301 172.465 208.554 169.667 210.719 167.618C212.884 165.569 215.787 164.435 218.8 164.46H316.455C316.634 164.46 316.806 164.529 316.933 164.653C317.06 164.777 317.131 164.945 317.131 165.12V165.834C317.131 166.009 317.06 166.177 316.933 166.301C316.806 166.425 316.634 166.495 316.455 166.495H219.321C214.223 166.457 209.81 170.512 209.81 175.462Z" fill="#407BFF"/>
<path opacity="0.4" d="M209.81 175.462C209.814 177.845 210.785 180.129 212.509 181.813C214.234 183.497 216.572 184.444 219.01 184.446H316.455C316.634 184.446 316.806 184.515 316.933 184.639C317.06 184.763 317.131 184.931 317.131 185.106V185.82C317.131 185.995 317.06 186.163 316.933 186.287C316.806 186.411 316.634 186.481 316.455 186.481H218.544C217.055 186.486 215.58 186.203 214.204 185.648C212.828 185.093 211.578 184.277 210.526 183.248C209.475 182.219 208.642 180.996 208.076 179.651C207.51 178.305 207.222 176.864 207.23 175.409C207.301 172.465 208.554 169.667 210.719 167.618C212.884 165.569 215.787 164.435 218.8 164.46H316.455C316.634 164.46 316.806 164.529 316.933 164.653C317.06 164.777 317.131 164.945 317.131 165.12V165.834C317.131 166.009 317.06 166.177 316.933 166.301C316.806 166.425 316.634 166.495 316.455 166.495H219.321C214.223 166.457 209.81 170.512 209.81 175.462Z" fill="white"/>
<path d="M174.282 175.584C174.284 178.219 175.356 180.745 177.264 182.608C179.171 184.47 181.757 185.516 184.454 185.516H271.237V165.644H184.454C181.756 165.644 179.169 166.691 177.261 168.555C175.353 170.42 174.282 172.948 174.282 175.584Z" fill="#407BFF"/>
<path opacity="0.5" d="M271.237 165.644V185.516H184.446C181.798 185.445 179.283 184.367 177.436 182.511C175.589 180.655 174.555 178.169 174.555 175.58C174.555 172.992 175.589 170.505 177.436 168.649C179.283 166.794 181.798 165.716 184.446 165.644H271.237Z" fill="white"/>
<path opacity="0.2" d="M271.237 170.899V169.281L184.726 169.957L271.237 170.899Z" fill="black"/>
<path opacity="0.2" d="M271.237 177.862V176.617L232.399 177.976L271.237 177.862Z" fill="black"/>
<path opacity="0.2" d="M271.237 182.517V180.907L208.621 181.841L271.237 182.517Z" fill="black"/>
<path opacity="0.2" d="M184.306 167.588C182.637 167.592 181.028 168.195 179.783 169.281C180.328 170.309 180.758 171.391 181.065 172.509L267.849 173.169L181.268 173.382C181.4 174.065 181.471 174.759 181.477 175.455C181.47 176.278 181.371 177.098 181.182 177.9L239.633 179.153L180.63 179.821C180.126 181.201 179.47 182.522 178.672 183.762C176.888 182.558 175.545 180.828 174.838 178.826C174.131 176.823 174.097 174.652 174.742 172.629C175.386 170.606 176.676 168.837 178.421 167.581C180.167 166.324 182.278 165.646 184.446 165.644H271.237V167.588H184.306Z" fill="black"/>
<path d="M175.09 175.462C175.09 176.643 175.328 177.812 175.79 178.902C176.253 179.992 176.931 180.983 177.785 181.817C178.639 182.651 179.654 183.313 180.77 183.764C181.886 184.215 183.082 184.447 184.29 184.446H272.698C272.877 184.446 273.049 184.515 273.176 184.639C273.303 184.763 273.374 184.931 273.374 185.106V185.82C273.374 185.995 273.303 186.163 273.176 186.287C273.049 186.411 272.877 186.481 272.698 186.481H183.785C182.3 186.479 180.831 186.191 179.46 185.633C178.089 185.075 176.845 184.259 175.798 183.23C174.75 182.202 173.921 180.982 173.357 179.64C172.792 178.298 172.505 176.86 172.51 175.409C172.583 172.465 173.838 169.666 176.004 167.617C178.17 165.569 181.074 164.435 184.088 164.46H272.698C272.877 164.46 273.049 164.529 273.176 164.653C273.303 164.777 273.374 164.945 273.374 165.12V165.834C273.374 166.009 273.303 166.177 273.176 166.301C273.049 166.425 272.877 166.495 272.698 166.495H184.562C182.099 166.49 179.731 167.424 177.962 169.099C176.193 170.773 175.163 173.057 175.09 175.462Z" fill="#407BFF"/>
<path d="M184.726 172.942V180.907L187.678 178.022L190.538 180.816V172.942H184.726Z" fill="#263238"/>
<path d="M336.527 187.536H210.183V207.408H336.527V187.536Z" fill="#407BFF"/>
<path opacity="0.7" d="M336.527 187.536H210.183V207.408H336.527V187.536Z" fill="white"/>
<path opacity="0.2" d="M336.527 192.783V191.166L250.023 191.849L336.527 192.783Z" fill="black"/>
<path opacity="0.2" d="M336.527 199.754V198.509L297.696 199.86L336.527 199.754Z" fill="black"/>
<path opacity="0.2" d="M336.526 204.409V202.799L273.917 203.733L336.526 204.409Z" fill="black"/>
<path opacity="0.2" d="M238.429 187.559L236.595 202.374L238.755 200.096C239.49 202.799 240.851 205.302 242.734 207.408C244.081 205.673 245.155 203.751 245.92 201.706L304.931 201.045L246.48 199.8C246.661 198.991 246.758 198.167 246.767 197.339C246.761 196.646 246.691 195.955 246.557 195.274L333.139 195.061L246.332 194.393C246.023 193.277 245.596 192.195 245.058 191.166C246.299 190.075 247.91 189.472 249.58 189.473H336.527V187.559H238.429Z" fill="black"/>
<path d="M240.379 197.355C240.384 199.737 241.354 202.021 243.079 203.705C244.804 205.389 247.142 206.336 249.58 206.338H338.026C338.115 206.338 338.203 206.355 338.285 206.388C338.367 206.421 338.441 206.47 338.504 206.531C338.567 206.592 338.617 206.665 338.651 206.745C338.685 206.826 338.702 206.912 338.702 206.998V207.712C338.702 207.799 338.685 207.885 338.651 207.965C338.617 208.045 338.567 208.118 338.504 208.179C338.441 208.241 338.367 208.289 338.285 208.322C338.203 208.356 338.115 208.373 338.026 208.373H200.485C198.995 208.372 197.521 208.083 196.146 207.523C194.772 206.963 193.524 206.142 192.475 205.109C191.427 204.076 190.597 202.85 190.036 201.502C189.474 200.154 189.19 198.711 189.201 197.256C189.271 194.312 190.524 191.513 192.689 189.465C194.855 187.417 197.759 186.285 200.772 186.314H338.026C338.115 186.314 338.203 186.331 338.285 186.364C338.367 186.397 338.441 186.446 338.504 186.507C338.567 186.568 338.617 186.641 338.651 186.721C338.685 186.802 338.702 186.888 338.702 186.974V187.688C338.702 187.775 338.685 187.861 338.651 187.941C338.617 188.021 338.567 188.094 338.504 188.155C338.441 188.217 338.367 188.265 338.285 188.298C338.203 188.332 338.115 188.349 338.026 188.349H249.852C247.382 188.344 245.009 189.283 243.239 190.966C241.469 192.649 240.442 194.942 240.379 197.355Z" fill="#263238"/>
<path opacity="0.2" d="M240.379 197.355C240.384 199.737 241.354 202.021 243.079 203.705C244.804 205.389 247.142 206.336 249.58 206.338H338.026C338.115 206.338 338.203 206.355 338.285 206.388C338.367 206.421 338.441 206.47 338.504 206.531C338.567 206.592 338.617 206.665 338.651 206.745C338.685 206.826 338.702 206.912 338.702 206.998V207.712C338.702 207.799 338.685 207.885 338.651 207.965C338.617 208.045 338.567 208.118 338.504 208.179C338.441 208.241 338.367 208.289 338.285 208.322C338.203 208.356 338.115 208.373 338.026 208.373H200.485C198.995 208.372 197.521 208.083 196.146 207.523C194.772 206.963 193.524 206.142 192.475 205.109C191.427 204.076 190.597 202.85 190.036 201.502C189.474 200.154 189.19 198.711 189.201 197.256C189.271 194.312 190.524 191.513 192.689 189.465C194.855 187.417 197.759 186.285 200.772 186.314H338.026C338.115 186.314 338.203 186.331 338.285 186.364C338.367 186.397 338.441 186.446 338.504 186.507C338.567 186.568 338.617 186.641 338.651 186.721C338.685 186.802 338.702 186.888 338.702 186.974V187.688C338.702 187.775 338.685 187.861 338.651 187.941C338.617 188.021 338.567 188.094 338.504 188.155C338.441 188.217 338.367 188.265 338.285 188.298C338.203 188.332 338.115 188.349 338.026 188.349H249.852C247.382 188.344 245.009 189.283 243.239 190.966C241.469 192.649 240.442 194.942 240.379 197.355Z" fill="white"/>
<path d="M240.379 197.355C240.384 199.737 241.354 202.021 243.079 203.705C244.804 205.389 247.142 206.336 249.58 206.338H338.026C338.115 206.338 338.203 206.355 338.285 206.388C338.367 206.421 338.441 206.47 338.504 206.531C338.567 206.593 338.617 206.665 338.651 206.746C338.685 206.826 338.702 206.912 338.702 206.998V207.712C338.702 207.799 338.685 207.885 338.651 207.965C338.617 208.045 338.567 208.118 338.504 208.179C338.441 208.241 338.367 208.289 338.285 208.322C338.203 208.356 338.115 208.373 338.026 208.373H249.075C247.585 208.373 246.11 208.085 244.734 207.525C243.359 206.965 242.11 206.145 241.061 205.112C240.011 204.078 239.181 202.852 238.619 201.504C238.056 200.156 237.773 198.712 237.784 197.256C237.855 194.312 239.109 191.515 241.274 189.467C243.439 187.42 246.342 186.287 249.355 186.314H338.026C338.115 186.314 338.203 186.331 338.285 186.364C338.367 186.397 338.441 186.446 338.504 186.507C338.567 186.569 338.617 186.641 338.651 186.722C338.685 186.802 338.702 186.888 338.702 186.974V187.688C338.702 187.775 338.685 187.861 338.651 187.941C338.617 188.021 338.567 188.094 338.504 188.155C338.441 188.217 338.367 188.265 338.285 188.298C338.203 188.332 338.115 188.349 338.026 188.349H249.852C247.382 188.344 245.009 189.284 243.239 190.966C241.469 192.649 240.442 194.942 240.379 197.355Z" fill="#263238"/>
<path d="M250.023 194.833V202.799L252.976 199.914L255.835 202.708V194.833H250.023Z" fill="#407BFF"/>
<path opacity="0.4" d="M240.379 197.355C240.384 199.737 241.354 202.021 243.079 203.705C244.804 205.389 247.142 206.336 249.58 206.338H338.026C338.115 206.338 338.203 206.355 338.285 206.388C338.367 206.421 338.441 206.47 338.504 206.531C338.567 206.593 338.617 206.665 338.651 206.746C338.685 206.826 338.702 206.912 338.702 206.998V207.712C338.702 207.799 338.685 207.885 338.651 207.965C338.617 208.045 338.567 208.118 338.504 208.179C338.441 208.241 338.367 208.289 338.285 208.322C338.203 208.356 338.115 208.373 338.026 208.373H249.075C247.585 208.373 246.11 208.085 244.734 207.525C243.359 206.965 242.11 206.145 241.061 205.112C240.011 204.078 239.181 202.852 238.619 201.504C238.056 200.156 237.773 198.712 237.784 197.256C237.855 194.312 239.109 191.515 241.274 189.467C243.439 187.42 246.342 186.287 249.355 186.314H338.026C338.115 186.314 338.203 186.331 338.285 186.364C338.367 186.397 338.441 186.446 338.504 186.507C338.567 186.569 338.617 186.641 338.651 186.722C338.685 186.802 338.702 186.888 338.702 186.974V187.688C338.702 187.775 338.685 187.861 338.651 187.941C338.617 188.021 338.567 188.094 338.504 188.155C338.441 188.217 338.367 188.265 338.285 188.298C338.203 188.332 338.115 188.349 338.026 188.349H249.852C247.382 188.344 245.009 189.284 243.239 190.966C241.469 192.649 240.442 194.942 240.379 197.355Z" fill="white"/>
<path opacity="0.2" d="M207.478 205.138C208.526 206.165 209.771 206.979 211.142 207.534C212.513 208.089 213.982 208.374 215.466 208.373H207.967C206.478 208.372 205.004 208.083 203.629 207.523C202.255 206.963 201.007 206.142 199.958 205.109C198.91 204.076 198.08 202.85 197.518 201.502C196.957 200.154 196.673 198.711 196.684 197.256C196.754 194.312 198.007 191.513 200.172 189.465C202.338 187.417 205.242 186.285 208.255 186.314H215.746C212.733 186.287 209.831 187.42 207.665 189.467C205.5 191.515 204.247 194.312 204.175 197.256C204.161 198.718 204.446 200.169 205.013 201.522C205.58 202.876 206.418 204.105 207.478 205.138Z" fill="white"/>
<path d="M97.2117 122.566H112.427C113.663 122.566 114.849 123.046 115.724 123.901C116.598 124.755 117.089 125.914 117.089 127.122V140.031C117.089 141.24 116.598 142.398 115.724 143.253C114.849 144.107 113.663 144.587 112.427 144.587H111.735L112.458 148.118L108.573 144.587H97.2117C95.9752 144.587 94.7893 144.107 93.9149 143.253C93.0405 142.398 92.5493 141.24 92.5493 140.031V127.122C92.5493 125.914 93.0405 124.755 93.9149 123.901C94.7893 123.046 95.9752 122.566 97.2117 122.566Z" fill="#407BFF"/>
<path d="M112.372 133.562C112.372 135.021 111.929 136.448 111.099 137.662C110.269 138.876 109.09 139.822 107.71 140.381C106.33 140.939 104.811 141.085 103.346 140.801C101.881 140.516 100.535 139.813 99.4784 138.781C98.4221 137.748 97.7027 136.433 97.4112 135.002C97.1198 133.57 97.2694 132.086 97.8411 130.737C98.4127 129.388 99.3808 128.236 100.623 127.425C101.865 126.614 103.325 126.181 104.819 126.181C106.822 126.181 108.744 126.958 110.16 128.343C111.577 129.727 112.372 131.604 112.372 133.562Z" fill="white"/>
<path d="M104.027 136.857C103.927 136.856 103.828 136.834 103.737 136.794C103.646 136.753 103.565 136.695 103.498 136.622L100.53 133.205C100.411 133.067 100.354 132.888 100.37 132.709C100.386 132.53 100.474 132.364 100.615 132.248C100.757 132.132 100.939 132.076 101.123 132.092C101.306 132.107 101.476 132.194 101.594 132.332L104.027 135.133L108.044 130.501C108.164 130.366 108.335 130.281 108.518 130.267C108.701 130.253 108.883 130.31 109.023 130.426C109.093 130.483 109.15 130.554 109.192 130.633C109.234 130.712 109.259 130.799 109.266 130.888C109.273 130.977 109.262 131.067 109.234 131.151C109.206 131.236 109.161 131.315 109.101 131.382L104.555 136.622C104.488 136.695 104.407 136.753 104.316 136.794C104.225 136.834 104.127 136.856 104.027 136.857Z" fill="#407BFF"/>
<path d="M186.754 209.367H156.168C153.147 209.367 150.698 211.761 150.698 214.713V264.572C150.698 267.524 153.147 269.918 156.168 269.918H186.754C189.775 269.918 192.224 267.524 192.224 264.572V214.713C192.224 211.761 189.775 209.367 186.754 209.367Z" fill="#407BFF"/>
<path opacity="0.5" d="M186.754 209.367H156.168C153.147 209.367 150.698 211.761 150.698 214.713V264.572C150.698 267.524 153.147 269.918 156.168 269.918H186.754C189.775 269.918 192.224 267.524 192.224 264.572V214.713C192.224 211.761 189.775 209.367 186.754 209.367Z" fill="white"/>
<path opacity="0.1" d="M183.708 269.918H155.966C155.274 269.918 154.588 269.784 153.948 269.525C153.309 269.266 152.727 268.886 152.238 268.407C151.749 267.928 151.361 267.36 151.097 266.734C150.832 266.109 150.697 265.438 150.698 264.762V214.516C150.697 213.839 150.832 213.169 151.097 212.544C151.361 211.919 151.749 211.351 152.239 210.873C152.728 210.395 153.309 210.016 153.949 209.757C154.589 209.499 155.274 209.366 155.966 209.367H183.708C182.31 209.367 180.97 209.91 179.982 210.875C178.994 211.841 178.439 213.15 178.439 214.516V264.762C178.439 266.128 178.994 267.438 179.982 268.405C180.97 269.372 182.31 269.916 183.708 269.918Z" fill="black"/>
<path d="M97.1183 274.041H185.852V268.346H97.1183V274.041Z" fill="#263238"/>
<path opacity="0.2" d="M97.1183 274.041H185.852V268.346H97.1183V274.041Z" fill="white"/>
<path opacity="0.2" d="M135.544 274.041H185.852V268.346H135.544V274.041Z" fill="white"/>
<path d="M158.857 235.937H93.3731L83.3955 185.577C83.1374 184.285 83.1754 182.952 83.5067 181.675C83.838 180.399 84.4544 179.21 85.3116 178.194C86.1688 177.177 87.2457 176.359 88.4648 175.798C89.684 175.236 91.0152 174.945 92.3629 174.946H139.244C141.365 174.946 143.42 175.667 145.057 176.986C146.693 178.305 147.808 180.14 148.211 182.175L158.857 235.937Z" fill="#407BFF"/>
<path opacity="0.6" d="M158.857 235.937H93.3731L83.3955 185.577C83.1374 184.285 83.1754 182.952 83.5067 181.675C83.838 180.399 84.4544 179.21 85.3116 178.194C86.1688 177.177 87.2457 176.359 88.4648 175.798C89.684 175.236 91.0152 174.945 92.3629 174.946H139.244C141.365 174.946 143.42 175.667 145.057 176.986C146.693 178.305 147.808 180.14 148.211 182.175L158.857 235.937Z" fill="white"/>
<path opacity="0.1" d="M111.976 235.937H93.3731L83.3955 185.577C83.1374 184.285 83.1754 182.952 83.5067 181.675C83.838 180.399 84.4544 179.21 85.3116 178.194C86.1688 177.177 87.2457 176.359 88.4648 175.798C89.684 175.236 91.0152 174.945 92.3629 174.946C94.483 174.947 96.5365 175.669 98.1713 176.988C99.8061 178.307 100.92 180.141 101.323 182.175L111.976 235.937Z" fill="black"/>
<path d="M188.261 235.322H95.4943C92.9536 235.322 90.894 237.335 90.894 239.817V265.422C90.894 267.905 92.9536 269.918 95.4943 269.918H188.261C190.802 269.918 192.861 267.905 192.861 265.422V239.817C192.861 237.335 190.802 235.322 188.261 235.322Z" fill="#407BFF"/>
<path opacity="0.6" d="M188.261 235.322H95.4943C92.9536 235.322 90.894 237.335 90.894 239.817V265.422C90.894 267.905 92.9536 269.918 95.4943 269.918H188.261C190.802 269.918 192.861 267.905 192.861 265.422V239.817C192.861 237.335 190.802 235.322 188.261 235.322Z" fill="white"/>
<path opacity="0.1" d="M135.195 235.322H95.4943C92.9536 235.322 90.894 237.335 90.894 239.817V265.422C90.894 267.905 92.9536 269.918 95.4943 269.918H135.195C137.736 269.918 139.795 267.905 139.795 265.422V239.817C139.795 237.335 137.736 235.322 135.195 235.322Z" fill="black"/>
<path d="M145.033 165.067C151.754 166.647 156.129 173.055 161.74 175.736C161.81 175.797 161.678 175.888 161.74 175.956L159.136 178.029C158.727 178.598 158.495 179.271 158.468 179.966C158.468 180.353 158.561 180.452 158.593 180.398C158.614 179.966 158.532 179.534 158.352 179.138C157.357 176.351 155.43 173.23 153.79 170.519C152.842 168.955 151.809 167.36 150.884 165.804C150.471 165.107 150.311 164.293 150.432 163.496C150.553 162.699 150.947 161.966 151.549 161.416C152.152 160.866 152.928 160.532 153.75 160.468C154.571 160.404 155.391 160.615 156.075 161.065C157.728 162.165 159.313 163.36 160.823 164.642C165.423 168.742 171.391 174.255 171.243 180.983C171.243 183.2 169.643 186.64 167.07 187.559C157.699 192.016 148.833 184.036 142.119 179.153C141.854 178.978 141.629 178.849 141.513 178.781C141.396 178.713 141.388 178.713 141.66 178.781C132.46 176.222 135.669 163.245 145.056 165.113L145.033 165.067Z" fill="#263238"/>
<path opacity="0.2" d="M157.046 183.003C156.176 182.927 155.36 182.813 154.552 182.676C153.744 182.54 152.796 182.365 151.941 182.183C151.086 182.001 150.278 181.78 149.462 181.568C147.83 181.143 146.253 180.619 144.698 180.049L144.559 179.996C145.36 178.426 146.631 177.131 148.203 176.283C148.203 176.283 152.967 177.748 157.046 183.003Z" fill="black"/>
<path d="M187.042 259.089L196.553 259.773L196.258 270.761L188.316 270.206L187.042 259.089Z" fill="#E4897B"/>
<path opacity="0.2" d="M187.049 259.097L196.552 259.773L196.389 265.931L187.756 265.316L187.049 259.097Z" fill="black"/>
<path d="M187.181 274.041H189.256L189.815 273.221L190.903 274.049H203.406C203.483 273.087 203.298 272.123 202.87 271.254C202.87 271.254 199.125 270.928 197.687 269.105C197.634 269.036 197.563 268.983 197.48 268.952C197.397 268.921 197.308 268.914 197.221 268.931C195.978 269.189 191.004 270.108 188.316 269.158C188.249 269.133 188.176 269.123 188.105 269.131C188.033 269.138 187.965 269.162 187.904 269.201C187.844 269.24 187.795 269.292 187.759 269.353C187.724 269.414 187.704 269.483 187.702 269.553C187.645 271.06 187.471 272.56 187.181 274.041Z" fill="#263238"/>
<path d="M134.946 211.6C134.946 211.6 120.796 237.418 137.581 237.418C158.709 237.418 178.827 232.216 178.827 232.216C178.827 232.216 177.677 243.227 185.821 264.109L197.236 264.018C197.236 264.018 201.681 219.148 193.164 211.623C186.311 205.548 161.973 207.5 161.973 207.5L134.946 211.6Z" fill="#407BFF"/>
<path opacity="0.2" d="M181.337 247.099C181.19 247.646 181.05 248.178 180.902 248.702C178.237 237.828 178.828 232.186 178.828 232.186C178.828 232.186 158.709 237.387 137.581 237.387C127.37 237.387 128.605 227.85 131.146 220.37C138.342 215.905 145.911 211.858 151.35 209.102L161.973 207.484C161.973 207.484 166.348 207.127 171.919 207.188C180.156 210.78 188.051 220.682 181.337 247.099Z" fill="black"/>
<path d="M161.351 207.841C149.073 214.47 117.726 212.625 112.131 211.699C111.44 202.662 110.577 188.22 107.663 177.528C107.339 176.383 107.258 175.186 107.423 174.01C107.588 172.834 107.997 171.702 108.625 170.686C109.252 169.669 110.085 168.787 111.073 168.096C112.061 167.404 113.182 166.916 114.369 166.662C123.068 164.995 131.929 164.274 140.79 164.513C143.898 164.619 147.224 166.092 148.219 168.97C152.764 182.243 160.022 193.003 161.351 207.841Z" fill="#263238"/>
<path d="M133.081 171.446C127.929 171.704 123.453 167.413 121.044 165.925C123.648 164.148 124.93 160.959 125.412 159.19C125.637 158.43 125.73 157.899 125.73 157.899L134.48 161.696C133.987 162.772 133.894 163.983 134.216 165.12C135.311 165.596 136.177 166.467 136.632 167.55C136.629 167.575 136.629 167.601 136.632 167.626C137.309 169.373 138.163 171.195 133.081 171.446Z" fill="#E4897B"/>
<path opacity="0.2" d="M136.664 167.634C131.449 169.737 126.344 163.586 125.412 159.19C125.637 158.43 125.73 157.899 125.73 157.899L134.48 161.696C133.987 162.772 133.894 163.983 134.216 165.12C135.311 165.596 136.177 166.467 136.633 167.55C136.639 167.579 136.649 167.607 136.664 167.634Z" fill="black"/>
<path d="M133.392 171.43L131.45 169.737L128.45 171.203C128.45 171.203 130.098 172.843 133.392 171.43Z" fill="#407BFF"/>
<path opacity="0.5" d="M133.392 171.43L131.45 169.737L128.45 171.203C128.45 171.203 130.098 172.843 133.392 171.43Z" fill="white"/>
<path d="M122.288 164.672C122.288 164.672 125.979 169.6 131.45 169.737C130.424 170.26 129.518 170.982 128.786 171.858C128.054 172.734 127.511 173.745 127.191 174.832C125.216 174.183 123.48 172.98 122.201 171.373C120.921 169.766 120.154 167.826 119.996 165.796C120.27 165.456 120.618 165.18 121.014 164.985C121.41 164.791 121.845 164.684 122.288 164.672Z" fill="#407BFF"/>
<path d="M133.392 171.43L135.988 169.259L138.956 170.086C138.956 170.086 136.407 172.706 133.392 171.43Z" fill="#407BFF"/>
<path opacity="0.5" d="M133.392 171.43L135.988 169.259L138.956 170.086C138.956 170.086 136.407 172.706 133.392 171.43Z" fill="white"/>
<path d="M134.216 165.128C134.216 165.128 136.096 167.512 136.019 169.259C138.513 169.919 139.368 173.587 139.368 173.587C139.368 173.587 140.386 168.271 136.648 165.53C135.9 165.151 135.05 165.01 134.216 165.128Z" fill="#407BFF"/>
<path opacity="0.8" d="M122.288 164.672C122.288 164.672 125.979 169.6 131.45 169.737C130.424 170.26 129.518 170.982 128.786 171.858C128.054 172.734 127.511 173.745 127.191 174.832C125.216 174.183 123.48 172.98 122.201 171.373C120.921 169.766 120.154 167.826 119.996 165.796C120.27 165.456 120.618 165.18 121.014 164.985C121.41 164.791 121.845 164.684 122.288 164.672Z" fill="white"/>
<path opacity="0.8" d="M134.216 165.128C134.216 165.128 136.096 167.512 136.019 169.259C138.513 169.919 139.368 173.587 139.368 173.587C139.368 173.587 140.386 168.271 136.648 165.53C135.9 165.151 135.05 165.01 134.216 165.128Z" fill="white"/>
<path d="M168.827 259.97L178.307 259.014L179.985 269.88L172.067 270.692L168.827 259.97Z" fill="#E4897B"/>
<path opacity="0.2" d="M168.827 259.978L178.315 259.014L179.255 265.104L170.645 265.977L168.827 259.978Z" fill="black"/>
<path d="M170.691 274.041H172.758L173.326 273.221L174.414 274.049H186.917C186.992 273.087 186.804 272.122 186.373 271.254C186.373 271.254 182.635 270.928 181.19 269.105C181.138 269.037 181.068 268.984 180.986 268.953C180.905 268.922 180.817 268.914 180.731 268.931C179.488 269.189 174.515 270.108 171.818 269.159C171.752 269.133 171.68 269.123 171.608 269.13C171.537 269.138 171.469 269.162 171.409 269.201C171.35 269.24 171.301 269.292 171.266 269.353C171.232 269.415 171.213 269.483 171.212 269.553C171.156 271.06 170.982 272.56 170.691 274.041Z" fill="#263238"/>
<path d="M112.458 211.6C112.458 211.6 106.544 230.659 122.451 235.899C138.358 241.138 154.07 231.882 154.07 231.882C154.07 231.882 154.07 235.899 168.244 265.4L179.985 263.235C179.985 263.235 175.843 219.079 170.66 211.6C165.477 204.12 139.461 207.477 139.461 207.477L112.458 211.6Z" fill="#407BFF"/>
<path d="M154.225 160.078L151.614 163.055C147.916 165.029 146.136 159.942 146.136 159.942L143.385 156.904C143.081 156.511 142.93 156.025 142.958 155.532C142.986 155.04 143.193 154.573 143.541 154.216L145.343 152.12C145.689 151.669 146.201 151.366 146.771 151.277C147.341 151.187 147.924 151.318 148.397 151.642L151.203 154.102C151.759 154.553 152.192 155.132 152.461 155.788L154.225 160.078Z" fill="#E4897B"/>
<path opacity="0.2" d="M134.348 193.869C134.348 193.869 127.16 208.198 112.132 211.699C111.533 203.877 110.857 191.265 108.744 181.887C111.735 180.133 119.996 178.242 119.996 178.242C120.025 181.752 120.786 185.219 122.234 188.432C126.247 186.896 130.447 185.875 134.729 185.395C136.92 185.121 134.348 193.869 134.348 193.869Z" fill="black"/>
<path d="M119.227 179.054C119.653 178.732 120.023 178.345 120.322 177.908C120.408 177.771 120.4 177.786 120.384 177.847C120.369 177.908 120.229 178.272 120.136 178.606C119.017 183.094 118.348 188.599 119.701 193.034C119.817 193.36 119.794 193.315 119.491 193.224L121.534 195.046C121.206 194.618 120.801 194.253 120.338 193.968C119.685 193.459 117.96 193.125 117.587 193.398C117.4 193.543 117.921 193.482 118.434 193.307C122.754 191.751 127.199 188.637 131.302 186.352C132.012 185.961 132.834 185.813 133.639 185.93C134.445 186.047 135.187 186.424 135.749 187C136.31 187.576 136.66 188.318 136.741 189.11C136.822 189.902 136.631 190.697 136.198 191.371C132.188 197.119 123.905 207.279 115.722 205.517C113.806 205.06 112.114 203.964 110.935 202.419L112.979 204.242C109.024 202.078 107.104 198.539 105.985 194.909C104.153 188.219 104.228 181.165 106.203 174.513C106.98 172.19 107.975 169.821 110.135 168.097C111.624 166.98 113.5 166.474 115.364 166.688C117.229 166.901 118.934 167.816 120.119 169.239C121.304 170.662 121.874 172.48 121.709 174.307C121.544 176.134 120.656 177.826 119.234 179.024L119.227 179.054Z" fill="#263238"/>
<path d="M150.13 165.621L148.576 163.921C150.811 162.676 152.848 161.118 154.622 159.296L157.419 160.01C157.419 160.01 154.894 165.249 150.13 165.621Z" fill="#407BFF"/>
<path opacity="0.5" d="M150.13 165.621L148.576 163.921C150.811 162.676 152.848 161.118 154.622 159.296L157.419 160.01C157.419 160.01 154.894 165.249 150.13 165.621Z" fill="white"/>
<path opacity="0.9" d="M169.472 166.73L167.218 173.488L159.253 187.24C159.253 187.24 139.873 189.898 139.438 184.324C139.042 179.328 140.363 171.195 140.642 169.562L140.689 169.266C151.529 170.299 158.437 174.24 158.437 174.24C161.802 168.962 169.472 166.73 169.472 166.73Z" fill="white"/>
<path opacity="0.1" d="M169.472 166.73L167.218 173.488L159.253 187.24C159.253 187.24 139.873 189.898 139.438 184.324C139.042 179.328 140.363 171.195 140.642 169.562C148.545 170.269 158.445 174.954 158.445 174.954C159.525 171.613 169.472 166.73 169.472 166.73Z" fill="black"/>
<path d="M167.016 189.078C167.016 189.078 163.426 190.71 157.326 195.38C156.977 195.653 156.575 195.854 156.145 195.972C155.572 196.142 154.964 196.16 154.381 196.026C149.155 194.801 143.847 193.933 138.498 193.429C138.498 193.429 137.814 180.52 139.228 170.922C139.228 170.922 150.107 171.84 158.437 174.969C158.678 174.779 166.387 168.682 171.29 167.861C171.298 167.816 165.128 180.269 167.016 189.078Z" fill="#407BFF"/>
<path opacity="0.1" d="M167.016 189.078C167.016 189.078 163.426 190.71 157.326 195.38C156.977 195.653 156.575 195.854 156.145 195.972C156.502 190.733 157.505 177.148 158.437 174.969C158.678 174.779 166.387 168.682 171.29 167.861C171.298 167.816 165.128 180.269 167.016 189.078Z" fill="black"/>
<path d="M157.746 174.696C158.295 174.762 158.85 174.624 159.3 174.308C159.3 174.308 158.228 184.028 157.225 195.471C157.039 195.83 156.719 196.105 156.332 196.239C155.944 196.374 155.518 196.357 155.143 196.193C155.143 196.193 156.246 181.583 157.746 174.696Z" fill="#407BFF"/>
<path opacity="0.2" d="M157.746 174.696C158.295 174.762 158.85 174.624 159.3 174.308C159.3 174.308 158.228 184.028 157.225 195.471C157.039 195.83 156.719 196.105 156.332 196.239C155.944 196.374 155.518 196.357 155.143 196.193C155.143 196.193 156.246 181.583 157.746 174.696Z" fill="white"/>
<path opacity="0.7" d="M160.963 177.3C160.963 177.3 164.615 174.263 167.677 173.587L167.203 175.447C164.737 176.434 162.485 177.87 160.566 179.677L160.963 177.3Z" fill="white"/>
<path opacity="0.1" d="M141.124 187.878C141.124 187.878 150.449 189.397 153.014 190.255V193.938C153.014 193.938 145.243 192.252 141.016 191.811L141.124 187.878Z" fill="black"/>
<path opacity="0.7" d="M162.835 174.096L162.641 174.961C163.87 174.162 165.17 173.473 166.526 172.903L166.868 171.78C165.421 172.365 164.063 173.145 162.835 174.096Z" fill="white"/>
<path d="M133.082 186.298L133.804 189.951C135.902 193.284 139.819 189.905 139.819 189.905L142.368 189.024C142.806 188.84 143.163 188.511 143.377 188.094C143.59 187.677 143.645 187.199 143.533 186.746L143.051 184.187C142.987 183.655 142.712 183.169 142.285 182.832C141.858 182.496 141.313 182.336 140.767 182.388L138.436 182.79C137.759 182.912 137.122 183.19 136.578 183.603L133.082 186.298Z" fill="#E4897B"/>
<path d="M131.978 185.509L134.605 185.152C134.529 187.488 134.946 189.815 135.832 191.986L134.123 195.327C134.123 195.327 129.818 189.685 131.978 185.509Z" fill="#407BFF"/>
<path opacity="0.5" d="M131.978 185.509L134.605 185.152C134.529 187.488 134.946 189.815 135.832 191.986L134.123 195.327C134.123 195.327 129.818 189.685 131.978 185.509Z" fill="white"/>
<path d="M144.271 154.269L141.761 153.89C141.736 153.887 141.711 153.879 141.689 153.867C141.667 153.854 141.648 153.838 141.633 153.818C141.617 153.798 141.606 153.775 141.6 153.751C141.594 153.727 141.594 153.701 141.598 153.677C141.602 153.652 141.611 153.628 141.624 153.606C141.638 153.584 141.655 153.566 141.676 153.551C141.697 153.536 141.721 153.525 141.746 153.52C141.772 153.514 141.798 153.513 141.823 153.517L144.326 153.897C144.351 153.9 144.375 153.908 144.397 153.92C144.42 153.932 144.439 153.949 144.454 153.969C144.47 153.989 144.48 154.012 144.486 154.036C144.492 154.06 144.493 154.085 144.489 154.11C144.481 154.159 144.454 154.203 144.413 154.233C144.373 154.263 144.322 154.276 144.271 154.269Z" fill="#263238"/>
<path d="M144.489 150.829C143.712 153.35 141.839 155.712 140.044 154.186C139.692 153.831 139.444 153.389 139.328 152.908C139.212 152.426 139.231 151.923 139.383 151.452C139.912 148.84 142.414 145.719 142.414 145.719C142.414 145.719 144.17 144.868 144.799 147.587C144.962 148.676 144.855 149.788 144.489 150.829Z" fill="#263238"/>
<path opacity="0.5" d="M144.489 150.829C143.712 153.35 141.839 155.712 140.044 154.186C139.692 153.83 139.444 153.389 139.328 152.908C139.212 152.426 139.231 151.923 139.383 151.452C140.262 150.778 141.195 150.173 142.173 149.645C142.173 149.645 143.284 149.227 144.489 150.829Z" fill="white"/>
<path d="M139.096 143.714C133.563 140.214 126.5 143.198 125.629 148.954C124.759 154.71 124.301 158.635 127.378 161.863C133.493 168.203 138.482 166.062 141.225 160.716C143.65 155.871 144.66 147.268 139.096 143.714Z" fill="#E4897B"/>
<path opacity="0.2" d="M134.255 152.743C133.612 152.313 132.822 152.147 132.056 152.28C132.751 152.573 133.498 152.73 134.255 152.743Z" fill="black"/>
<path opacity="0.2" d="M134.107 153.252C133.783 153.119 133.432 153.057 133.081 153.07C132.729 153.084 132.385 153.171 132.071 153.328C132.748 153.445 133.442 153.419 134.107 153.252Z" fill="black"/>
<path d="M142.422 148.073C140.868 150.237 136.882 146.554 133.493 145.165C133.221 145.05 132.925 144.998 132.629 145.011C132.332 145.025 132.043 145.104 131.782 145.243C131.522 145.382 131.297 145.577 131.125 145.814C130.953 146.05 130.838 146.321 130.789 146.607C130.739 146.858 130.739 147.116 130.789 147.367C131.372 149.759 129.367 150.974 129.631 152.34C130.261 155.515 127.689 155.659 124.604 153.684C124.153 153.453 123.775 153.106 123.508 152.682C121.915 151.725 121.573 149.759 122.109 147.367C122.434 145.993 122.914 144.659 123.539 143.388C125.528 139.242 132.74 138.649 132.74 138.649C132.74 138.649 139.555 137.556 141.979 141.535C144.404 145.514 142.422 148.073 142.422 148.073Z" fill="#263238"/>
<path d="M135.21 153.16C135.094 153.654 135.273 154.117 135.607 154.186C135.941 154.254 136.298 153.905 136.384 153.426C136.469 152.948 136.314 152.469 135.98 152.401C135.646 152.333 135.327 152.667 135.21 153.16Z" fill="#263238"/>
<path d="M141.155 154.489C141.047 154.983 141.225 155.438 141.559 155.507C141.894 155.575 142.251 155.233 142.337 154.747C142.422 154.262 142.274 153.798 141.94 153.73C141.606 153.662 141.272 153.988 141.155 154.489Z" fill="#263238"/>
<path d="M133.765 151.399C133.713 151.393 133.662 151.374 133.618 151.346C133.554 151.298 133.512 151.227 133.5 151.149C133.489 151.071 133.509 150.992 133.556 150.928C133.831 150.537 134.198 150.216 134.627 149.993C135.056 149.769 135.533 149.65 136.019 149.645C136.059 149.646 136.099 149.655 136.135 149.671C136.172 149.687 136.204 149.711 136.231 149.74C136.258 149.769 136.279 149.803 136.292 149.84C136.305 149.878 136.31 149.917 136.306 149.956C136.304 149.995 136.295 150.033 136.277 150.068C136.26 150.104 136.236 150.135 136.207 150.161C136.177 150.187 136.143 150.207 136.105 150.22C136.067 150.233 136.028 150.239 135.988 150.237C135.603 150.249 135.227 150.349 134.889 150.53C134.552 150.711 134.262 150.967 134.045 151.277C134.014 151.321 133.972 151.355 133.923 151.376C133.873 151.398 133.819 151.406 133.765 151.399Z" fill="#263238"/>
<path d="M143.821 153.054C143.773 153.038 143.729 153.011 143.694 152.976C143.659 152.94 143.633 152.897 143.619 152.849C143.526 152.487 143.345 152.152 143.092 151.872C142.839 151.592 142.522 151.375 142.166 151.239C142.127 151.228 142.092 151.21 142.061 151.185C142.03 151.16 142.005 151.129 141.987 151.094C141.969 151.059 141.958 151.021 141.955 150.982C141.953 150.943 141.958 150.904 141.971 150.867C141.983 150.83 142.002 150.795 142.027 150.765C142.053 150.734 142.084 150.709 142.119 150.691C142.155 150.673 142.194 150.661 142.234 150.658C142.273 150.654 142.314 150.658 142.352 150.67C142.803 150.836 143.208 151.106 143.531 151.456C143.854 151.806 144.086 152.226 144.209 152.682C144.231 152.759 144.221 152.84 144.182 152.91C144.143 152.98 144.077 153.031 143.999 153.054C143.941 153.069 143.879 153.069 143.821 153.054Z" fill="#263238"/>
<path opacity="0.5" d="M129.654 152.386C130.284 155.56 127.712 155.704 124.627 153.73C124.176 153.498 123.798 153.152 123.531 152.728C121.938 151.771 121.596 149.804 122.132 147.412C124.337 147.797 126.61 147.449 128.59 146.425C128.367 146.849 127.998 147.183 127.549 147.367C128.108 147.511 128.694 147.521 129.258 147.397C129.822 147.273 130.347 147.018 130.789 146.653C130.739 146.904 130.739 147.162 130.789 147.412C131.395 149.804 129.39 151.019 129.654 152.386Z" fill="white"/>
<path d="M139.096 153.707L137.845 157.792C138.184 157.985 138.561 158.104 138.951 158.142C139.341 158.18 139.735 158.136 140.106 158.013C140.157 156.516 139.809 155.032 139.096 153.707Z" fill="#DE5753"/>
<path d="M137.472 160.83H137.379C137.27 160.83 134.814 159.949 133.998 158.362C133.963 158.296 133.957 158.218 133.98 158.147C134.003 158.076 134.055 158.017 134.123 157.982C134.191 157.948 134.27 157.942 134.343 157.964C134.416 157.987 134.476 158.037 134.511 158.104C135.226 159.486 137.542 160.283 137.565 160.291C137.602 160.303 137.636 160.322 137.664 160.347C137.693 160.372 137.717 160.402 137.734 160.436C137.75 160.47 137.76 160.507 137.762 160.545C137.763 160.582 137.757 160.62 137.744 160.655C137.721 160.707 137.683 160.751 137.635 160.782C137.586 160.814 137.53 160.83 137.472 160.83Z" fill="#263238"/>
<path d="M129.663 153.965C129.663 153.965 129.546 157.375 130.921 159C130.921 159 133.066 156.471 134.9 156.486C136.734 156.502 137.472 158.666 137.472 158.666L136.804 159C136.804 159 135.879 157.383 134.9 157.269C133.921 157.155 131.551 159.38 132.072 160.549C132.592 161.718 134.9 160.549 134.9 160.549L135.817 161.05C135.817 161.05 134.442 163.275 137.115 163.07C139.788 162.865 140.021 159.683 137.472 159.364L137.845 158.651C137.845 158.651 140.464 158.749 140.953 161.141C141.443 163.533 140.176 167.216 134.076 166.571C130.852 166.229 124.969 162.706 127.72 154.808L129.663 153.965Z" fill="#263238"/>
<path d="M140.106 153.388C140.061 153.388 140.017 153.372 139.982 153.343C139.795 153.185 139.572 153.073 139.331 153.016C139.09 152.959 138.839 152.959 138.599 153.016C138.574 153.024 138.549 153.027 138.523 153.025C138.497 153.023 138.472 153.016 138.449 153.003C138.427 152.991 138.407 152.975 138.391 152.955C138.376 152.935 138.364 152.912 138.358 152.887C138.343 152.84 138.348 152.789 138.371 152.745C138.394 152.701 138.434 152.667 138.482 152.652C138.786 152.58 139.102 152.578 139.406 152.648C139.71 152.718 139.992 152.857 140.231 153.054C140.249 153.071 140.264 153.092 140.274 153.115C140.284 153.138 140.29 153.162 140.29 153.187C140.29 153.212 140.284 153.237 140.274 153.26C140.264 153.282 140.249 153.303 140.231 153.32C140.2 153.357 140.155 153.382 140.106 153.388Z" fill="#263238"/>
<path d="M132.747 151.581H132.709L126.663 150.305C126.511 150.269 126.354 150.263 126.2 150.286C126.046 150.31 125.898 150.363 125.765 150.443C125.632 150.523 125.517 150.628 125.425 150.751C125.334 150.875 125.269 151.015 125.233 151.163V151.277C125.221 151.327 125.189 151.369 125.144 151.396C125.1 151.422 125.047 151.43 124.996 151.418C124.946 151.406 124.902 151.375 124.875 151.331C124.848 151.288 124.84 151.236 124.852 151.186V151.072C124.898 150.875 124.983 150.688 125.104 150.523C125.225 150.358 125.378 150.218 125.555 150.112C125.731 150.006 125.928 149.935 126.133 149.905C126.338 149.874 126.547 149.884 126.748 149.933L132.786 151.201C132.811 151.207 132.835 151.217 132.856 151.231C132.877 151.246 132.895 151.264 132.909 151.285C132.922 151.306 132.932 151.33 132.936 151.355C132.94 151.379 132.94 151.405 132.934 151.429C132.924 151.471 132.9 151.508 132.867 151.536C132.833 151.563 132.791 151.579 132.747 151.581Z" fill="#263238"/>
<path d="M142.367 157.048C142.295 157.056 142.222 157.056 142.15 157.048L141.217 156.828C140.833 156.689 140.508 156.428 140.296 156.086C140.083 155.744 139.994 155.342 140.044 154.945V153.168C140.045 153.131 140.056 153.095 140.077 153.064C140.097 153.034 140.126 153.009 140.16 152.993C140.887 152.734 141.679 152.707 142.422 152.917C143.198 153.029 143.906 153.416 144.411 154.003C144.424 154.031 144.431 154.06 144.431 154.091C144.431 154.121 144.424 154.151 144.411 154.178L143.548 156.122C143.459 156.368 143.302 156.586 143.093 156.749C142.884 156.913 142.633 157.017 142.367 157.048ZM140.456 153.252V154.907C140.456 155.666 140.798 156.289 141.334 156.426L142.259 156.646C142.616 156.729 143.036 156.433 143.253 155.94L144.069 154.102C143.601 153.665 143.012 153.371 142.375 153.259C141.746 153.094 141.082 153.099 140.456 153.274V153.252Z" fill="#263238"/>
<path d="M135.677 155.446C135.496 155.445 135.317 155.424 135.141 155.385L133.827 155.074C133.476 154.993 133.162 154.8 132.935 154.524C132.708 154.249 132.582 153.908 132.576 153.555V151.406C132.575 151.367 132.587 151.329 132.609 151.296C132.631 151.263 132.663 151.238 132.701 151.224C132.701 151.224 133.695 150.86 135.809 151.353C136.827 151.541 137.784 151.966 138.599 152.591C138.627 152.624 138.643 152.666 138.643 152.709C138.643 152.752 138.627 152.793 138.599 152.826L137.635 154.391C137.43 154.717 137.141 154.985 136.798 155.17C136.455 155.355 136.069 155.45 135.677 155.446ZM132.941 151.535V153.532C132.941 153.805 133.036 154.07 133.209 154.284C133.383 154.498 133.625 154.648 133.897 154.709L135.211 155.013C135.599 155.106 136.008 155.075 136.377 154.925C136.746 154.775 137.056 154.513 137.262 154.178L138.14 152.758C137.389 152.247 136.541 151.888 135.646 151.702C134.768 151.453 133.844 151.396 132.941 151.535Z" fill="#263238"/>
<path d="M122.396 153.214C122.587 153.865 122.908 154.474 123.34 155.004C123.772 155.535 124.307 155.976 124.914 156.304C126.546 157.17 127.789 155.841 127.696 154.125C127.603 152.606 126.647 150.267 124.836 150.108C124.44 150.08 124.044 150.149 123.682 150.308C123.32 150.468 123.003 150.712 122.762 151.02C122.52 151.327 122.36 151.689 122.296 152.072C122.233 152.455 122.267 152.847 122.396 153.214Z" fill="#E4897B"/>
<path d="M119.281 209.367H88.6952C85.6739 209.367 83.2246 211.761 83.2246 214.713V264.572C83.2246 267.524 85.6739 269.918 88.6952 269.918H119.281C122.302 269.918 124.751 267.524 124.751 264.572V214.713C124.751 211.761 122.302 209.367 119.281 209.367Z" fill="#407BFF"/>
<path opacity="0.6" d="M119.281 209.367H88.6952C85.6739 209.367 83.2246 211.761 83.2246 214.713V264.572C83.2246 267.524 85.6739 269.918 88.6952 269.918H119.281C122.302 269.918 124.751 267.524 124.751 264.572V214.713C124.751 211.761 122.302 209.367 119.281 209.367Z" fill="white"/>
<path opacity="0.2" d="M116.235 269.918H88.5009C87.1016 269.918 85.7595 269.374 84.77 268.408C83.7805 267.441 83.2246 266.129 83.2246 264.762V214.516C83.2246 213.839 83.3611 213.169 83.6264 212.544C83.8917 211.919 84.2804 211.351 84.7705 210.873C85.2605 210.394 85.8422 210.015 86.4824 209.757C87.1225 209.499 87.8084 209.366 88.5009 209.367H116.235C114.837 209.367 113.497 209.91 112.509 210.875C111.521 211.841 110.966 213.15 110.966 214.516V264.762C110.966 266.128 111.521 267.438 112.509 268.405C113.497 269.372 114.837 269.916 116.235 269.918Z" fill="black"/>
</svg>
