<svg width="373" height="293" viewBox="0 0 373 293" fill="none" xmlns="http://www.w3.org/2000/svg">
<path d="M372.595 258.359H0V258.545H372.595V258.359Z" fill="#EBEBEB"/>
<path d="M335.261 270.349H310.58V270.535H335.261V270.349Z" fill="#EBEBEB"/>
<path d="M246.821 272.376H240.346V272.562H246.821V272.376Z" fill="#EBEBEB"/>
<path d="M309.835 263.434H295.535V263.62H309.835V263.434Z" fill="#EBEBEB"/>
<path d="M71.2775 264.686H39.0928V264.872H71.2775V264.686Z" fill="#EBEBEB"/>
<path d="M82.634 264.686H77.917V264.872H82.634V264.686Z" fill="#EBEBEB"/>
<path d="M167.78 267.83H97.9707V268.016H167.78V267.83Z" fill="#EBEBEB"/>
<path d="M176.61 225.124H32.7212C31.594 225.122 30.5136 224.672 29.7173 223.875C28.9209 223.077 28.4736 221.996 28.4736 220.868V18.6016C28.4834 17.4808 28.935 16.4092 29.7304 15.6195C30.5257 14.8298 31.6004 14.3857 32.7212 14.3838H176.61C177.738 14.3838 178.821 14.8321 179.619 15.6301C180.417 16.428 180.865 17.5103 180.865 18.6388V220.868C180.865 221.997 180.417 223.079 179.619 223.877C178.821 224.675 177.738 225.124 176.61 225.124ZM32.7212 14.5328C31.6434 14.5348 30.6104 14.9643 29.849 15.7272C29.0876 16.49 28.6599 17.5238 28.6599 18.6016V220.868C28.6599 221.946 29.0876 222.98 29.849 223.743C30.6104 224.506 31.6434 224.935 32.7212 224.937H176.61C177.688 224.935 178.722 224.506 179.485 223.743C180.247 222.981 180.677 221.947 180.679 220.868V18.6016C180.677 17.5231 180.247 16.4893 179.485 15.7267C178.722 14.9641 177.688 14.5348 176.61 14.5328H32.7212Z" fill="#EBEBEB"/>
<path d="M337.803 225.124H193.906C192.778 225.122 191.697 224.673 190.9 223.875C190.102 223.078 189.653 221.996 189.651 220.868V18.6016C189.663 17.4801 190.116 16.4085 190.913 15.619C191.709 14.8295 192.785 14.3857 193.906 14.3838H337.803C338.922 14.3877 339.995 14.8326 340.789 15.6221C341.582 16.4116 342.033 17.4821 342.043 18.6016V220.868C342.043 221.994 341.596 223.074 340.802 223.872C340.007 224.67 338.929 225.12 337.803 225.124ZM193.906 14.5328C192.828 14.5348 191.794 14.9641 191.032 15.7267C190.269 16.4893 189.84 17.5231 189.838 18.6016V220.868C189.84 221.947 190.269 222.981 191.032 223.743C191.794 224.506 192.828 224.935 193.906 224.937H337.803C338.881 224.935 339.915 224.506 340.677 223.743C341.44 222.981 341.869 221.947 341.871 220.868V18.6016C341.869 17.5231 341.44 16.4893 340.677 15.7267C339.915 14.9641 338.881 14.5348 337.803 14.5328H193.906Z" fill="#EBEBEB"/>
<path d="M155.618 170.039H144.142V258.359H155.618V170.039Z" fill="#F0F0F0"/>
<path d="M43.6974 258.359H144.142V170.039H43.6974L43.6974 258.359Z" fill="#F5F5F5"/>
<path d="M42.7888 250.601H130.975V203.364H42.7888V250.601Z" fill="#FAFAFA"/>
<path d="M42.7888 198.356H130.975V182.804H42.7888V198.356Z" fill="#FAFAFA"/>
<g style="mix-blend-mode:multiply" opacity="0.7">
<path d="M131.757 203.364H130.967V250.602H131.757V203.364Z" fill="#E6E6E6"/>
</g>
<g style="mix-blend-mode:multiply" opacity="0.7">
<path d="M131.757 182.804H130.967V198.356H131.757V182.804Z" fill="#E6E6E6"/>
</g>
<g style="mix-blend-mode:multiply" opacity="0.7">
<path d="M155.618 173.765H43.4443V175.762H155.618V173.765Z" fill="#E6E6E6"/>
</g>
<path d="M156.959 168.832H144.142V174.607H156.959V168.832Z" fill="#F0F0F0"/>
<path d="M42.3561 174.607H144.142V168.832H42.3561V174.607Z" fill="#F5F5F5"/>
<path d="M327.533 153.28H297.122V258.359H327.533V153.28Z" fill="#E0E0E0"/>
<path d="M174.203 258.359H321.043L328.271 150.522H181.431L174.203 258.359Z" fill="#E6E6E6"/>
<path d="M171.714 258.359H318.561L325.782 150.522H178.942L171.714 258.359Z" fill="#F0F0F0"/>
<path d="M180.709 252.062H310.409L316.788 156.819H187.088L180.709 252.062Z" fill="white"/>
<path d="M137.257 165.59H134.574V121.803C134.576 121.448 134.718 121.108 134.969 120.856C135.22 120.605 135.56 120.463 135.916 120.461C136.271 120.463 136.611 120.605 136.862 120.856C137.113 121.108 137.255 121.448 137.257 121.803V165.59Z" fill="#F5F5F5"/>
<path d="M144.246 168.832H127.584L128.419 167.341C128.755 166.742 129.245 166.243 129.838 165.896C130.432 165.549 131.107 165.366 131.794 165.367H140.044C140.731 165.368 141.405 165.551 141.998 165.898C142.591 166.245 143.082 166.743 143.419 167.341L144.246 168.832Z" fill="#F0F0F0"/>
<path d="M123.195 135.962C123.195 135.962 123.516 123.45 135.916 123.45C148.316 123.45 148.644 135.962 148.644 135.962H123.195Z" fill="#E0E0E0"/>
<path d="M68.1399 106.303L318.39 106.303V30.6735L68.1399 30.6735V106.303Z" fill="#E6E6E6"/>
<path d="M61.3143 106.303L316.803 106.303V30.6735L61.3143 30.6735V106.303Z" fill="#F0F0F0"/>
<path d="M68.1406 106.303H318.39V111.713H64.9512L68.1406 106.303Z" fill="#E6E6E6"/>
<path d="M55.6806 106.303H311.169L309.694 111.713H54.2051L55.6806 106.303Z" fill="#F0F0F0"/>
<path d="M307.249 96.7495V40.2268L70.8673 40.2268V96.7495L307.249 96.7495Z" fill="#FAFAFA"/>
<path d="M273.097 96.7495L241.106 40.2268H210.561L242.552 96.7495H273.097Z" fill="white"/>
<path d="M235.986 96.7495L204.003 40.2268H192.095L224.078 96.7495H235.986Z" fill="white"/>
<path d="M72.082 96.7495V40.2268H70.8674V96.7495H72.082Z" fill="#E6E6E6"/>
<path d="M186.297 292.012C266.094 292.012 330.782 288.235 330.782 283.576C330.782 278.917 266.094 275.141 186.297 275.141C106.501 275.141 41.8125 278.917 41.8125 283.576C41.8125 288.235 106.501 292.012 186.297 292.012Z" fill="#F5F5F5"/>
<path d="M147.257 273.628L152.868 271.556L148.568 258.329L142.957 260.401L147.257 273.628Z" fill="#FFC3BD"/>
<path d="M151.914 267.51L145.759 269.671C145.65 269.709 145.559 269.785 145.503 269.885C145.446 269.985 145.429 270.103 145.453 270.215L146.608 275.476C146.64 275.607 146.699 275.73 146.782 275.838C146.864 275.945 146.967 276.034 147.086 276.099C147.204 276.164 147.335 276.204 147.469 276.216C147.604 276.228 147.74 276.212 147.868 276.169C150.103 275.349 153.226 274.097 156.013 273.121C159.276 271.974 160.26 272.056 163.926 270.357C166.162 269.336 165.484 266.869 164.441 267.108C159.694 268.166 158.345 268.412 153.471 267.465C152.958 267.342 152.42 267.357 151.914 267.51Z" fill="#263238"/>
<path opacity="0.2" d="M148.568 258.329L150.789 265.148L145.17 267.219L142.949 260.401L148.568 258.329Z" fill="black"/>
<path d="M153.106 267.681C153.08 267.682 153.055 267.674 153.034 267.659C153.013 267.644 152.996 267.624 152.987 267.599C152.97 267.575 152.961 267.547 152.961 267.517C152.961 267.488 152.97 267.459 152.987 267.435C153.203 267.212 155.133 265.237 155.968 265.386C156.043 265.401 156.114 265.436 156.171 265.487C156.229 265.538 156.272 265.604 156.296 265.677C156.346 265.797 156.366 265.927 156.356 266.057C156.345 266.186 156.304 266.311 156.236 266.422C155.782 267.167 154.09 267.54 153.129 267.674L153.106 267.681ZM155.849 265.669C155.379 265.669 154.284 266.579 153.516 267.324C154.828 267.1 155.752 266.72 155.998 266.28C156.036 266.204 156.056 266.12 156.056 266.035C156.056 265.949 156.036 265.865 155.998 265.789C155.988 265.759 155.97 265.732 155.947 265.711C155.923 265.69 155.894 265.676 155.864 265.669H155.849Z" fill="#407BFF"/>
<path d="M153.107 267.681H153.069C153.046 267.674 153.024 267.661 153.007 267.642C152.99 267.624 152.978 267.601 152.973 267.577C152.973 267.51 152.66 265.908 153.196 265.051C153.348 264.803 153.592 264.627 153.874 264.559C154.254 264.47 154.418 264.619 154.485 264.768C154.783 265.379 153.792 267.093 153.204 267.644C153.191 267.656 153.176 267.666 153.159 267.672C153.142 267.679 153.125 267.682 153.107 267.681ZM154.075 264.812H153.926C153.823 264.835 153.726 264.879 153.641 264.942C153.556 265.005 153.486 265.085 153.435 265.177C153.16 265.818 153.082 266.527 153.211 267.212C153.777 266.541 154.411 265.237 154.232 264.872C154.254 264.872 154.195 264.812 154.075 264.812Z" fill="#407BFF"/>
<path d="M121.548 206.248C108.507 177.625 98.5661 165.389 99.5721 150.001L120.594 147.847C120.594 147.847 132.934 185.032 136.444 202.731C140.096 221.122 151.273 260.744 151.273 260.744L141.981 263.344C141.981 263.344 123.791 226.867 121.548 206.248Z" fill="#407BFF"/>
<path opacity="0.2" d="M101.666 164.301C103.902 171.06 107.829 178.415 112.725 188.036C112.978 188.512 113.231 188.989 113.47 189.481C112.591 177.804 111.853 167.975 101.666 164.301Z" fill="black"/>
<path d="M151.623 257.919L152.331 262.07L142.472 266.012L140.691 262.51L151.623 257.919Z" fill="#263238"/>
<path d="M91.1736 266.005L90.7041 279.903L97.3512 279.813L97.8281 265.908L91.1736 266.005Z" fill="#FFC3BD"/>
<path d="M97.2693 276.802L90.734 276.907C90.6193 276.908 90.509 276.951 90.4238 277.028C90.3387 277.105 90.2847 277.21 90.2719 277.324L89.7056 282.667C89.6942 282.803 89.7112 282.939 89.7556 283.068C89.8 283.196 89.8707 283.314 89.9634 283.414C90.056 283.513 90.1684 283.593 90.2934 283.646C90.4184 283.7 90.5532 283.727 90.6893 283.725C93.0366 283.643 93.7818 283.457 96.7402 283.405C100.205 283.353 101.271 283.494 105.332 283.405C107.791 283.36 108.186 280.879 107.136 280.655C103.805 279.962 100.265 278.636 98.7671 277.22C98.3389 276.896 97.8034 276.746 97.2693 276.802Z" fill="#263238"/>
<path opacity="0.2" d="M91.1736 266.005L90.9277 273.174L97.5823 273.077L97.8282 265.915L91.1736 266.005Z" fill="black"/>
<path d="M96.0845 277.257C96.0584 277.258 96.0325 277.252 96.01 277.239C95.9875 277.225 95.9694 277.206 95.9578 277.182C95.9414 277.16 95.9326 277.132 95.9326 277.104C95.9326 277.076 95.9414 277.049 95.9578 277.026C96.1665 276.795 97.9773 274.79 98.8044 274.91C98.881 274.92 98.9536 274.951 99.0149 274.998C99.0763 275.045 99.1245 275.107 99.1547 275.178C99.2147 275.293 99.2461 275.421 99.2461 275.551C99.2461 275.68 99.2147 275.808 99.1547 275.923C98.7523 276.706 97.0607 277.101 96.0919 277.264L96.0845 277.257ZM98.7225 275.185C98.2381 275.185 97.2321 276.132 96.4869 276.899C97.8059 276.631 98.7225 276.221 98.9311 275.789C98.9715 275.713 98.9927 275.629 98.9927 275.543C98.9927 275.457 98.9715 275.373 98.9311 275.297C98.9191 275.269 98.8996 275.244 98.8747 275.225C98.8498 275.207 98.8204 275.196 98.7895 275.193L98.7225 275.185Z" fill="#407BFF"/>
<path d="M96.0845 277.257H96.0473C96.0223 277.25 95.9996 277.237 95.9813 277.219C95.963 277.2 95.9498 277.178 95.9429 277.153C95.9429 277.086 95.4958 275.521 95.9877 274.664C96.055 274.539 96.1474 274.43 96.2589 274.343C96.3705 274.256 96.4988 274.192 96.636 274.157C96.7455 274.107 96.8696 274.097 96.9857 274.13C97.1018 274.162 97.2024 274.236 97.2694 274.336C97.6122 274.932 96.7403 276.653 96.1814 277.22C96.155 277.244 96.1204 277.257 96.0845 277.257ZM96.8297 274.403H96.6881C96.587 274.428 96.4923 274.475 96.4101 274.539C96.328 274.603 96.2602 274.684 96.2112 274.776C95.9799 275.423 95.9539 276.125 96.1367 276.788C96.6658 276.109 97.2098 274.805 97.0011 274.448C96.9659 274.418 96.9207 274.402 96.8744 274.403H96.8297Z" fill="#407BFF"/>
<path d="M91.2563 210.957C89.3709 189.526 83.3871 166.79 86.3827 151.171L108.336 149.263C108.336 149.263 110.75 193.386 108.336 211.643C105.855 230.63 99.3937 268.777 99.3937 268.777L89.7063 268.918C89.7063 268.918 88.6779 231.979 91.2563 210.957Z" fill="#407BFF"/>
<path d="M100.839 266.623L100.206 270.752L89.3708 270.945L88.7598 267.041L100.839 266.623Z" fill="#263238"/>
<path d="M140.743 85.0949C140.761 84.8013 140.721 84.5072 140.625 84.2292C140.528 83.9512 140.379 83.6949 140.183 83.4748C139.988 83.2548 139.752 83.0753 139.487 82.9467C139.223 82.8181 138.936 82.7428 138.642 82.7252C138.049 82.6896 137.466 82.891 137.022 83.2851C136.577 83.6792 136.308 84.2337 136.272 84.8266V84.9384C135.929 86.4288 135.527 88.0757 135.162 89.6108C134.797 91.1459 134.312 92.6735 133.783 94.0819C133.326 95.4342 132.734 96.7374 132.017 97.9718C131.75 98.4352 131.433 98.8676 131.071 99.261C129.723 99.0679 128.388 98.8017 127.069 98.4636C125.243 97.9867 123.343 97.4129 121.51 96.7944C119.677 96.1759 117.784 95.5052 115.906 94.8047C114.028 94.1043 112.18 93.3665 110.369 92.6735H110.287C109.188 92.2702 107.975 92.307 106.901 92.7763C105.828 93.2455 104.977 94.1109 104.527 95.1921C104.076 96.2733 104.06 97.4867 104.482 98.5794C104.904 99.672 105.732 100.56 106.793 101.057C108.812 101.966 110.749 102.681 112.754 103.434C114.759 104.187 116.778 104.828 118.85 105.424C120.921 106.02 123.023 106.549 125.221 106.959C127.564 107.442 129.954 107.652 132.345 107.585H132.576C133.185 107.556 133.777 107.374 134.297 107.056C135.454 106.34 136.452 105.397 137.234 104.284C137.874 103.373 138.413 102.396 138.843 101.37C139.242 100.456 139.566 99.5117 139.812 98.5456C140.058 97.6216 140.259 96.705 140.408 95.8033C140.701 94.026 140.876 92.231 140.93 90.4305C140.987 88.6498 140.925 86.8673 140.743 85.0949Z" fill="#FFC3BD"/>
<path d="M139.261 88.1576L145.089 85.6612L140.223 80.2511C140.223 80.2511 134.775 82.971 136.139 86.2126L139.261 88.1576Z" fill="#FFC3BD"/>
<path d="M147.391 81.5403L145.312 79.044C145.053 78.736 144.696 78.527 144.301 78.4523C143.906 78.3776 143.497 78.4419 143.144 78.6341L140.26 80.2139L145.126 85.624L147.16 84.0442C147.345 83.8983 147.498 83.7166 147.61 83.5099C147.722 83.3032 147.791 83.0759 147.812 82.8418C147.834 82.6076 147.808 82.3716 147.735 82.1479C147.663 81.9241 147.546 81.7175 147.391 81.5403Z" fill="#FFC3BD"/>
<path d="M106.6 90.4975C112.509 90.0802 124.223 96.8689 124.223 96.8689L118.485 109.068C114.938 108.316 111.553 106.936 108.492 104.991C106.816 103.956 99.5947 90.9968 106.6 90.4975Z" fill="#263238"/>
<path d="M107.307 90.4826C99.4307 90.7577 91.6186 92.0092 84.0501 94.2085C80.4732 95.3337 77.3434 98.6797 78.0141 102.361C79.5715 111.303 82.9696 126.244 84.7208 152.147C87.9102 153.071 98.4695 152.184 105.854 151.454C106.659 151.379 108.574 149.442 108.574 149.442C108.574 149.442 110.385 150.932 111.406 150.783C116.294 150.038 120.169 149.114 121.049 148.123C120.304 140.775 118.351 124.664 117.233 114.202C117.084 110.074 116.444 102.465 114.744 98.1506C113.127 94.0595 111.659 90.3931 107.307 90.4826Z" fill="#263238"/>
<path d="M92.1348 81.7938C93.111 86.183 92.7831 90.8777 90.2793 94.0522C92.1199 96.787 96.4048 98.9332 100.66 100.014C103.365 96.7721 103.216 93.3815 101.994 91.5931C101.994 89.0967 101.718 87.3529 101.807 85.4825L92.1348 81.7938Z" fill="#FFC3BD"/>
<path d="M100.66 99.9987C101.21 99.2528 101.565 98.3823 101.696 97.4651C101.808 96.1237 104.155 97.0105 104.155 97.0105C103.266 98.2903 102.063 99.3194 100.66 99.9987Z" fill="#E0E0E0"/>
<path d="M100.66 99.9987C100.524 99.5164 100.245 99.0869 99.8587 98.7674C99.4727 98.4479 98.9984 98.2536 98.4992 98.2103C97.3263 98.0568 96.1339 98.1714 95.0117 98.5456C95.0117 98.5456 98.3651 100.081 100.66 99.9987Z" fill="#E0E0E0"/>
<path opacity="0.2" d="M95.2503 80.579H95.1758C95.213 80.6386 95.2428 80.6237 95.2503 80.579Z" fill="black"/>
<path opacity="0.2" d="M101.816 85.475L94.1997 82.0992C93.4545 86.1158 97.4338 88.1055 101.912 88.8656C101.822 87.7378 101.79 86.6061 101.816 85.475Z" fill="black"/>
<path d="M101.897 67.0314C107.494 66.3906 108.761 70.3103 106.287 75.3776C104.949 74.4313 103.853 73.1818 103.09 71.7312C102.328 70.2807 101.919 68.6702 101.897 67.0314Z" fill="#263238"/>
<path d="M90.3469 74.3643C91.4647 80.1991 91.4871 83.9474 95.2503 85.9222C103.589 90.3039 107.173 86.5332 107.807 80.4674C108.395 75.0051 106.473 66.3759 100.414 64.8184C99.0718 64.4754 97.6642 64.4784 96.323 64.8271C94.9819 65.1757 93.7511 65.8587 92.7455 66.8122C91.7399 67.7656 90.9925 68.9584 90.573 70.2792C90.1536 71.5999 90.0758 73.0054 90.3469 74.3643Z" fill="#FFC3BD"/>
<path d="M91.986 78.4703C94.2216 79.0142 95.1307 78.1573 95.2127 77.8294C94.6354 77.7454 94.0747 77.5719 93.5509 77.3152C93.5509 77.3152 94.8028 76.9203 94.9295 76.0409C93.9235 76.0409 92.0233 74.5506 92.6269 72.9633C93.2305 71.3761 93.0069 70.9737 91.986 70.5563C90.0867 70.0617 88.1067 69.9578 86.1661 70.2508C86.5104 70.5573 86.9 70.8086 87.3211 70.996C87.3211 70.996 85.0856 72.1287 86.1661 73.9768C87.2466 75.8248 89.4747 77.3748 89.2959 78.4926C91.0843 79.1558 91.986 78.4703 91.986 78.4703Z" fill="#263238"/>
<path d="M105.816 64.9152C107.843 64.9152 108.976 63.7527 109.118 62.4486C107.381 63.4323 104.87 62.933 100.257 61.3457C96.0471 59.8553 93.0588 60.7347 91.0468 62.307C91.0841 61.4128 92.7682 60.0193 92.7682 60.0193C92.7682 60.0193 88.7815 60.0193 86.8589 63.164C85.3238 65.6753 86.9408 67.0017 86.9408 67.0017C86.9408 67.0017 83.6396 66.957 82.6709 69.6024C84.8245 68.6337 85.9721 69.7813 85.9721 69.7813C85.4869 70.1576 84.9465 70.4567 84.3699 70.6681C85.063 71.838 87.0228 71.2344 87.0228 71.2344C90.4358 73.2539 100.675 70.2731 102.292 69.5279C101.41 69.4081 100.548 69.1726 99.7283 68.8274C99.7283 68.8274 106.316 66.7782 109.043 68.3356C109.542 67.0986 107.56 65.407 105.816 64.9152Z" fill="#407BFF"/>
<path d="M105.541 81.0857C105.541 81.0857 103.745 80.6312 98.752 80.5343C99.0586 81.4219 99.6502 82.1832 100.435 82.6995C101.219 83.2157 102.152 83.4579 103.089 83.3884C103.406 83.4194 103.726 83.3823 104.027 83.2796C104.329 83.1769 104.605 83.011 104.837 82.7929C105.069 82.5749 105.252 82.3098 105.373 82.0154C105.495 81.721 105.552 81.404 105.541 81.0857Z" fill="#263238"/>
<path d="M101.86 82.1962C102.857 82.1581 103.841 82.4373 104.669 82.9936C104.205 83.3076 103.649 83.4595 103.09 83.4258C102.093 83.4593 101.111 83.1805 100.28 82.6284C100.745 82.3155 101.3 82.1637 101.86 82.1962Z" fill="#ED847E"/>
<path d="M105.31 81.0412C105.183 81.3616 105.056 81.6895 104.565 81.7863C103.076 81.7574 101.592 81.6003 100.131 81.3169C99.8924 81.2945 99.6631 81.2151 99.4621 81.0854C99.261 80.9557 99.0942 80.7795 98.9756 80.5717C101.096 80.5585 103.214 80.7154 105.31 81.0412Z" fill="white"/>
<path opacity="0.2" d="M98.5741 79.6552C98.5741 79.6552 97.1955 79.5061 97.4265 80.609C97.6202 80.1396 98.5741 79.6552 98.5741 79.6552Z" fill="black"/>
<path opacity="0.2" d="M97.6938 74.9454C96.901 74.6207 96.0125 74.6207 95.2197 74.9454C96.0367 75.1051 96.8768 75.1051 97.6938 74.9454Z" fill="black"/>
<path opacity="0.2" d="M97.6199 75.5416C97.2394 75.4652 96.8468 75.4729 96.4696 75.5643C96.0924 75.6557 95.7398 75.8285 95.4365 76.0707C96.1934 76.0497 96.9374 75.8694 97.6199 75.5416Z" fill="black"/>
<path opacity="0.2" d="M105.929 73.8798C105.929 73.8798 106.555 73.1794 107.032 73.4029C106.718 73.6655 106.335 73.8312 105.929 73.8798Z" fill="black"/>
<path opacity="0.2" d="M105.929 74.3195C105.929 74.3195 106.532 73.8649 106.883 74.3195C106.731 74.3826 106.569 74.4151 106.406 74.4151C106.242 74.4151 106.08 74.3826 105.929 74.3195Z" fill="black"/>
<path d="M88.3492 79.3645C88.8143 80.6382 89.7657 81.6754 90.9946 82.2484C92.634 82.9936 93.7369 81.5926 93.5283 79.901C93.3345 78.4107 92.254 76.1751 90.4953 76.1304C90.1107 76.1293 89.7318 76.2238 89.3926 76.4052C89.0534 76.5866 88.7645 76.8493 88.5518 77.1698C88.3391 77.4903 88.2093 77.8586 88.1739 78.2416C88.1385 78.6247 88.1988 79.0105 88.3492 79.3645Z" fill="#FFC3BD"/>
<path d="M98.5658 75.1839C98.6329 75.6608 98.931 76.0185 99.244 75.9738C99.5569 75.9291 99.7656 75.5118 99.706 75.0274C99.6464 74.543 99.3408 74.1928 99.0279 74.2375C98.7149 74.2822 98.5062 74.7442 98.5658 75.1839Z" fill="#263238"/>
<path d="M104.55 74.379C104.609 74.8559 104.915 75.2136 105.228 75.1689C105.541 75.1242 105.742 74.6994 105.682 74.2225C105.623 73.7456 105.317 73.3879 105.004 73.4326C104.691 73.4773 104.483 73.8946 104.55 74.379Z" fill="#263238"/>
<path d="M102.567 74.6697C103.387 76.0255 104.39 77.2617 105.548 78.3435C105.259 78.6364 104.908 78.8623 104.522 79.0052C104.136 79.1481 103.723 79.2046 103.313 79.1706L102.567 74.6697Z" fill="#ED847E"/>
<path d="M97.0529 73.0079C97.0087 73.0179 96.9629 73.0179 96.9187 73.0079C96.8856 72.9902 96.8565 72.9658 96.8331 72.9363C96.8098 72.9069 96.7927 72.873 96.7829 72.8367C96.7731 72.8004 96.7709 72.7625 96.7763 72.7253C96.7817 72.6881 96.7947 72.6524 96.8144 72.6204C97.0264 72.2196 97.3311 71.8753 97.7031 71.616C98.0751 71.3568 98.5037 71.1902 98.9531 71.1301C98.9903 71.128 99.0275 71.1334 99.0626 71.1458C99.0978 71.1582 99.1301 71.1774 99.1578 71.2023C99.1855 71.2273 99.208 71.2574 99.224 71.291C99.24 71.3247 99.2493 71.3611 99.2512 71.3983C99.2542 71.4351 99.2498 71.4722 99.2383 71.5073C99.2267 71.5424 99.2082 71.5748 99.1839 71.6026C99.1596 71.6304 99.1299 71.653 99.0966 71.6691C99.0634 71.6853 99.0272 71.6945 98.9903 71.6964C98.6366 71.7485 98.2999 71.8829 98.0074 72.0886C97.715 72.2944 97.4748 72.5659 97.3062 72.8813C97.2788 72.9228 97.241 72.9563 97.1965 72.9786C97.152 73.0008 97.1025 73.0109 97.0529 73.0079Z" fill="#263238"/>
<path d="M106.19 71.2716C106.145 71.2839 106.097 71.2849 106.052 71.2745C106.006 71.2641 105.964 71.2426 105.929 71.212C105.674 70.9647 105.364 70.7817 105.025 70.678C104.685 70.5743 104.326 70.553 103.976 70.6158C103.94 70.6258 103.902 70.6282 103.865 70.623C103.828 70.6178 103.792 70.605 103.76 70.5855C103.728 70.5659 103.7 70.54 103.678 70.5094C103.657 70.4787 103.641 70.4439 103.634 70.4071C103.615 70.335 103.626 70.2587 103.664 70.1945C103.702 70.1304 103.763 70.0836 103.835 70.0644C104.278 69.9784 104.735 70.0013 105.167 70.1311C105.6 70.2609 105.994 70.4937 106.316 70.8096C106.368 70.8637 106.397 70.9358 106.397 71.0108C106.397 71.0858 106.368 71.1578 106.316 71.212C106.281 71.2444 106.237 71.2653 106.19 71.2716Z" fill="#263238"/>
<path d="M91.0994 130.842H90.9727C89.3556 130.484 87.6044 130.097 85.9799 129.59C84.3807 129.137 82.8145 128.574 81.2927 127.906C79.9459 127.351 78.6899 126.598 77.5667 125.671C77.1601 125.33 76.8126 124.925 76.5383 124.471C76.4599 124.325 76.3926 124.173 76.3371 124.016C76.3371 123.971 76.3968 123.793 76.4191 123.666L76.5682 123.167L76.7544 122.6C77.0376 121.81 77.3804 120.939 77.7605 120.074C78.5056 118.345 79.3924 116.564 80.2866 114.791C81.1809 113.017 82.1124 111.236 83.0513 109.463L85.8905 104.157C86.4559 103.109 86.5878 101.882 86.2579 100.738C85.9281 99.5944 85.1627 98.6257 84.1263 98.0401C83.0899 97.4546 81.8652 97.2989 80.7153 97.6067C79.5653 97.9144 78.582 98.6609 77.9766 99.6858C76.8737 101.534 75.9124 103.36 74.9287 105.223C73.9451 107.085 73.0285 108.948 72.1566 110.916C71.2848 112.883 70.4352 114.821 69.6826 116.877C69.31 117.928 68.9374 118.994 68.6319 120.171L68.4158 121.088C68.3487 121.423 68.2816 121.736 68.222 122.094C68.1575 122.484 68.1128 122.877 68.0879 123.271C68.0879 123.509 68.0879 123.666 68.0879 123.964C68.0879 124.262 68.0879 124.523 68.1326 124.799V124.858C68.1473 125.02 68.1772 125.179 68.222 125.335C68.5949 126.757 69.2654 128.082 70.1893 129.225C71.0133 130.223 71.98 131.095 73.0583 131.811C74.911 132.993 76.945 133.864 79.0794 134.389C81.0046 134.881 82.9697 135.2 84.9515 135.343C86.8933 135.5 88.8446 135.5 90.7864 135.343C91.3793 135.383 91.9636 135.185 92.4108 134.794C92.858 134.402 93.1315 133.849 93.171 133.257C93.2105 132.664 93.0129 132.079 92.6216 131.632C92.2303 131.185 91.6774 130.911 91.0845 130.872L91.0994 130.842Z" fill="#FFC3BD"/>
<path d="M83.6478 94.3203C76.9858 96.1386 70.2344 113.151 70.2344 113.151L80.3317 121.184C80.3317 121.184 86.5615 115.774 87.9401 109.381C88.9759 104.477 90.4216 92.4648 83.6478 94.3203Z" fill="#263238"/>
<path d="M87.5821 130.537L93.2008 128.256L93.946 135.492C93.946 135.492 88.6104 136.938 87.3809 134.225L87.5821 130.537Z" fill="#FFC3BD"/>
<path d="M99.0208 130.634L98.8568 133.212C98.8238 133.709 98.6154 134.178 98.2688 134.536C97.9221 134.893 97.4597 135.116 96.964 135.164L93.9385 135.462L93.1934 128.227L97.0087 128.398C97.2891 128.408 97.5645 128.475 97.8186 128.594C98.0728 128.712 98.3004 128.881 98.4881 129.09C98.6758 129.298 98.8196 129.542 98.9111 129.808C99.0026 130.073 99.0399 130.354 99.0208 130.634Z" fill="#FFC3BD"/>
<path d="M91.4125 91.5186C91.5839 92.8897 92.4557 97.4801 98.4992 98.2253C96.3531 98.7394 96.3307 102.227 96.3307 102.227C96.3307 102.227 88.4615 98.1209 89.624 92.5991C90.0703 92.0349 90.7055 91.6511 91.4125 91.5186Z" fill="white"/>
<path d="M102.024 90.1548C101.875 91.6005 102.292 93.5603 101.696 97.4651C103.85 96.9882 105.035 99.9988 105.035 99.9988C105.035 99.9988 106.667 94.611 103.321 90.4156C102.901 90.2765 102.465 90.1889 102.024 90.1548Z" fill="white"/>
<path d="M210.613 76.5621C213.765 72.4487 219.556 67.5751 224.861 72.3071C229.78 76.7112 229.601 90.1917 223.87 93.8505C224.057 87.5313 214.086 87.2854 216.09 79.5727C215.063 80.9309 213.801 82.0944 212.364 83.008L210.613 76.5621Z" fill="#263238"/>
<path d="M209.25 74.8409C211.925 74.0957 212.618 73.7753 213.721 74.2522C214.824 74.7292 214.414 76.853 215.398 78.4402C216.381 80.0275 217.678 81.3092 214.489 82.8517C213.081 81.9833 211.881 80.8153 210.976 79.4307C210.07 78.0461 209.481 76.4791 209.25 74.8409Z" fill="#407BFF"/>
<path d="M198.548 73.3356C186.565 70.0418 186.349 87.4942 188.54 97.9268C189.298 95.6836 190.51 93.6211 192.102 91.8684L202.371 99.3725C209.622 97.1369 222.215 88.7982 212.058 78.4103C208.221 66.3829 198.548 73.3356 198.548 73.3356Z" fill="#263238"/>
<path d="M214.332 262.241L221.695 262.778C220.681 268.642 219.72 277.905 219.72 277.905H213.87C213.87 277.905 214.548 266.258 214.332 262.241Z" fill="#B55B52"/>
<path d="M175.671 262.241L182.981 262.778C181.334 268.642 179.397 277.905 179.397 277.905H173.555C173.555 277.905 175.462 266.258 175.671 262.241Z" fill="#B55B52"/>
<path d="M207.55 283.695C212.625 283.695 212.268 283.613 215.129 283.517C217.573 283.435 218.11 283.74 220.107 283.695C221.746 283.695 221.799 282.086 221.426 280.282C221.284 279.589 221.068 278.792 220.867 277.786C220.813 277.507 220.662 277.255 220.442 277.075C220.221 276.895 219.944 276.799 219.66 276.802H213.698C213.481 276.803 213.266 276.854 213.072 276.953C212.878 277.051 212.71 277.194 212.58 277.369C211.875 278.295 210.987 279.066 209.972 279.637C208.957 280.207 207.836 280.563 206.679 280.685C203.944 281.05 205.531 283.695 207.55 283.695Z" fill="#407BFF"/>
<path d="M164.74 281.407C169.628 282.242 170.187 282.019 172.937 282.399C175.329 282.726 175.522 283.278 177.914 283.695C179.494 283.971 180.403 282.272 180.336 280.871C180.336 280.029 180.128 279.045 180.135 278.009C180.146 277.742 180.057 277.48 179.887 277.274C179.716 277.068 179.476 276.932 179.211 276.892L174.121 276.012C173.921 275.979 173.716 275.987 173.518 276.035C173.321 276.084 173.136 276.172 172.974 276.295C171.843 277.192 170.543 277.853 169.151 278.237C167.759 278.621 166.305 278.721 164.874 278.531C162.176 278.285 162.78 281.065 164.74 281.407Z" fill="#407BFF"/>
<path d="M183.607 147.713C183.607 147.713 178.995 183.601 179.397 206.397C177.646 227.799 174.829 268.732 174.829 268.732C174.919 269.82 180.686 269.388 181.707 268.732C181.707 268.732 194.927 241.108 192.773 206.397C207.461 170.195 206.582 147.713 206.582 147.713H183.607Z" fill="#407BFF"/>
<path opacity="0.2" d="M202.491 176.693C201.351 181.373 199.89 186.552 198.02 192.193C197.468 180.829 194.398 165.62 194.294 165.106L202.491 176.693Z" fill="black"/>
<path d="M189.859 147.713C189.859 147.713 200.359 188.222 204.517 208.118C208.884 228.983 215.002 254.849 213.787 268.732C214.957 269.417 219.138 269.477 221.5 268.732C221.5 268.732 230.487 229.155 219.056 209.042C223.192 159.547 210.114 147.713 210.114 147.713H189.859Z" fill="#407BFF"/>
<path d="M213.289 265.841C213.239 266.796 213.122 267.748 212.938 268.687C212.92 268.765 212.918 268.845 212.932 268.924C212.947 269.002 212.977 269.077 213.022 269.143C213.067 269.208 213.125 269.264 213.193 269.306C213.261 269.349 213.336 269.376 213.415 269.388C216.225 269.842 220.331 269.186 221.612 268.955C221.734 268.933 221.845 268.874 221.932 268.786C222.018 268.698 222.076 268.585 222.097 268.464L222.596 265.796C222.613 265.712 222.61 265.625 222.589 265.542C222.568 265.459 222.528 265.381 222.473 265.316C222.418 265.25 222.349 265.197 222.271 265.162C222.193 265.126 222.108 265.109 222.022 265.11L213.825 265.267C213.683 265.284 213.551 265.351 213.452 265.456C213.354 265.561 213.296 265.697 213.289 265.841Z" fill="#263238"/>
<path opacity="0.1" d="M213.289 265.841C213.239 266.796 213.122 267.748 212.938 268.687C212.92 268.765 212.918 268.845 212.932 268.924C212.947 269.002 212.977 269.077 213.022 269.143C213.067 269.208 213.125 269.264 213.193 269.306C213.261 269.349 213.336 269.376 213.415 269.388C216.225 269.842 220.331 269.186 221.612 268.955C221.734 268.933 221.845 268.874 221.932 268.786C222.018 268.698 222.076 268.585 222.097 268.464L222.596 265.796C222.613 265.712 222.61 265.625 222.589 265.542C222.568 265.459 222.528 265.381 222.473 265.316C222.418 265.25 222.349 265.197 222.271 265.162C222.193 265.126 222.108 265.109 222.022 265.11L213.825 265.267C213.683 265.284 213.551 265.351 213.452 265.456C213.354 265.561 213.296 265.697 213.289 265.841Z" fill="white"/>
<path d="M174.271 265.714C174.196 266.459 174.054 267.778 173.913 268.762C173.901 268.837 173.905 268.914 173.923 268.988C173.942 269.062 173.975 269.132 174.021 269.193C174.067 269.254 174.124 269.305 174.19 269.344C174.256 269.382 174.329 269.407 174.405 269.417C176.933 269.624 179.475 269.594 181.998 269.328C182.124 269.317 182.242 269.267 182.338 269.186C182.434 269.104 182.503 268.995 182.535 268.873L183.28 266.213C183.307 266.128 183.313 266.038 183.299 265.95C183.285 265.862 183.25 265.779 183.198 265.706C183.146 265.634 183.078 265.575 182.999 265.533C182.92 265.492 182.832 265.47 182.743 265.468L174.934 265.155C174.853 265.148 174.773 265.157 174.696 265.181C174.619 265.205 174.547 265.244 174.486 265.296C174.424 265.348 174.373 265.412 174.336 265.484C174.3 265.555 174.277 265.633 174.271 265.714Z" fill="#263238"/>
<path opacity="0.1" d="M174.271 265.714C174.196 266.459 174.054 267.778 173.913 268.762C173.901 268.837 173.905 268.914 173.923 268.988C173.942 269.062 173.975 269.132 174.021 269.193C174.067 269.254 174.124 269.305 174.19 269.344C174.256 269.382 174.329 269.407 174.405 269.417C176.933 269.624 179.475 269.594 181.998 269.328C182.124 269.317 182.242 269.267 182.338 269.186C182.434 269.104 182.503 268.995 182.535 268.873L183.28 266.213C183.307 266.128 183.313 266.038 183.299 265.95C183.285 265.862 183.25 265.779 183.198 265.706C183.146 265.634 183.078 265.575 182.999 265.533C182.92 265.492 182.832 265.47 182.743 265.468L174.934 265.155C174.853 265.148 174.773 265.157 174.696 265.181C174.619 265.205 174.547 265.244 174.486 265.296C174.424 265.348 174.373 265.412 174.336 265.484C174.3 265.555 174.277 265.633 174.271 265.714Z" fill="white"/>
<path d="M189.897 110.193C189.434 109.906 188.92 109.714 188.383 109.626C187.845 109.539 187.296 109.558 186.767 109.684C186.237 109.809 185.738 110.038 185.296 110.356C184.855 110.675 184.482 111.078 184.196 111.541C183.138 113.255 182.132 115.014 181.089 116.758C180.046 118.502 179.047 120.245 178.049 121.974C176.417 124.813 174.814 127.667 173.22 130.521C172.884 130.447 172.549 130.365 172.199 130.253C170.941 129.849 169.716 129.35 168.532 128.763C167.288 128.167 166.051 127.481 164.807 126.751C163.562 126.02 162.325 125.26 161.163 124.478L161.058 124.418C160.647 124.149 160.152 124.036 159.664 124.099C159.176 124.162 158.727 124.397 158.397 124.762C158.067 125.127 157.879 125.597 157.865 126.089C157.852 126.581 158.014 127.061 158.323 127.444C158.852 128.114 159.359 128.688 159.911 129.269C160.462 129.851 160.999 130.425 161.572 130.976C162.75 132.087 163.994 133.125 165.298 134.083C166.664 135.087 168.121 135.96 169.65 136.692C171.387 137.543 173.267 138.064 175.194 138.227C175.805 138.269 176.416 138.15 176.966 137.88C177.516 137.611 177.984 137.201 178.324 136.692L178.496 136.438C180.756 133.045 182.962 129.625 185.113 126.177C186.193 124.456 187.252 122.712 188.295 120.961C189.338 119.209 190.381 117.473 191.373 115.685C191.872 114.753 191.997 113.667 191.723 112.646C191.449 111.626 190.796 110.748 189.897 110.193Z" fill="#B55B52"/>
<path d="M152.265 127.108L153.659 128.599C153.916 128.877 154.237 129.09 154.593 129.219C154.95 129.349 155.332 129.392 155.708 129.344L159.27 128.875C159.971 128.781 160.64 128.521 161.222 128.119C161.804 127.716 162.281 127.181 162.616 126.557L163.033 125.812C160.894 123.174 156.639 121.892 156.639 121.892L155.462 121.393C155.225 121.282 154.968 121.22 154.706 121.211C154.444 121.201 154.183 121.243 153.938 121.336C153.693 121.428 153.469 121.568 153.279 121.748C153.089 121.928 152.937 122.144 152.831 122.384L151.811 124.694C151.648 125.098 151.604 125.54 151.685 125.968C151.765 126.396 151.967 126.791 152.265 127.108Z" fill="#B55B52"/>
<path d="M189.167 105.885C184.107 106.839 181.424 111.102 176.446 120.089C177.601 123.435 185.456 126.632 185.456 126.632C185.456 126.632 197.476 112.413 189.167 105.885Z" fill="#263238"/>
<path d="M208.653 141.394C208.775 143.513 209.024 145.623 209.398 147.713H183.876L183.607 141.2C183.607 141.2 203.325 140.082 208.653 141.394Z" fill="#B55B52"/>
<path d="M181.148 114.835C180.997 118.765 181.056 122.701 181.327 126.624C181.543 131.744 180.582 133.003 181.327 141.394C184.129 143.041 202.58 142.974 211.656 141.804C211.105 134.538 210.427 129.642 215.345 113.308C216.485 109.522 213.944 105.856 209.883 105.491C208.795 105.394 207.647 105.304 206.462 105.252C202.319 104.972 198.161 104.972 194.018 105.252C192.669 105.364 191.268 105.528 189.927 105.699C185.113 106.333 181.297 110.297 181.148 114.835Z" fill="#263238"/>
<path d="M205.613 91.2573C204.533 95.259 203.199 102.592 205.799 105.267C205.799 105.267 207.796 108.993 195.993 108.412C187.728 107.987 193.362 105.267 193.362 105.267C197.9 104.201 198.034 100.885 197.49 97.7777L205.613 91.2573Z" fill="#B55B52"/>
<path opacity="0.2" d="M202.297 93.9176L197.476 97.7702C197.617 98.5072 197.692 99.2554 197.699 100.006C199.421 99.7599 201.902 97.882 202.215 96.101C202.379 95.3848 202.407 94.6441 202.297 93.9176Z" fill="black"/>
<path d="M209.094 84.0812C207.953 90.1694 207.603 92.7627 204.123 95.6763C198.907 100.073 191.723 97.748 191.038 91.5405C190.419 85.9591 192.394 76.9423 198.661 74.9303C199.994 74.4529 201.43 74.3407 202.821 74.6054C204.211 74.87 205.506 75.5019 206.57 76.4354C207.635 77.369 208.43 78.5702 208.874 79.9146C209.317 81.259 209.393 82.6976 209.094 84.0812Z" fill="#B55B52"/>
<path d="M206.873 83.6863C204.496 87.4942 206.873 89.387 206.873 89.387L209.623 86.667L206.873 83.6863Z" fill="#263238"/>
<path d="M193.631 90.8178C193.631 90.8178 196.984 90.4452 200.338 90.1099C198.728 92.3976 194.391 93.2695 193.631 90.8178Z" fill="white"/>
<path d="M199.451 85.0948C199.376 85.609 199.048 86.0039 198.705 85.9816C198.363 85.9592 198.169 85.5195 198.243 85.0054C198.318 84.4912 198.646 84.0962 198.989 84.1186C199.331 84.1409 199.525 84.5806 199.451 85.0948Z" fill="#263238"/>
<path d="M193.236 84.7295C193.161 85.2436 192.833 85.6386 192.491 85.6162C192.148 85.5939 191.954 85.1542 192.029 84.64C192.103 84.1259 192.431 83.7235 192.774 83.7533C193.117 83.7831 193.31 84.2153 193.236 84.7295Z" fill="#263238"/>
<path d="M192.915 83.7906L191.753 83.3435C191.753 83.3435 192.26 84.357 192.915 83.7906Z" fill="#263238"/>
<path d="M194.845 85.6984C194.225 86.8414 193.461 87.9007 192.572 88.8505C192.809 89.0582 193.089 89.2091 193.393 89.2918C193.696 89.3744 194.015 89.3866 194.323 89.3274L194.845 85.6984Z" fill="#A02724"/>
<path d="M209.957 89.2752C209.762 89.8345 209.452 90.3472 209.048 90.7807C208.644 91.2142 208.154 91.5593 207.61 91.7939C206.239 92.3081 205.464 90.7581 205.769 89.0963C206.045 87.606 207.088 85.5269 208.504 85.743C209.92 85.9591 210.524 87.7848 209.957 89.2752Z" fill="#B55B52"/>
<path d="M198.549 74.2149C196.812 78.5519 209.518 85.3928 210.166 90.7358C213.333 85.4151 210.278 70.1536 198.549 74.2149Z" fill="#263238"/>
<path d="M199.317 73.9988C194.89 75.1985 193.631 78.4699 193.631 78.4699C193.631 78.4699 202.774 76.1524 199.317 73.9988Z" fill="#263238"/>
<path d="M201.202 82.33C201.162 82.3309 201.122 82.3226 201.086 82.3058C201.05 82.289 201.018 82.2642 200.993 82.2332C200.751 81.9559 200.444 81.7428 200.099 81.6128C199.755 81.4828 199.383 81.4399 199.018 81.488C198.981 81.4954 198.943 81.4951 198.905 81.4869C198.868 81.4788 198.833 81.463 198.802 81.4406C198.771 81.4182 198.746 81.3896 198.726 81.3567C198.707 81.3239 198.695 81.2873 198.69 81.2495C198.679 81.1689 198.699 81.087 198.746 81.0206C198.794 80.9541 198.864 80.9081 198.944 80.8918C199.405 80.8261 199.875 80.8762 200.313 81.0375C200.75 81.1988 201.14 81.4663 201.448 81.8159C201.499 81.8788 201.523 81.9589 201.516 82.0395C201.509 82.12 201.471 82.1948 201.41 82.2481C201.351 82.2962 201.278 82.3248 201.202 82.33Z" fill="#263238"/>
<path d="M192.058 80.7054C192.021 80.7106 191.982 80.7072 191.946 80.6956C191.91 80.684 191.877 80.6644 191.85 80.6383C191.822 80.6106 191.799 80.5775 191.784 80.5411C191.769 80.5046 191.761 80.4655 191.761 80.426C191.761 80.3864 191.769 80.3473 191.784 80.3108C191.799 80.2744 191.822 80.2413 191.85 80.2136C192.162 79.8369 192.557 79.5373 193.005 79.3383C193.452 79.1393 193.939 79.0461 194.428 79.066C194.466 79.0713 194.503 79.0844 194.536 79.1044C194.569 79.1244 194.597 79.1509 194.619 79.1823C194.642 79.2137 194.657 79.2493 194.666 79.287C194.674 79.3246 194.674 79.3635 194.667 79.4013C194.65 79.4808 194.606 79.5518 194.542 79.6012C194.477 79.6505 194.397 79.6748 194.316 79.6696C193.93 79.6593 193.546 79.738 193.194 79.8995C192.843 80.061 192.533 80.301 192.289 80.6011C192.26 80.6329 192.224 80.6586 192.184 80.6765C192.145 80.6944 192.102 80.7042 192.058 80.7054Z" fill="#263238"/>
<path d="M199.13 84.1557L197.968 83.7086C197.968 83.7086 198.452 84.7221 199.13 84.1557Z" fill="#263238"/>
<path d="M203.459 130.894H196.313L195.717 119.194H204.055L203.459 130.894Z" fill="#407BFF"/>
<path d="M201.239 127.936H196.134L195.866 122.19H201.239V127.936Z" fill="white"/>
<path d="M204.503 118.636H203.586L203.437 118.04H196.328L196.179 118.636H195.27L194.979 119.761H204.786L204.503 118.636Z" fill="white"/>
<path d="M201.201 121.691L203.236 121.52C203.614 121.487 203.994 121.546 204.345 121.689C204.696 121.833 205.008 122.059 205.255 122.347L207.58 125.089C208.04 125.628 208.363 126.269 208.523 126.959C208.682 127.649 208.673 128.368 208.497 129.053L208.28 129.91C204.92 130.432 200.911 128.517 200.911 128.517L199.711 128.1C199.461 128.021 199.23 127.894 199.03 127.725C198.83 127.556 198.665 127.349 198.546 127.116C198.427 126.883 198.355 126.629 198.335 126.368C198.315 126.107 198.347 125.844 198.429 125.596L199.226 123.196C199.376 122.782 199.641 122.419 199.992 122.152C200.342 121.885 200.762 121.725 201.201 121.691Z" fill="#B55B52"/>
<path d="M221.531 129.009C221.408 127.139 221.159 125.279 220.785 123.442C220.425 121.629 219.963 119.838 219.399 118.077C219.109 117.205 218.803 116.333 218.475 115.469C218.304 115.036 218.14 114.597 217.954 114.165C217.767 113.732 217.589 113.33 217.335 112.808C216.89 111.81 216.067 111.029 215.047 110.635C214.028 110.242 212.894 110.268 211.893 110.708C210.893 111.149 210.107 111.967 209.708 112.985C209.309 114.002 209.329 115.136 209.764 116.139L209.846 116.355L210.249 117.346L210.673 118.434C210.956 119.18 211.21 119.925 211.456 120.67C211.955 122.16 212.387 123.688 212.775 125.208C213.162 126.728 213.438 128.264 213.661 129.784C213.706 130.074 213.736 130.358 213.773 130.648L213.699 130.596C212.745 129.888 211.791 129.106 210.837 128.293L207.968 125.834L207.916 125.789C207.546 125.477 207.078 125.304 206.594 125.298C206.11 125.293 205.639 125.456 205.261 125.76C204.884 126.064 204.625 126.49 204.527 126.964C204.43 127.439 204.5 127.932 204.727 128.36C205.38 129.561 206.099 130.726 206.88 131.848C207.658 132.98 208.499 134.067 209.399 135.104C209.868 135.641 210.375 136.163 210.889 136.692C211.491 137.273 212.147 137.794 212.849 138.249C213.301 138.542 213.78 138.792 214.28 138.994C215.046 139.31 215.875 139.447 216.702 139.397C217.316 139.359 217.918 139.204 218.475 138.942C219.039 138.662 219.545 138.278 219.966 137.809C220.559 137.145 220.995 136.356 221.24 135.499C221.301 135.319 221.339 135.131 221.352 134.94V134.717C221.563 132.822 221.623 130.913 221.531 129.009Z" fill="#B55B52"/>
<path d="M210.144 105.557C214.615 106.243 216.396 107.599 220.04 116.564C218.386 119.91 210.636 123.107 210.636 123.107C210.636 123.107 205.524 111.497 210.144 105.557Z" fill="#263238"/>
<path d="M183.555 149.665C192.699 150.676 201.928 150.659 211.068 149.613C211.164 149.599 211.255 149.562 211.334 149.507C211.414 149.451 211.479 149.378 211.526 149.293C211.572 149.207 211.598 149.112 211.601 149.015C211.604 148.918 211.585 148.822 211.545 148.734C211.321 148.212 211.097 147.683 210.881 147.154C210.835 147.037 210.752 146.938 210.644 146.872C210.537 146.806 210.411 146.777 210.285 146.789C201.496 147.761 192.627 147.761 183.838 146.789C183.76 146.782 183.681 146.791 183.606 146.815C183.531 146.839 183.461 146.878 183.401 146.929C183.341 146.98 183.293 147.043 183.258 147.114C183.223 147.185 183.202 147.262 183.198 147.34C183.145 147.892 183.086 148.436 183.034 148.98C183.012 149.14 183.055 149.302 183.153 149.43C183.251 149.559 183.395 149.643 183.555 149.665Z" fill="#263238"/>
<path d="M251.591 280.953C256.926 280.543 260.533 276.877 260.146 273.002C259.937 270.856 266.778 270.669 266.778 270.669C265.697 277.302 267.053 278.248 267.523 279.962C267.992 281.676 267.858 283.569 266.442 283.606C264.751 283.651 263.961 283.323 261.852 283.405C259.393 283.502 256.733 283.598 252.358 283.606C250.585 283.613 249.221 281.162 251.591 280.953Z" fill="#407BFF"/>
<path d="M243.796 155.97C243.796 155.97 244.75 187.059 249.28 210.48C250.354 230.303 259.713 273.881 259.713 273.881C262.049 274.433 264.483 274.41 266.807 273.814C266.807 273.814 271.539 241.98 266.807 210.145C270.265 176.776 269.088 155.97 269.088 155.97H243.796Z" fill="#263238"/>
<path opacity="0.2" d="M269.26 171.462C269.096 180.792 268.514 194.004 266.838 210.167C267.188 212.552 267.471 214.952 267.687 217.329C256.092 198.14 253.365 167.811 269.26 171.462Z" fill="black"/>
<path d="M307.494 270.729C305.544 268.64 303.889 266.293 302.576 263.754C302.576 263.754 296.473 265.244 297.673 267.018C299.849 270.215 300.907 276.772 298.105 280.297C296.503 282.302 299.037 282.637 300.706 281.788C303.366 280.416 303.254 279.91 304.64 277.652C305.818 275.714 306.287 274.954 307.912 274.127C309.253 273.404 308.612 272.063 307.494 270.729Z" fill="#407BFF"/>
<path d="M253.014 155.97C253.014 155.97 263.297 199.191 269.78 217.627C276.591 237.002 296.607 266.906 297.352 268.195C300.028 267.45 302.412 266.549 304 264.991C304 264.991 296.376 233.969 287.769 212.925C284.491 169.026 273.439 155.97 273.439 155.97H253.014Z" fill="#263238"/>
<path d="M222.908 115.729L222.424 113.196C222.244 112.278 221.828 111.422 221.217 110.714L220.069 109.373C219.699 108.943 219.19 108.656 218.631 108.563C218.071 108.469 217.497 108.573 217.006 108.859L215.516 109.746C215.238 109.907 214.995 110.122 214.801 110.379C214.607 110.635 214.466 110.927 214.386 111.239C214.307 111.55 214.29 111.875 214.336 112.193C214.383 112.511 214.493 112.816 214.659 113.091L215.404 114.381C215.404 114.381 217.111 118.203 220.039 119.798L220.785 119.269C221.392 118.887 221.9 118.368 222.269 117.753C222.638 117.138 222.857 116.445 222.908 115.729Z" fill="#7F3E3B"/>
<path d="M249.899 119.537C249.369 119.245 248.786 119.061 248.184 118.994C247.582 118.927 246.973 118.98 246.392 119.149C245.811 119.317 245.268 119.599 244.796 119.978C244.324 120.357 243.931 120.825 243.639 121.356C243.639 121.311 243.602 121.408 243.572 121.445L243.453 121.624L243.177 122.011C242.991 122.272 242.797 122.541 242.589 122.801C242.171 123.323 241.739 123.845 241.285 124.292C240.408 125.239 239.431 126.089 238.371 126.825C237.378 127.513 236.291 128.055 235.144 128.435C234.578 128.613 234 128.752 233.415 128.852C233.309 128.86 233.202 128.86 233.095 128.852C232.833 128.671 232.584 128.472 232.35 128.256C231.827 127.77 231.33 127.258 230.859 126.721C229.861 125.603 228.899 124.336 227.931 123.062C226.008 120.499 224.123 117.771 222.237 115.104L222.2 115.051C221.877 114.607 221.407 114.291 220.872 114.163C220.338 114.034 219.776 114.099 219.285 114.348C218.795 114.597 218.41 115.012 218.198 115.519C217.987 116.026 217.963 116.592 218.131 117.116C219.231 120.387 220.571 123.573 222.141 126.646C222.946 128.238 223.837 129.785 224.808 131.282C225.323 132.027 225.874 132.817 226.522 133.607C227.268 134.531 228.139 135.349 229.108 136.036C229.937 136.608 230.88 136.992 231.873 137.161C232.05 137.191 232.229 137.208 232.409 137.213H232.685H233.244C233.512 137.213 233.78 137.213 234.049 137.213C235.126 137.175 236.198 137.042 237.253 136.818C239.341 136.365 241.339 135.572 243.17 134.471C244.932 133.427 246.546 132.151 247.969 130.678C248.663 129.969 249.317 129.223 249.929 128.442C250.234 128.047 250.525 127.638 250.815 127.213L251.233 126.55L251.441 126.199L251.687 125.76C252.266 124.695 252.403 123.446 252.068 122.282C251.734 121.118 250.954 120.132 249.899 119.537Z" fill="#7F3E3B"/>
<path d="M242.581 125.723C242.693 128.249 238.699 134.098 243.624 137.489C242.708 139.546 241.925 153.496 243.796 155.992C246.516 157.989 261.233 157.602 273.439 155.992C273.954 150.947 271.204 140.5 274.579 124.202C274.767 123.31 274.765 122.389 274.573 121.498C274.381 120.607 274.003 119.767 273.464 119.031C272.926 118.296 272.239 117.682 271.447 117.23C270.656 116.778 269.778 116.498 268.871 116.408C267.843 116.303 266.762 116.214 265.645 116.162C261.757 115.882 257.855 115.882 253.968 116.162C252.708 116.274 251.404 116.437 250.16 116.609C247.991 116.917 246.015 118.021 244.614 119.705C243.214 121.389 242.489 123.534 242.581 125.723Z" fill="#407BFF"/>
<path d="M266.033 103.017C265.101 106.743 264.192 112.898 265.675 116.162C265.675 116.162 259.326 117.019 252.262 122.675C251.062 116.996 253.588 116.199 253.588 116.199C256.569 115.513 257.001 111.929 257.001 109.135L266.033 103.017Z" fill="#7F3E3B"/>
<path opacity="0.2" d="M256.948 109.135L262.098 105.655C262.144 106.442 261.985 107.228 261.636 107.935C260.553 109.966 258.787 111.549 256.65 112.406C256.863 111.329 256.963 110.232 256.948 109.135Z" fill="black"/>
<path d="M268.455 96.1235C266.964 102.234 266.495 104.85 262.873 107.48C257.426 111.43 250.391 108.315 250.041 101.891C249.721 96.1086 252.172 87.0918 258.536 85.6834C264.9 84.275 269.915 90.013 268.455 96.1235Z" fill="#7F3E3B"/>
<path d="M267.135 99.7303C264.505 96.1832 265.794 93.3664 267.135 92.3604C261.755 90.6241 255.346 91.8835 253.886 88.6345C254.862 84.0217 256.367 79.6922 258.931 76.0482C262.217 71.3982 276.368 79.1855 279.014 88.2321C279.915 91.2501 268.708 103.285 267.135 99.7303Z" fill="#263238"/>
<path d="M258.581 96.7794C258.492 97.2861 258.149 97.6438 257.836 97.5842C257.523 97.5245 257.314 97.07 257.404 96.5707C257.493 96.0714 257.828 95.7063 258.149 95.7659C258.469 95.8255 258.693 96.2801 258.581 96.7794Z" fill="#263238"/>
<path d="M252.403 95.7734C252.314 96.2727 251.971 96.6378 251.658 96.5782C251.345 96.5186 251.136 96.064 251.226 95.5647C251.315 95.0654 251.658 94.7003 251.971 94.7599C252.284 94.8195 252.493 95.2741 252.403 95.7734Z" fill="#263238"/>
<path d="M252.105 94.8121L250.965 94.2457C250.965 94.2457 251.412 95.3039 252.105 94.8121Z" fill="#263238"/>
<path d="M253.901 96.1832C253.25 97.2492 252.458 98.2218 251.546 99.0746C251.769 99.3033 252.039 99.4805 252.338 99.5938C252.636 99.707 252.956 99.7537 253.275 99.7303L253.901 96.1832Z" fill="#630F0F"/>
<path d="M268.901 101.817C268.671 102.343 268.331 102.815 267.905 103.201C267.478 103.586 266.975 103.876 266.427 104.052C265.026 104.44 264.341 102.905 264.736 101.355C265.093 99.9612 266.226 98.0759 267.642 98.374C269.058 98.672 269.542 100.446 268.901 101.817Z" fill="#7F3E3B"/>
<path d="M268.357 105.334C268.357 105.716 268.244 106.089 268.032 106.406C267.82 106.724 267.518 106.971 267.166 107.117C266.813 107.263 266.425 107.302 266.051 107.227C265.676 107.153 265.332 106.969 265.062 106.699C264.792 106.429 264.609 106.085 264.534 105.711C264.46 105.336 264.498 104.948 264.644 104.595C264.79 104.243 265.037 103.941 265.355 103.729C265.672 103.517 266.045 103.404 266.427 103.404C266.939 103.404 267.43 103.607 267.792 103.969C268.154 104.331 268.357 104.822 268.357 105.334Z" fill="#407BFF"/>
<path d="M260.288 94.8643C260.248 94.8527 260.212 94.8328 260.181 94.8057C260.15 94.7787 260.125 94.7453 260.109 94.7078C259.948 94.3672 259.71 94.0688 259.414 93.836C259.117 93.6032 258.771 93.4424 258.402 93.3665C258.324 93.3571 258.253 93.3175 258.204 93.2561C258.156 93.1947 258.133 93.1166 258.141 93.0386C258.153 92.9595 258.193 92.8877 258.256 92.8379C258.318 92.788 258.397 92.7638 258.477 92.7703C258.946 92.8559 259.388 93.0529 259.765 93.3446C260.142 93.6364 260.444 94.0144 260.645 94.447C260.663 94.4816 260.673 94.5195 260.676 94.5582C260.679 94.597 260.674 94.636 260.662 94.6728C260.649 94.7097 260.629 94.7436 260.604 94.7727C260.578 94.8017 260.546 94.8253 260.511 94.8419C260.442 94.8783 260.362 94.8863 260.288 94.8643Z" fill="#263238"/>
<path d="M250.555 92.4721C250.518 92.4679 250.482 92.4558 250.45 92.4365C250.418 92.4172 250.39 92.3912 250.369 92.3603C250.321 92.298 250.299 92.2191 250.309 92.1409C250.319 92.0627 250.359 91.9915 250.421 91.943C250.794 91.6447 251.233 91.4402 251.701 91.3469C252.169 91.2535 252.653 91.2739 253.111 91.4065C253.186 91.4331 253.248 91.4886 253.282 91.5605C253.316 91.6325 253.321 91.7151 253.294 91.7902C253.267 91.8653 253.212 91.9268 253.14 91.961C253.068 91.9952 252.985 91.9995 252.91 91.9728C252.546 91.8728 252.163 91.8611 251.794 91.9389C251.425 92.0167 251.079 92.1816 250.786 92.4199C250.754 92.4448 250.716 92.4623 250.677 92.4713C250.637 92.4803 250.595 92.4806 250.555 92.4721Z" fill="#263238"/>
<path d="M258.305 95.818L257.165 95.2592C257.165 95.2592 257.612 96.3099 258.305 95.818Z" fill="#263238"/>
<path opacity="0.2" d="M273.992 127.362C273.398 130.826 273.037 134.327 272.911 137.839C270.102 133.942 266.912 126.878 267.091 123.576L273.992 127.362Z" fill="black"/>
<path d="M256.613 138.003L254.079 134.598L249.422 139.769C249.422 139.769 252.522 142.564 255.771 142.847L256.24 142.057C256.614 141.457 256.842 140.778 256.907 140.074C256.971 139.371 256.871 138.661 256.613 138.003Z" fill="#7F3E3B"/>
<path d="M249.408 134.359L248.029 136.364C247.729 136.803 247.613 137.342 247.708 137.865C247.803 138.388 248.1 138.853 248.536 139.158L249.423 139.777L254.08 134.605L251.874 133.614C251.44 133.433 250.957 133.408 250.507 133.544C250.057 133.68 249.669 133.968 249.408 134.359Z" fill="#7F3E3B"/>
<path d="M277.553 133.152C277.225 131.068 276.775 129.005 276.204 126.975C275.921 125.969 275.615 124.977 275.287 123.994C275.123 123.494 274.96 123.003 274.781 122.503C274.602 122.004 274.416 121.55 274.177 120.968C273.746 119.825 272.879 118.9 271.766 118.396C270.653 117.892 269.385 117.851 268.242 118.282C267.098 118.713 266.173 119.58 265.669 120.693C265.165 121.806 265.124 123.074 265.555 124.217L265.615 124.381L266.032 125.596L266.464 126.885C266.748 127.75 267.016 128.621 267.262 129.501C267.768 131.244 268.193 132.996 268.551 134.717C268.889 136.376 269.108 138.057 269.207 139.747C269.239 140.558 269.214 141.369 269.132 142.176H269.013C267.676 141.956 266.358 141.632 265.071 141.208C263.685 140.783 262.276 140.269 260.861 139.717C259.445 139.166 258.006 138.607 256.613 138.07H256.524C256.016 137.878 255.458 137.871 254.946 138.049C254.434 138.228 254 138.581 253.722 139.046C253.444 139.512 253.339 140.06 253.425 140.596C253.51 141.131 253.782 141.62 254.191 141.975C255.439 143.037 256.743 144.032 258.096 144.956C259.461 145.898 260.874 146.768 262.329 147.564C263.893 148.431 265.541 149.138 267.247 149.673C268.304 150 269.398 150.191 270.503 150.239C271.269 150.272 272.036 150.187 272.776 149.986C273.83 149.704 274.797 149.16 275.586 148.406C275.922 148.072 276.192 147.678 276.383 147.244L276.45 147.102C277.443 144.778 277.967 142.281 277.992 139.755C278.045 137.545 277.898 135.335 277.553 133.152Z" fill="#7F3E3B"/>
<path d="M252.098 101.235C254.267 101.078 256.445 101.098 258.611 101.295C257.94 102.48 256.815 103.411 254.363 103.247C251.912 103.084 252.098 101.235 252.098 101.235Z" fill="#263238"/>
<path d="M255.6 102.353C254.671 102.247 253.73 102.396 252.88 102.786C253.326 103.071 253.841 103.228 254.37 103.24C255.296 103.348 256.234 103.201 257.083 102.815C256.639 102.531 256.127 102.371 255.6 102.353Z" fill="#630F0F"/>
<path d="M252.313 101.213C252.359 101.375 252.449 101.521 252.573 101.636C252.696 101.75 252.849 101.828 253.014 101.862C254.432 101.949 255.854 101.934 257.269 101.817C257.486 101.823 257.701 101.778 257.898 101.686C258.095 101.595 258.267 101.458 258.402 101.288C256.376 101.128 254.342 101.103 252.313 101.213Z" fill="white"/>
<path d="M251.658 116.661C251.591 116.66 251.527 116.633 251.479 116.587C251.458 116.562 251.44 116.535 251.427 116.505C251.42 116.475 251.42 116.445 251.427 116.415C251.427 116.349 251.451 116.286 251.494 116.236C251.519 116.215 251.546 116.197 251.576 116.184C251.636 116.162 251.703 116.162 251.763 116.184C251.793 116.197 251.82 116.215 251.845 116.236C251.869 116.259 251.887 116.287 251.897 116.318C251.904 116.35 251.904 116.383 251.897 116.415C251.904 116.445 251.904 116.475 251.897 116.505C251.887 116.536 251.869 116.564 251.845 116.587C251.821 116.611 251.792 116.631 251.759 116.644C251.727 116.657 251.693 116.662 251.658 116.661Z" fill="white"/>
<path d="M249.638 129.888C249.638 129.822 249.664 129.759 249.71 129.712C249.756 129.664 249.818 129.637 249.884 129.635C249.95 129.635 250.012 129.661 250.058 129.707C250.104 129.753 250.13 129.815 250.13 129.881C250.13 129.947 250.105 130.01 250.059 130.057C250.013 130.105 249.95 130.132 249.884 130.134C249.819 130.134 249.757 130.108 249.71 130.062C249.664 130.016 249.638 129.953 249.638 129.888ZM250.95 129.784C250.942 129.752 250.941 129.719 250.946 129.687C250.951 129.654 250.963 129.623 250.98 129.596C250.998 129.568 251.021 129.544 251.047 129.525C251.074 129.506 251.104 129.493 251.136 129.486C251.2 129.474 251.266 129.487 251.321 129.521C251.377 129.556 251.417 129.609 251.434 129.672C251.446 129.737 251.432 129.804 251.396 129.859C251.36 129.915 251.305 129.954 251.241 129.97H251.129C251.079 129.966 251.031 129.946 250.993 129.915C250.954 129.883 250.926 129.84 250.913 129.791L250.95 129.784ZM248.513 129.918C248.482 129.908 248.454 129.892 248.429 129.87C248.404 129.849 248.384 129.823 248.37 129.794C248.355 129.765 248.346 129.733 248.344 129.701C248.342 129.668 248.346 129.636 248.357 129.605C248.367 129.573 248.383 129.544 248.405 129.518C248.427 129.493 248.453 129.473 248.483 129.458C248.513 129.443 248.546 129.435 248.579 129.433C248.613 129.432 248.646 129.437 248.677 129.448C248.738 129.47 248.788 129.516 248.816 129.574C248.844 129.633 248.848 129.7 248.826 129.761C248.81 129.81 248.779 129.853 248.737 129.883C248.696 129.914 248.647 129.931 248.595 129.933L248.513 129.918ZM252.239 129.419C252.215 129.358 252.215 129.291 252.24 129.231C252.265 129.171 252.313 129.123 252.373 129.098C252.434 129.074 252.501 129.074 252.561 129.099C252.621 129.124 252.669 129.172 252.694 129.232C252.719 129.292 252.72 129.359 252.696 129.418C252.672 129.478 252.626 129.527 252.567 129.553H252.47C252.413 129.568 252.353 129.564 252.299 129.541C252.245 129.518 252.2 129.478 252.172 129.426L252.239 129.419ZM247.343 129.165C247.32 129.142 247.302 129.115 247.289 129.085C247.276 129.055 247.27 129.023 247.27 128.99C247.27 128.958 247.276 128.925 247.289 128.895C247.302 128.865 247.32 128.838 247.343 128.815C247.366 128.792 247.393 128.773 247.423 128.761C247.454 128.748 247.486 128.742 247.518 128.742C247.551 128.742 247.583 128.748 247.613 128.761C247.643 128.773 247.671 128.792 247.694 128.815C247.718 128.837 247.737 128.864 247.75 128.895C247.763 128.925 247.77 128.957 247.77 128.99C247.77 129.023 247.763 129.056 247.75 129.086C247.737 129.116 247.718 129.143 247.694 129.165C247.672 129.19 247.646 129.209 247.616 129.222C247.587 129.235 247.554 129.241 247.522 129.24C247.476 129.252 247.428 129.249 247.383 129.232C247.339 129.214 247.302 129.183 247.276 129.143L247.343 129.165ZM253.424 128.845C253.407 128.818 253.395 128.787 253.39 128.755C253.384 128.724 253.386 128.691 253.393 128.66C253.401 128.628 253.415 128.599 253.434 128.573C253.454 128.547 253.478 128.526 253.506 128.51C253.533 128.492 253.564 128.48 253.595 128.475C253.627 128.47 253.66 128.471 253.691 128.479C253.723 128.486 253.752 128.5 253.778 128.52C253.804 128.539 253.825 128.564 253.841 128.592C253.859 128.619 253.87 128.649 253.876 128.681C253.881 128.713 253.88 128.745 253.872 128.777C253.864 128.808 253.851 128.838 253.831 128.863C253.812 128.889 253.787 128.911 253.759 128.927C253.721 128.95 253.677 128.963 253.633 128.964C253.582 128.979 253.528 128.976 253.479 128.956C253.43 128.935 253.39 128.899 253.364 128.852L253.424 128.845ZM254.512 128.1C254.472 128.047 254.455 127.981 254.463 127.915C254.472 127.85 254.505 127.791 254.557 127.749C254.582 127.729 254.611 127.714 254.642 127.705C254.673 127.696 254.706 127.694 254.738 127.698C254.77 127.702 254.801 127.713 254.828 127.73C254.856 127.746 254.88 127.768 254.899 127.794C254.939 127.845 254.958 127.909 254.951 127.973C254.944 128.037 254.912 128.096 254.862 128.137C254.818 128.172 254.762 128.19 254.706 128.189C254.66 128.204 254.612 128.205 254.566 128.193C254.52 128.181 254.478 128.157 254.445 128.122L254.512 128.1ZM246.583 127.966C246.556 127.913 246.548 127.853 246.562 127.795C246.576 127.738 246.61 127.687 246.658 127.653C246.688 127.641 246.72 127.635 246.753 127.635C246.786 127.636 246.818 127.643 246.848 127.656C246.877 127.669 246.904 127.688 246.927 127.712C246.949 127.736 246.967 127.764 246.978 127.794C247 127.856 246.998 127.923 246.972 127.983C246.945 128.042 246.897 128.09 246.837 128.115H246.747C246.701 128.117 246.655 128.106 246.614 128.084C246.573 128.061 246.539 128.028 246.516 127.988L246.583 127.966ZM255.525 127.22C255.48 127.173 255.455 127.11 255.455 127.045C255.455 126.98 255.48 126.917 255.525 126.87C255.573 126.825 255.635 126.8 255.701 126.8C255.766 126.8 255.829 126.825 255.876 126.87C255.899 126.893 255.917 126.92 255.93 126.95C255.942 126.98 255.949 127.013 255.949 127.045C255.949 127.078 255.942 127.11 255.93 127.14C255.917 127.17 255.899 127.197 255.876 127.22C255.853 127.242 255.826 127.26 255.797 127.271C255.767 127.283 255.736 127.288 255.704 127.287C255.664 127.307 255.62 127.317 255.576 127.314C255.531 127.311 255.488 127.297 255.451 127.273L255.525 127.22ZM246.278 126.594C246.271 126.528 246.291 126.462 246.333 126.411C246.375 126.359 246.435 126.326 246.501 126.319C246.566 126.314 246.63 126.335 246.68 126.377C246.73 126.418 246.762 126.478 246.769 126.542C246.774 126.575 246.771 126.608 246.762 126.639C246.753 126.671 246.737 126.7 246.716 126.725C246.695 126.75 246.669 126.771 246.64 126.786C246.611 126.8 246.579 126.809 246.546 126.811C246.513 126.826 246.477 126.834 246.441 126.834C246.404 126.833 246.369 126.825 246.336 126.81C246.303 126.794 246.274 126.771 246.251 126.743C246.228 126.715 246.212 126.682 246.203 126.647L246.278 126.594ZM256.464 126.296C256.441 126.273 256.423 126.246 256.41 126.216C256.398 126.186 256.391 126.154 256.391 126.121C256.391 126.089 256.398 126.056 256.41 126.026C256.423 125.996 256.441 125.969 256.464 125.946C256.487 125.923 256.515 125.904 256.545 125.892C256.575 125.879 256.607 125.873 256.639 125.873C256.672 125.873 256.704 125.879 256.734 125.892C256.764 125.904 256.792 125.923 256.815 125.946C256.838 125.969 256.856 125.996 256.869 126.026C256.881 126.056 256.888 126.089 256.888 126.121C256.888 126.154 256.881 126.186 256.869 126.216C256.856 126.246 256.838 126.273 256.815 126.296C256.792 126.321 256.764 126.34 256.733 126.353C256.703 126.366 256.669 126.372 256.636 126.371C256.596 126.388 256.553 126.395 256.51 126.391C256.467 126.387 256.426 126.372 256.39 126.348L256.464 126.296ZM246.509 125.499C246.445 125.491 246.386 125.459 246.346 125.409C246.305 125.359 246.286 125.295 246.293 125.231C246.294 125.198 246.303 125.166 246.318 125.137C246.332 125.107 246.353 125.081 246.378 125.061C246.403 125.04 246.432 125.024 246.464 125.015C246.495 125.006 246.528 125.003 246.561 125.007C246.625 125.015 246.683 125.047 246.724 125.097C246.764 125.147 246.783 125.211 246.777 125.275C246.771 125.337 246.743 125.394 246.697 125.435C246.652 125.476 246.593 125.499 246.531 125.499H246.509ZM257.359 125.32C257.336 125.298 257.317 125.271 257.305 125.242C257.292 125.212 257.286 125.181 257.286 125.149C257.286 125.117 257.292 125.085 257.305 125.056C257.317 125.026 257.336 125 257.359 124.977C257.406 124.932 257.468 124.907 257.534 124.907C257.599 124.907 257.662 124.932 257.709 124.977C257.732 125 257.75 125.027 257.763 125.058C257.776 125.088 257.782 125.12 257.782 125.152C257.782 125.185 257.776 125.217 257.763 125.247C257.75 125.277 257.732 125.305 257.709 125.328C257.687 125.356 257.659 125.38 257.627 125.395C257.594 125.411 257.558 125.418 257.523 125.417C257.483 125.433 257.439 125.438 257.397 125.43C257.354 125.422 257.315 125.402 257.284 125.372L257.359 125.32ZM258.216 124.322C258.19 124.301 258.168 124.276 258.152 124.247C258.137 124.219 258.127 124.187 258.123 124.154C258.12 124.122 258.123 124.089 258.132 124.057C258.142 124.026 258.157 123.997 258.178 123.971C258.201 123.948 258.228 123.93 258.259 123.917C258.289 123.905 258.321 123.898 258.353 123.898C258.386 123.898 258.418 123.905 258.448 123.917C258.478 123.93 258.506 123.948 258.529 123.971C258.552 123.994 258.57 124.021 258.583 124.052C258.595 124.082 258.602 124.114 258.602 124.146C258.602 124.179 258.595 124.211 258.583 124.241C258.57 124.271 258.552 124.299 258.529 124.322C258.506 124.349 258.478 124.372 258.446 124.388C258.413 124.403 258.378 124.411 258.342 124.411C258.308 124.42 258.272 124.421 258.237 124.415C258.203 124.409 258.17 124.394 258.141 124.374L258.216 124.322ZM246.658 124.247C246.626 124.24 246.596 124.227 246.569 124.208C246.543 124.189 246.521 124.165 246.504 124.137C246.487 124.109 246.476 124.078 246.472 124.045C246.468 124.013 246.47 123.98 246.479 123.949C246.486 123.917 246.499 123.887 246.518 123.861C246.537 123.834 246.561 123.812 246.589 123.795C246.617 123.778 246.648 123.767 246.68 123.763C246.713 123.759 246.746 123.761 246.777 123.77C246.84 123.786 246.894 123.826 246.928 123.882C246.962 123.938 246.972 124.005 246.956 124.068C246.942 124.121 246.912 124.169 246.869 124.202C246.825 124.236 246.772 124.254 246.717 124.255H246.658V124.247ZM259.005 123.36C258.96 123.313 258.935 123.25 258.935 123.185C258.935 123.12 258.96 123.057 259.005 123.01C259.048 122.96 259.108 122.928 259.173 122.921C259.238 122.914 259.304 122.932 259.356 122.973C259.379 122.996 259.397 123.023 259.41 123.053C259.423 123.083 259.429 123.115 259.429 123.148C259.429 123.18 259.423 123.213 259.41 123.243C259.397 123.273 259.379 123.3 259.356 123.323C259.333 123.351 259.305 123.373 259.273 123.389C259.241 123.404 259.205 123.412 259.169 123.412C259.135 123.418 259.1 123.416 259.067 123.407C259.034 123.398 259.002 123.382 258.976 123.36H259.005ZM247.023 122.98C246.992 122.97 246.963 122.954 246.939 122.933C246.915 122.911 246.895 122.885 246.881 122.856C246.867 122.827 246.859 122.795 246.858 122.762C246.857 122.73 246.862 122.698 246.874 122.667C246.885 122.636 246.902 122.607 246.924 122.583C246.946 122.559 246.973 122.539 247.002 122.525C247.032 122.511 247.065 122.503 247.098 122.502C247.131 122.501 247.163 122.506 247.194 122.518C247.225 122.53 247.253 122.547 247.276 122.57C247.3 122.592 247.319 122.619 247.332 122.649C247.345 122.679 247.352 122.711 247.353 122.743C247.354 122.776 247.348 122.808 247.336 122.839C247.318 122.885 247.286 122.925 247.245 122.953C247.203 122.981 247.155 122.996 247.105 122.995C247.067 123.005 247.027 123 246.993 122.98H247.023ZM259.84 122.339C259.817 122.316 259.798 122.289 259.786 122.259C259.773 122.229 259.767 122.197 259.767 122.164C259.767 122.132 259.773 122.099 259.786 122.069C259.798 122.039 259.817 122.012 259.84 121.989C259.882 121.939 259.942 121.907 260.008 121.9C260.073 121.893 260.139 121.911 260.19 121.952C260.214 121.975 260.232 122.002 260.245 122.032C260.257 122.062 260.264 122.094 260.264 122.127C260.264 122.16 260.257 122.192 260.245 122.222C260.232 122.252 260.214 122.279 260.19 122.302C260.168 122.33 260.14 122.353 260.107 122.368C260.075 122.384 260.04 122.392 260.004 122.392C259.97 122.398 259.935 122.397 259.901 122.388C259.868 122.379 259.837 122.362 259.81 122.339H259.84ZM247.522 121.766C247.492 121.752 247.464 121.733 247.442 121.708C247.419 121.683 247.402 121.654 247.392 121.623C247.381 121.591 247.378 121.558 247.381 121.525C247.384 121.491 247.394 121.459 247.41 121.43C247.439 121.372 247.49 121.328 247.551 121.307C247.613 121.286 247.68 121.29 247.738 121.318C247.797 121.349 247.841 121.401 247.862 121.463C247.883 121.526 247.879 121.594 247.85 121.654C247.828 121.694 247.795 121.727 247.756 121.751C247.717 121.774 247.672 121.787 247.626 121.788C247.58 121.794 247.534 121.786 247.492 121.766H247.522ZM260.682 121.326C260.659 121.303 260.641 121.276 260.628 121.246C260.615 121.216 260.609 121.183 260.609 121.151C260.609 121.118 260.615 121.086 260.628 121.056C260.641 121.026 260.659 120.999 260.682 120.976C260.705 120.952 260.732 120.934 260.762 120.921C260.792 120.909 260.825 120.902 260.857 120.902C260.89 120.902 260.922 120.909 260.952 120.921C260.982 120.934 261.01 120.952 261.032 120.976C261.056 120.999 261.074 121.026 261.087 121.056C261.099 121.086 261.106 121.118 261.106 121.151C261.106 121.183 261.099 121.216 261.087 121.246C261.074 121.276 261.056 121.303 261.032 121.326C261.009 121.354 260.979 121.377 260.945 121.392C260.912 121.407 260.876 121.415 260.839 121.415C260.803 121.414 260.768 121.406 260.736 121.39C260.704 121.375 260.675 121.353 260.652 121.326H260.682ZM248.133 120.581C248.079 120.544 248.041 120.489 248.026 120.425C248.01 120.362 248.019 120.295 248.051 120.238C248.088 120.184 248.143 120.145 248.207 120.13C248.27 120.115 248.337 120.124 248.394 120.156C248.448 120.192 248.486 120.248 248.502 120.311C248.517 120.375 248.508 120.442 248.476 120.499C248.454 120.535 248.424 120.565 248.387 120.586C248.351 120.606 248.309 120.618 248.267 120.618C248.212 120.628 248.156 120.623 248.103 120.603L248.133 120.581ZM261.547 120.312C261.523 120.29 261.505 120.262 261.492 120.232C261.48 120.202 261.473 120.17 261.473 120.137C261.473 120.105 261.48 120.072 261.492 120.042C261.505 120.012 261.523 119.985 261.547 119.962C261.569 119.938 261.596 119.919 261.626 119.906C261.656 119.892 261.689 119.886 261.722 119.886C261.755 119.886 261.787 119.892 261.817 119.906C261.847 119.919 261.874 119.938 261.897 119.962C261.941 120.008 261.966 120.07 261.966 120.134C261.966 120.198 261.941 120.259 261.897 120.305C261.874 120.332 261.845 120.353 261.813 120.367C261.781 120.381 261.746 120.388 261.711 120.387C261.676 120.391 261.642 120.389 261.608 120.38C261.575 120.371 261.544 120.356 261.517 120.335L261.547 120.312ZM248.878 119.47C248.852 119.452 248.829 119.428 248.812 119.401C248.795 119.373 248.783 119.342 248.778 119.31C248.773 119.278 248.775 119.245 248.783 119.214C248.792 119.183 248.806 119.153 248.826 119.128C248.866 119.075 248.925 119.04 248.991 119.03C249.056 119.02 249.123 119.037 249.176 119.075C249.227 119.115 249.261 119.173 249.27 119.237C249.28 119.3 249.265 119.365 249.229 119.418C249.205 119.45 249.175 119.475 249.14 119.493C249.105 119.511 249.067 119.521 249.027 119.523C248.993 119.534 248.956 119.538 248.919 119.533C248.883 119.528 248.849 119.514 248.819 119.493L248.878 119.47ZM262.478 119.351C262.455 119.328 262.436 119.301 262.424 119.271C262.411 119.241 262.405 119.209 262.405 119.176C262.405 119.143 262.411 119.111 262.424 119.081C262.436 119.051 262.455 119.024 262.478 119.001C262.501 118.978 262.528 118.959 262.558 118.947C262.588 118.934 262.621 118.928 262.653 118.928C262.686 118.928 262.718 118.934 262.748 118.947C262.778 118.959 262.805 118.978 262.828 119.001C262.852 119.024 262.87 119.051 262.883 119.081C262.895 119.111 262.902 119.143 262.902 119.176C262.902 119.209 262.895 119.241 262.883 119.271C262.87 119.301 262.852 119.328 262.828 119.351C262.782 119.395 262.721 119.419 262.657 119.418C262.616 119.43 262.574 119.432 262.532 119.424C262.491 119.417 262.452 119.399 262.418 119.374L262.478 119.351ZM263.432 118.442C263.387 118.395 263.362 118.332 263.362 118.267C263.362 118.202 263.387 118.139 263.432 118.092C263.455 118.069 263.482 118.05 263.512 118.038C263.542 118.025 263.574 118.019 263.607 118.019C263.64 118.019 263.672 118.025 263.702 118.038C263.732 118.05 263.759 118.069 263.782 118.092C263.805 118.115 263.824 118.142 263.836 118.172C263.849 118.202 263.855 118.234 263.855 118.267C263.855 118.299 263.849 118.332 263.836 118.362C263.824 118.392 263.805 118.419 263.782 118.442C263.736 118.48 263.678 118.501 263.618 118.502C263.577 118.516 263.534 118.52 263.491 118.513C263.448 118.507 263.407 118.49 263.372 118.464L263.432 118.442ZM249.683 118.442C249.66 118.419 249.642 118.392 249.629 118.362C249.616 118.332 249.61 118.299 249.61 118.267C249.61 118.234 249.616 118.202 249.629 118.172C249.642 118.142 249.66 118.115 249.683 118.092C249.706 118.069 249.733 118.05 249.763 118.038C249.793 118.025 249.826 118.019 249.858 118.019C249.891 118.019 249.923 118.025 249.953 118.038C249.983 118.05 250.011 118.069 250.033 118.092C250.078 118.139 250.104 118.202 250.104 118.267C250.104 118.332 250.078 118.395 250.033 118.442C250.011 118.47 249.983 118.492 249.95 118.508C249.918 118.523 249.883 118.531 249.847 118.531C249.809 118.534 249.771 118.529 249.735 118.516C249.699 118.503 249.666 118.483 249.638 118.457L249.683 118.442ZM264.445 117.607C264.427 117.581 264.414 117.551 264.406 117.52C264.399 117.488 264.399 117.455 264.404 117.424C264.41 117.392 264.421 117.361 264.439 117.334C264.456 117.307 264.479 117.283 264.505 117.265C264.557 117.226 264.623 117.21 264.687 117.22C264.751 117.23 264.809 117.265 264.848 117.317C264.887 117.37 264.903 117.437 264.893 117.503C264.883 117.568 264.848 117.627 264.796 117.667C264.751 117.696 264.7 117.712 264.647 117.712C264.599 117.723 264.549 117.72 264.503 117.704C264.457 117.688 264.417 117.66 264.386 117.622L264.445 117.607ZM250.57 117.466C250.547 117.443 250.528 117.416 250.516 117.386C250.503 117.356 250.497 117.323 250.497 117.291C250.497 117.258 250.503 117.226 250.516 117.196C250.528 117.166 250.547 117.138 250.57 117.116C250.593 117.092 250.62 117.074 250.65 117.061C250.68 117.049 250.712 117.042 250.745 117.042C250.778 117.042 250.81 117.049 250.84 117.061C250.87 117.074 250.897 117.092 250.92 117.116C250.943 117.138 250.962 117.166 250.974 117.196C250.987 117.226 250.993 117.258 250.993 117.291C250.993 117.323 250.987 117.356 250.974 117.386C250.962 117.416 250.943 117.443 250.92 117.466C250.873 117.508 250.812 117.532 250.749 117.533C250.708 117.544 250.665 117.545 250.623 117.536C250.582 117.526 250.543 117.508 250.51 117.481L250.57 117.466ZM265.541 116.877C265.524 116.849 265.512 116.818 265.507 116.785C265.502 116.752 265.504 116.719 265.513 116.687C265.521 116.655 265.536 116.625 265.556 116.599C265.576 116.572 265.601 116.551 265.63 116.534C265.659 116.519 265.69 116.509 265.722 116.505C265.754 116.501 265.787 116.504 265.818 116.513C265.849 116.522 265.878 116.537 265.904 116.557C265.929 116.578 265.95 116.603 265.966 116.631C265.998 116.688 266.007 116.754 265.99 116.817C265.973 116.88 265.932 116.934 265.876 116.967C265.835 116.978 265.791 116.978 265.749 116.967C265.702 116.983 265.652 116.984 265.604 116.971C265.556 116.958 265.513 116.93 265.481 116.892L265.541 116.877Z" fill="white"/>
<path d="M266.897 116.422C266.868 116.43 266.837 116.43 266.808 116.422C266.778 116.41 266.75 116.392 266.726 116.37C266.702 116.346 266.682 116.319 266.666 116.288C266.662 116.256 266.662 116.224 266.666 116.191C266.668 116.127 266.695 116.066 266.741 116.02C266.762 115.994 266.791 115.976 266.823 115.968C266.868 115.95 266.917 115.945 266.964 115.955C267.012 115.964 267.056 115.987 267.091 116.02C267.135 116.066 267.159 116.128 267.158 116.191C267.166 116.223 267.166 116.257 267.158 116.288C267.145 116.318 267.127 116.346 267.106 116.37C267.077 116.393 267.043 116.409 267.007 116.418C266.971 116.427 266.934 116.429 266.897 116.422Z" fill="white"/>
<path d="M242.931 152.9C241.836 154.859 242.291 161.149 244.161 163.824C255.227 164.338 270.705 157.386 275.206 158.667C276.115 156.395 274.513 155.426 274.46 153.764C274.408 152.102 274.214 150.202 271.986 151.081C269.758 151.961 254.445 154.412 242.931 152.9Z" fill="#407BFF"/>
<path opacity="0.5" d="M242.931 152.9C241.836 154.859 242.291 161.149 244.161 163.824C255.227 164.338 270.705 157.386 275.206 158.667C276.115 156.395 274.513 155.426 274.46 153.764C274.408 152.102 274.214 150.202 271.986 151.081C269.758 151.961 254.445 154.412 242.931 152.9Z" fill="white"/>
<path d="M234.787 1.21619C251.866 6.04502 264.43 23.87 262.851 41.0168C261.83 52.0382 255.227 60.0862 246.106 63.1638C246.012 64.8396 246.453 66.5018 247.366 67.9107C247.366 67.9107 242.999 66.547 241.441 64.3114C237.29 64.862 233.069 64.5397 229.049 63.365C211.962 58.5362 199.398 40.7113 200.985 23.557C202.572 6.40271 217.7 -3.62009 234.787 1.21619Z" fill="#407BFF"/>
<path opacity="0.7" d="M234.787 1.21619C251.866 6.04502 264.43 23.87 262.851 41.0168C261.83 52.0382 255.227 60.0862 246.106 63.1638C246.012 64.8396 246.453 66.5018 247.366 67.9107C247.366 67.9107 242.999 66.547 241.441 64.3114C237.29 64.862 233.069 64.5397 229.049 63.365C211.962 58.5362 199.398 40.7113 200.985 23.557C202.572 6.40271 217.7 -3.62009 234.787 1.21619Z" fill="white"/>
<path d="M108.12 28.7063C108.486 27.1081 109.188 25.6063 110.18 24.3008C111.172 22.9953 112.431 21.9161 113.872 21.1351C113.057 19.9164 112.629 18.4803 112.643 17.0142C112.71 12.2897 117.434 8.53397 123.187 8.61594C125.635 8.63507 128.016 9.41649 129.998 10.8515C132.286 5.89599 139.008 4.04792 145.126 6.72316C150.238 8.95873 153.323 13.6534 152.973 18.0724C154.031 17.8932 155.105 17.8307 156.177 17.8861C162.884 18.2587 168.1 23.0354 167.824 28.5572C167.638 31.918 165.447 34.7721 162.25 36.4115C164.486 40.6442 164.568 45.4283 162.086 49.0798C159.605 52.7312 155.379 54.3482 150.767 54.0278C147.19 57.5228 141.333 59.1845 135.259 57.9177C134.084 57.6722 132.934 57.318 131.824 56.8595C129.715 59.5944 125.214 59.6242 125.214 59.6242C126.634 58.3543 127.642 56.6879 128.106 54.8401C126.02 53.4108 124.308 51.5018 123.113 49.2735C120.423 49.3555 116.406 48.6997 114.088 46.4194C112.226 44.5863 111.234 41.6204 111.853 39.6382C108.798 36.6276 107.307 32.6483 108.12 28.7063Z" fill="#407BFF"/>
<path opacity="0.2" d="M108.12 28.7063C108.486 27.1081 109.188 25.6063 110.18 24.3008C111.172 22.9953 112.431 21.9161 113.872 21.1351C113.057 19.9164 112.629 18.4803 112.643 17.0142C112.71 12.2897 117.434 8.53397 123.187 8.61594C125.635 8.63507 128.016 9.41649 129.998 10.8515C132.286 5.89599 139.008 4.04792 145.126 6.72316C150.238 8.95873 153.323 13.6534 152.973 18.0724C154.031 17.8932 155.105 17.8307 156.177 17.8861C162.884 18.2587 168.1 23.0354 167.824 28.5572C167.638 31.918 165.447 34.7721 162.25 36.4115C164.486 40.6442 164.568 45.4283 162.086 49.0798C159.605 52.7312 155.379 54.3482 150.767 54.0278C147.19 57.5228 141.333 59.1845 135.259 57.9177C134.084 57.6722 132.934 57.318 131.824 56.8595C129.715 59.5944 125.214 59.6242 125.214 59.6242C126.634 58.3543 127.642 56.6879 128.106 54.8401C126.02 53.4108 124.308 51.5018 123.113 49.2735C120.423 49.3555 116.406 48.6997 114.088 46.4194C112.226 44.5863 111.234 41.6204 111.853 39.6382C108.798 36.6276 107.307 32.6483 108.12 28.7063Z" fill="black"/>
<path d="M198.63 64.7435L198.474 63.9983C202.116 63.2567 205.701 62.2606 209.204 61.0176L209.465 61.7181C205.929 62.9786 202.308 63.9895 198.63 64.7435Z" fill="#407BFF"/>
<path d="M190.06 66.2414L189.956 65.4962C191.372 65.295 192.788 65.0789 194.144 64.8405L194.271 65.5856C192.907 65.8017 191.514 66.0402 190.06 66.2414Z" fill="#407BFF"/>
<path d="M213.869 31.1803C213.795 29.9494 213.287 28.7845 212.436 27.8924C211.585 27.0002 210.445 26.4384 209.219 26.3068C191.737 24.4811 167.265 28.5423 157.503 30.4351C156.273 30.6706 155.168 31.3376 154.386 32.3159C153.605 33.2941 153.198 34.5193 153.24 35.7707C153.59 47.3211 156.594 54.8997 161.393 62.523C161.857 63.2514 162.494 63.8546 163.246 64.2794C163.998 64.7043 164.844 64.938 165.707 64.9598C169.15 65.0567 172.541 65.0268 175.834 64.8927C177.556 67.2897 179.818 69.2477 182.437 70.6083C182.121 68.5737 182.121 66.5026 182.437 64.468C193.004 63.5514 202.237 61.5766 208.563 59.2516C209.338 58.9625 210.034 58.4967 210.596 57.8913C211.159 57.2859 211.573 56.5575 211.805 55.7641C214.234 47.6267 214.264 37.4027 213.869 31.1803Z" fill="#407BFF"/>
</svg>
