<svg width="37" height="37" viewBox="0 0 37 37" fill="none" xmlns="http://www.w3.org/2000/svg">
<path d="M0.505475 32.8565L6.22712 27.1254C-3.84298 11.2311 11.4402 -1.40285 21.1034 0.125463L36.9969 16.1726C35.0642 36.7537 16.2718 36.2952 9.78726 30.9462C8.30387 32.4745 5.13365 35.7348 4.3199 36.5499C3.50616 37.365 2.6246 36.8896 2.28554 36.5499L0.505475 34.7669C-0.409989 34.0537 0.124032 33.1962 0.505475 32.8565Z" fill="#018FFF"/>
<path d="M10.1658 24.0905C2.94381 12.8829 14.616 4.09522 20.8462 5.49616V12.5009C20.8462 14.8443 23.1349 15.8546 24.2792 16.0669H31.7809C31.6792 20.1424 30.0433 23.1141 29.238 24.0905C21.6091 33.3622 12.7099 28.0386 10.1658 24.0905Z" fill="white"/>
<path d="M20.8523 12.8632L21.1066 0.12735L37.0001 16.0471C33.7366 16.0896 26.6248 16.149 24.2853 16.0471C21.9458 15.9453 21.0218 13.8821 20.8523 12.8632Z" fill="#B0DCFF"/>
<rect opacity="0.66" x="11.4434" y="9.67923" width="7.88316" height="2.29245" rx="1.14623" fill="#018FFF"/>
<rect opacity="0.66" x="11.4434" y="14.0094" width="7.88316" height="2.29245" rx="1.14623" fill="#018FFF"/>
<rect opacity="0.66" x="11.4434" y="18.3396" width="16.0206" height="2.29245" rx="1.14623" fill="#018FFF"/>
<rect opacity="0.66" x="11.4434" y="22.6698" width="16.0206" height="2.29245" rx="1.14623" fill="#018FFF"/>
</svg>
