<svg width="382" height="284" viewBox="0 0 382 284" fill="none" xmlns="http://www.w3.org/2000/svg">
<path d="M381.147 249.575H0V249.766H381.147V249.575Z" fill="#EBEBEB"/>
<path d="M342.956 261.84H317.708V262.03H342.956V261.84Z" fill="#EBEBEB"/>
<path d="M252.487 263.914H245.862V264.105H252.487V263.914Z" fill="#EBEBEB"/>
<path d="M316.946 254.766H302.318V254.956H316.946V254.766Z" fill="#EBEBEB"/>
<path d="M72.9132 256.047H39.9897V256.237H72.9132V256.047Z" fill="#EBEBEB"/>
<path d="M84.5309 256.047H79.7056V256.237H84.5309V256.047Z" fill="#EBEBEB"/>
<path d="M171.63 259.264H100.219V259.454H171.63V259.264Z" fill="#EBEBEB"/>
<path d="M180.664 215.577H33.4725C32.3194 215.575 31.2143 215.115 30.3996 214.299C29.585 213.483 29.1274 212.377 29.1274 211.224V4.31458C29.1375 3.16811 29.5994 2.0719 30.413 1.26405C31.2266 0.456201 32.326 0.00196396 33.4725 0H180.664C181.818 0 182.925 0.458586 183.742 1.27488C184.558 2.09116 185.016 3.19829 185.016 4.35269V211.224C185.016 212.378 184.558 213.485 183.742 214.302C182.925 215.118 181.818 215.577 180.664 215.577ZM33.4725 0.152459C32.37 0.154479 31.3133 0.593876 30.5344 1.37421C29.7555 2.15454 29.318 3.21204 29.318 4.31458V211.224C29.318 212.326 29.7555 213.384 30.5344 214.164C31.3133 214.945 32.37 215.384 33.4725 215.386H180.664C181.767 215.384 182.824 214.945 183.605 214.165C184.385 213.385 184.824 212.327 184.826 211.224V4.31458C184.824 3.21134 184.385 2.15385 183.605 1.37374C182.824 0.593629 181.767 0.154474 180.664 0.152459H33.4725Z" fill="#EBEBEB"/>
<path d="M345.555 215.577H198.357C197.203 215.575 196.097 215.115 195.281 214.299C194.465 213.484 194.006 212.378 194.004 211.224V4.31458C194.016 3.16742 194.48 2.07121 195.294 1.26357C196.109 0.455934 197.209 0.00194254 198.357 0H345.555C346.701 0.00396735 347.798 0.459091 348.61 1.26672C349.422 2.07436 349.883 3.16943 349.893 4.31458V211.224C349.893 212.376 349.436 213.48 348.623 214.296C347.81 215.112 346.707 215.573 345.555 215.577ZM198.357 0.152459C197.253 0.154474 196.196 0.593629 195.416 1.37374C194.636 2.15385 194.196 3.21134 194.194 4.31458V211.224C194.196 212.327 194.636 213.385 195.416 214.165C196.196 214.945 197.253 215.384 198.357 215.386H345.555C346.659 215.384 347.716 214.945 348.496 214.165C349.276 213.385 349.716 212.327 349.718 211.224V4.31458C349.716 3.21134 349.276 2.15385 348.496 1.37374C347.716 0.593629 346.659 0.154474 345.555 0.152459H198.357Z" fill="#EBEBEB"/>
<path d="M288.352 201.741V212.566L292.926 215.889H271.582L278.397 213.359V202.496L288.352 201.741Z" fill="#E0E0E0"/>
<path d="M230.777 215.576V249.674H326.064V215.576H230.777ZM232.492 217.787H307.075V228.932H232.5L232.492 217.787Z" fill="#E0E0E0"/>
<path d="M230.777 215.576V249.674H309.369V215.576H230.777ZM232.492 217.787H307.075V228.932H232.5L232.492 217.787Z" fill="#EBEBEB"/>
<path d="M232.492 228.932H247.86V217.787H232.492V228.932Z" fill="#E0E0E0"/>
<path d="M288.055 228.932H307.075V223.359H288.055V228.932Z" fill="#E0E0E0"/>
<path d="M272.337 228.932H286.653V225.623H272.337V228.932Z" fill="#E0E0E0"/>
<path d="M255.391 228.932H269.029V222.162H255.391V228.932Z" fill="#E0E0E0"/>
<path d="M293.559 231.356L293.963 232.69H299.437L299.848 231.356H307.075V246.153H283.085V231.356H293.559Z" fill="#E0E0E0"/>
<path d="M265.049 231.356L265.461 232.69H270.934L271.346 231.356H281.812V246.153H257.823V231.356H265.049Z" fill="#E0E0E0"/>
<path d="M243.034 231.356L243.438 232.69H248.912L249.323 231.356H256.55V246.153H232.561V231.356H243.034Z" fill="#E0E0E0"/>
<path d="M244.712 208.213H315.597C317.083 208.213 318.288 207.008 318.288 205.522V164.823C318.288 163.337 317.083 162.132 315.597 162.132H244.712C243.225 162.132 242.021 163.337 242.021 164.823V205.522C242.021 207.008 243.225 208.213 244.712 208.213Z" fill="#E0E0E0"/>
<path d="M242.92 208.213H313.806C315.292 208.213 316.497 207.008 316.497 205.522V164.823C316.497 163.337 315.292 162.132 313.806 162.132H242.92C241.434 162.132 240.229 163.337 240.229 164.823V205.522C240.229 207.008 241.434 208.213 242.92 208.213Z" fill="#E6E6E6"/>
<path d="M314.255 205.971V164.365H242.47V205.971H314.255Z" fill="#F0F0F0"/>
<path d="M145.705 40.127H55.2739V133.569H145.705V40.127Z" fill="#EBEBEB"/>
<path d="M148.868 40.127H58.4375V133.569H148.868V40.127Z" fill="#F0F0F0"/>
<path d="M146.475 42.3457H60.7168V131.404H146.475V42.3457Z" fill="#E0E0E0"/>
<path d="M144.333 42.3457H60.7168V131.404H144.333V42.3457Z" fill="#F5F5F5"/>
<path d="M103.39 42.3457H101.69V131.404H103.39V42.3457Z" fill="#EBEBEB"/>
<path d="M113.132 42.3457L136.961 131.397H139.248L115.419 42.3457H113.132Z" fill="white"/>
<path d="M104.114 40.9736H102.658V133.112H104.114V40.9736Z" fill="#F0F0F0"/>
<path d="M121.776 42.3457L144.333 126.625V80.3003L134.179 42.3457H121.776Z" fill="white"/>
<path d="M60.7168 50.4258V58.9711L80.1019 131.397H82.3888L60.7168 50.4258Z" fill="white"/>
<path d="M60.7168 67.6836V114.008L65.3668 131.396H77.7617L60.7168 67.6836Z" fill="white"/>
<path d="M304.574 45.4551H249.819V112.08H304.574V45.4551Z" fill="#E6E6E6"/>
<path d="M292.042 95.5762L263.273 67.2951L294.398 62.1572L292.042 95.5762Z" fill="#E0E0E0"/>
<path d="M263.967 88.8757L262.542 67.1885L284.206 72.5093L285.776 89.0968L263.967 88.8757Z" fill="#F0F0F0"/>
<path d="M298.489 64.5381C301.904 61.1235 301.904 55.5874 298.489 52.1729C295.075 48.7583 289.539 48.7583 286.124 52.1729C282.709 55.5874 282.709 61.1235 286.124 64.5381C289.539 67.9526 295.075 67.9526 298.489 64.5381Z" fill="#FAFAFA"/>
<path d="M266.802 96.6052C266.804 95.7647 266.556 94.9428 266.09 94.2434C265.624 93.5439 264.961 92.9985 264.185 92.6762C263.409 92.3539 262.554 92.2692 261.73 92.4328C260.906 92.5964 260.148 93.0009 259.554 93.5952C258.96 94.1894 258.555 94.9467 258.392 95.7711C258.228 96.5954 258.313 97.4498 258.635 98.2259C258.958 99.0021 259.503 99.6651 260.202 100.131C260.902 100.597 261.724 100.845 262.564 100.844C263.688 100.841 264.764 100.394 265.559 99.5999C266.353 98.8055 266.8 97.7286 266.802 96.6052Z" fill="#E0E0E0"/>
<path d="M263.563 104.061L275.805 96.6054L265.514 88.1211L263.563 104.061Z" fill="#F5F5F5"/>
<path d="M278.031 107.133H280.44V53.9324H278.031V107.133Z" fill="#E0E0E0"/>
<path d="M254.956 104.777H258.074V53.9324H254.956V104.777Z" fill="#EBEBEB"/>
<path d="M283.154 105.021H299.071V89.1048H283.154V105.021Z" fill="#EBEBEB"/>
<path d="M101.309 216.164L91.2311 187.12C91.2311 187.12 105.196 197.48 105.12 186C105.044 174.52 98.7473 183.438 96.5747 179.192C94.4022 174.946 102.772 174.992 99.8297 168.558C96.8873 162.125 88.5402 172.012 87.0613 166.31C85.5825 160.608 83.2498 157.711 77.1515 158.222C77.1515 158.222 73.866 165.723 77.9138 171.143C81.9616 176.563 67.9201 172.21 69.3685 177.66C70.8168 183.111 75.4668 187.867 77.5326 184.033C79.5985 180.199 82.1979 187.547 78.6837 189.445C75.1695 191.343 83.2575 199.546 85.0641 195.239C86.3054 192.378 87.8381 189.652 89.6379 187.105L98.9302 218.184L101.309 216.164Z" fill="#EBEBEB"/>
<path d="M111.699 216.422L123.057 197.845C123.057 197.845 111.821 202.907 113.62 194.971C115.419 187.036 118.415 194.156 120.564 191.549C122.714 188.942 116.905 187.737 119.916 183.697C122.927 179.657 127.211 187.791 129.064 184.071C130.916 180.351 133.005 178.696 137.144 179.969C137.144 179.969 138.288 185.656 134.674 188.797C131.061 191.937 141.413 191.084 139.606 194.606C137.8 198.127 133.843 200.75 132.997 197.784C132.151 194.819 129.231 199.515 131.381 201.352C133.531 203.189 126.67 207.648 126.091 204.401C125.663 202.234 125.015 200.116 124.155 198.082L113.033 218.183L111.699 216.422Z" fill="#E6E6E6"/>
<path d="M104.046 216.598L109.244 186.678C109.244 186.678 97.2688 199.004 95.5232 187.791C93.7775 176.578 101.324 184.277 102.773 179.787C104.221 175.297 96.0568 176.684 97.9015 169.938C99.7463 163.192 109.466 171.508 109.999 165.715C110.533 159.922 112.362 156.72 118.384 156.255C118.384 156.255 122.783 163.039 119.711 168.97C116.639 174.901 129.621 168.429 129.087 173.971C128.553 179.512 124.765 184.894 122.15 181.479C119.535 178.064 118.156 185.657 121.883 186.937C125.611 188.218 119.009 197.518 116.585 193.607C114.921 191.016 112.992 188.604 110.83 186.411L106.721 218.184L104.046 216.598Z" fill="#F5F5F5"/>
<path d="M97.5735 250.238H115.426C116.029 250.24 116.609 250.011 117.048 249.598C117.487 249.186 117.753 248.622 117.789 248.02L119.68 217.254C119.7 216.932 119.653 216.61 119.544 216.307C119.435 216.004 119.264 215.726 119.044 215.491C118.823 215.257 118.557 215.069 118.261 214.941C117.966 214.813 117.647 214.747 117.324 214.746H95.6754C95.3531 214.747 95.0343 214.813 94.7387 214.941C94.443 215.069 94.1767 215.257 93.956 215.491C93.7354 215.726 93.5652 216.004 93.4558 216.307C93.3464 216.61 93.3001 216.932 93.3199 217.254L95.2104 248.058C95.2565 248.653 95.5257 249.208 95.964 249.612C96.4023 250.017 96.9772 250.24 97.5735 250.238Z" fill="#EBEBEB"/>
<path d="M93.5715 218.184H119.68C120.261 218.184 120.821 217.97 121.254 217.583C121.687 217.197 121.962 216.664 122.028 216.088C122.068 215.756 122.037 215.419 121.937 215.1C121.837 214.781 121.671 214.487 121.449 214.237C121.227 213.987 120.955 213.787 120.65 213.65C120.345 213.513 120.014 213.442 119.68 213.442H93.5715C93.2386 213.442 92.9096 213.513 92.6058 213.649C92.302 213.785 92.0304 213.983 91.8088 214.232C91.5871 214.48 91.4204 214.772 91.3196 215.089C91.2187 215.407 91.186 215.742 91.2236 216.072C91.2857 216.652 91.5597 217.188 91.9931 217.578C92.4265 217.968 92.9886 218.183 93.5715 218.184Z" fill="#F5F5F5"/>
<path d="M190.574 284C272.202 284 338.375 280.137 338.375 275.371C338.375 270.606 272.202 266.742 190.574 266.742C108.945 266.742 42.7725 270.606 42.7725 275.371C42.7725 280.137 108.945 284 190.574 284Z" fill="#F5F5F5"/>
<path d="M271.628 49.267V263.83C271.628 264.274 271.54 264.713 271.368 265.123C271.197 265.532 270.946 265.904 270.629 266.215C270.313 266.527 269.938 266.772 269.525 266.937C269.113 267.102 268.672 267.183 268.228 267.176H152.939C152.537 267.182 152.138 267.108 151.765 266.957C151.392 266.806 151.054 266.581 150.769 266.297C150.485 266.013 150.26 265.674 150.109 265.301C149.958 264.928 149.884 264.529 149.89 264.127V48.9926C149.876 48.6365 149.932 48.2811 150.055 47.9469C150.179 47.6126 150.367 47.3059 150.609 47.0446C150.851 46.7832 151.143 46.5723 151.467 46.4239C151.791 46.2754 152.141 46.1925 152.497 46.1797H179.901C180.324 46.188 180.735 46.3223 181.081 46.5654C181.428 46.8084 181.694 47.1492 181.845 47.5442L183.103 50.5934C183.257 50.9867 183.526 51.3251 183.873 51.5654C184.221 51.8057 184.632 51.9371 185.054 51.9427H236.593C237.012 51.9394 237.421 51.8116 237.767 51.5754C238.113 51.3392 238.381 51.0053 238.537 50.6163L239.795 47.5137C239.946 47.1179 240.212 46.776 240.558 46.5317C240.904 46.2873 241.315 46.1515 241.739 46.1416H268.678C269.483 46.1675 270.245 46.5107 270.797 47.0962C271.35 47.6817 271.649 48.4621 271.628 49.267Z" fill="#263238"/>
<path d="M271.636 60.4951H149.905V251.96H271.636V60.4951Z" fill="#407BFF"/>
<path opacity="0.7" d="M271.636 60.4951H149.905V251.96H271.636V60.4951Z" fill="white"/>
<path opacity="0.6" d="M164.282 55.4111H165.86V53.3148H164.282V55.4111Z" fill="white"/>
<path opacity="0.6" d="M161.713 55.4111H163.291V52.6135H161.713V55.4111Z" fill="white"/>
<path opacity="0.6" d="M159.144 55.4111H160.722V51.9122H159.144V55.4111Z" fill="white"/>
<path opacity="0.6" d="M156.575 55.4111H158.153V51.2109H156.575V55.4111Z" fill="white"/>
<path opacity="0.6" d="M257.526 52.5449H256.596V54.6412H257.526V52.5449Z" fill="white"/>
<path opacity="0.6" d="M258.166 55.4111H265.606V51.775H258.166V55.4111Z" fill="white"/>
<path d="M204.744 79.5071H244.803C244.922 79.5183 245.043 79.5045 245.156 79.4666C245.27 79.4286 245.375 79.3673 245.464 79.2865C245.552 79.2058 245.623 79.1074 245.672 78.9977C245.72 78.888 245.745 78.7694 245.745 78.6495C245.745 78.5295 245.72 78.4109 245.672 78.3012C245.623 78.1915 245.552 78.0931 245.464 78.0124C245.375 77.9317 245.27 77.8704 245.156 77.8324C245.043 77.7944 244.922 77.7806 244.803 77.7919H204.744C204.531 77.812 204.333 77.9111 204.188 78.0697C204.044 78.2283 203.964 78.435 203.964 78.6495C203.964 78.8639 204.044 79.0706 204.188 79.2292C204.333 79.3878 204.531 79.4869 204.744 79.5071Z" fill="#263238"/>
<path d="M253.92 82.6855H204.523C204.435 82.6757 204.345 82.6847 204.261 82.7119C204.176 82.739 204.098 82.7837 204.032 82.8431C203.966 82.9024 203.913 82.9751 203.876 83.0563C203.84 83.1375 203.821 83.2254 203.821 83.3143C203.821 83.4033 203.84 83.4912 203.876 83.5724C203.913 83.6536 203.966 83.7263 204.032 83.7856C204.098 83.845 204.176 83.8897 204.261 83.9168C204.345 83.944 204.435 83.953 204.523 83.9432H253.92C254.075 83.9262 254.218 83.8525 254.322 83.7365C254.426 83.6205 254.483 83.4701 254.483 83.3143C254.483 83.1585 254.426 83.0082 254.322 82.8922C254.218 82.7761 254.075 82.7025 253.92 82.6855Z" fill="#263238"/>
<path d="M239.429 86.2919H204.523C204.435 86.2821 204.345 86.2912 204.261 86.3183C204.176 86.3455 204.098 86.3902 204.032 86.4495C203.966 86.5089 203.913 86.5815 203.876 86.6627C203.84 86.7439 203.821 86.8318 203.821 86.9208C203.821 87.0097 203.84 87.0977 203.876 87.1789C203.913 87.2601 203.966 87.3327 204.032 87.3921C204.098 87.4514 204.176 87.4961 204.261 87.5233C204.345 87.5504 204.435 87.5594 204.523 87.5497H239.429C239.584 87.5326 239.727 87.459 239.831 87.3429C239.935 87.2269 239.992 87.0766 239.992 86.9208C239.992 86.765 239.935 86.6147 239.831 86.4986C239.727 86.3826 239.584 86.309 239.429 86.2919Z" fill="#263238"/>
<path d="M270.18 109.618H151.354V228.444H270.18V109.618Z" fill="#407BFF"/>
<path d="M266.353 241.297L263.006 238.408L259.652 241.297V233.354H266.353V241.297Z" fill="#407BFF"/>
<path d="M254.263 233.354H249.217C248.885 233.354 248.567 233.485 248.333 233.72C248.099 233.954 247.967 234.272 247.967 234.604V238.049C247.967 238.381 248.099 238.699 248.333 238.933C248.567 239.168 248.885 239.299 249.217 239.299H250.932V241.297L252.236 239.299H254.263C254.428 239.3 254.591 239.269 254.743 239.206C254.895 239.144 255.033 239.052 255.15 238.936C255.266 238.819 255.358 238.681 255.42 238.529C255.483 238.377 255.515 238.214 255.513 238.049V234.604C255.515 234.439 255.483 234.276 255.42 234.124C255.358 233.972 255.266 233.834 255.15 233.717C255.033 233.601 254.895 233.509 254.743 233.447C254.591 233.384 254.428 233.353 254.263 233.354Z" fill="#407BFF"/>
<path d="M244.148 234.298C243.218 232.774 241.419 233.345 240.489 234.527C239.566 233.338 237.775 232.736 236.822 234.26C235.229 236.821 238.476 239.223 240.016 240.168L240.45 240.435L240.893 240.168C242.409 239.246 245.718 236.882 244.148 234.298Z" fill="#407BFF"/>
<g opacity="0.3">
<path opacity="0.7" d="M245.916 119.619H250.414L248.165 125.451L245.916 119.619Z" fill="white"/>
<path opacity="0.7" d="M260.407 148.647L261.772 152.932L255.536 152.55L260.407 148.647Z" fill="white"/>
<path d="M258.654 129.85L256.52 135.087L263.007 137.351V133.112L258.654 129.85Z" fill="white"/>
<path d="M174.542 118.217H177.843L174.542 122.539V118.217Z" fill="white"/>
<path d="M162.132 139.523L165.868 138.669L166.912 141.878L162.605 143.38L162.132 139.523Z" fill="white"/>
<path d="M199.927 122.539C200.731 122.539 201.383 121.887 201.383 121.083C201.383 120.279 200.731 119.627 199.927 119.627C199.123 119.627 198.471 120.279 198.471 121.083C198.471 121.887 199.123 122.539 199.927 122.539Z" fill="white"/>
<path d="M178.712 218.709C178.712 219.281 178.543 219.84 178.225 220.315C177.907 220.791 177.455 221.161 176.927 221.379C176.399 221.598 175.817 221.655 175.257 221.542C174.696 221.43 174.181 221.154 173.778 220.75C173.374 220.345 173.099 219.829 172.989 219.268C172.878 218.707 172.936 218.126 173.156 217.599C173.376 217.071 173.748 216.62 174.224 216.304C174.7 215.987 175.259 215.819 175.831 215.82C176.21 215.82 176.585 215.895 176.935 216.04C177.285 216.186 177.603 216.399 177.871 216.667C178.139 216.935 178.351 217.254 178.495 217.604C178.639 217.955 178.713 218.33 178.712 218.709Z" fill="white"/>
<path d="M164.801 193.607L165.868 195.414L160.707 197.625L159.533 196.42L164.801 193.607Z" fill="white"/>
<path d="M198.471 223.185L197.465 220.631H201.391L198.471 223.185Z" fill="white"/>
<path d="M240.176 220.63L240.481 217.787L245.863 219.205V223.359L240.176 220.63Z" fill="white"/>
<path d="M251.74 205.972H256.55L254.149 208.815L251.74 205.972Z" fill="white"/>
<path d="M259.653 176.715L258.654 182.752L259.76 183.758L260.796 176.715H259.653Z" fill="white"/>
<path d="M156.446 159.03L160.707 162.125L157.658 164.366L156.446 159.03Z" fill="white"/>
<path d="M175.351 134.53C175.616 134.53 175.831 134.315 175.831 134.05C175.831 133.784 175.616 133.569 175.351 133.569C175.086 133.569 174.871 133.784 174.871 134.05C174.871 134.315 175.086 134.53 175.351 134.53Z" fill="white"/>
<path d="M237.066 128.805C237.436 128.805 237.737 128.504 237.737 128.134C237.737 127.763 237.436 127.463 237.066 127.463C236.695 127.463 236.395 127.763 236.395 128.134C236.395 128.504 236.695 128.805 237.066 128.805Z" fill="white"/>
<path d="M219.06 220.082C219.06 220.226 219.003 220.363 218.902 220.465C218.8 220.566 218.663 220.623 218.519 220.623C218.376 220.623 218.238 220.566 218.137 220.465C218.035 220.363 217.978 220.226 217.978 220.082C217.978 219.939 218.035 219.801 218.137 219.7C218.238 219.598 218.376 219.541 218.519 219.541C218.663 219.541 218.8 219.598 218.902 219.7C219.003 219.801 219.06 219.939 219.06 220.082Z" fill="white"/>
<path d="M225.411 115.602L230.777 114.794V117.409L225.411 118.217V115.602Z" fill="white"/>
<path d="M260.796 118.217H262.557L261.673 120.374L260.796 118.217Z" fill="white"/>
<path d="M159.533 121.083H162.133L160.829 122.539L159.533 121.083Z" fill="white"/>
<path d="M258.075 223.184L257.823 218.184L261.673 219.54L258.075 223.184Z" fill="white"/>
<path d="M261.772 194.408L259.759 192.8V194.408L261.772 195.62V194.408Z" fill="white"/>
<path d="M158.572 178.323L160.829 180.237L159.701 181.944L156.712 179.551L158.572 178.323Z" fill="white"/>
<path d="M156.713 133.569H159.533L156.446 134.53L156.713 133.569Z" fill="white"/>
</g>
<path d="M205.873 129.003L210.973 124.208L216.019 129.049L222.148 125.672L225.837 131.618L232.614 129.879L234.703 136.55H241.701L242.074 143.532L248.851 145.27L247.464 152.131L253.6 155.5L250.558 161.797L255.658 166.584L251.145 171.928L254.896 177.835L249.194 181.891L251.359 188.538L244.834 191.046L245.276 198.029L238.324 198.837L237.02 205.712L230.083 204.76L227.11 211.094L220.631 208.449L216.171 213.846L210.553 209.676L204.897 213.793L200.491 208.358L193.989 210.934L191.077 204.577L184.14 205.453L182.897 198.57L175.953 197.693L176.464 190.718L169.961 188.149L172.187 181.517L166.523 177.408L170.335 171.539L165.868 166.149L171.021 161.416L168.04 155.081L174.207 151.773L172.888 144.904L179.68 143.235L180.115 136.252L187.113 136.321L189.27 129.666L196.032 131.473L199.774 125.565L205.873 129.003Z" fill="#407BFF"/>
<path opacity="0.4" d="M251.908 173.452L256.42 168.116L251.321 163.329L254.37 157.032L248.233 153.663L249.621 146.802L242.844 145.064L242.47 138.082H235.473L233.384 131.412L226.607 133.15L222.918 127.204L216.819 130.581L211.773 125.74L206.673 130.535L200.575 127.097L196.832 133.013L190.07 131.198L187.913 137.853L180.915 137.784L180.481 144.767L173.689 146.437L175.007 153.297L168.841 156.606L171.821 162.94L166.63 167.704L171.097 173.094L167.285 178.964L172.949 183.072L170.723 189.704L177.226 192.273L176.715 199.248L183.66 200.125L184.894 206.985L191.839 206.109L194.751 212.466L201.253 209.89L205.659 215.325L211.316 211.209L216.934 215.378L221.393 209.981L227.873 212.626L230.845 206.292L237.775 207.245L239.086 200.384L246.038 199.576L245.588 192.593L252.121 190.085L249.956 183.431L255.658 179.383L251.908 173.452ZM250.505 178.377L245.466 181.959L247.38 187.837L241.609 190.047L242.005 196.214L235.861 196.931L234.71 203.029L228.612 202.191L225.982 207.786L220.265 205.453L216.324 210.21L211.361 206.528L206.368 210.164L202.481 205.362L196.733 207.649L194.164 202.031L188.027 202.793L186.937 196.695L180.839 195.932L181.296 189.773L175.549 187.486L177.515 181.632L172.515 178.003L175.884 172.819L171.935 168.063L176.509 163.878L173.803 158.252L179.253 155.332L178.087 149.234L184.094 147.763L184.475 141.596L190.65 141.657L192.555 135.78L198.524 137.38L201.833 132.159L207.222 135.208L211.72 130.97L216.179 135.246L221.591 132.265L224.854 137.518L230.838 135.993L232.683 141.893H238.865L239.193 148.068L245.177 149.592L243.957 155.645L249.369 158.618L246.686 164.183L251.191 168.413L247.204 173.132L250.505 178.377Z" fill="black"/>
<path opacity="0.4" d="M205.873 129.003L210.973 124.208L216.019 129.049L222.148 125.672L225.837 131.618L232.614 129.879L234.703 136.55H241.701L242.074 143.532L248.851 145.27L247.464 152.131L253.6 155.5L250.558 161.797L255.658 166.584L251.145 171.928L254.896 177.835L249.194 181.891L251.359 188.538L244.834 191.046L245.276 198.029L238.324 198.837L237.02 205.712L230.083 204.76L227.11 211.094L220.631 208.449L216.171 213.846L210.553 209.676L204.897 213.793L200.491 208.358L193.989 210.934L191.077 204.577L184.14 205.453L182.897 198.57L175.953 197.693L176.464 190.718L169.961 188.149L172.187 181.517L166.523 177.408L170.335 171.539L165.868 166.149L171.021 161.416L168.04 155.081L174.207 151.773L172.888 144.904L179.68 143.235L180.115 136.252L187.113 136.321L189.27 129.666L196.032 131.473L199.774 125.565L205.873 129.003Z" fill="black"/>
<path d="M251.145 171.928L255.658 166.592L250.558 161.805L253.608 155.508L247.471 152.139L248.859 145.278L242.082 143.54L241.708 136.557H234.71L232.622 129.887L225.845 131.625L222.155 125.679L216.057 129.056L211.011 124.216L205.911 129.011L199.813 125.573L196.07 131.488L189.308 129.674L187.151 136.329L180.153 136.26L179.719 143.243L172.927 144.912L174.245 151.773L168.078 155.081L171.059 161.416L165.868 166.18L170.335 171.569L166.523 177.439L172.187 181.548L169.961 188.18L176.464 190.749L175.953 197.724L182.897 198.6L184.132 205.461L191.077 204.584L193.989 210.942L200.491 208.365L204.897 213.801L210.553 209.684L216.171 213.854L220.631 208.457L227.11 211.102L230.083 204.767L237.013 205.72L238.324 198.86L245.276 198.052L244.826 191.069L251.359 188.561L249.194 181.906L254.896 177.858L251.145 171.928ZM249.743 176.852L244.704 180.435L246.617 186.312L240.847 188.523L241.243 194.69L235.099 195.406L233.948 201.505L227.85 200.666L225.22 206.261L219.503 203.929L215.562 208.686L210.599 205.004L205.606 208.64L201.718 203.837L195.971 206.124L193.402 200.506L187.265 201.268L186.175 195.17L180.077 194.408L180.534 188.248L174.787 185.962L176.753 180.107L171.753 176.479L175.122 171.295L171.173 166.538L175.747 162.353L173.041 156.728L178.491 153.808L177.325 147.71L183.332 146.238L183.713 140.072L189.888 140.133L191.793 134.255L197.762 135.856L201.07 130.634L206.46 133.684L210.957 129.445L215.417 133.722L220.829 130.741L224.092 135.993L230.076 134.469L231.92 140.369H238.103L238.43 146.543L244.414 148.068L243.195 154.121L248.607 157.094L245.924 162.658L250.429 166.889L246.442 171.608L249.743 176.852Z" fill="#407BFF"/>
<path opacity="0.6" d="M251.145 171.928L255.658 166.592L250.558 161.805L253.608 155.508L247.471 152.139L248.859 145.278L242.082 143.54L241.708 136.557H234.71L232.622 129.887L225.845 131.625L222.155 125.679L216.057 129.056L211.011 124.216L205.911 129.011L199.813 125.573L196.07 131.488L189.308 129.674L187.151 136.329L180.153 136.26L179.719 143.243L172.927 144.912L174.245 151.773L168.078 155.081L171.059 161.416L165.868 166.18L170.335 171.569L166.523 177.439L172.187 181.548L169.961 188.18L176.464 190.749L175.953 197.724L182.897 198.6L184.132 205.461L191.077 204.584L193.989 210.942L200.491 208.365L204.897 213.801L210.553 209.684L216.171 213.854L220.631 208.457L227.11 211.102L230.083 204.767L237.013 205.72L238.324 198.86L245.276 198.052L244.826 191.069L251.359 188.561L249.194 181.906L254.896 177.858L251.145 171.928ZM249.743 176.852L244.704 180.435L246.617 186.312L240.847 188.523L241.243 194.69L235.099 195.406L233.948 201.505L227.85 200.666L225.22 206.261L219.503 203.929L215.562 208.686L210.599 205.004L205.606 208.64L201.718 203.837L195.971 206.124L193.402 200.506L187.265 201.268L186.175 195.17L180.077 194.408L180.534 188.248L174.787 185.962L176.753 180.107L171.753 176.479L175.122 171.295L171.173 166.538L175.747 162.353L173.041 156.728L178.491 153.808L177.325 147.71L183.332 146.238L183.713 140.072L189.888 140.133L191.793 134.255L197.762 135.856L201.07 130.634L206.46 133.684L210.957 129.445L215.417 133.722L220.829 130.741L224.092 135.993L230.076 134.469L231.92 140.369H238.103L238.43 146.543L244.414 148.068L243.195 154.121L248.607 157.094L245.924 162.658L250.429 166.889L246.442 171.608L249.743 176.852Z" fill="white"/>
<path opacity="0.4" d="M188.363 166.797C188.363 166.797 192.25 166.126 194.164 166.797C196.077 167.468 204.173 181.281 204.173 181.281C204.173 181.281 219.876 159.677 232.431 150.232C232.431 150.232 216.141 164.823 206.696 189.315C206.696 189.315 203.517 190.718 201.268 188.21C200.62 187.448 193.325 175.015 191.915 174.55C190.81 174.176 187.242 174.359 187.242 174.359L188.363 166.797Z" fill="black"/>
<path d="M187.601 166.035C187.601 166.035 191.488 165.365 193.402 166.035C195.315 166.706 203.411 180.519 203.411 180.519C203.411 180.519 219.114 158.916 231.669 149.471C231.669 149.471 215.379 164.061 205.934 188.553C205.934 188.553 202.755 189.956 200.506 187.448C199.858 186.686 192.563 174.253 191.153 173.788C190.048 173.414 186.48 173.597 186.48 173.597L187.601 166.035Z" fill="white"/>
<path d="M193.463 86.2533C193.478 89.3781 192.691 92.4545 191.176 95.1874L190.84 95.7591C189.751 97.5667 188.355 99.1711 186.716 100.501L186.625 100.577C185.073 101.828 183.327 102.816 181.456 103.504C179.435 104.245 177.298 104.622 175.145 104.617C174.459 104.621 173.775 104.583 173.094 104.503C171.951 104.381 170.823 104.149 169.725 103.809C167.051 102.987 164.604 101.557 162.574 99.6316C160.355 97.5441 158.69 94.9378 157.728 92.0471C156.767 89.1564 156.539 86.0719 157.065 83.0712C157.591 80.0704 158.855 77.2475 160.742 74.8564C162.63 72.4653 165.083 70.581 167.88 69.3729C170.676 68.1649 173.73 67.671 176.765 67.9357C179.8 68.2005 182.721 69.2155 185.266 70.8895C187.812 72.5635 189.901 74.8441 191.346 77.5259C192.792 80.2078 193.548 83.2068 193.546 86.2533H193.463Z" fill="#407BFF"/>
<path d="M191.145 95.1874L190.81 95.7591C186.607 95.6935 182.413 96.1674 178.331 97.1694L176.966 97.5048L176.036 97.7487C174.87 98.0613 173.749 98.389 172.797 98.7016L172.362 98.8464L172.049 98.9455C170.914 99.3267 169.946 99.6697 169.206 99.9518C168.101 100.371 167.468 100.645 167.468 100.645C167.107 100.179 166.776 99.6905 166.477 99.1818L166.431 99.098C164.777 96.3232 161.858 89.9505 163.23 80.8029C164.754 70.6263 173.193 71.2743 176.189 71.8384C176.547 71.8976 176.901 71.9791 177.248 72.0823C177.248 72.0823 186.693 74.3082 187.044 80.1931C187.093 80.9808 187.19 81.7649 187.333 82.541C188.222 86.8624 189.497 91.095 191.145 95.1874Z" fill="#263238"/>
<path d="M181.426 103.504C179.404 104.245 177.267 104.622 175.114 104.617C174.429 104.621 173.744 104.583 173.064 104.503C171.921 104.381 170.792 104.149 169.694 103.809L169.107 99.0144L168.825 96.7275L181.395 98.5113V99.5861L181.434 102.742V103.504H181.426Z" fill="#407BFF"/>
<path d="M186.594 100.577C185.042 101.828 183.297 102.817 181.426 103.504C179.404 104.245 177.267 104.622 175.114 104.617C174.429 104.621 173.744 104.583 173.064 104.503C171.921 104.381 170.792 104.149 169.694 103.809C167.02 102.987 164.573 101.557 162.544 99.6319C163.123 99.5404 163.71 99.4718 164.297 99.3956H164.442C165.136 99.3194 165.829 99.2508 166.523 99.1974C167.346 99.1288 168.162 99.0754 168.985 99.0449H169.13L170.136 99.0068H171.333H172.736C174.26 99.0068 175.805 99.0627 177.371 99.1745L178.949 99.3041L179.779 99.388L180.984 99.5709L181.251 99.609H181.434L182.851 99.853C183.073 99.8911 183.294 99.9444 183.515 99.9749L183.934 100.059L184.384 100.143L185.146 100.295L185.68 100.402L186.594 100.577Z" fill="#263238"/>
<path d="M178.209 103.672C172.972 102.78 171.478 100.463 171.478 100.463C173.719 98.5265 173.452 95.5154 173.003 93.6021C172.859 93.0051 172.665 92.4212 172.423 91.8564L178.712 93.3048C178.53 94.1794 178.41 95.0659 178.354 95.9576C178.306 96.6173 178.339 97.2804 178.453 97.9319C178.804 99.8377 179.886 99.9139 179.886 99.9139C180.885 102.086 178.209 103.672 178.209 103.672Z" fill="#E4897B"/>
<path opacity="0.2" d="M178.331 96.0035C178.283 96.6632 178.316 97.3263 178.43 97.9778C175.93 97.5357 174.1 95.447 172.98 93.648C172.836 93.051 172.642 92.4671 172.4 91.9023L178.689 93.3507C178.507 94.2253 178.387 95.1118 178.331 96.0035Z" fill="black"/>
<path d="M177.477 75.3295C183.431 75.5887 185.215 78.8589 185.382 85.0106C185.603 92.6946 183.667 98.0687 176.296 96.1173C166.279 93.4568 167.59 74.9026 177.477 75.3295Z" fill="#E4897B"/>
<path d="M181.548 84.5078C181.988 85.4186 182.536 86.2734 183.179 87.0539C182.993 87.2913 182.745 87.4735 182.463 87.5809C182.181 87.6884 181.875 87.717 181.578 87.6637L181.548 84.5078Z" fill="#DE5753"/>
<path d="M175.427 80.803C175.359 80.8033 175.294 80.7789 175.244 80.7344C175.217 80.7094 175.196 80.6793 175.182 80.6459C175.167 80.6124 175.16 80.5764 175.16 80.54C175.16 80.5036 175.167 80.4675 175.182 80.4341C175.196 80.4007 175.217 80.3705 175.244 80.3456C175.621 79.9846 176.077 79.7171 176.576 79.5649C177.075 79.4126 177.603 79.3797 178.118 79.469C178.153 79.4754 178.187 79.4888 178.217 79.5083C178.248 79.5279 178.274 79.5533 178.295 79.5831C178.315 79.6128 178.33 79.6463 178.337 79.6817C178.345 79.7171 178.345 79.7536 178.339 79.7891C178.332 79.8247 178.319 79.8587 178.299 79.889C178.28 79.9194 178.254 79.9457 178.224 79.9662C178.195 79.9867 178.161 80.0012 178.126 80.0087C178.091 80.0163 178.054 80.0168 178.018 80.0102C177.597 79.9434 177.166 79.9717 176.757 80.093C176.349 80.2144 175.972 80.4257 175.655 80.7115C175.627 80.7435 175.592 80.7684 175.552 80.7843C175.512 80.8002 175.469 80.8066 175.427 80.803Z" fill="#263238"/>
<path d="M184.734 80.5588C184.677 80.5573 184.621 80.5387 184.574 80.5055C184.287 80.262 183.949 80.0858 183.585 79.9895C183.221 79.8932 182.84 79.8794 182.47 79.949C182.436 79.9609 182.399 79.9658 182.363 79.9634C182.326 79.961 182.291 79.9513 182.258 79.935C182.225 79.9187 182.196 79.896 182.172 79.8683C182.149 79.8406 182.131 79.8084 182.119 79.7736C182.097 79.7039 182.104 79.6283 182.136 79.5629C182.169 79.4975 182.226 79.4473 182.295 79.423C182.748 79.3239 183.217 79.3294 183.668 79.439C184.118 79.5487 184.538 79.7596 184.894 80.0557C184.953 80.0998 184.992 80.1651 185.004 80.2377C185.015 80.3103 184.998 80.3845 184.955 80.4445C184.929 80.4788 184.896 80.5068 184.858 80.5266C184.819 80.5464 184.777 80.5574 184.734 80.5588Z" fill="#263238"/>
<path d="M170.54 85.0865C170.54 85.0865 173.536 80.3146 173.277 76.5184C173.277 76.5184 185.283 72.2038 185.352 84.2023C185.352 84.2023 186.96 73.6217 176.738 72.9432C166.515 72.2648 165.913 87.2438 171.005 91.9319C171.005 91.9319 168.688 88.0671 170.54 85.0865Z" fill="#263238"/>
<path d="M171.463 86.3834C171.433 85.6932 171.132 85.0426 170.625 84.573C170.118 84.1034 169.447 83.8527 168.756 83.8754C166.896 83.9974 165.86 87.7479 170.411 88.8532C171.059 89.0133 171.455 88.4263 171.463 86.3834Z" fill="#E4897B"/>
<path d="M181.693 89.4164C181.288 90.0202 180.926 90.6519 180.61 91.3069L180.237 91.2002C178.575 90.6818 177.95 89.8967 177.805 89.1801C177.732 88.8265 177.745 88.4604 177.843 88.1129C177.892 87.9148 177.969 87.7248 178.072 87.5488C178.956 88.3216 179.996 88.8961 181.121 89.2335C181.472 89.3555 181.693 89.4164 181.693 89.4164Z" fill="#263238"/>
<path d="M181.129 89.2335L180.793 89.7823C179.269 89.2945 178.186 88.7456 177.843 88.1129C177.892 87.9148 177.969 87.7248 178.072 87.5488C178.959 88.3226 180.001 88.8971 181.129 89.2335Z" fill="white"/>
<path d="M180.237 91.2007C178.575 90.6824 177.95 89.8972 177.805 89.1807C178.436 89.3866 179.025 89.7042 179.543 90.1183C179.886 90.3943 180.129 90.7742 180.237 91.2007Z" fill="#DE5753"/>
<path d="M177.34 75.7719C177.34 75.7719 174.52 85.4683 168.36 85.0795C162.201 84.6907 172.248 72.6922 172.248 72.6922C172.248 72.6922 182.47 69.3305 187.212 74.8876C191.953 80.4447 185.352 84.2028 185.352 84.2028C185.352 84.2028 186.053 76.6333 177.34 75.7719Z" fill="#263238"/>
<path d="M172.766 84.1269C172.728 84.1264 172.691 84.1145 172.66 84.0928C172.629 84.071 172.605 84.0404 172.591 84.0049C172.573 83.9593 172.573 83.9085 172.592 83.8631C172.61 83.8177 172.645 83.7811 172.69 83.761C177.493 81.7028 177.119 75.1547 177.119 75.0861C177.117 75.0368 177.134 74.9886 177.167 74.9516C177.199 74.9146 177.245 74.8918 177.294 74.8879C177.344 74.8856 177.394 74.9025 177.432 74.935C177.47 74.9676 177.494 75.0134 177.5 75.0632C177.5 75.1318 177.889 81.9239 172.843 84.1116L172.766 84.1269Z" fill="#263238"/>
<path d="M178.041 84.1725C178.095 84.6298 177.889 85.0339 177.584 85.072C177.279 85.1101 176.982 84.7594 176.928 84.3097C176.875 83.8599 177.081 83.4483 177.386 83.4102C177.691 83.3721 177.988 83.7075 178.041 84.1725Z" fill="#263238"/>
<path d="M177.256 83.4404L178.217 82.9297C178.217 82.9297 177.813 83.8521 177.256 83.4404Z" fill="#263238"/>
<path d="M183.751 83.3951C183.804 83.8524 183.598 84.2565 183.293 84.2946C182.988 84.3327 182.691 83.9897 182.638 83.5323C182.584 83.0749 182.79 82.6709 183.095 82.6328C183.4 82.5947 183.713 82.9377 183.751 83.3951Z" fill="#263238"/>
<path d="M182.951 82.6631L183.904 82.1523C183.904 82.1523 183.53 83.09 182.951 82.6631Z" fill="#263238"/>
<path d="M186.686 100.501L186.594 100.577C185.042 101.828 183.297 102.817 181.426 103.504V102.963V102.727L180.427 100.707L180.938 99.5023L181.372 98.4961L181.815 99.4566L186.686 100.501Z" fill="#407BFF"/>
<path opacity="0.6" d="M186.686 100.501L186.594 100.577C185.042 101.828 183.297 102.817 181.426 103.504V102.963V102.727L180.427 100.707L180.938 99.5023L181.372 98.4961L181.815 99.4566L186.686 100.501Z" fill="white"/>
<path d="M175.228 100.553L173.147 103.168L173.041 104.51C171.898 104.388 170.769 104.156 169.671 103.816C166.997 102.994 164.55 101.564 162.521 99.6387L164.251 99.3948H164.396L168.063 98.8764L168.825 96.7344L172.56 98.9603L175.251 100.569L175.228 100.553Z" fill="#407BFF"/>
<path opacity="0.6" d="M175.221 100.554L173.147 103.169L173.041 104.511C171.898 104.389 170.769 104.157 169.671 103.817C166.997 102.995 164.55 101.565 162.521 99.6395L164.396 99.3803L168.063 98.8696L168.825 96.7275L172.56 98.9534L175.221 100.554Z" fill="white"/>
<path d="M194.72 101.789C194.72 102.776 194.428 103.742 193.879 104.563C193.33 105.384 192.551 106.024 191.638 106.402C190.726 106.78 189.722 106.879 188.753 106.686C187.785 106.493 186.895 106.018 186.197 105.32C185.499 104.621 185.023 103.732 184.83 102.763C184.638 101.794 184.737 100.791 185.114 99.8782C185.492 98.9658 186.132 98.186 186.953 97.6374C187.775 97.0887 188.74 96.7959 189.727 96.7959C191.052 96.7959 192.322 97.322 193.258 98.2583C194.194 99.1947 194.72 100.465 194.72 101.789Z" fill="white"/>
<path d="M193.989 101.789C193.989 102.631 193.739 103.455 193.271 104.156C192.802 104.857 192.137 105.403 191.358 105.725C190.58 106.048 189.723 106.132 188.896 105.968C188.07 105.803 187.31 105.398 186.714 104.802C186.118 104.206 185.713 103.446 185.548 102.62C185.384 101.793 185.468 100.936 185.791 100.158C186.113 99.3792 186.659 98.7137 187.36 98.2455C188.061 97.7773 188.885 97.5273 189.728 97.5273C190.858 97.5273 191.942 97.9763 192.741 98.7754C193.54 99.5746 193.989 100.658 193.989 101.789Z" fill="#263238"/>
<path d="M189.56 104.007L187.288 102.003L187.791 101.431L189.438 102.879L191.603 99.9062L192.22 100.356L189.56 104.007Z" fill="white"/>
<path d="M295.831 254.263C295.831 254.263 291.387 244.574 296.463 235.022C301.54 225.471 303.004 223.222 299.772 221.263C296.54 219.304 295.053 228.886 295.053 228.886C295.053 228.886 292.324 222.277 294.581 215.37C296.837 208.464 298.24 197.205 295.168 195.993C292.096 194.781 294.581 210.034 291.913 215.233C290.553 211.585 289.677 207.774 289.306 203.898C288.932 198.348 289.511 189.483 287.08 187.211C284.648 184.94 283.1 186.51 285.486 198.76C286.921 206.079 287.711 213.509 287.85 220.966C287.85 220.966 282.582 204.897 279.045 204.432C275.508 203.967 275.516 209.165 278.542 213.678C281.568 218.191 287.407 226.279 288.368 230.449C288.368 230.449 282.582 218.359 277.376 222.063C272.169 225.768 281.904 233.071 286.241 235.716C290.579 238.361 293.597 254.895 293.597 254.895L295.831 254.263Z" fill="#407BFF"/>
<path opacity="0.2" d="M295.831 254.263C295.831 254.263 291.387 244.574 296.463 235.022C301.54 225.471 303.004 223.222 299.772 221.263C296.54 219.304 295.053 228.886 295.053 228.886C295.053 228.886 292.324 222.277 294.581 215.37C296.837 208.464 298.24 197.205 295.168 195.993C292.096 194.781 294.581 210.034 291.913 215.233C290.553 211.585 289.677 207.774 289.306 203.898C288.932 198.348 289.511 189.483 287.08 187.211C284.648 184.94 283.1 186.51 285.486 198.76C286.921 206.079 287.711 213.509 287.85 220.966C287.85 220.966 282.582 204.897 279.045 204.432C275.508 203.967 275.516 209.165 278.542 213.678C281.568 218.191 287.407 226.279 288.368 230.449C288.368 230.449 282.582 218.359 277.376 222.063C272.169 225.768 281.904 233.071 286.241 235.716C290.579 238.361 293.597 254.895 293.597 254.895L295.831 254.263Z" fill="black"/>
<path d="M292.324 258.242C292.324 258.242 296.646 248.485 291.455 239.009C286.264 229.534 284.77 227.308 287.987 225.288C291.204 223.268 292.797 232.858 292.797 232.858C292.797 232.858 295.442 226.211 293.109 219.335C290.777 212.459 289.229 201.223 292.286 199.972C295.343 198.722 293.048 214.006 295.77 219.159C297.086 215.492 297.919 211.669 298.247 207.786C298.544 202.229 297.866 193.379 300.267 191.069C302.668 188.759 304.239 190.307 301.998 202.595C300.652 209.947 299.95 217.402 299.901 224.877C299.901 224.877 304.978 208.731 308.508 208.213C312.037 207.694 312.098 212.893 309.125 217.452C306.152 222.01 300.404 230.182 299.497 234.352C299.497 234.352 305.138 222.155 310.383 225.807C315.627 229.458 305.992 236.883 301.685 239.581C297.378 242.28 294.565 258.875 294.565 258.875L292.324 258.242Z" fill="#407BFF"/>
<path d="M312.266 251.282H276.545L279.434 276.85H309.377L312.266 251.282Z" fill="#263238"/>
<path d="M75.5813 259.515L97.5735 257.357V230.296H106.279V257.342L128.332 259.515C129.389 259.617 130.369 260.109 131.083 260.896C131.796 261.682 132.19 262.707 132.189 263.768V267.069H71.7241V263.753C71.7268 262.694 72.123 261.674 72.8358 260.89C73.5486 260.107 74.5272 259.617 75.5813 259.515Z" fill="#263238"/>
<path opacity="0.1" d="M75.5813 259.515L97.5735 257.357V230.296H106.279V257.342L128.332 259.515C129.389 259.617 130.369 260.109 131.083 260.896C131.796 261.682 132.19 262.707 132.189 263.768V267.069H71.7241V263.753C71.7268 262.694 72.123 261.674 72.8358 260.89C73.5486 260.107 74.5272 259.617 75.5813 259.515Z" fill="white"/>
<path d="M130.766 276.77C133.87 276.266 135.978 273.341 135.474 270.236C134.97 267.132 132.045 265.024 128.941 265.528C125.837 266.032 123.729 268.957 124.233 272.061C124.737 275.165 127.662 277.273 130.766 276.77Z" fill="#263238"/>
<path d="M79.6686 272.084C80.1724 268.98 78.0644 266.055 74.9602 265.551C71.8559 265.047 68.9309 267.155 68.427 270.259C67.9231 273.363 70.0312 276.288 73.1354 276.792C76.2397 277.296 79.1647 275.188 79.6686 272.084Z" fill="#263238"/>
<path d="M104.602 236.936H99.1971C98.3621 236.936 97.5613 236.604 96.9709 236.013C96.3805 235.423 96.0488 234.622 96.0488 233.787V209.447H107.75V233.787C107.75 234.622 107.418 235.423 106.828 236.013C106.237 236.604 105.437 236.936 104.602 236.936Z" fill="#263238"/>
<path opacity="0.2" d="M104.602 236.936H99.1971C98.3621 236.936 97.5613 236.604 96.9709 236.013C96.3805 235.423 96.0488 234.622 96.0488 233.787V209.447H107.75V233.787C107.75 234.622 107.418 235.423 106.828 236.013C106.237 236.604 105.437 236.936 104.602 236.936Z" fill="white"/>
<path d="M71.5031 161.713C71.5031 161.713 78.0207 202.427 90.8882 209.44H77.8072C77.8072 209.44 64.8863 195.566 60.9834 161.713H71.5031Z" fill="#263238"/>
<path opacity="0.1" d="M71.5031 161.713C71.5031 161.713 78.0207 202.427 90.8882 209.44H77.8072C77.8072 209.44 64.8863 195.566 60.9834 161.713H71.5031Z" fill="white"/>
<path d="M77.1669 203.685H128.18C129.19 203.685 130.16 204.086 130.875 204.801C131.59 205.516 131.991 206.485 131.991 207.496V212.596H73.3555V207.496C73.3555 206.485 73.757 205.516 74.4718 204.801C75.1866 204.086 76.1561 203.685 77.1669 203.685Z" fill="#407BFF"/>
<path d="M132.898 208.136H72.4409C71.5947 208.136 70.9087 208.822 70.9087 209.668V211.055C70.9087 211.902 71.5947 212.588 72.4409 212.588H132.898C133.745 212.588 134.431 211.902 134.431 211.055V209.668C134.431 208.822 133.745 208.136 132.898 208.136Z" fill="#263238"/>
<path opacity="0.6" d="M132.898 208.136H72.4409C71.5947 208.136 70.9087 208.822 70.9087 209.668V211.055C70.9087 211.902 71.5947 212.588 72.4409 212.588H132.898C133.745 212.588 134.431 211.902 134.431 211.055V209.668C134.431 208.822 133.745 208.136 132.898 208.136Z" fill="white"/>
<path d="M59.3979 169.991H80.361C86.4593 169.991 90.4919 165.066 89.2646 158.991L87.6637 150.88C86.4441 144.782 80.4753 139.888 74.3389 139.888H53.3605C47.2622 139.888 43.2297 144.812 44.457 150.88L46.0806 158.991C47.2622 165.066 53.2614 169.991 59.3979 169.991Z" fill="#407BFF"/>
<path d="M79.1338 129.849H92.4892L93.7165 137.815L81.8399 139.888L79.1338 129.849Z" fill="#407BFF"/>
<path d="M167.819 240.51L163.024 242.386L159.578 235.883L156.445 229.975L161.758 226.789L164.968 234.046L167.819 240.51Z" fill="#E4897B"/>
<path opacity="0.2" d="M164.968 234.046L159.578 235.883L156.445 229.975L161.758 226.789L164.968 234.046Z" fill="black"/>
<path d="M163.977 230.502L157.452 234.024C157.452 234.024 132.807 190.695 129.018 191.054C125.229 191.412 89.2796 214.304 78.3179 205.819C67.3561 197.335 78.0206 171.89 78.0206 171.89C78.0206 171.89 99.441 163.748 101.903 168.726C102.983 170.742 103.945 172.819 104.785 174.946C105.265 176.471 105.631 177.82 105.631 177.82C106.325 177.538 128.721 168.352 138.722 173.246C148.891 178.3 163.977 230.502 163.977 230.502Z" fill="#407BFF"/>
<path opacity="0.3" d="M163.977 230.502L157.452 234.024C157.452 234.024 132.807 190.695 129.018 191.054C125.229 191.412 89.2796 214.304 78.3179 205.819C67.3561 197.335 78.0206 171.89 78.0206 171.89C78.0206 171.89 99.441 163.748 101.903 168.726C102.983 170.742 103.945 172.819 104.785 174.946C105.265 176.471 105.631 177.82 105.631 177.82C106.325 177.538 128.721 168.352 138.722 173.246C148.891 178.3 163.977 230.502 163.977 230.502Z" fill="white"/>
<path d="M128.545 265.834L123.43 265.247L123.408 258.036L123.4 251.412L129.582 251.122L129.033 258.913L128.545 265.834Z" fill="#E4897B"/>
<path opacity="0.2" d="M129.018 259.073L123.393 258.173V251.488L129.575 251.16L129.018 259.073Z" fill="black"/>
<path d="M154.265 231.851L163.809 227.071L164.8 231.111L157.573 234.839L154.265 231.851Z" fill="#263238"/>
<path d="M95.2866 205.91C95.2866 205.91 96.8569 205.735 120.961 201.268C120.961 201.268 121.51 232.102 122.653 255.078L130.078 255.322C130.078 255.322 140.75 204.309 139.477 196.625C138.204 188.941 129.056 187.882 129.056 187.882C129.056 187.882 113.117 200.231 95.2866 205.91Z" fill="#407BFF"/>
<path opacity="0.4" d="M95.2866 205.91C95.2866 205.91 96.8569 205.735 120.961 201.268C120.961 201.268 121.51 232.102 122.653 255.078L130.078 255.322C130.078 255.322 140.75 204.309 139.477 196.625C138.204 188.941 129.056 187.882 129.056 187.882C129.056 187.882 113.117 200.231 95.2866 205.91Z" fill="white"/>
<path opacity="0.3" d="M95.2866 205.91C95.2866 205.91 96.8569 205.735 120.961 201.268C120.961 201.268 121.51 232.102 122.653 255.078L130.078 255.322C130.078 255.322 140.75 204.309 139.477 196.625C138.204 188.941 129.056 187.882 129.056 187.882C129.056 187.882 113.117 200.231 95.2866 205.91Z" fill="black"/>
<path d="M121.258 253.027L131.381 252.791L130.001 256.961L121.784 257.037L121.258 253.027Z" fill="#263238"/>
<path opacity="0.3" d="M105.631 177.843L92.4893 182.523C92.4893 182.523 99.4033 177.362 104.785 174.969C105.265 176.524 105.631 177.843 105.631 177.843Z" fill="black"/>
<path d="M77.1745 170.083L76.9839 173.986L101.614 168.764L101.042 164.457L77.1745 170.083Z" fill="#263238"/>
<path opacity="0.2" d="M77.1745 170.083L76.9839 173.986L101.614 168.764L101.042 164.457L77.1745 170.083Z" fill="black"/>
<path d="M84.6594 167.695L83.4302 167.923L84.5884 174.166L85.8176 173.938L84.6594 167.695Z" fill="#407BFF"/>
<path d="M95.4068 166.11L90.0303 167.321L90.9486 171.396L96.3252 170.185L95.4068 166.11Z" fill="white"/>
<path d="M99.6179 164.01L98.3887 164.238L99.5458 170.482L100.775 170.254L99.6179 164.01Z" fill="#407BFF"/>
<path opacity="0.3" d="M84.6594 167.695L83.4302 167.923L84.5884 174.166L85.8176 173.938L84.6594 167.695Z" fill="white"/>
<path opacity="0.3" d="M99.6179 164.01L98.3887 164.238L99.5458 170.482L100.775 170.254L99.6179 164.01Z" fill="white"/>
<path d="M177.347 249.01C176.546 248.764 175.706 248.668 174.87 248.728C174.87 248.728 171.783 247.44 168.009 241.28L164.815 241.7C164.277 241.781 163.778 242.026 163.384 242.401C162.99 242.776 162.72 243.263 162.612 243.796C162.586 243.945 162.586 244.097 162.612 244.246C162.746 245.02 162.932 245.784 163.169 246.532C163.988 249.007 164.955 251.431 166.065 253.79L166.591 253.576L164.953 248.949C164.404 247.379 166.317 248.705 167.331 250.23C168.345 251.754 169.778 253.225 173.193 251.937C177.164 250.39 178.735 249.566 177.347 249.01Z" fill="#407BFF"/>
<path d="M167.232 239.649C167.232 239.649 172.362 247.432 174.855 248.728C174.855 248.728 172.035 251.015 168.269 247.341C163.405 242.638 162.597 244.246 162.597 244.246C162.554 243.324 162.597 242.4 162.727 241.487C163.131 239.703 167.232 239.649 167.232 239.649Z" fill="#E4897B"/>
<path d="M136.199 274.906C135.477 274.481 134.684 274.189 133.859 274.044C133.859 274.044 131.16 272.055 128.988 265.194L125.786 264.843C125.241 264.793 124.695 264.912 124.221 265.185C123.747 265.458 123.37 265.872 123.141 266.368C123.072 266.505 123.026 266.651 123.004 266.802C122.954 267.579 122.954 268.358 123.004 269.135C123.215 271.731 123.581 274.312 124.101 276.865L124.658 276.781L124.162 271.902C124.002 270.24 125.55 271.986 126.175 273.709C126.8 275.432 127.836 277.2 131.457 276.758C135.688 276.201 137.411 275.775 136.199 274.906Z" fill="#407BFF"/>
<path d="M128.584 263.41C128.584 263.41 131.724 272.191 133.859 274.044C133.859 274.044 130.581 275.568 127.76 271.14C124.147 265.407 122.973 266.787 122.973 266.787C123.145 265.881 123.4 264.993 123.735 264.134C124.589 262.487 128.584 263.41 128.584 263.41Z" fill="#E4897B"/>
<path d="M90.9187 102.909C90.9187 102.909 78.8821 97.0624 74.9106 109.655C70.939 122.249 76.0312 130.939 76.0312 130.939C76.0312 130.939 89.9583 127.371 101.682 129.864C101.682 129.864 99.1515 119.131 99.7613 112.971C100.371 106.812 90.9187 102.909 90.9187 102.909Z" fill="#263238"/>
<path d="M100.31 131.411C102.955 131.525 114.031 146.413 114.031 146.413L118.148 141.077C118.148 141.077 124.49 153.403 121.349 159.273C118.209 165.143 101.667 149.104 101.667 149.104L100.31 131.411Z" fill="#407BFF"/>
<path opacity="0.6" d="M100.303 131.411L101.385 143.311L101.66 149.112C101.66 149.112 104.381 151.749 107.819 154.493C112.873 158.526 119.474 162.78 121.342 159.288C124.483 153.426 118.133 141.092 118.133 141.092L114.024 146.428V146.383C113.384 145.468 102.864 131.525 100.303 131.411Z" fill="white"/>
<path opacity="0.2" d="M101.385 143.311L101.66 149.112C101.66 149.112 104.381 151.749 107.819 154.493C108.147 147.526 101.66 137.38 101.66 137.38L101.385 143.311Z" fill="black"/>
<path opacity="0.2" d="M114.039 146.414L113.444 147.549L115.167 154.258C115.167 154.258 110.41 149.928 113.444 145.689L114.039 146.414Z" fill="black"/>
<path d="M101.698 144.691C101.698 144.874 101.698 145.064 101.698 145.255C101.698 146.078 101.698 146.947 101.644 147.869C101.644 147.946 101.644 148.022 101.644 148.106C101.644 148.601 101.644 149.112 101.644 149.63C101.644 149.722 101.644 149.806 101.644 149.897C101.644 150.659 101.591 151.422 101.56 152.184C101.56 152.291 101.56 152.397 101.56 152.504C101.56 153.541 101.476 154.631 101.423 155.782C101.301 158.366 101.156 161.232 100.973 164.411L100.63 164.495L77.3423 170.014H77.2508C77.2508 170.014 78.1884 157.558 76.58 150.507C76.5683 150.445 76.5531 150.384 76.5342 150.324C76.5342 150.217 76.4885 150.111 76.458 150.004C76.4275 149.897 76.3513 149.607 76.3055 149.402C76.2598 149.196 76.1988 148.99 76.1378 148.777C75.932 148.014 75.711 147.252 75.4746 146.413C75.3222 145.865 75.1545 145.301 74.9791 144.721L74.8877 144.432C74.6819 143.745 74.4608 143.037 74.2321 142.305C74.1635 142.091 74.1025 141.885 74.0339 141.664C73.6985 140.62 73.3402 139.515 72.9514 138.356C72.5246 137.05 72.057 135.665 71.5488 134.202C74.2195 133.35 76.9412 132.668 79.6977 132.159L80.8793 131.945L82.1295 131.739C84.2181 131.404 86.3297 131.168 88.4412 131.015C89.2899 130.954 90.1361 130.908 90.9797 130.878C91.4904 130.878 92.0164 130.878 92.5043 130.878H92.7177L94.2423 130.924H94.9512H95.401H95.8889L96.6512 130.969H97.2305L98.2748 131.038L98.6865 131.076H99.0524H99.3878H99.6622L100.325 131.137C100.325 131.137 100.325 131.137 100.386 131.137L100.44 131.19C100.491 131.251 100.534 131.318 100.569 131.389C100.804 131.885 100.97 132.411 101.065 132.951C101.065 133.104 101.126 133.272 101.164 133.454C101.202 133.637 101.255 134.026 101.309 134.362C101.362 134.697 101.377 134.849 101.408 135.124C101.438 135.398 101.461 135.619 101.484 135.886C101.71 138.815 101.781 141.754 101.698 144.691Z" fill="#263238"/>
<path d="M89.0511 135.924C83.5016 135.215 81.8398 132.837 81.8398 132.837C84.1267 130.703 83.6922 127.554 83.1129 125.588C82.9385 124.964 82.7089 124.357 82.4268 123.773L89.1045 125.024C88.9492 125.951 88.8626 126.889 88.8453 127.829C88.8202 128.523 88.8843 129.217 89.0359 129.895C89.4856 131.892 90.6215 131.922 90.6215 131.922C91.7954 134.11 89.0511 135.924 89.0511 135.924Z" fill="#E4897B"/>
<path opacity="0.2" d="M88.8453 127.829C88.8202 128.523 88.8842 129.217 89.0358 129.895C86.3831 129.552 84.3782 127.425 83.1128 125.588C82.9385 124.964 82.7089 124.357 82.4268 123.773L89.1045 125.024C88.9492 125.951 88.8625 126.889 88.8453 127.829Z" fill="black"/>
<path d="M90.6215 106.294C96.7656 107.544 98.0691 111.241 97.2306 117.66C96.1786 125.687 93.2819 130.947 85.941 127.692C75.9855 123.27 80.422 104.213 90.6215 106.294Z" fill="#E4897B"/>
<path d="M93.3277 116.509C93.6337 117.527 94.0612 118.505 94.6007 119.421C94.3682 119.636 94.081 119.783 93.7704 119.846C93.4599 119.91 93.138 119.886 92.8398 119.779L93.3277 116.509Z" fill="#DE5753"/>
<path d="M87.6637 111.645C87.6231 111.645 87.583 111.636 87.5462 111.619C87.5093 111.602 87.4766 111.577 87.4503 111.546C87.4237 111.521 87.4026 111.491 87.3881 111.457C87.3737 111.424 87.3662 111.388 87.3662 111.351C87.3662 111.315 87.3737 111.279 87.3881 111.246C87.4026 111.212 87.4237 111.182 87.4503 111.157C87.8994 110.845 88.4156 110.643 88.9573 110.568C89.4989 110.492 90.0507 110.545 90.568 110.723C90.6021 110.735 90.6334 110.753 90.6603 110.777C90.6871 110.801 90.7089 110.831 90.7245 110.863C90.7401 110.896 90.7491 110.931 90.751 110.967C90.7529 111.003 90.7478 111.039 90.7357 111.073C90.7237 111.107 90.7051 111.139 90.681 111.165C90.6569 111.192 90.6277 111.214 90.5952 111.23C90.5626 111.245 90.5273 111.254 90.4912 111.256C90.4552 111.258 90.4191 111.253 90.3851 111.241C89.9558 111.103 89.5013 111.063 89.0545 111.122C88.6077 111.182 88.1795 111.339 87.8009 111.584C87.761 111.615 87.7138 111.636 87.6637 111.645Z" fill="#263238"/>
<path d="M97.3373 112.918C97.2652 112.916 97.1967 112.886 97.1467 112.834C96.8847 112.534 96.5596 112.294 96.1947 112.134C95.8297 111.973 95.4338 111.895 95.0351 111.904C94.9995 111.911 94.9629 111.91 94.9276 111.902C94.8922 111.894 94.8589 111.879 94.8297 111.857C94.8005 111.836 94.7759 111.809 94.7575 111.777C94.739 111.746 94.7272 111.712 94.7226 111.676C94.7161 111.64 94.7169 111.603 94.725 111.568C94.7331 111.533 94.7483 111.499 94.7697 111.47C94.7911 111.441 94.8183 111.416 94.8495 111.398C94.8807 111.38 94.9153 111.368 94.9513 111.363C95.4361 111.334 95.9211 111.417 96.3691 111.604C96.817 111.792 97.216 112.08 97.5355 112.446C97.561 112.471 97.5813 112.501 97.5952 112.535C97.609 112.568 97.6162 112.604 97.6162 112.64C97.6162 112.676 97.609 112.712 97.5952 112.745C97.5813 112.779 97.561 112.809 97.5355 112.834C97.4826 112.887 97.4116 112.917 97.3373 112.918Z" fill="#263238"/>
<path d="M81.8019 115.273C81.8019 115.273 85.7049 110.814 86.0632 106.827C86.0632 106.827 99.2432 104.342 97.3299 116.821C97.3299 116.821 100.753 106.088 90.2481 103.694C79.7437 101.301 76.6336 116.752 81.1464 122.462C81.1464 122.462 79.3778 118.071 81.8019 115.273Z" fill="#263238"/>
<path d="M82.5409 116.775C82.5835 116.418 82.5552 116.055 82.4575 115.708C82.3599 115.361 82.1949 115.037 81.9719 114.753C81.7489 114.47 81.4723 114.234 81.158 114.058C80.8436 113.881 80.4976 113.769 80.1397 113.726C78.1959 113.543 76.4883 117.263 81.0316 119.169C81.6872 119.443 82.2055 118.856 82.5409 116.775Z" fill="#E4897B"/>
<path d="M92.6642 121.623C92.1419 122.185 91.6604 122.784 91.2235 123.415L90.8576 123.232C89.211 122.424 88.7155 121.509 88.6621 120.739C88.6488 120.359 88.7245 119.98 88.8832 119.634C88.967 119.437 89.0773 119.252 89.211 119.085C90.0003 120.047 90.9885 120.827 92.1077 121.372C92.4507 121.524 92.6642 121.623 92.6642 121.623Z" fill="#263238"/>
<path d="M92.1078 121.341L91.6733 121.86C90.1487 121.097 89.1349 120.335 88.8833 119.634C88.9671 119.437 89.0774 119.252 89.2111 119.085C90.0036 120.036 90.9915 120.806 92.1078 121.341Z" fill="white"/>
<path d="M90.8575 123.232C89.211 122.424 88.7155 121.509 88.6621 120.739C89.2866 121.052 89.8475 121.479 90.3163 121.997C90.6231 122.341 90.8126 122.773 90.8575 123.232Z" fill="#DE5753"/>
<path d="M90.4003 106.72C90.4003 106.72 85.8265 116.325 79.53 114.9C73.2334 113.474 85.6283 102.703 85.6283 102.703C85.6283 102.703 96.8112 100.881 100.806 107.483C104.8 114.084 97.3295 116.859 97.3295 116.859C97.3295 116.859 99.3115 109.068 90.4003 106.72Z" fill="#263238"/>
<path d="M84.3022 114.641C84.2603 114.639 84.22 114.624 84.1871 114.598C84.1543 114.572 84.1305 114.536 84.1192 114.496C84.1124 114.472 84.1106 114.447 84.1139 114.422C84.1172 114.397 84.1255 114.373 84.1384 114.352C84.1512 114.33 84.1683 114.312 84.1887 114.297C84.209 114.283 84.232 114.272 84.2565 114.267C89.5925 112.918 90.2938 106.05 90.3014 105.981C90.3072 105.932 90.3319 105.887 90.3703 105.855C90.4088 105.824 90.4579 105.809 90.5073 105.813C90.5324 105.814 90.5572 105.82 90.5798 105.831C90.6024 105.842 90.6223 105.858 90.6382 105.878C90.6542 105.897 90.6657 105.92 90.672 105.944C90.6783 105.969 90.6794 105.994 90.675 106.019C90.675 106.088 89.9127 113.223 84.3479 114.633L84.3022 114.641Z" fill="#263238"/>
<path d="M89.7374 115.571C89.7374 116.059 89.4401 116.44 89.1199 116.432C88.7997 116.424 88.5405 116.013 88.5634 115.525C88.5863 115.037 88.8607 114.648 89.1885 114.664C89.5163 114.679 89.7602 115.106 89.7374 115.571Z" fill="#263238"/>
<path d="M89.0513 114.679L90.1261 114.306C90.1261 114.306 89.562 115.182 89.0513 114.679Z" fill="#263238"/>
<path d="M95.8053 115.708C95.8053 116.195 95.5003 116.584 95.1802 116.569C94.86 116.554 94.6085 116.15 94.6237 115.662C94.639 115.174 94.921 114.793 95.2488 114.808C95.5766 114.823 95.8205 115.22 95.8053 115.708Z" fill="#263238"/>
<path d="M95.1113 114.824L96.1862 114.45C96.1862 114.45 95.6221 115.319 95.1113 114.824Z" fill="#263238"/>
<path d="M104.343 141.238C104.331 141.319 104.338 141.402 104.363 141.481C104.387 141.559 104.428 141.632 104.483 141.693C104.538 141.754 104.606 141.802 104.682 141.834C104.758 141.866 104.84 141.881 104.922 141.878H111.295C111.471 141.871 111.639 141.804 111.771 141.687C111.903 141.57 111.991 141.412 112.019 141.238L113.437 128.66C113.456 128.571 113.455 128.48 113.436 128.392C113.416 128.304 113.378 128.221 113.324 128.149C113.27 128.077 113.201 128.017 113.122 127.973C113.043 127.93 112.955 127.904 112.865 127.897H106.492C106.302 127.92 106.125 128.009 105.993 128.148C105.86 128.287 105.781 128.468 105.768 128.66L104.343 141.238Z" fill="#263238"/>
<path opacity="0.5" d="M106.477 128.576L105.029 141.275C105.011 141.35 105.011 141.427 105.028 141.501C105.045 141.576 105.08 141.645 105.129 141.703C105.178 141.762 105.24 141.808 105.31 141.839C105.38 141.869 105.456 141.882 105.532 141.878H110.937C111.303 141.878 111.966 141.68 112.004 141.321L113.452 128.576C113.452 128.217 112.873 127.928 112.507 127.928H107.102C106.935 127.936 106.777 128.007 106.661 128.127C106.545 128.248 106.479 128.408 106.477 128.576Z" fill="white"/>
<path d="M117.698 142.289L114.375 136.648C114.401 135.422 114.306 134.197 114.093 132.989C113.803 132.288 110.548 130.702 109.908 130.946C109.267 131.19 109.039 136.999 109.618 137.807C110.197 138.615 112.233 139.461 112.233 139.461L112.095 140.566L114.039 146.436L117.698 142.289Z" fill="#E4897B"/>
<path d="M119.032 141.649L117.934 140.544L112.697 146.414L113.444 148.739L119.032 141.649Z" fill="#407BFF"/>
<path d="M92.4889 129.849L91.8257 132.288L93.1749 134.27L96.1631 162.139L104.343 160.935C103.778 139.217 103.58 139.103 100.424 131.289L93.0987 130.779L92.4889 129.849Z" fill="#407BFF"/>
<path opacity="0.6" d="M92.4889 129.849L91.8257 132.288L93.1749 134.27L96.1631 162.139L104.343 160.935C103.778 139.217 103.58 139.103 100.424 131.289L93.0987 130.779L92.4889 129.849Z" fill="white"/>
<path d="M79.1339 129.849L86.3985 132.898L84.6148 135.947L86.3757 164.48L75.3682 167.704C75.3682 167.704 67.3793 146.741 71.4728 134.3L78.6841 132.219L79.1339 129.849Z" fill="#407BFF"/>
<path opacity="0.6" d="M86.0936 159.936L86.3756 164.457L81.4665 165.89L75.3681 167.674C73.1149 161.474 71.5405 155.049 70.6724 148.51C70.0854 143.547 70.1007 138.432 71.4728 134.27L78.6841 132.189L79.1338 129.849L86.3985 132.898L84.6147 135.947L85.316 147.275L86.0936 159.936Z" fill="white"/>
<path opacity="0.2" d="M92.5349 151.025C92.5349 151.025 89.7983 155.011 86.0936 159.936C84.6605 161.842 83.0444 163.885 81.4664 165.889L75.3681 167.673C73.1149 161.474 71.5405 155.048 70.6724 148.509C73.6606 145.513 77.3196 141.885 77.3196 141.885C77.3196 141.885 78.9966 147.068 78.2572 151.574L85.316 147.251L87.5114 145.91L92.5349 151.025Z" fill="black"/>
<path d="M86.5737 147.808L94.1281 141.878C94.5656 140.595 95.1034 139.349 95.7365 138.15C96.1939 137.594 102.818 135.154 103.359 135.101C103.901 135.048 103.359 140.529 102.529 141.459C101.698 142.389 96.3692 144.233 96.3692 144.233L88.4718 151.696L86.5737 147.808Z" fill="#E4897B"/>
<path d="M71.4728 134.27C67.0363 136.495 65.0619 161.544 72.7687 165.867C80.4755 170.189 91.9785 150.621 91.9785 150.621L87.5038 145.872C87.5038 145.872 78.1276 153.723 76.9994 152.999C75.8712 152.275 77.1519 144.614 77.1519 144.614C77.1519 144.614 78.4707 142.327 75.6959 138.645C72.9212 134.963 71.4728 134.27 71.4728 134.27Z" fill="#407BFF"/>
<path opacity="0.6" d="M71.4728 134.27C67.0363 136.495 65.0619 161.544 72.7687 165.867C80.4755 170.189 91.9785 150.621 91.9785 150.621L87.5038 145.872C87.5038 145.872 78.1276 153.723 76.9994 152.999C75.8712 152.275 77.1519 144.614 77.1519 144.614C77.1519 144.614 78.4707 142.327 75.6959 138.645C72.9212 134.963 71.4728 134.27 71.4728 134.27Z" fill="white"/>
<path d="M92.0623 152.39L93.4039 151.582L88.3804 144.218L86.5356 145.247L92.0623 152.39Z" fill="#407BFF"/>
</svg>
